<svg id="Layer_1" data-name="Layer 1" xmlns="http://www.w3.org/2000/svg" viewBox="0 0 400 400"><defs><style>.cls-1{fill:#192863;}.cls-2{fill:none;}.cls-3{fill:#e20c10;}</style></defs><title>Artboard 1</title><polygon class="cls-1" points="572 482 -148 482 -148 75 -4 111 75 76 328.54 75 403 107 572 75 572 482"/><rect class="cls-2" x="-18" y="-68" width="434" height="144"/><path d="M151.69,348.13a4.62,4.62,0,0,0-1.32-.22c-3.44.66-6.91,1.21-10.29,2.1A118.7,118.7,0,0,0,127,354.07a25.45,25.45,0,0,1-13.25,1.62c-2-.28-3.49-3.33-3.25-6.33.18-2.25.49-4.49.79-6.73.53-3.93,1-7.88,1.7-11.77s1.74-7.53,2.65-11.29c.57-2.34,1.18-4.67,1.76-7,1.23-5,2.35-10,3.72-14.94,1.32-4.78,2.92-9.48,4.33-14.23.74-2.46,1.4-4.95,2-7.45.82-3.5,1.55-7,2.31-10.52.51-2.35,1.06-4.69,1.52-7.05a11,11,0,0,0,0-2.07c-3,.54-5.74,1.18-8.54,1.52a56.69,56.69,0,0,1-8.91.53c-3.41-.15-6.46-1.51-7.81-4.93-1.52-3.82-4.42-6.1-7.75-8.17-3.16-2-6.32-4.05-7.76-7.79a11.72,11.72,0,0,1-1.12-3,66.24,66.24,0,0,1,1.67-20.42A76.63,76.63,0,0,0,92.6,203.4c.43-4.85-2.88-8-6.79-10.27a116.67,116.67,0,0,1-12.34-7.73c-4.92-3.79-5.38-11.21-3.43-16a39.88,39.88,0,0,1,6.51-10.63,75.67,75.67,0,0,1,10.37-10.27c6.24-5,12.73-9.75,19.36-14.24,3.24-2.19,7-3.66,10.6-5.28,4.26-1.92,8.61-3.63,12.91-5.45a8.78,8.78,0,0,0,1.3-.93c-3.7-2.33-7.26-4.44-10.68-6.76-5.82-3.94-11.66-7.86-17.29-12.06-6.85-5.13-13.5-10.52-20.22-15.83a29.59,29.59,0,0,1-4.57-4c-1.58-1.89-3.22-1.56-5-.77-4.89,2.15-9.78,4.3-14.65,6.51-6.06,2.76-12.07,5.62-18.14,8.36-4.1,1.86-8.28,3.53-12.39,5.38S20,107.23,16,109.07c-3.75,1.7-7.47,3.51-11.35,4.82-.78.26-2.35-1.43-3.37-2.42-.41-.4-.3-1.32-.45-2.11,4.37-1.91,8.69-3.79,13-5.7,3.67-1.63,7.33-3.29,11-4.92,4.85-2.17,9.72-4.3,14.57-6.48,6-2.71,12-5.48,18-8.15,4-1.79,8.11-3.52,12.21-5.15,3.34-1.33,6.11-3.21,7.83-6.49A10.53,10.53,0,0,1,79.5,70c4.09-4,9-6.61,14.07-9.26,8.28-4.37,17.09-7.88,24.49-13.83,1.8-1.46,2.16-3.49,2.34-5.65.2-2.45.52-4.91.9-7.34.57-3.6,3.49-5.28,6.13-7.07,4.77-3.23,10.31-3.07,15.65-2.73,7.35.46,14.72,1.21,21.78,3.58a14.43,14.43,0,0,0,1.64.18c5.19,1,10.38,2.1,15.57,3.12,1.46.29,3,.38,4.42.68a71,71,0,0,0,25.95.34q10.32-1.7,20.58-3.78c4.86-1,9.6-2.59,14.49-3.3a127.64,127.64,0,0,1,18.3-1.54c7.07,0,12.56,3.71,16.32,9.56a116,116,0,0,1,6.34,12.11c2.62,5.39,6.33,9.72,11.79,12.26,4.52,2.1,9.24,3.79,13.79,5.84,5.23,2.36,10.38,4.83,13.09,10.47.49,1,1.9,1.77,3,2.29,4.84,2.23,9.73,4.32,14.6,6.45,3.21,1.4,6.42,2.76,9.62,4.16,6.37,2.79,12.71,5.62,19.09,8.37,3.47,1.5,7,2.82,10.51,4.28,4.49,1.87,9,3.76,13.42,5.73,1.84.82,2.29,2.37,1.27,4s-2,1.28-3.56.51c-3.38-1.69-7-2.94-10.47-4.4q-4.92-2.07-9.8-4.22c-3.46-1.51-6.9-3.07-10.36-4.6-6.2-2.76-12.38-5.57-18.61-8.25-3.69-1.58-7.48-2.92-11.19-4.46-2-.83-3.88-1.92-5.87-2.76-1.49-.63-2.72-1-4.31.64a126.94,126.94,0,0,1-10.18,9c-4,3.44-8.11,6.86-12.25,10.19-3.38,2.7-6.82,5.33-10.34,7.85-4.81,3.45-9.7,6.78-14.58,10.12-1.3.89-2.7,1.65-4.36,2.65,2.79,1.27,5.15,2.31,7.49,3.4,5.74,2.67,11.71,4.94,17.13,8.15a163.53,163.53,0,0,1,17.12,12.07,88.14,88.14,0,0,1,11.64,10.7c4.47,5,8.39,10.5,8.32,17.83a11.38,11.38,0,0,1-4.46,9.05c-3.58,2.86-7.67,5.1-11.58,7.54s-7.18,5.6-6.59,10.82c.33,2.92,1.08,5.79,1.62,8.68.39,2.08.88,4.15,1.1,6.25.39,3.67.51,7.36.92,11,.67,6.15-2,10.6-6.82,14-2.08,1.47-4.15,3-6.1,4.61a6.13,6.13,0,0,0-2.08,2.77c-1.47,5.82-5.85,7.77-11,7.72-4.3,0-8.6-1.19-12.89-1.88a31.71,31.71,0,0,1-5.52-1.08c-4.28-1.52-8.52-3.2-12.7-5a15.16,15.16,0,0,1-3.11-2.4l-.53.44c1.19,4,2.43,8,3.54,12,2,7.05,3.69,14.17,5.75,21.2,1.57,5.35,3.49,10.59,5.24,15.89,2.39,7.21,4.81,14.41,7.11,21.64,1.76,5.52,3.25,11.12,5.05,16.62,2.45,7.49,5.12,14.91,7.64,22.38a72.36,72.36,0,0,0,7.6,16.14,7.48,7.48,0,0,1,.82,2.44c.9,4,.3,4.83-3.78,4.77-2.1,0-4.21-.51-6.29-.35a24,24,0,0,0-5.86,1.37c-6.08,2.1-12.16,4.2-18.16,6.52s-11.75,4.21-18.15,4.21a8.25,8.25,0,0,1-6.17-2.76,6.09,6.09,0,0,1-.88-7.27c.71-1.34,1.2-2.81,2-4.7l-10.71,6.18c-3.28,1.89-6.66,3.63-9.84,5.69a52.37,52.37,0,0,0-6.46,5.16c-2.94,2.66-6.14,4.48-10.24,4.32-3.47-.14-5-1.06-5.68-4.41-1.29-6.11-2.37-12.27-3.44-18.42-.7-4.08-1.18-8.19-1.94-12.25-.1-.53-1.29-1.23-2-1.22-4.94.08-9.89.19-14.81.55a92.75,92.75,0,0,1-19.21-.45,9.15,9.15,0,0,1-6.76-4.46c-1.55-2.65,0-5.25,1.7-7.5C151.06,348.89,151.29,348.63,151.69,348.13ZM264.66,31c1.85,2.17,4.07,3.75,4.85,5.86a25.73,25.73,0,0,1,.57,15.53A59.11,59.11,0,0,1,262,70.54c-3.31,4.91-6.67,9.81-10.36,14.43a87.43,87.43,0,0,1-9,9.38c-2.92,2.72-6.14,5.11-9.24,7.63-2.58,2.1-5.19,4.18-8.31,6.7,1.31.27,1.94.43,2.58.54,4.54.75,9.12,1.3,13.61,2.29,3.54.78,7,2.11,10.43,3.18s6.66,2.08,10,3.07c1.51.45,3.43,1.55,4.51,1a108.78,108.78,0,0,0,11.33-6.71c3.61-2.34,7.11-4.86,10.6-7.38,3.78-2.73,7.58-5.46,11.23-8.37s7.05-5.92,10.5-9c3.87-3.4,7.64-6.91,11.51-10.31,1.27-1.12,1-2,0-3.11-3-3.47-7.07-5.13-11.08-6.93-3.79-1.71-7.64-3.3-11.44-5-2-.88-3.89-1.86-5.48-2.63-.3,4.25-.73,8.31-.85,12.39-.16,5.44-3.24,9.22-7,12.56a87.48,87.48,0,0,1-7.6,5.6q-7.23,5.19-14.5,10.32c-2.3,1.63-4.65,3.2-7,4.79l.31.61c2.07-.93,4.11-1.94,6.23-2.74.66-.25,2-.19,2.23.2.63,1.11.53,2.19-1.16,2.61-1.09.27-2,1.13-3.1,1.52a90.49,90.49,0,0,1-8.62,2.84,1.76,1.76,0,0,1-2.07-2.67,20.71,20.71,0,0,1,4.49-5.1c2.57-2,5.59-3.3,8.26-5.13,6.06-4.16,12.14-8.31,18-12.77a24.65,24.65,0,0,0,7.58-8.84c1.77-3.69,1.4-7.48,1.24-11.28-.16-4.15-.74-8.24-2.86-12-1.76-3.08-3.35-6.27-5.14-9.34a78.68,78.68,0,0,0-6-9.51c-1.83-2.32-4.18-4.59-7.45-4.71-4.17-.15-8.25-1-12.54,0-7.53,1.78-15.21,2.92-22.82,4.31-1.47.27-3,.34-4.41.72A139.55,139.55,0,0,1,203.52,38c-6.59.47-13.05-.54-19.47-1.93-4.11-.89-8.26-1.55-12.4-2.3-7.49-1.37-15-2.83-22.5-4-3.08-.48-6.31-.05-9.38-.57-3.52-.61-6.55.67-9.33,2.19a7.61,7.61,0,0,0-4.27,7.66,29.84,29.84,0,0,1-.25,5.16c-.23,2.76-1,5.56-.7,8.26a53,53,0,0,0,4.57,17.11c2.49,5.36,4.89,10.72,9.66,14.79-.95-3.15-1.85-6.12-2.89-9.53,2.57.15,3.79.71,4.23,2.68a21.88,21.88,0,0,0,1.47,3.61c2.15,5,6.94,7.49,10.47,11.17a113.21,113.21,0,0,1,8.56,10.24c1.22,1.6.52,2.83-1.42,3.22a8.13,8.13,0,0,1-7.89-2.42c-2-2-3.75-4.26-5.71-6.31-6.15-6.42-12.66-12.54-17-20.5a55.81,55.81,0,0,1-6.11-16.39c-.51-2.79-1.15-5.55-1.79-8.58-2,1.35-3.67,2.66-5.5,3.64-7.64,4.1-15.45,7.89-23,12.22-3.9,2.25-7.34,5.31-10.87,8.15-1.64,1.32-1.53,2.92.16,4.29,7.59,6.21,15,12.58,22.81,18.57,5.5,4.24,11.37,8,17.11,11.93,3.3,2.25,6.75,4.31,10,6.64a11.41,11.41,0,0,0,11.66,1.5c3.5-1.41,7.09-2.63,10.69-3.77,6.82-2.18,13.67-4.23,20.51-6.37a21.89,21.89,0,0,0,2.48-1.17c-1-.77-1.59-1.26-2.22-1.65a21.87,21.87,0,0,1-2.25-1.21c-7.84-6.32-15.66-12.62-22.41-20.21a86,86,0,0,1-16.57-27c-2-5.36-3.1-11.09-1.69-16.89.78-3.25,2.17-6.14,5.58-7.42A6.45,6.45,0,0,1,139.45,34c.82,1.25,1.69,2.7.36,4-2.27,2.23-2.77,4.91-2.57,7.91.4,6.27,2.88,11.91,5.49,17.46,1.18,2.53,2.61,5.16,5.5,6.27,5.85,2.25,11.58,5,17.62,6.51a106.91,106.91,0,0,0,21.47,3.23c10,.38,20.14-.1,30.18-.67a89.23,89.23,0,0,0,20.37-3.27C244,73.66,250,71.69,255.26,68c2.85-2,5.57-4,6.57-7.77,1.09-4.11,3-8,3.84-12.16.61-3.1.9-6.55-1.4-9.44-.73-.93-1.76-2.1-1.69-3.09C262.68,34.22,263.72,33,264.66,31Zm-34,93.3c-.44.69-.84,1.06-.92,1.48a16.52,16.52,0,0,1-4,8c-.27.31.06,1.69.51,2,2.49,1.8,5.08,3.47,7.68,5.1,3.68,2.32,7.46,4.46,11.06,6.87a115.2,115.2,0,0,1,9.87,7.24c1.85,1.55,3.18,3.7,4.82,5.52,3.13,3.47,6.4,6.83,9.46,10.37,3.66,4.23,7.23,8.56,10.72,12.95a62.77,62.77,0,0,1,3.61,5.71c-4.08,1-7.29-.26-10.09-1.67-6.9-3.47-13.16-7.94-17.25-14.76-.54-.9-.85-2.8-.34-3.3,1.37-1.36,2,.53,2.85,1.25a1.69,1.69,0,0,1,.44.52c3,5.77,8.17,9.24,13.48,12.52a33,33,0,0,0,4.06,1.82l.51-.61c-.7-.83-1.36-1.68-2.09-2.49-2.26-2.51-4.63-4.94-6.8-7.53-4-4.77-7.77-9.73-11.86-14.4-5-5.69-11.52-9.41-17.77-13.47-4.43-2.89-8.92-5.69-13.35-8.58-1.8-1.17-3.16-.84-4.09,1.1-.23.48-.67.87-.87,1.36-.95,2.36-1.73,4.78-.26,7.19,1.63,2.68,3.5,5.21,5,7.93,3.51,6.24,7,12.49,10.26,18.87a51.84,51.84,0,0,1,4.94,17.94c1,8.84,1.44,17.76,5.5,25.94,2.76,5.52,5.32,11.15,8.31,16.55a21.67,21.67,0,0,0,5.17,6.08c4.83,4,10.72,5.73,16.74,7a43.81,43.81,0,0,0,5.33.86c3.47.29,7,.57,10.44.6a3.13,3.13,0,0,0,3.29-2.38c.56-1.72,1.85-3.18,2.6-4.86a2.41,2.41,0,0,0-.37-2,46,46,0,0,0-4.31-4.83c-4.17-3.92-8.41-7.77-12.67-11.59a51.22,51.22,0,0,1-12-16.58c-.51-1.07-.67-3.42-.2-3.67,2.07-1.07,2.53,1.21,3.28,2.35,2.53,3.87,4.51,8.14,7.37,11.72s6.51,6.43,9.81,9.61c2.42,2.33,5,4.56,7.22,7,3.17,3.49,5,6.28,9.66,1.94a18.18,18.18,0,0,0,4.07-4.67c2-3.94,1.13-8.26.69-12.39-.38-3.47-1.41-6.86-2.09-10.31a42.22,42.22,0,0,1-1.07-12,12.13,12.13,0,0,1,5.36-9.52c4-2.74,7.92-5.69,12.16-8a9.08,9.08,0,0,0,5-8c.14-2.59-1.28-4.88-2.49-6.74-1.21,1.47-2.1,3.6-3.33,3.82-2.78.49-6,.75-8.54-.19-6.51-2.37-12.78-5.38-19.09-8.26-3.29-1.5-6.47-3.24-9.66-5s-6.63-3.64-9.94-5.46c-5.28-2.91-10.56-5.79-15.83-8.7-4.87-2.69-9.71-5.41-14.58-8.1-2.9-1.6-5.86-3.09-8.72-4.77C235.13,127.41,233,125.88,230.66,124.33Zm11.05,244.45c-.39-1.65-.66-3.14-1.1-4.59-2.33-7.83-4.76-15.64-7-23.48-1.1-3.81-2-7.68-2.89-11.55-1.94-8.7-4-17.39-5.64-26.15-1.34-7.1-2.3-14.29-3.24-21.46-1.37-10.47-2.78-20.95-3.78-31.46-1.33-14-2.56-28-3.32-42-.88-16.3-1.23-32.62-1.73-48.93-.05-1.73-.48-2.31-2.28-2.21a76.32,76.32,0,0,1-11.51.16c-1.91-.18-2.5.53-2.81,1.84a54.82,54.82,0,0,0-1.45,8c-.83,10.2-1.42,20.42-2.27,30.62-.65,7.76-1.69,15.49-2.31,23.26a178.79,178.79,0,0,0-.93,20.15c.28,8.18,1.44,16.33,2.16,24.5,1.13,12.69,2.29,25.37,3.28,38.07.5,6.49.76,13,1,19.51.63,18.7.94,37.43,4.33,55.92.62,3.39,1,6.83,1.58,10.22.37,2.11,1.84,3.24,3.33,2.6a18.58,18.58,0,0,0,3.6-2.16c3.36-2.54,6.47-5.5,10-7.69C226.3,377.36,234.12,373.11,241.71,368.78ZM217.21,158l-.71.08a41.33,41.33,0,0,0-.29,4.15c.33,10.37.72,20.74,1.09,31.12.22,6.25.26,12.52.7,18.75.74,10.32,1.6,20.63,2.66,30.91,1,9.48,2.23,18.94,3.48,28.39,1.15,8.76,2.37,17.51,3.72,26.24.89,5.76,1.93,11.5,3.18,17.2,1.46,6.69,3.16,13.33,4.88,20s3.54,12.92,5.31,19.38c1.28,4.66,2.52,9.32,3.82,14a8.1,8.1,0,0,0,1,2,6.47,6.47,0,0,1-.17,7.64,25.25,25.25,0,0,0-2.29,4.29c-.47,1.17-.24,2,1.2,2.77,2.24,1.18,4,.28,6-.38,6.92-2.27,13.92-4.31,20.77-6.78,5.68-2,11.27-4.19,17.44-4,.57,0,1.56-.22,1.63-.52a3,3,0,0,0-.42-1.9,65,65,0,0,1-3.33-6.27c-2.08-5.41-3.95-10.91-5.84-16.39-1.95-5.64-3.89-11.28-5.73-17-1.78-5.51-3.39-11.08-5.12-16.62S266.73,304,265,298.46c-1.32-4.08-2.69-8.15-4-12.24-1.91-6.05-3.86-12.09-5.65-18.18-1.93-6.62-3.36-13.4-5.63-19.89s-5.18-12.42-7.84-18.6c-.76-1.78-1.58-3.53-2.34-5.31-2.75-6.46-5.64-12.87-8.16-19.42-1.75-4.55-3-9.3-4.43-14-2-6.71-3.94-13.45-5.93-20.18C219.74,166.44,218.47,162.24,217.21,158Zm-92.84,14.15a31.19,31.19,0,0,1,2.77-3.27,52.55,52.55,0,0,1,5.09-4.08,18.52,18.52,0,0,1,11.17-3.56c1.51,0,2,.83,1.48,2.13a17.85,17.85,0,0,1-6.55,8q-8.39,5.61-16.81,11.13a69.56,69.56,0,0,0-17.15,15.2c-3.77,4.84-6.69,9.93-7.73,15.85a168.82,168.82,0,0,0-1.72,17,8.42,8.42,0,0,0,3.3,7.65c1.79,1.37,3.59,2.73,5.42,4s3.19.74,4.18-1.25a44.54,44.54,0,0,1,4.43-7.27c3.49-4.62,7.32-9,10.79-13.61,3.36-4.48,6.33-9.26,9.7-13.74,4.78-6.36,9.62-12.65,12.77-20.07,2.65-6.26,5.6-12.4,8.47-18.56a62,62,0,0,1,3.37-6.34c.33-.54,1.39-.62,2.12-.91a11.58,11.58,0,0,1,.48,2.14,3.78,3.78,0,0,1-.46,1.56c-2.77,6.09-5.53,12.19-8.36,18.26-2,4.34-3.73,8.89-6.29,12.9-4.72,7.37-9.84,14.5-15,21.56-4.95,6.76-10.31,13.22-15.26,20a39.77,39.77,0,0,0-4.46,8.34c-1,2.36.59,6.71,2.29,7a44,44,0,0,0,9.29.65c2.68-.17,5.31-1.21,8-1.82a5.13,5.13,0,0,0,4.2-4.65c.18-1.4.17-2.83.47-4.2.87-3.94,1.77-7.88,2.81-11.78q1.89-7.09,4.05-14.11a54.87,54.87,0,0,1,2.33-6.06c1.34-3,2.85-6,4.18-9,1.62-3.69,3.11-7.43,4.68-11.14,2-4.61,4-9.19,5.89-13.83,1.52-3.73,2.62-7.64,4.34-11.27a110.73,110.73,0,0,1,6.6-11.73c2.85-4.47,6-8.78,9.08-13.08,1.3-1.81,3.61-3.22,4.17-5.18a25.59,25.59,0,0,1,4.85-8.76c1.35-1.73,2.65-3.75,1.8-6.23-.42-1.23-.88-2.46-1.47-4.1a37.5,37.5,0,0,1-3.06,2.51c-5.73,3.73-11.43,7.54-17.29,11.06-5.3,3.19-10.83,6-16.2,9.07-4.43,2.54-8.76,5.26-13.17,7.84q-9.41,5.52-18.89,10.93c-1.75,1-3.65,1.72-5.44,2.66-3.83,2-7.56,4.21-11.45,6.08-4.06,1.95-8.32,3.47-12.39,5.42-5.37,2.57-9.06,2-12.71-2.46a9.32,9.32,0,0,0-2.37,7.31C75,179,77,181.34,79.43,182.9c4.14,2.69,8.52,5,12.63,7.77,2.58,1.72,4.87,3.89,5.36,7.29a9.59,9.59,0,0,0,1,2.1,23.58,23.58,0,0,1,1.6-2.93c5.4-7.17,12.22-12.8,19.6-17.76,5.16-3.47,10.55-6.58,15.76-10a44.08,44.08,0,0,0,4.29-3.61c-.63-.4-1.07-.48-1.33-.3-2.82,2-5.69,3.88-8.4,6C128.31,172.74,126.88,173.78,124.37,172.19Zm60-30.24-.75-.13a30.59,30.59,0,0,0-2.34,2.79c-2.79,4.25-5.7,8.44-8.22,12.85s-4.82,9-6.91,13.61c-1.56,3.44-2.51,7.16-4,10.66-2.14,5.21-4.48,10.34-6.73,15.51-1.42,3.25-2.86,6.49-4.26,9.76-1.51,3.55-3.08,7.09-4.45,10.71-1,2.53-1.67,5.16-2.38,7.78-1.44,5.38-2.9,10.75-4.15,16.17-.85,3.71-1.24,7.52-2,11.25-1.27,6-2.68,12-4,17.92-.85,3.72-1.62,7.47-2.59,11.16-1.46,5.56-3.07,11.07-4.61,16.61-.65,2.32-1.3,4.63-1.89,7-1.69,6.68-3.4,13.36-5,20.06-.7,2.95-1.14,6-1.65,8.95-.77,4.58-1.65,9.15-2.2,13.76-.31,2.61.53,3.08,3,2.13,3.2-1.2,6.29-2.83,9.59-3.63,8.75-2.13,17.57-3.94,26.38-5.8,1.42-.29,2-.85,2-2.31,0-8.85-.07-17.7.36-26.53q.77-15.56,2.38-31.05c.71-6.81,2-13.57,3.19-20.32,1.32-7.5,2.77-15,4.26-22.45,1.53-7.63,3.06-15.26,4.83-22.83,1.59-6.82,3.44-13.58,5.31-20.34,2.36-8.52,4.76-17,7.32-25.51,1.21-4,2.78-7.85,4.33-11.72.72-1.78,1.37-3.26-.9-4.46-3.42-1.79-3.88-5-3.8-8.47C184.54,144,184.43,143,184.39,142Zm-.71,46.67-.55-.29a15.44,15.44,0,0,0-1,2.21c-1.71,6.13-3.46,12.24-5,18.4-1.67,6.46-3.28,12.94-4.7,19.46-1.71,7.91-3.31,15.84-4.72,23.8-1.7,9.66-3.22,19.36-4.68,29.07-.63,4.16-1,8.37-1.34,12.57-.45,5.92-.82,11.84-1,17.77-.16,4.78-.08,9.58,0,14.37,0,6.38.27,12.77.19,19.15a7.41,7.41,0,0,1-1.62,3.9,52.11,52.11,0,0,1-3.69,3.75,2.24,2.24,0,0,0-.52,1.63c.05.32.78.71,1.24.76a103.51,103.51,0,0,0,11.62,1c7-.07,14.09-.71,21.15-.78,2.2,0,2.68-.56,2.55-2.6-.4-5.87-.66-11.75-.92-17.62-.07-1.6.12-3.21,0-4.82-.06-1.39-.45-2.77-.46-4.15,0-3.27.27-6.55.11-9.81-.46-9-1-18.05-1.67-27.06-.34-4.44-1.19-8.84-1.62-13.28-1.05-10.75-2.28-21.5-2.86-32.29-.32-6.13.39-12.34.84-18.49.43-5.91,1.17-11.8,1.67-17.7.26-3,.29-5.94.45-9.3a18.06,18.06,0,0,1-1.69,1.53c-.69.49-1.44.89-2.17,1.32a9,9,0,0,1-.55-2.58C183,195.23,183.34,191.93,183.68,188.62ZM254.42,73.3l-.64-.62c-2.27,1.1-4.43,2.57-6.82,3.23-7,1.92-14,3.84-21.08,5.14a115.28,115.28,0,0,1-15.68,1.3c-5.82.26-11.66.48-17.48.3a136.42,136.42,0,0,1-13.93-1.44c-5.18-.69-10.37-1.44-15.5-2.47a58.12,58.12,0,0,1-7.68-2.56c-1.72-.6-3.42-1.26-5.12-1.88l-.41.61c1.91,2.36,3.67,4.87,5.76,7.06A150.71,150.71,0,0,0,177,100.51c2.5,1.79,5.1,3.45,7.72,5a2.66,2.66,0,0,0,2-.13c.91-.33,1.71-1.17,2.61-1.28,6-.74,11.22,1.86,16.61,3.85,3,1.1,6.31,2.13,9.29.17,5.84-3.84,11.52-7.91,17.24-11.93,7.33-5.15,13.23-11.77,18.89-18.62C252.41,76.24,253.38,74.74,254.42,73.3Zm-68.65,39.94-.44-1c-1.46.09-2.91.17-4.36.28-5.68.41-10.82,2.72-16.11,4.54-7.61,2.61-15.28,5.05-22.89,7.67-5.21,1.79-10.39,3.7-15.54,5.67a55.94,55.94,0,0,0-6.52,3q-6.93,3.74-13.76,7.66a43.6,43.6,0,0,0-5.65,3.6c-3.9,3.08-7.78,6.2-11.45,9.54-3.38,3.09-6.48,6.49-9.7,9.75l.51.63,3.24-1.22c2,2.73-1,3.73-1.6,5.93,1.57-.11,3,.08,4.13-.34,5.11-1.84,10.31-3.56,15.2-5.89,6.59-3.15,13-6.77,19.36-10.3,5.89-3.26,11.7-6.64,17.51-10q10.91-6.34,21.76-12.78c3.33-2,6.61-4.06,9.91-6.1,2.69-1.66,5.4-3.29,8-5C180.23,117.07,183,115.13,185.77,113.24Zm37.16.4a11.59,11.59,0,0,0,1,1.72c4.12,4,9,6.92,13.79,9.92,4.52,2.82,9.35,5.12,14,7.73,5.91,3.31,11.79,6.7,17.67,10.07,3.48,2,6.91,4.09,10.44,6,4.49,2.41,9.06,4.67,13.61,6.95,3.87,1.94,7.71,3.94,11.65,5.69,3.61,1.6,7.32,3,11,4.32a16.4,16.4,0,0,0,4.27.89c.59.06,1.7-.49,1.76-.88a2.19,2.19,0,0,0-.9-1.87c-1.21-.55-1.78-1.51-.91-2.26.6-.53,2.09-.27,3.09,0,.68.17,1.21,1,1.8,1.47l.46-.53a26.41,26.41,0,0,0-2.59-3.48c-6.93-6.78-14.14-13.28-22.28-18.58a151.92,151.92,0,0,0-14.56-8c-3.22-1.61-6.63-2.85-10-4.16-4.24-1.65-8.48-3.31-12.78-4.78-4-1.37-8.19-2.48-12.28-3.73-5-1.53-10-3.09-15.06-4.61a25.58,25.58,0,0,0-4.26-1.08C229.1,114.09,226.32,113.93,222.93,113.64Zm-29,12.72c-1.46,2-2.78,3.89-4.2,5.71-1.88,2.43-1.71,3.17,1.16,4.21s5.62,2.15,8.49,3c4.17,1.28,8.35,2.8,12.82,2a4.91,4.91,0,0,0,2.85-1.58c2.38-3.09,4.47-6.4,6.82-9.52,3.43-4.53,4.39-6.41-.88-10.44a36.06,36.06,0,0,0-16.7-6.9c-1.6-.25-4.17-.07-4.61-.94-1.19-2.34-3.19-2-4.94-2.35-2.62-.57-3.22.34-2.44,2.88.87,2.81,1.33,5.74,2.28,8.51a5.84,5.84,0,0,0,2.53,3.22c2.91,1.4,6.08,2.24,9.06,3.51a27.75,27.75,0,0,1,6.1,3.28c1.46,1.13,3.21,3,2.21,4.89-.5.95-2.82,1.3-4.32,1.31-4.29,0-7.57-2.77-11.29-4.38-2.45-1.07-3.11-2.5-2.18-4.83Zm-3.83,13.27c-1.52,4-.77,9.85,4.2,11A61.3,61.3,0,0,0,208,151.88c4.45.05,6-3.16,5.24-7.29C205,145.27,197.69,142.16,190.06,139.63Zm44.69,58.06c2.1-3.84-3.4-22-7.1-24.05C230,181.63,232.35,189.53,234.75,197.69Zm-87.3-105.9-.7.74c3.46,3.15,5.27,8.06,10,9.87l.77-.82ZM210.37,134l.35-1L200.21,129l-.31.81C203.31,131.44,206.31,134,210.37,134Zm-21.7,51.34-.86-.14-1.56,7.2,1.25.22Z"/><path class="cls-3" d="M264.66,31c-.94,1.93-2,3.19-2.08,4.53-.07,1,1,2.16,1.69,3.09,2.3,2.89,2,6.34,1.4,9.44-.81,4.14-2.75,8-3.84,12.16-1,3.73-3.72,5.78-6.57,7.77C250,71.69,244,73.66,237.87,75.47a89.23,89.23,0,0,1-20.37,3.27c-10,.57-20.14,1.05-30.18.67a106.91,106.91,0,0,1-21.47-3.23c-6-1.49-11.77-4.26-17.62-6.51-2.89-1.11-4.32-3.74-5.5-6.27-2.61-5.55-5.09-11.19-5.49-17.46-.2-3,.3-5.68,2.57-7.91,1.33-1.32.46-2.77-.36-4A6.45,6.45,0,0,0,138,32.79c-3.41,1.28-4.8,4.17-5.58,7.42-1.41,5.8-.32,11.53,1.69,16.89a86,86,0,0,0,16.57,27c6.75,7.59,14.57,13.89,22.41,20.21a21.87,21.87,0,0,0,2.25,1.21c.63.39,1.2.88,2.22,1.65a21.89,21.89,0,0,1-2.48,1.17c-6.84,2.14-13.69,4.19-20.51,6.37-3.6,1.14-7.19,2.36-10.69,3.77a11.41,11.41,0,0,1-11.66-1.5c-3.25-2.33-6.7-4.39-10-6.64-5.74-3.93-11.61-7.69-17.11-11.93-7.76-6-15.22-12.36-22.81-18.57-1.69-1.37-1.8-3-.16-4.29,3.53-2.84,7-5.9,10.87-8.15,7.5-4.33,15.31-8.12,23-12.22,1.83-1,3.47-2.29,5.5-3.64.64,3,1.28,5.79,1.79,8.58a55.81,55.81,0,0,0,6.11,16.39c4.29,8,10.8,14.08,17,20.5,2,2,3.75,4.27,5.71,6.31a8.13,8.13,0,0,0,7.89,2.42c1.94-.39,2.64-1.62,1.42-3.22a113.21,113.21,0,0,0-8.56-10.24c-3.53-3.68-8.32-6.17-10.47-11.17a21.88,21.88,0,0,1-1.47-3.61c-.44-2-1.66-2.53-4.23-2.68,1,3.41,1.94,6.38,2.89,9.53-4.77-4.07-7.17-9.43-9.66-14.79a53,53,0,0,1-4.57-17.11c-.28-2.7.47-5.5.7-8.26a29.84,29.84,0,0,0,.25-5.16,7.61,7.61,0,0,1,4.27-7.66c2.78-1.52,5.81-2.8,9.33-2.19,3.07.52,6.3.09,9.38.57,7.53,1.19,15,2.65,22.5,4,4.14.75,8.29,1.41,12.4,2.3,6.42,1.39,12.88,2.4,19.47,1.93a139.55,139.55,0,0,0,25.24-4.26c1.43-.38,2.94-.45,4.41-.72,7.61-1.39,15.29-2.53,22.82-4.31,4.29-1,8.37-.14,12.54,0,3.27.12,5.62,2.39,7.45,4.71a78.68,78.68,0,0,1,6,9.51c1.79,3.07,3.38,6.26,5.14,9.34,2.12,3.73,2.7,7.82,2.86,12,.16,3.8.53,7.59-1.24,11.28a24.65,24.65,0,0,1-7.58,8.84c-5.84,4.46-11.92,8.61-18,12.77-2.67,1.83-5.69,3.18-8.26,5.13a20.71,20.71,0,0,0-4.49,5.1,1.76,1.76,0,0,0,2.07,2.67,90.49,90.49,0,0,0,8.62-2.84c1.08-.39,2-1.25,3.1-1.52,1.69-.42,1.79-1.5,1.16-2.61-.21-.39-1.57-.45-2.23-.2-2.12.8-4.16,1.81-6.23,2.74l-.31-.61c2.33-1.59,4.68-3.16,7-4.79q7.27-5.13,14.5-10.32a87.48,87.48,0,0,0,7.6-5.6c3.72-3.34,6.8-7.12,7-12.56.12-4.08.55-8.14.85-12.39,1.59.77,3.51,1.75,5.48,2.63,3.8,1.69,7.65,3.28,11.44,5,4,1.8,8.1,3.46,11.08,6.93,1,1.1,1.24,2,0,3.11-3.87,3.4-7.64,6.91-11.51,10.31-3.45,3.05-6.91,6.1-10.5,9S292,102,288.19,104.69c-3.49,2.52-7,5-10.6,7.38a108.78,108.78,0,0,1-11.33,6.71c-1.08.53-3-.57-4.51-1-3.34-1-6.67-2-10-3.07s-6.89-2.4-10.43-3.18c-4.49-1-9.07-1.54-13.61-2.29-.64-.11-1.27-.27-2.58-.54,3.12-2.52,5.73-4.6,8.31-6.7,3.1-2.52,6.32-4.91,9.24-7.63a87.43,87.43,0,0,0,9-9.38c3.69-4.62,7-9.52,10.36-14.43a59.11,59.11,0,0,0,8.06-18.12,25.73,25.73,0,0,0-.57-15.53C268.73,34.78,266.51,33.2,264.66,31Z"/><path class="cls-3" d="M230.66,124.33c2.35,1.55,4.47,3.08,6.71,4.4,2.86,1.68,5.82,3.17,8.72,4.77,4.87,2.69,9.71,5.41,14.58,8.1,5.27,2.91,10.55,5.79,15.83,8.7,3.31,1.82,6.6,3.68,9.94,5.46s6.37,3.45,9.66,5c6.31,2.88,12.58,5.89,19.09,8.26,2.56.94,5.76.68,8.54.19,1.23-.22,2.12-2.35,3.33-3.82,1.21,1.86,2.63,4.15,2.49,6.74a9.08,9.08,0,0,1-5,8c-4.24,2.33-8.15,5.28-12.16,8a12.13,12.13,0,0,0-5.36,9.52,42.22,42.22,0,0,0,1.07,12c.68,3.45,1.71,6.84,2.09,10.31.44,4.13,1.31,8.45-.69,12.39a18.18,18.18,0,0,1-4.07,4.67c-4.7,4.34-6.49,1.55-9.66-1.94-2.25-2.49-4.8-4.72-7.22-7-3.3-3.18-7-6.07-9.81-9.61s-4.84-7.85-7.37-11.72c-.75-1.14-1.21-3.42-3.28-2.35-.47.25-.31,2.6.2,3.67a51.22,51.22,0,0,0,12,16.58c4.26,3.82,8.5,7.67,12.67,11.59a46,46,0,0,1,4.31,4.83,2.41,2.41,0,0,1,.37,2c-.75,1.68-2,3.14-2.6,4.86a3.13,3.13,0,0,1-3.29,2.38c-3.48,0-7-.31-10.44-.6a43.81,43.81,0,0,1-5.33-.86c-6-1.28-11.91-3-16.74-7a21.67,21.67,0,0,1-5.17-6.08c-3-5.4-5.55-11-8.31-16.55-4.06-8.18-4.53-17.1-5.5-25.94a51.84,51.84,0,0,0-4.94-17.94c-3.24-6.38-6.75-12.63-10.26-18.87-1.53-2.72-3.4-5.25-5-7.93-1.47-2.41-.69-4.83.26-7.19.2-.49.64-.88.87-1.36.93-1.94,2.29-2.27,4.09-1.1,4.43,2.89,8.92,5.69,13.35,8.58,6.25,4.06,12.79,7.78,17.77,13.47,4.09,4.67,7.86,9.63,11.86,14.4,2.17,2.59,4.54,5,6.8,7.53.73.81,1.39,1.66,2.09,2.49l-.51.61a33,33,0,0,1-4.06-1.82c-5.31-3.28-10.47-6.75-13.48-12.52a1.69,1.69,0,0,0-.44-.52c-.86-.72-1.48-2.61-2.85-1.25-.51.5-.2,2.4.34,3.3,4.09,6.82,10.35,11.29,17.25,14.76,2.8,1.41,6,2.66,10.09,1.67a62.77,62.77,0,0,0-3.61-5.71c-3.49-4.39-7.06-8.72-10.72-12.95-3.06-3.54-6.33-6.9-9.46-10.37-1.64-1.82-3-4-4.82-5.52a115.2,115.2,0,0,0-9.87-7.24c-3.6-2.41-7.38-4.55-11.06-6.87-2.6-1.63-5.19-3.3-7.68-5.1-.45-.33-.78-1.71-.51-2a16.52,16.52,0,0,0,4-8C229.82,125.39,230.22,125,230.66,124.33Z"/><path class="cls-3" d="M241.71,368.78c-7.59,4.33-15.41,8.58-23,13.21-3.57,2.19-6.68,5.15-10,7.69a18.58,18.58,0,0,1-3.6,2.16c-1.49.64-3-.49-3.33-2.6-.6-3.39-1-6.83-1.58-10.22-3.39-18.49-3.7-37.22-4.33-55.92-.22-6.51-.48-13-1-19.51-1-12.7-2.15-25.38-3.28-38.07-.72-8.17-1.88-16.32-2.16-24.5a178.79,178.79,0,0,1,.93-20.15c.62-7.77,1.66-15.5,2.31-23.26.85-10.2,1.44-20.42,2.27-30.62a54.82,54.82,0,0,1,1.45-8c.31-1.31.9-2,2.81-1.84a76.32,76.32,0,0,0,11.51-.16c1.8-.1,2.23.48,2.28,2.21.5,16.31.85,32.63,1.73,48.93.76,14,2,28,3.32,42,1,10.51,2.41,21,3.78,31.46.94,7.17,1.9,14.36,3.24,21.46,1.66,8.76,3.7,17.45,5.64,26.15.87,3.87,1.79,7.74,2.89,11.55,2.28,7.84,4.71,15.65,7,23.48C241.05,365.64,241.32,367.13,241.71,368.78Z"/><path class="cls-3" d="M217.21,158c1.26,4.2,2.53,8.4,3.77,12.61,2,6.73,3.92,13.47,5.93,20.18,1.41,4.69,2.68,9.44,4.43,14,2.52,6.55,5.41,13,8.16,19.42.76,1.78,1.58,3.53,2.34,5.31,2.66,6.18,5.63,12.26,7.84,18.6s3.7,13.27,5.63,19.89c1.79,6.09,3.74,12.13,5.65,18.18,1.3,4.09,2.67,8.16,4,12.24q2.67,8.31,5.29,16.62c1.73,5.54,3.34,11.11,5.12,16.62,1.84,5.68,3.78,11.32,5.73,17,1.89,5.48,3.76,11,5.84,16.39a65,65,0,0,0,3.33,6.27,3,3,0,0,1,.42,1.9c-.07.3-1.06.53-1.63.52-6.17-.18-11.76,2-17.44,4-6.85,2.47-13.85,4.51-20.77,6.78-2,.66-3.76,1.56-6,.38-1.44-.76-1.67-1.6-1.2-2.77a25.25,25.25,0,0,1,2.29-4.29,6.47,6.47,0,0,0,.17-7.64,8.1,8.1,0,0,1-1-2c-1.3-4.65-2.54-9.31-3.82-14-1.77-6.46-3.62-12.9-5.31-19.38s-3.42-13.27-4.88-20c-1.25-5.7-2.29-11.44-3.18-17.2-1.35-8.73-2.57-17.48-3.72-26.24-1.25-9.45-2.5-18.91-3.48-28.39-1.06-10.28-1.92-20.59-2.66-30.91-.44-6.23-.48-12.5-.7-18.75-.37-10.38-.76-20.75-1.09-31.12a41.33,41.33,0,0,1,.29-4.15Z"/><path class="cls-3" d="M124.37,172.19c2.51,1.59,3.94.55,5.52-.69,2.71-2.13,5.58-4,8.4-6,.26-.18.7-.1,1.33.3a44.08,44.08,0,0,1-4.29,3.61c-5.21,3.39-10.6,6.5-15.76,10-7.38,5-14.2,10.59-19.6,17.76a23.58,23.58,0,0,0-1.6,2.93,9.59,9.59,0,0,1-1-2.1c-.49-3.4-2.78-5.57-5.36-7.29-4.11-2.74-8.49-5.08-12.63-7.77C77,181.34,75,179,74.66,176.27A9.32,9.32,0,0,1,77,169c3.65,4.45,7.34,5,12.71,2.46,4.07-1.95,8.33-3.47,12.39-5.42,3.89-1.87,7.62-4.07,11.45-6.08,1.79-.94,3.69-1.67,5.44-2.66q9.48-5.4,18.89-10.93c4.41-2.58,8.74-5.3,13.17-7.84,5.37-3.08,10.9-5.88,16.2-9.07,5.86-3.52,11.56-7.33,17.29-11.06a37.5,37.5,0,0,0,3.06-2.51c.59,1.64,1.05,2.87,1.47,4.1.85,2.48-.45,4.5-1.8,6.23a25.59,25.59,0,0,0-4.85,8.76c-.56,2-2.87,3.37-4.17,5.18-3.11,4.3-6.23,8.61-9.08,13.08a110.73,110.73,0,0,0-6.6,11.73c-1.72,3.63-2.82,7.54-4.34,11.27-1.88,4.64-3.93,9.22-5.89,13.83-1.57,3.71-3.06,7.45-4.68,11.14-1.33,3-2.84,6-4.18,9a54.87,54.87,0,0,0-2.33,6.06q-2.15,7-4.05,14.11c-1,3.9-1.94,7.84-2.81,11.78-.3,1.37-.29,2.8-.47,4.2a5.13,5.13,0,0,1-4.2,4.65c-2.66.61-5.29,1.65-8,1.82a44,44,0,0,1-9.29-.65c-1.7-.26-3.25-4.61-2.29-7a39.77,39.77,0,0,1,4.46-8.34c5-6.76,10.31-13.22,15.26-20,5.18-7.06,10.3-14.19,15-21.56,2.56-4,4.27-8.56,6.29-12.9,2.83-6.07,5.59-12.17,8.36-18.26a3.78,3.78,0,0,0,.46-1.56,11.58,11.58,0,0,0-.48-2.14c-.73.29-1.79.37-2.12.91a62,62,0,0,0-3.37,6.34c-2.87,6.16-5.82,12.3-8.47,18.56-3.15,7.42-8,13.71-12.77,20.07-3.37,4.48-6.34,9.26-9.7,13.74-3.47,4.63-7.3,9-10.79,13.61a44.54,44.54,0,0,0-4.43,7.27c-1,2-2.29,2.59-4.18,1.25s-3.63-2.67-5.42-4a8.42,8.42,0,0,1-3.3-7.65,168.82,168.82,0,0,1,1.72-17c1-5.92,4-11,7.73-15.85a69.56,69.56,0,0,1,17.15-15.2q8.42-5.53,16.81-11.13a17.85,17.85,0,0,0,6.55-8c.57-1.3,0-2.11-1.48-2.13a18.52,18.52,0,0,0-11.17,3.56,52.55,52.55,0,0,0-5.09,4.08A31.19,31.19,0,0,0,124.37,172.19Z"/><path class="cls-3" d="M184.39,142c0,1,.15,2.07.13,3.1-.08,3.44.38,6.68,3.8,8.47,2.27,1.2,1.62,2.68.9,4.46-1.55,3.87-3.12,7.74-4.33,11.72-2.56,8.47-5,17-7.32,25.51-1.87,6.76-3.72,13.52-5.31,20.34-1.77,7.57-3.3,15.2-4.83,22.83-1.49,7.47-2.94,15-4.26,22.45-1.19,6.75-2.48,13.51-3.19,20.32q-1.59,15.48-2.38,31.05c-.43,8.83-.31,17.68-.36,26.53,0,1.46-.55,2-2,2.31-8.81,1.86-17.63,3.67-26.38,5.8-3.3.8-6.39,2.43-9.59,3.63-2.51.95-3.35.48-3-2.13.55-4.61,1.43-9.18,2.2-13.76.51-3,1-6,1.65-8.95,1.58-6.7,3.29-13.38,5-20.06.59-2.34,1.24-4.65,1.89-7,1.54-5.54,3.15-11.05,4.61-16.61,1-3.69,1.74-7.44,2.59-11.16,1.36-6,2.77-11.93,4-17.92.78-3.73,1.17-7.54,2-11.25,1.25-5.42,2.71-10.79,4.15-16.17.71-2.62,1.43-5.25,2.38-7.78,1.37-3.62,2.94-7.16,4.45-10.71,1.4-3.27,2.84-6.51,4.26-9.76,2.25-5.17,4.59-10.3,6.73-15.51,1.45-3.5,2.4-7.22,4-10.66,2.09-4.63,4.38-9.2,6.91-13.61s5.43-8.6,8.22-12.85a30.59,30.59,0,0,1,2.34-2.79Z"/><path class="cls-3" d="M183.68,188.62c-.34,3.31-.73,6.61-1,9.92a9,9,0,0,0,.55,2.58c.73-.43,1.48-.83,2.17-1.32a18.06,18.06,0,0,0,1.69-1.53c-.16,3.36-.19,6.34-.45,9.3-.5,5.9-1.24,11.79-1.67,17.7-.45,6.15-1.16,12.36-.84,18.49.58,10.79,1.81,21.54,2.86,32.29.43,4.44,1.28,8.84,1.62,13.28.68,9,1.21,18,1.67,27.06.16,3.26-.14,6.54-.11,9.81,0,1.38.4,2.76.46,4.15.07,1.61-.12,3.22,0,4.82.26,5.87.52,11.75.92,17.62.13,2-.35,2.57-2.55,2.6-7.06.07-14.1.71-21.15.78a103.51,103.51,0,0,1-11.62-1c-.46-.05-1.19-.44-1.24-.76a2.24,2.24,0,0,1,.52-1.63,52.11,52.11,0,0,0,3.69-3.75,7.41,7.41,0,0,0,1.62-3.9c.08-6.38-.14-12.77-.19-19.15-.05-4.79-.13-9.59,0-14.37.21-5.93.58-11.85,1-17.77.31-4.2.71-8.41,1.34-12.57,1.46-9.71,3-19.41,4.68-29.07,1.41-8,3-15.89,4.72-23.8,1.42-6.52,3-13,4.7-19.46,1.59-6.16,3.34-12.27,5-18.4a15.44,15.44,0,0,1,1-2.21Z"/><path class="cls-1" d="M254.42,73.3c-1,1.44-2,2.94-3.14,4.31-5.66,6.85-11.56,13.47-18.89,18.62-5.72,4-11.4,8.09-17.24,11.93-3,2-6.31.93-9.29-.17-5.39-2-10.62-4.59-16.61-3.85-.9.11-1.7,1-2.61,1.28a2.66,2.66,0,0,1-2,.13c-2.62-1.59-5.22-3.25-7.72-5A150.71,150.71,0,0,1,155.84,82c-2.09-2.19-3.85-4.7-5.76-7.06l.41-.61c1.7.62,3.4,1.28,5.12,1.88a58.12,58.12,0,0,0,7.68,2.56c5.13,1,10.32,1.78,15.5,2.47a136.42,136.42,0,0,0,13.93,1.44c5.82.18,11.66,0,17.48-.3a115.28,115.28,0,0,0,15.68-1.3C233,79.75,240,77.83,247,75.91c2.39-.66,4.55-2.13,6.82-3.23Z"/><path class="cls-3" d="M185.77,113.24c-2.79,1.89-5.54,3.83-8.36,5.66-2.64,1.72-5.35,3.35-8,5-3.3,2-6.58,4.12-9.91,6.1q-10.86,6.44-21.76,12.78c-5.81,3.38-11.62,6.76-17.51,10-6.4,3.53-12.77,7.15-19.36,10.3-4.89,2.33-10.09,4-15.2,5.89-1.17.42-2.56.23-4.13.34.61-2.2,3.6-3.2,1.6-5.93l-3.24,1.22-.51-.63c3.22-3.26,6.32-6.66,9.7-9.75,3.67-3.34,7.55-6.46,11.45-9.54a43.6,43.6,0,0,1,5.65-3.6q6.84-3.92,13.76-7.66a55.94,55.94,0,0,1,6.52-3c5.15-2,10.33-3.88,15.54-5.67,7.61-2.62,15.28-5.06,22.89-7.67,5.29-1.82,10.43-4.13,16.11-4.54,1.45-.11,2.9-.19,4.36-.28Z"/><path class="cls-3" d="M222.93,113.64c3.39.29,6.17.45,8.93.8a25.58,25.58,0,0,1,4.26,1.08c5,1.52,10,3.08,15.06,4.61,4.09,1.25,8.23,2.36,12.28,3.73,4.3,1.47,8.54,3.13,12.78,4.78,3.36,1.31,6.77,2.55,10,4.16a151.92,151.92,0,0,1,14.56,8c8.14,5.3,15.35,11.8,22.28,18.58a26.41,26.41,0,0,1,2.59,3.48l-.46.53c-.59-.51-1.12-1.3-1.8-1.47-1-.26-2.49-.52-3.09,0-.87.75-.3,1.71.91,2.26a2.19,2.19,0,0,1,.9,1.87c-.06.39-1.17.94-1.76.88a16.4,16.4,0,0,1-4.27-.89c-3.7-1.35-7.41-2.72-11-4.32-3.94-1.75-7.78-3.75-11.65-5.69-4.55-2.28-9.12-4.54-13.61-6.95-3.53-1.89-7-4-10.44-6-5.88-3.37-11.76-6.76-17.67-10.07-4.66-2.61-9.49-4.91-14-7.73-4.8-3-9.67-6-13.79-9.92A11.59,11.59,0,0,1,222.93,113.64Z"/><path class="cls-3" d="M193.89,126.36l2.76,1.64c-.93,2.33-.27,3.76,2.18,4.83,3.72,1.61,7,4.39,11.29,4.38,1.5,0,3.82-.36,4.32-1.31,1-1.94-.75-3.76-2.21-4.89a27.75,27.75,0,0,0-6.1-3.28c-3-1.27-6.15-2.11-9.06-3.51a5.84,5.84,0,0,1-2.53-3.22c-.95-2.77-1.41-5.7-2.28-8.51-.78-2.54-.18-3.45,2.44-2.88,1.75.38,3.75,0,4.94,2.35.44.87,3,.69,4.61.94a36.06,36.06,0,0,1,16.7,6.9c5.27,4,4.31,5.91.88,10.44-2.35,3.12-4.44,6.43-6.82,9.52a4.91,4.91,0,0,1-2.85,1.58c-4.47.77-8.65-.75-12.82-2-2.87-.88-5.66-2-8.49-3s-3-1.78-1.16-4.21C191.11,130.25,192.43,128.36,193.89,126.36Z"/><path class="cls-3" d="M190.06,139.63c7.63,2.53,15,5.64,23.13,5,.74,4.13-.79,7.34-5.24,7.29a61.3,61.3,0,0,1-13.69-1.22C189.29,149.48,188.54,143.58,190.06,139.63Z"/><path class="cls-1" d="M234.75,197.69c-2.4-8.16-4.74-16.06-7.1-24.05C231.35,175.72,236.85,193.85,234.75,197.69Z"/><path class="cls-3" d="M147.45,91.79l10.07,9.79-.77.82c-4.73-1.81-6.54-6.72-10-9.87Z"/><path class="cls-3" d="M210.37,134c-4.06.06-7.06-2.51-10.47-4.1l.31-.81,10.51,3.89Z"/><path class="cls-1" d="M188.67,185.29l-1.17,7.28-1.25-.22,1.56-7.2Z"/><polygon class="cls-2" points="403 107 328.54 75.25 397 67 403 107"/><polygon class="cls-2" points="73.64 77.02 -7 113 -10 70 75.73 74.77 73.64 77.02"/><polygon class="cls-2" points="330.79 82 408 114 328 115 330.79 82"/></svg>