<svg id="Layer_1" data-name="Layer 1" xmlns="http://www.w3.org/2000/svg" viewBox="0 0 400 400"><defs><style>.cls-1{fill:#305da4;}.cls-2{fill:#e20c10;}</style></defs><title>polo3</title><polygon class="cls-1" points="-99 416 504 416 504 137 423 150 389 143 11 142 -35 152 -99 137 -99 416 -99 416"/><polygon class="cls-1" points="310.4 348.531 311.761 347.763 377.173 183.299 385.753 150.209 387.333 148.588 396.226 149.78 412.47 153.156 414.881 151.305 413.245 148.163 388.289 142.907 383.694 132.348 375.798 118.11 332.043 56.183 307.616 41.206 275.968 41.208 270.669 41.775 245.565 46.889 217.948 49.302 161.067 48.423 107.049 41.644 80.784 45.981 69.217 53.35 24.64 117.775 11.354 142.071 6.131 143.722 -28.502 151.116 -30.284 155.179 -27.796 156.561 10.125 148.676 12.702 149.775 19.738 178.135 88.551 346.986 89.828 349.121 92.59 347.722 142.738 298.046 156.901 286.685 162.926 282.876 163 382.639 165.548 385.208 169.197 381.136 168.134 281.363 170.925 277.113 176.543 274.113 191.388 268.524 214.868 270.215 227.511 275.688 242.497 285.76 264.337 302.842 304.539 341.752 310.4 348.531 310.4 348.531"/><polygon class="cls-1" points="195.283 304.757 195.533 305.472 204.703 302.12 208.467 285.451 186.014 282.303 177.783 283.811 174.579 285.442 178.16 290.208 181.044 293.053 195.283 304.757 195.283 304.757"/><path d="M310.4,348.5306l-46.0626-45.6883-21.84-17.0821-14.9866-10.0725-12.6431-5.4723-23.48-1.6911-14.8447,5.5884-5.6188,3-2.7907,4.25,1.063,99.7736-3.6485,4.0711L163,382.6386l-.0745-99.7624-6.0252,3.809-28.6849,24.4033L92.5905,347.7217l-2.762,1.4-1.2773-2.1356L19.7383,178.1348l-7.0367-28.36-2.5767-1.0992-37.921,7.8852-2.4883-1.3817,1.7823-4.0632,34.6329-7.3933,5.2232-1.6516L24.64,117.7749,69.2168,53.35l11.5674-7.3689,26.2646-4.3373,54.0183,6.7793,56.8814.8782,27.6164-2.4125,25.1037-5.1146,5.299-.5665,31.6484-.0022,24.4265,14.9768L375.7978,118.11l7.8966,14.238,4.5946,10.56,24.9556,5.256,1.6363,3.1418-2.41,1.851L396.2261,149.78l-8.8927-1.1922-1.58,1.6206-8.58,33.09-65.4127,164.464-1.3608.7677ZM97.2667,136.7588l.4158,2.9506,13.2909,30.9275,12.4879,18.8,31.3848,35.646,7.0333,2.6811,76.9641-.5975,4.6753-1.882,30.1972-34.2857,8.9907-12.7585,11.01-21.2161,5.7143-13.7741,2.6616-8.216-99.991,6.3623L97.2667,136.7588ZM164.42,233.0242l-.0519.8674,25.5787,24.7325,16.4994,2.2157,29.3232-27.8156ZM219.6071,256.49l-.8144,1.0242,93.9446,72.77-.9579-6.1156-84.21-63.46-7.9625-4.2184Zm96.1751,66.0415-1.2053-5.5132L227.762,253.4818l-2.5262-1.0792-1.5315.7006.6114,1.6,86.2648,64.5761,5.2017,3.2523Zm4.6771-9.6169-.8047-1.7261-89.39-62.8064-2.211.2245.6671,2.03,87.5543,63.6057,2.6431.8516,1.5407-2.18ZM177.7665,255.2008l-89.1989,69.45-1.2538,4.0959L90.79,328.16l87.2158-69.0693-.2393-3.89ZM323.2543,305.148l-3.7151-3.0853-84.3046-57.1292-2.7654-.4132,1.2036,2.7984,88.0366,61.1335,1.5449-3.3042Zm.9552-3.7273-1.1372-5.8932L239.79,240.7068l-2.7729-.4171,1.3971,2.971,85.7949,58.16ZM174.5955,251.524l-3.099,1.8081-83.769,62.5694-2.7063,6.4937,2.4475-1.0333,83.7968-64.4858,3.33-5.3521ZM82.3837,315.4908l87.8542-65.1732,1.1544-1.7858-2.4863-.5394L82.62,310.5377l-.2367,4.9531Zm157.53-78.4406,1.6871,1.5223,83.7871,54.6825,3.1634-.7569-1.1028-2.3391-82.0811-53.0519-5.4537-.0569Zm91.83,48.0593,1.0185-1.2843-2.4732-.7073-83.3231-51.5371-2.2413.5847.7386,1.724,83.0422,52.7476,1.9734.8443,1.2649-2.3719ZM78.6,308.49l1.3415-.3917,85.7807-61.9035,1.199-1.79-3.0614-.27L79.7294,303.6942,78.6,308.49Zm254.1228-27.8044-.8392-5.4477L257.517,230.5542l-6.619-3.3464-2.0513.8833,1.2786,1.7424,82.5976,50.8523ZM76.3349,301.8537l84.917-59.7013.9266-2.3645-2.8026.32L78.2813,295.4369l-1.9464,6.4168Zm178.6865-79.4421-1.95,1.2,1.2137,1.791,79.7082,47.3336,2.3615-.1763-.1346-2.899-1.9214-1.3831-79.2771-45.8663ZM156.97,235.03,71.26,291.7l2.4753,2.7907,83.2453-55.96-.0109-3.5Zm101.9037-17.1547-1.321,1.2736.5976,1.6091,77.6736,44.9841,3.9135-.97-2.27-3.0786-78.5941-43.8181ZM70.45,287.673l82.2555-53.3588.2851-3.3812-3.8078,2.0235L70.52,283.487l-.07,4.186Zm190.1532-72.3142,79.6371,44.12,2.1519-.9365-.6363-2.1146-75.1237-41.4939-6.029.4246ZM111.5618,47.9694v84.5133h3.3612l.195-1.5.0685-80.3352-3.6247-2.6781Zm-3.2054-.2966-3.4074,2.2025-.1259,81.47h3.5333V47.6728ZM267.2406,208.8012l-2.2665,1.3526.9647,1.4124,75.8977,40.8708,3.0636-.41-1.2021-3.0234-76.4574-40.2024ZM67.2192,281.1458l81.6468-51.4489,1.0224-1.7138-1.9424-.5792-79.97,49.0466-.7572,4.6953Zm203.7539-77.3983.7006,3.9626,74.8347,39.2111-.8216-5.059-74.7137-38.1147Zm-123.82-69.0026L147.1111,55.15l-2.0083-2.7452-1.6061,2.1721-.0186,77.4771,3.6753,2.6908Zm9.4185-80.6741-.18,2.2078.1123,76.1079,3.5379,2.5994.1779-.7817-.0783-77.5113-3.57-2.6221ZM64.7124,274.1869l79.7692-48.8309.7667-1.8511-1.7145-.4465L66.8812,268.4278l-2.1688,5.7591ZM257.3855,133.32,256.76,52.6628l-1.9471-2.071-1.6775,2.0144.6147,78.274,3.635,2.44ZM350.99,236.6171,275.6114,199.38l-2.11.9.6449,2.0766L345.2629,238.39l5.7269-1.7729ZM137.1226,50.95l-.3306,2.9209.7468,78.2262,1.8324,2.634,1.1116-2.805.0747-77.27L137.1226,50.95Zm113.5353,82.6309-.473-79.3131-1.9465-2.3749-1.9252,2.3615.677,76.8387,3.6677,2.4878ZM142.4022,219.8348l-5.9379-.0682-73.9264,43.37-.2892,4.2477,80.1535-47.55Zm65.8951-84.4158,3.8228-2.8043-.3164-74.6561-3.5064-2.9494v80.41Zm143.0588,97.675,2.0872-1.7656L352.112,229.45,280.33,194.7426l-2.7767.77,1.6119,2.3262,72.1909,35.2553ZM297.7534,45.739l1.874,83.2419,3.2872-2.4265-.3575-4.4664-.7178-73.8144-4.0859-2.5346Zm-98.822,89.8143.1341-1.21-.3785-76.6763-2.1594-2.6963-1.469,2.8749.9066,75.4763,2.9662,2.2309Zm155.5537,91.42-.2615-4.4759L283.54,189.614l-2.838,1.07,1.4333,1.6974,72.35,34.5917ZM269.27,48.2448l-3.3073,2.6882.9365,80.871,1.5629,1.1734,1.84-1.2065.1556-2.4861-1.1879-81.04ZM98.4568,89.3h-.0925l-.0072,39.3227,1.5614,2.56,2.0626-2.5226.1647-78.3257-1.8489-3.0278-1.8278,2.9513L98.4568,89.3ZM138.13,215.4526l-5.8207-.351-72.5374,41.36-.1042,4.0631L138.13,215.4526Zm158.1955-85.2141L295.2545,45.58l-3.6321,2.1564,1.3993,82.5018Zm61.659,90.409-1.0632-4.8706-70.34-31.0611-1.9978.8477,1.1114,1.8743,72.2895,33.21Zm-97.7474-87.7789,3.8809-2.9-1.504-78.4919-1.43-1.8014-1.55,1.7992.6039,81.3942ZM272.5948,89.818l.6445-.0018.1156,40.4023,1.2943,2.2794,2.4191-2.4147L275.6957,49.68l-1.2881-2.3575-1.8341,2.3557.0213,40.14Zm-84.11-34.7772-.1142,1.4962,1.005,76.9512,1.5072,2.4132,1.4327-2.3767-.1243-75.8009-3.7064-2.683Zm13.3759,80.2144,3.7687-2.1916-.4167-76.0886L203.51,54.7081l-2.0165,2.3282.3673,78.2189Zm85.545,46.289,70.8831,31.3789,2.5306-.3271-.8367-3.1105-70.501-30.4809-2.076,2.54ZM214.8085,54.7566v80.5989l4.1267-.1826-1.2841-80.4163ZM56.13,254.0844l76.3072-42.216.9883-1.29-1.3562-1.151-2.6436.6324L56.79,249.7123l-.66,4.3721Zm97.7-159.7512-.3569-.0005-.0151-38.1943L151.5537,52.88l-1.7021,3.14.2058,76.0841,2.2642,3.06,1.4831-2.923.0251-37.9083Zm138.8778,79.4475-1.2152,1.4152,1.0265,2.15,68.3328,29.1467,2.5727-.2919-.779-3.2366-69.9378-29.1833ZM130.1933,205.3322l-3.1569-.4618L53.5572,243.592l-.8313,3.0692,2.4483-.247,73.2293-39.0824,1.79-2Zm236.7424-11.4241,2.1838-2.3411-1.09-1.7757L300.122,163.1748l-1.3331-.3256-2.3319,1.4359,1.504,2.0564,4.2779,1.2863,64.6968,26.28ZM95.4446,131.1764V47.2686l-2.7713,2.019-.8611,70.6949,1.9743,9.7185,1.6581,1.4754Zm271.532,66.0493-69.011-27.9287-2.9616-.2882-.9162,1.1558.6832,1.2629,66.9019,27.7483,5.3037-1.95ZM127.49,133.2283l.0874-81.4978-3.1664-3.0675-.0724,82.0126,3.1514,2.5527ZM371.699,183.7141l-69.173-25.9008-2.9258.0575-.87,1.2152.9589,1.087,70.2582,27.077,1.7513-3.5359ZM285.1983,46.3512l1.55,84.4525,3.0911-1.9315-.9645-79.9577-3.677-2.5633Zm17.35,105.1582-.993.6073,1.4522,2.9378L370.2277,179.92l2.2571-.8963-.7694-2.7727L302.548,151.5094ZM237.7785,93.7982l-.5618.0009-.0244-37.6459-1.98-3.2123-1.783,3.1157,1.3382,74.6563,1.1945,4.1405,1.7863-4.2366.03-36.8186ZM51.1063,241.1592l3.0518-1.9438,68.45-35.8652,1.9992-2.4024-3.4651-.0812L50.279,237.0254l-.9447,1.8906,1.772,2.2432ZM279.7983,131.335l4.0171-2.9748-.7426-8.5959-.7958-71.5685L279.94,46.5031l-1.108,3.1521L279.37,53.47l.4288,77.8649Zm25.6108,14.5158-2.12,1.7019,1.7725,1.6889L372.1762,173.31l2.1915-.9475-.9927-2.8528-67.9659-23.6588ZM244.4028,93.4573l-.4479,0-.3376-38.7293L242.2655,52.6,240.05,54.6326l1.2234,77.94,1.3529,2.2376,1.6884-2.093.0884-39.2595Zm61.0058,49.1414,69.196,23.98,1.8788-1.038-1.0188-2.8194-64.8081-21.8853-5.2479,1.7632Zm-183.2894,53.97-.4126-.9729-3.7419.3371L48.14,230.13l-1.2131,2.6657,2.7143.7228,70.8263-35.5614,1.6518-1.3885ZM45.1377,227.7578l1.9935-.6953,69.6005-33.8649.8295-2.1827-1.9711-.6311-70.4253,33.45-1.0028,2.4492.9757,1.4747ZM304.5532,47.5737l.9291,74.4708,1.3475.1551,2.217-11.1091L308.5655,69.86l-.84-2.7826-.1381-5.4638.99-3.58.047-9.7607-4.0715-.6987Zm4.5863,86.465-.0525,3.5121,66.6,22.3036,2.8043-1.4968-1.8634-2.6038L309.14,134.0387ZM179.34,95.5813h-.0877l-.1321-38.499-1.6873-2.2779-1.399,2.1857.2311,75.8729,1.6334,2.8054,1.4179-2.7048.0237-37.3822Zm200.9718,54.0205-68.0671-20.7052-2.4343,1.0345,1.5452,1.6814,63.5119,20.5306,5.4443-2.5413ZM114.3043,187.0862l-.957-1.6535-3.4807.3982L43.2219,217l-1.6688,2.9581,3.1333.3508,67.2221-31.502,2.3958-1.721ZM163.022,54.5879l.1068,77.3623,1.84,3.5305,1.835-3.402-.6742-31.6458.5506-9.1693-.7549-8.87-.083-25.56-2.82-2.2454Zm150.1513,68.004-1.255,1.3193,1.253,2.0906,65.4479,20.1537,2.5393-.9608-1.4352-2.9972-66.55-19.6056ZM230.9526,54.197l-3.3742,2.8986.5833,77.8978,3.0976-2.8512-.3067-77.9452ZM106.3649,174.5907l-71.0007,31.03.1884,1.3094,3.4788.4041,66.3107-29.0812,1.0228-3.6621Zm114.63-79.8462.5608.0009.0589,38.4684,1.3221,2.19,1.4579-2.12-.1541-76.7521-2.1187-2.0995-1.08,2.68-.0466,37.6332Zm160.0864,44.6723-5.143-5.596L314.1,116.7981l-.6557.8077,1.6072,2.4267,66.03,19.3843ZM30.2,188.8073l.7565-.6693,66.4075-26.2545,1.9106-2.5529-3.2934-.4435L29.5962,184.9353,28.539,186.69l1.6608,2.117ZM169.7583,135.11l3.6934-2.3957-.9375-76.0533-1.5193-2.1687-1.5323,2.0742.2957,78.5435ZM35.1673,201.5322l68.2846-29.4693.7483-1.3974L102.606,169.54l-2.1143.5886L34.4058,198.2864l-.9653,1.663,1.7268,1.5828ZM40.3534,214.37l2.9307-1.0057,65.1092-30.0624,2.3494-2.1119-3.7881-.4312-61.8215,27.49-5.3289,2.8464-.7016,2.3444,1.2508.9308Zm59.9729-50.3894L32.6149,191.2744l-1.7177,2.5013,2.897.7321,66.8936-27.5437,1.352-1.5945-1.7135-1.3887Zm-4.4606-11.1726-2.27.5652-65.77,24.8633-1.1863,2.1805,2.3978.93,67.0021-25.705,1.175-1.7961-1.3482-1.0381Zm-71.5363,19.249-.4.9272,3.0678,2.0287L93.57,149.903l1.2717-2.0507-2.4608-.5373L24.3294,172.0573Zm109.7617-38.6512-.3562-81.3548-1.3482-1.933-1.5189,2.0567.1219,78.9125,3.1014,2.3186ZM118.16,48.14l-.12,1.5318.0933,81.1574,1.3936,2.2106,1.3717-2.0908.1828-80.7955L118.16,48.14Zm-27.0387,93.371-2.3057.63-64.492,22.7226-.9877,2.7325,1.3762.8221,66.3987-23.9633,1.7-1.361-1.6892-1.5827Zm-2.099-10.3072-2.5978-1.147L21.4458,151.2923l-1.928,1.0547.6451,2.529,2.3086-.1722L87.514,132.92l1.5081-1.7162ZM21.407,159.38l2.4261,2.0276L25.04,160.78l63.3585-21.6417,1.8094-2.6976-3.2061-.2139L22.5921,158.0805,21.407,159.38ZM182.5053,55.0425l.3419,78.4573,1.5958,2.3188,1.394-2.1125L185.58,55.0425ZM86.5824,126.1791l.08-.9086-2.2825-.8812L19.8261,144.6938l-1.0118,2.524,2.0535.9244L85.133,127.0034l1.4494-.8243Zm289.7121,4.727.6678-.9255-3.8708-3.4974-53.6646-15.1224-3.7328-.531-.7451.7872,2.1363,2.8777,56.3267,15.949,2.8825.4624ZM19.3068,140.771l4.0043-.85,60.0243-18.34.923-2.4233-1.5647-.799L23.492,136.1354l-4.1852,4.6356Zm3.92-7.7837L81.5449,115.603l1.6728-1.7887-2.5039-1.0077L30.0451,127.2484l-6.8186,5.7389ZM371.4,122.4308l-4.889-4.8526L318.7968,104.97l-2.182.7607,1.1922,2.5,51.6812,14.0178,1.9119.1825ZM81.2716,106.4168l-3.5394.5673L31.8007,119.9362,28.0358,124.2l3.0351-.5208,48.331-13.4783,1.87-3.7838Zm284.5564,8.0639-3.0189-4.3594L319.8034,99.24l-2.0111,1.1173,1.5,1.8339,46.5353,12.29Zm-285.7865-13.6-1.5442.174-40.0624,10.16L32.62,115.8106l3.5521-.5087,42.0821-11.2406,1.7869-3.1806Zm280.2628,5.3985.8893-1.0092-3.9351-3.4683-36.1354-8.7648-2.5.8959,1.8127,2.6162,39.8687,9.73ZM37.3136,107.6785l2.5141.1125,38.08-10.1334,1.4059-1.5645L77.714,94.9978l-4.9709.8431-20.7082,5.416-14.7213,6.4216Zm88.9516,197.5888-.467-.6254-33.42,26.7415-.4619,6.2,34.3486-32.3161ZM355.9223,98.746,350.0961,93.32l-28.6829-6.4529-2.4047,1.6158,1.4625,1.8607,35.4513,8.4029ZM89.0686,69.8286l-2.9006,4.97L87.2139,107.53l1.3928,3.2333.4619-.2372V69.8286Zm.126-19.5617-12.24,4.5512,7.5032-.7136,2.6377,1.0129-2.3037,1.7551L73.8475,58.7371,70.6787,62.13,81.6,60.7234l3.9882-1.9919,1.011,5.7528,2.4959-2.8783.1-11.3391Zm-45.1,49.2891,2.2511-.2909,30.0331-7.2105,1.8056-2.2523-2.2157-.9942-1.9359.2254-26.0382,6.557-3.9,3.9655Zm305.5529-9.18.5789-.8919-3.828-3.2278-24.7549-5.1684-1.85,1.0444,1.3455,1.6587L346.98,90.1849l2.6669.1907ZM309.05,337.4535l-.6253-6.403-24.9062-19.6938-.9288.29,26.46,25.8069ZM48.9021,90.568l.3013,1.0072,1.6951.32,25.904-6.1814L78.04,83.4l-1.8683-.758-22.29,5.5413-4.98,2.3844Zm270.3-16.41-.7627,1.0873,1.635,2.1629,24.56,5.4748-2.8616-3.779-22.57-4.946ZM79.79,76.9l-1.8129-.3609L58.84,80.2112l-3.8042,3.96,22.8084-5.0007L79.79,76.9Zm258.96-1.6155-5.7863-4.9226L324.8078,68.77l-8.546-.9257,4.43,4.0544,18.0581,3.386Zm-4.9837-7.4314-5.8986-4.4085-16.0339-2.7533-.5376,1.1748,2.9474,2.07,19.5227,3.917ZM81.3716,69.4515,62.6,73.285l-2.9563,2.2136.5667.8877,2.3519-.0207,11.7115-2.4819,7.0979-4.4322Zm82.1255,204.717.46.53,12.9851-7.5873,6.3312-5.2049.0619-2.394-2.1762.5781-17.6616,14.0782ZM312.8127,72.5663l-.7869.0773v24.069l.8831-.0291-.0962-24.1172Zm-247.9074-2.94,15.6738-3.3084,1.9236-1.6508-2.377-.9813-9.7424,1.9683-5.478,3.9722Zm262.4658-8.9821.5973-.8583-2.9036-2.7239-12.0226-2.2065-1.5357.71.4812,1.6911,3.0152,1.2684,8.054,1.0278,4.3142,1.0915ZM228.7282,270.341l.502-.5743-1.4185-1.5976-9.9419-7.3323-2.207-.5994.4926,2.8228,12.5728,7.2808ZM321.747,53.6245l-12.38-5.1789,12.38,5.1789Z"/><polygon class="cls-1" points="164.42 233.024 235.769 233.024 206.446 260.84 189.946 258.624 164.368 233.892 164.42 233.024 164.42 233.024"/><polygon class="cls-2" points="219.607 256.49 227.57 260.708 311.779 324.168 312.737 330.284 218.793 257.514 219.607 256.49 219.607 256.49"/><polygon class="cls-2" points="315.782 322.531 310.58 319.279 224.316 254.703 223.704 253.103 225.236 252.403 227.762 253.482 314.577 317.018 315.782 322.531 315.782 322.531"/><polygon class="cls-2" points="320.459 312.914 318.919 315.094 316.276 314.242 228.721 250.637 228.054 248.606 230.265 248.382 319.655 311.188 320.459 312.914 320.459 312.914"/><polygon class="cls-2" points="177.766 255.201 178.006 259.091 90.79 328.16 87.314 328.746 88.568 324.651 177.766 255.201 177.766 255.201"/><polygon class="cls-2" points="323.254 305.148 321.709 308.452 233.673 247.319 232.469 244.52 235.235 244.934 319.539 302.063 323.254 305.148 323.254 305.148"/><polygon class="cls-2" points="324.209 301.421 238.415 243.261 237.017 240.29 239.79 240.707 323.072 295.528 324.209 301.421 324.209 301.421"/><polygon class="cls-2" points="174.595 251.524 171.266 256.876 87.469 321.362 85.021 322.395 87.728 315.901 171.496 253.332 174.595 251.524 174.595 251.524"/><polygon class="cls-2" points="82.384 315.491 82.62 310.538 168.906 247.992 171.392 248.532 170.238 250.318 82.384 315.491 82.384 315.491"/><polygon class="cls-2" points="239.914 237.05 245.367 237.107 327.448 290.159 328.551 292.498 325.388 293.255 241.601 238.573 239.914 237.05 239.914 237.05"/><polygon class="cls-2" points="331.744 285.11 330.479 287.481 328.505 286.637 245.463 233.89 244.724 232.166 246.966 231.581 330.289 283.118 332.762 283.825 331.744 285.11 331.744 285.11"/><polygon class="cls-2" points="78.6 308.49 79.729 303.694 163.86 244.135 166.921 244.405 165.722 246.195 79.942 308.098 78.6 308.49 78.6 308.49"/><polygon class="cls-2" points="332.723 280.686 250.125 229.834 248.847 228.091 250.898 227.208 257.517 230.554 331.884 275.238 332.723 280.686 332.723 280.686"/><polygon class="cls-2" points="76.335 301.854 78.281 295.437 159.376 240.108 162.178 239.788 161.252 242.152 76.335 301.854 76.335 301.854"/><polygon class="cls-2" points="255.021 222.412 334.299 268.278 336.22 269.661 336.355 272.56 333.993 272.736 254.285 225.403 253.071 223.612 255.021 222.412 255.021 222.412"/><polygon class="cls-2" points="156.97 235.03 156.981 238.531 73.735 294.49 71.26 291.7 156.97 235.03 156.97 235.03"/><polygon class="cls-2" points="258.873 217.876 337.468 261.694 339.737 264.772 335.824 265.742 258.15 220.758 257.553 219.149 258.873 217.876 258.873 217.876"/><polygon class="cls-2" points="70.45 287.673 70.52 283.487 149.183 232.956 152.99 230.933 152.705 234.314 70.45 287.673 70.45 287.673"/><polygon class="cls-2" points="260.603 215.359 266.632 214.934 341.756 256.428 342.392 258.543 340.24 259.479 260.603 215.359 260.603 215.359"/><polygon class="cls-2" points="111.562 47.969 115.186 50.647 115.118 130.983 114.923 132.483 111.562 132.483 111.562 47.969 111.562 47.969"/><polygon class="cls-2" points="108.356 47.673 108.356 131.345 104.823 131.345 104.949 49.875 108.356 47.673 108.356 47.673"/><polygon class="cls-2" points="267.241 208.801 343.698 249.004 344.9 252.027 341.837 252.437 265.939 211.566 264.974 210.154 267.241 208.801 267.241 208.801"/><polygon class="cls-2" points="67.219 281.146 67.976 276.45 147.946 227.404 149.888 227.983 148.866 229.697 67.219 281.146 67.219 281.146"/><polygon class="cls-2" points="270.973 203.747 345.687 241.862 346.508 246.921 271.674 207.71 270.973 203.747 270.973 203.747"/><polygon class="cls-2" points="147.153 134.745 143.478 132.054 143.497 54.577 145.103 52.405 147.111 55.15 147.153 134.745 147.153 134.745"/><polygon class="cls-2" points="156.572 54.071 160.142 56.693 160.22 134.204 160.042 134.986 156.504 132.387 156.392 56.279 156.572 54.071 156.572 54.071"/><polygon class="cls-2" points="64.712 274.187 66.881 268.428 143.534 223.058 145.248 223.505 144.482 225.356 64.712 274.187 64.712 274.187"/><polygon class="cls-2" points="257.385 133.32 253.751 130.88 253.136 52.606 254.813 50.592 256.76 52.663 257.385 133.32 257.385 133.32"/><polygon class="cls-2" points="350.99 236.617 345.263 238.39 274.146 202.357 273.501 200.28 275.611 199.38 350.99 236.617 350.99 236.617"/><polygon class="cls-2" points="137.123 50.95 140.558 54.657 140.483 131.926 139.371 134.731 137.539 132.097 136.792 53.871 137.123 50.95 137.123 50.95"/><polygon class="cls-2" points="250.658 133.581 246.99 131.093 246.313 54.255 248.238 51.893 250.185 54.268 250.658 133.581 250.658 133.581"/><polygon class="cls-2" points="142.402 219.835 62.249 267.385 62.538 263.137 136.464 219.767 142.402 219.835 142.402 219.835"/><polygon class="cls-2" points="208.297 135.419 208.297 55.009 211.804 57.959 212.12 132.615 208.297 135.419 208.297 135.419"/><polygon class="cls-2" points="351.356 233.094 279.165 197.839 277.553 195.513 280.33 194.743 352.112 229.45 353.443 231.328 351.356 233.094 351.356 233.094"/><polygon class="cls-2" points="297.753 45.739 301.839 48.274 302.557 122.088 302.915 126.554 299.627 128.981 297.753 45.739 297.753 45.739"/><polygon class="cls-2" points="198.931 135.553 195.965 133.322 195.059 57.846 196.528 54.971 198.687 57.667 199.065 134.344 198.931 135.553 198.931 135.553"/><polygon class="cls-2" points="354.485 226.973 282.135 192.382 280.702 190.684 283.54 189.614 354.224 222.497 354.485 226.973 354.485 226.973"/><polygon class="cls-2" points="269.27 48.245 270.458 129.285 270.302 131.771 268.462 132.977 266.899 131.804 265.962 50.933 269.27 48.245 269.27 48.245"/><polygon class="cls-2" points="98.457 89.3 98.469 50.259 100.297 47.307 102.146 50.335 101.981 128.661 99.919 131.183 98.357 128.623 98.364 89.3 98.457 89.3 98.457 89.3"/><polygon class="cls-2" points="138.13 215.453 59.668 260.524 59.772 256.461 132.309 215.102 138.13 215.453 138.13 215.453"/><polygon class="cls-2" points="296.326 130.238 293.022 130.238 291.622 47.737 295.254 45.58 296.326 130.238 296.326 130.238"/><polygon class="cls-2" points="357.985 220.648 285.695 187.438 284.584 185.563 286.582 184.716 356.921 215.777 357.985 220.648 357.985 220.648"/><polygon class="cls-2" points="260.237 132.869 259.633 51.474 261.184 49.675 262.614 51.477 264.118 129.968 260.237 132.869 260.237 132.869"/><polygon class="cls-2" points="272.595 89.818 272.573 49.678 274.408 47.323 275.696 49.68 277.068 130.083 274.649 132.498 273.355 130.219 273.239 89.816 272.595 89.818 272.595 89.818"/><polygon class="cls-2" points="188.485 55.041 192.191 57.724 192.315 133.525 190.883 135.901 189.376 133.488 188.371 56.537 188.485 55.041 188.485 55.041"/><polygon class="cls-2" points="201.861 135.255 201.493 57.036 203.51 54.708 205.213 56.975 205.629 133.064 201.861 135.255 201.861 135.255"/><polygon class="cls-2" points="287.406 181.544 289.482 179.005 359.983 209.485 360.819 212.596 358.289 212.923 287.406 181.544 287.406 181.544"/><polygon class="cls-2" points="214.808 54.757 217.651 54.757 218.935 135.173 214.808 135.356 214.808 54.757 214.808 54.757"/><polygon class="cls-2" points="56.13 254.084 56.79 249.712 129.426 210.06 132.069 209.428 133.425 210.579 132.437 211.868 56.13 254.084 56.13 254.084"/><polygon class="cls-2" points="153.83 94.333 153.805 132.241 152.322 135.164 150.057 132.104 149.852 56.02 151.554 52.88 153.458 56.138 153.473 94.333 153.83 94.333 153.83 94.333"/><polygon class="cls-2" points="292.708 173.781 362.645 202.964 363.424 206.201 360.852 206.492 297.262 179 292.519 177.346 291.492 175.196 292.708 173.781 292.708 173.781"/><polygon class="cls-2" points="130.193 205.332 128.403 207.332 55.174 246.414 52.726 246.661 53.557 243.592 127.036 204.87 130.193 205.332 130.193 205.332"/><polygon class="cls-2" points="366.936 193.908 302.239 167.628 297.961 166.341 296.457 164.285 298.789 162.849 300.122 163.175 368.03 189.791 369.119 191.567 366.936 193.908 366.936 193.908"/><polygon class="cls-2" points="95.445 131.176 93.787 129.701 91.812 119.982 92.673 49.288 95.445 47.269 95.445 131.176 95.445 131.176"/><polygon class="cls-2" points="366.977 197.226 361.673 199.176 294.771 171.427 294.088 170.165 295.004 169.009 297.966 169.297 366.977 197.226 366.977 197.226"/><polygon class="cls-2" points="127.49 133.228 124.338 130.676 124.411 48.663 127.577 51.731 127.49 133.228 127.49 133.228"/><polygon class="cls-2" points="371.699 183.714 369.948 187.25 299.69 160.173 298.731 159.086 299.6 157.871 302.526 157.813 371.699 183.714 371.699 183.714"/><polygon class="cls-2" points="285.198 46.351 288.875 48.915 289.84 128.872 286.749 130.804 285.198 46.351 285.198 46.351"/><polygon class="cls-2" points="302.548 151.509 371.715 176.251 372.485 179.024 370.228 179.92 303.007 155.054 301.555 152.117 302.548 151.509 302.548 151.509"/><polygon class="cls-2" points="237.779 93.798 237.748 130.617 235.962 134.853 234.768 130.713 233.429 56.057 235.212 52.941 237.192 56.153 237.217 93.799 237.779 93.798 237.779 93.798"/><polygon class="cls-2" points="51.106 241.159 49.334 238.916 50.279 237.025 121.142 200.867 124.607 200.948 122.608 203.35 54.158 239.215 51.106 241.159 51.106 241.159"/><polygon class="cls-2" points="279.798 131.335 279.37 53.47 278.832 49.655 279.94 46.503 282.277 48.196 283.073 119.764 283.815 128.36 279.798 131.335 279.798 131.335"/><polygon class="cls-2" points="305.409 145.851 373.375 169.51 374.368 172.362 372.176 173.31 305.061 149.242 303.289 147.553 305.409 145.851 305.409 145.851"/><polygon class="cls-2" points="244.403 93.457 244.314 132.717 242.626 134.81 241.273 132.572 240.05 54.633 242.266 52.6 243.617 54.728 243.955 93.457 244.403 93.457 244.403 93.457"/><polygon class="cls-2" points="305.409 142.599 310.656 140.835 375.465 162.721 376.483 165.54 374.605 166.578 305.409 142.599 305.409 142.599"/><polygon class="cls-2" points="122.119 196.569 120.467 197.958 49.641 233.519 46.927 232.796 48.14 230.13 117.965 195.933 121.707 195.596 122.119 196.569 122.119 196.569"/><polygon class="cls-2" points="45.138 227.758 44.162 226.283 45.165 223.834 115.59 190.384 117.561 191.015 116.732 193.198 47.131 227.062 45.138 227.758 45.138 227.758"/><polygon class="cls-2" points="304.553 47.574 308.625 48.272 308.578 58.033 307.587 61.613 307.725 67.077 308.566 69.86 309.047 111.09 306.83 122.2 305.482 122.044 304.553 47.574 304.553 47.574"/><polygon class="cls-2" points="309.14 134.039 376.628 155.754 378.491 158.358 375.687 159.854 309.087 137.551 309.14 134.039 309.14 134.039"/><polygon class="cls-2" points="179.34 95.581 179.316 132.964 177.898 135.668 176.265 132.863 176.034 56.99 177.433 54.804 179.12 57.082 179.252 95.581 179.34 95.581 179.34 95.581"/><polygon class="cls-2" points="380.311 149.602 374.867 152.143 311.355 131.612 309.81 129.931 312.244 128.897 380.311 149.602 380.311 149.602"/><polygon class="cls-2" points="114.304 187.086 111.909 188.807 44.686 220.309 41.553 219.958 43.222 217 109.867 185.831 113.347 185.433 114.304 187.086 114.304 187.086"/><polygon class="cls-2" points="163.022 54.588 165.842 56.833 165.925 82.393 166.68 91.264 166.129 100.433 166.804 132.079 164.969 135.481 163.129 131.95 163.022 54.588 163.022 54.588"/><polygon class="cls-2" points="313.173 122.592 379.723 142.197 381.158 145.195 378.619 146.155 313.171 126.002 311.918 123.911 313.173 122.592 313.173 122.592"/><polygon class="cls-2" points="230.953 54.197 231.259 132.142 228.162 134.993 227.578 57.096 230.953 54.197 230.953 54.197"/><polygon class="cls-2" points="106.365 174.591 105.342 178.253 39.031 207.334 35.553 206.93 35.364 205.62 106.365 174.591 106.365 174.591"/><polygon class="cls-2" points="220.995 94.744 221.042 57.111 222.122 54.432 224.241 56.531 224.395 133.283 222.937 135.403 221.615 133.214 221.556 94.745 220.995 94.744 220.995 94.744"/><polygon class="cls-2" points="381.081 139.417 315.052 120.032 313.445 117.606 314.1 116.798 375.939 133.821 381.081 139.417 381.081 139.417"/><polygon class="cls-2" points="30.2 188.807 28.539 186.69 29.596 184.935 95.981 158.887 99.274 159.331 97.364 161.884 30.956 188.138 30.2 188.807 30.2 188.807"/><polygon class="cls-2" points="169.758 135.11 169.463 56.567 170.995 54.493 172.514 56.661 173.452 132.715 169.758 135.11 169.758 135.11"/><polygon class="cls-2" points="35.167 201.532 33.441 199.949 34.406 198.286 100.492 170.128 102.606 169.54 104.2 170.666 103.452 172.063 35.167 201.532 35.167 201.532"/><polygon class="cls-2" points="40.353 214.37 39.103 213.44 39.804 211.095 45.133 208.249 106.955 180.759 110.743 181.19 108.393 183.302 43.284 213.365 40.353 214.37 40.353 214.37"/><polygon class="cls-2" points="100.326 163.981 102.04 165.37 100.688 166.964 33.794 194.508 30.897 193.776 32.615 191.274 100.326 163.981 100.326 163.981"/><polygon class="cls-2" points="95.866 152.808 97.214 153.846 96.039 155.643 29.037 181.347 26.639 180.417 27.825 178.237 93.595 153.373 95.866 152.808 95.866 152.808"/><polygon class="cls-2" points="24.329 172.057 92.381 147.315 94.842 147.852 93.57 149.903 26.997 175.013 23.929 172.985 24.329 172.057 24.329 172.057"/><polygon class="cls-2" points="134.091 133.406 130.99 131.088 130.868 52.175 132.387 50.118 133.735 52.051 134.091 133.406 134.091 133.406"/><polygon class="cls-2" points="118.16 48.14 121.081 50.154 120.898 130.949 119.527 133.04 118.133 130.829 118.04 49.672 118.16 48.14 118.16 48.14"/><polygon class="cls-2" points="91.121 141.511 92.81 143.094 91.111 144.455 24.712 168.418 23.336 167.596 24.323 164.863 88.815 142.141 91.121 141.511 91.121 141.511"/><polygon class="cls-2" points="89.022 131.204 87.514 132.92 22.472 154.704 20.163 154.876 19.518 152.347 21.446 151.292 86.424 130.057 89.022 131.204 89.022 131.204"/><polygon class="cls-2" points="21.407 159.38 22.592 158.081 87.002 136.227 90.208 136.441 88.398 139.139 25.04 160.78 23.833 161.408 21.407 159.38 21.407 159.38"/><polygon class="cls-2" points="182.505 55.043 185.58 55.043 185.837 133.706 184.443 135.819 182.847 133.5 182.505 55.043 182.505 55.043"/><polygon class="cls-2" points="86.582 126.179 85.133 127.003 20.868 148.142 18.814 147.218 19.826 144.694 84.38 124.389 86.662 125.27 86.582 126.179 86.582 126.179"/><polygon class="cls-2" points="376.295 130.906 373.412 130.444 317.085 114.495 314.949 111.617 315.694 110.83 319.427 111.361 373.091 126.483 376.962 129.981 376.295 130.906 376.295 130.906"/><polygon class="cls-2" points="19.307 140.771 23.492 136.135 82.694 118.359 84.258 119.158 83.335 121.581 23.311 139.921 19.307 140.771 19.307 140.771"/><polygon class="cls-2" points="23.226 132.987 30.045 127.248 80.714 112.807 83.218 113.814 81.545 115.603 23.226 132.987 23.226 132.987"/><polygon class="cls-2" points="371.4 122.431 369.488 122.248 317.807 108.23 316.615 105.73 318.797 104.97 366.511 117.578 371.4 122.431 371.4 122.431"/><polygon class="cls-2" points="81.272 106.417 79.402 110.201 31.071 123.679 28.036 124.2 31.801 119.936 77.732 106.984 81.272 106.417 81.272 106.417"/><polygon class="cls-2" points="365.828 114.481 319.293 102.191 317.792 100.357 319.803 99.24 362.809 110.121 365.828 114.481 365.828 114.481"/><polygon class="cls-2" points="80.041 100.881 78.255 104.061 36.172 115.302 32.62 115.811 38.435 111.214 78.497 101.055 80.041 100.881 80.041 100.881"/><polygon class="cls-2" points="360.304 106.279 320.436 96.549 318.623 93.933 321.123 93.037 357.259 101.802 361.194 105.27 360.304 106.279 360.304 106.279"/><polygon class="cls-2" points="37.314 107.679 52.035 101.257 72.743 95.841 77.714 94.998 79.313 96.093 77.907 97.658 39.828 107.791 37.314 107.679 37.314 107.679"/><polygon class="cls-2" points="126.265 305.267 91.917 337.583 92.379 331.383 125.798 304.642 126.265 305.267 126.265 305.267"/><polygon class="cls-2" points="355.922 98.746 320.471 90.343 319.008 88.482 321.413 86.867 350.096 93.32 355.922 98.746 355.922 98.746"/><polygon class="cls-2" points="89.069 69.829 89.069 110.526 88.607 110.763 87.214 107.53 86.168 74.798 89.069 69.829 89.069 69.829"/><polygon class="cls-2" points="89.195 50.267 89.095 61.606 86.599 64.484 85.588 58.732 81.6 60.723 70.679 62.13 73.848 58.737 84.792 56.872 87.095 55.117 84.458 54.104 76.954 54.818 89.195 50.267 89.195 50.267"/><polygon class="cls-2" points="44.094 99.556 47.994 95.591 74.033 89.033 75.969 88.808 78.184 89.802 76.379 92.055 46.346 99.265 44.094 99.556 44.094 99.556"/><polygon class="cls-2" points="349.647 90.376 346.98 90.185 321.139 83.791 319.793 82.132 321.643 81.088 346.398 86.256 350.226 89.484 349.647 90.376 349.647 90.376"/><polygon class="cls-2" points="309.05 337.454 282.59 311.647 283.519 311.357 308.425 331.05 309.05 337.454 309.05 337.454"/><polygon class="cls-2" points="48.902 90.568 53.882 88.184 76.172 82.642 78.04 83.4 76.803 85.714 50.898 91.895 49.203 91.575 48.902 90.568 48.902 90.568"/><polygon class="cls-2" points="319.202 74.158 341.773 79.104 344.635 82.883 320.075 77.409 318.44 75.246 319.202 74.158 319.202 74.158"/><polygon class="cls-2" points="79.79 76.9 77.844 79.17 55.036 84.171 58.84 80.211 77.977 76.539 79.79 76.9 79.79 76.9"/><polygon class="cls-2" points="338.75 75.285 320.692 71.899 316.262 67.844 324.808 68.77 332.964 70.362 338.75 75.285 338.75 75.285"/><polygon class="cls-2" points="333.767 67.853 314.244 63.936 311.297 61.866 311.834 60.691 327.868 63.445 333.767 67.853 333.767 67.853"/><polygon class="cls-2" points="81.372 69.451 74.274 73.884 62.562 76.366 60.21 76.386 59.644 75.499 62.6 73.285 81.372 69.451 81.372 69.451"/><polygon class="cls-2" points="163.497 274.168 181.159 260.09 183.335 259.512 183.273 261.906 176.942 267.111 163.957 274.698 163.497 274.168 163.497 274.168"/><polygon class="cls-2" points="312.813 72.566 312.909 96.683 312.026 96.713 312.026 72.644 312.813 72.566 312.813 72.566"/><polygon class="cls-2" points="64.905 69.626 70.383 65.654 80.126 63.686 82.503 64.667 80.579 66.318 64.905 69.626 64.905 69.626"/><polygon class="cls-2" points="327.371 60.644 323.057 59.553 315.003 58.525 311.988 57.257 311.507 55.566 313.042 54.856 325.065 57.062 327.968 59.786 327.371 60.644 327.371 60.644"/><polygon class="cls-2" points="228.728 270.341 216.155 263.06 215.663 260.237 217.87 260.837 227.812 268.169 229.23 269.767 228.728 270.341 228.728 270.341"/><polygon class="cls-2" points="321.747 53.624 309.367 48.446 321.747 53.624 321.747 53.624"/><path d="M198.4429,306.5405c-7.7835.6236-13.81-4.9394-14.2393-11.704-.1255-1.9745-1.4745-2.2538-2.884-2.8451-4.6737-1.9608-4.25-1.6922-3.5809-4.7667.4566-2.0977,1.7078-2.559,3.2037-1.6308,3.3571,2.0832,5.27.9464,8.2311-1.5081,5.9375-4.922,17.0519-4.5088,22.4527,3.1483a11.4071,11.4071,0,0,1-3.7636,16.6694c-2.8153,1.5543-6.0982,2.2616-9.17,3.3514Zm1.1279-16.2458c-2.97-.0658-4.4148,1.11-4.3951,3.2547.0215,2.3375,1.2128,3.6127,3.5718,3.7311a3.5506,3.5506,0,0,0,3.9684-3.7031C202.6971,291.21,201.3121,290.2873,199.5708,290.2947Zm3.9369,9.3117c3.4685-1.3176,5.0716-3.7752,4.7455-6.8849a5.16,5.16,0,0,0-3.6793-4.2525C207.2653,294.6145,207.2034,294.6284,203.5077,299.6064Zm-10.3445-.8792c-2.4856-3.5429-1.6382-6.8828.0876-10.2643-2.4972.9664-2.8572,2.9662-2.8325,5.1C190.442,295.6138,190.4923,297.7138,193.1632,298.7272Z"/></svg>