<svg id="Layer_1" data-name="Layer 1" xmlns="http://www.w3.org/2000/svg" viewBox="0 0 400 400"><defs><style>.cls-1{fill:none;}.cls-2{fill:#e20c10;}</style></defs><title>pussybow_tp</title><rect class="cls-1" x="-18" y="-68" width="434" height="144"/><path d="M151.6926,348.1333a4.7393,4.7393,0,0,0-1.327-.2272c-3.4365.6679-6.9092,1.21-10.2865,2.1086a117.5454,117.5454,0,0,0-13.09,4.0507,25.5229,25.5229,0,0,1-13.2535,1.628c-1.9792-.28-3.49-3.3333-3.2458-6.3349.1828-2.25.4851-4.4924.7878-6.7309.531-3.9281.9641-7.8767,1.6976-11.7678.7153-3.7943,1.7456-7.53,2.6563-11.2863.5676-2.3415,1.1759-4.6731,1.7552-7.0117,1.2339-4.9816,2.3551-9.9939,3.7209-14.9389,1.32-4.7784,2.92-9.4787,4.3354-14.2317q1.1-3.6948,1.98-7.4545c.8209-3.4947,1.5437-7.0124,2.3088-10.52.5122-2.3484,1.0552-4.6908,1.5176-7.0489a11.0872,11.0872,0,0,0,.02-2.0713c-2.9641.54-5.7356,1.1835-8.5439,1.519a55.3944,55.3944,0,0,1-8.9065.5315c-3.4078-.1473-6.46-1.5082-7.813-4.924-1.5145-3.8232-4.4142-6.1042-7.743-8.1718-3.1643-1.9654-6.3217-4.0491-7.7588-7.7871a11.5961,11.5961,0,0,1-1.1224-2.9752,66.3142,66.3142,0,0,1,1.6643-20.42,75.8125,75.8125,0,0,0,1.5532-10.6713c.43-4.8454-2.8821-7.9856-6.7885-10.2664a115.14,115.14,0,0,1-12.3443-7.7351c-4.9152-3.7809-5.3724-11.208-3.4225-16.02a39.4085,39.4085,0,0,1,6.509-10.6214A75.6859,75.6859,0,0,1,86.918,148.4766c6.2423-5.0132,12.732-9.747,19.3641-14.2341,3.2425-2.1937,6.9955-3.6666,10.5984-5.2854,4.2589-1.9135,8.6083-3.6251,12.9086-5.4474a8.5414,8.5414,0,0,0,1.3029-.9272c-3.7052-2.3354-7.2616-4.4456-10.6794-6.76-5.8191-3.9411-11.6638-7.86-17.2908-12.0652-6.8543-5.1224-13.5043-10.5188-20.22-15.8252a30.1092,30.1092,0,0,1-4.5739-3.9838c-1.58-1.8847-3.2134-1.5624-5.0217-.7675-4.8893,2.1492-9.78,4.2952-14.6412,6.5079-6.0611,2.7592-12.0744,5.6236-18.1427,8.3665-4.1017,1.854-8.2837,3.53-12.3913,5.3713-4.0817,1.83-8.1006,3.7992-12.1743,5.6475A121.007,121.007,0,0,1,4.6113,113.887c-.7859.2637-2.355-1.4286-3.3716-2.4162-.4082-.3966-.3006-1.3243-.4455-2.106,4.3637-1.916,8.6815-3.799,12.9883-5.7067,3.6721-1.6265,7.329-3.2873,10.9974-4.9222,4.8539-2.1632,9.7206-4.2978,14.5669-6.4778,6.0116-2.7042,11.9908-5.4809,18.0168-8.1522,4.0369-1.79,8.1048-3.5156,12.2073-5.1483,3.3385-1.3285,6.1139-3.205,7.8321-6.4893A10.5782,10.5782,0,0,1,79.5,69.9841c4.0938-3.9913,9.0364-6.61,14.0676-9.2632,8.287-4.3706,17.0911-7.8807,24.49-13.8345,1.8053-1.4527,2.1581-3.4841,2.3391-5.644.2057-2.4561.5189-4.908.903-7.3432.5675-3.5977,3.4912-5.2782,6.1331-7.0663,4.7695-3.2283,10.309-3.071,15.6479-2.7351,7.3491.4624,14.7157,1.21,21.7829,3.5844a13.6242,13.6242,0,0,0,1.634.1748c5.1938,1.0359,10.3809,2.1057,15.5775,3.1274,1.4592.2869,2.9573.3787,4.4138.6765a71.04,71.04,0,0,0,25.9521.34q10.3233-1.697,20.5818-3.7816c4.8546-.98,9.6019-2.5852,14.4866-3.2976a127.463,127.463,0,0,1,18.2963-1.544c7.0746-.001,12.5686,3.71,16.3237,9.5576A115.3705,115.3705,0,0,1,288.4732,45.05c2.6141,5.3865,6.3224,9.72,11.7869,12.2593,4.524,2.1024,9.2389,3.7912,13.7883,5.8426,5.2279,2.3573,10.3833,4.8282,13.0923,10.4674.4923,1.0248,1.8964,1.77,3.04,2.2961,4.8347,2.2224,9.7269,4.32,14.6041,6.4493,3.2007,1.3973,6.4176,2.7577,9.617,4.158,6.3646,2.7855,12.7075,5.6214,19.0885,8.3685,3.4739,1.4955,7.0207,2.8206,10.5115,4.2782,4.4884,1.8741,8.9747,3.7566,13.4186,5.7328,1.8421.8192,2.287,2.372,1.2654,3.9633-.9544,1.4865-1.993,1.2789-3.5507.5036-3.3846-1.6847-6.9842-2.9342-10.4791-4.4016q-4.9161-2.064-9.7964-4.213c-3.46-1.5167-6.9027-3.0738-10.3551-4.6083-6.2012-2.7564-12.3811-5.5623-18.6148-8.2431-3.6876-1.5859-7.4807-2.925-11.1885-4.466-1.9935-.8285-3.877-1.9211-5.8669-2.76-1.4975-.631-2.723-1.0346-4.3153.6458a126.218,126.218,0,0,1-10.1808,9.0241c-4.0488,3.4386-8.11,6.8661-12.2527,10.19q-5.06,4.06-10.3337,7.8518c-4.8072,3.4471-9.6987,6.7772-14.5794,10.12-1.3066.8949-2.7057,1.6547-4.3585,2.6559,2.79,1.2619,5.1506,2.3042,7.49,3.3926,5.7349,2.668,11.7075,4.94,17.1228,8.15a163.7135,163.7135,0,0,1,17.1276,12.0775,88.1658,88.1658,0,0,1,11.6348,10.6919c4.4718,5.029,8.389,10.5075,8.32,17.8357a11.3767,11.3767,0,0,1-4.4565,9.0513c-3.5856,2.8573-7.67,5.0973-11.5807,7.5363-4.032,2.5145-7.1789,5.5973-6.5884,10.8175.33,2.9182,1.0728,5.7891,1.6156,8.684.39,2.08.8832,4.1514,1.1056,6.2505.3882,3.6651.51,7.3589.912,11.0222.6751,6.15-1.9623,10.6009-6.82,14.04-2.0775,1.47-4.1452,2.9684-6.0932,4.6019a6.07,6.07,0,0,0-2.0787,2.7711c-1.4734,5.819-5.8589,7.774-11.0367,7.7271-4.3023-.039-8.597-1.1928-12.89-1.8872a31.5833,31.5833,0,0,1-5.5187-1.078c-4.2837-1.5191-8.5177-3.1938-12.6995-4.9752a15.3233,15.3233,0,0,1-3.1062-2.3995l-.5307.4374c1.1838,3.9868,2.4308,7.9562,3.5377,11.9642,1.9493,7.0591,3.6942,14.1766,5.7513,21.2033,1.5664,5.35,3.4918,10.5956,5.2425,15.8926,2.3827,7.2091,4.8054,14.4056,7.1081,21.64,1.7552,5.5147,3.2426,11.1157,5.0434,16.6147,2.4538,7.4933,5.1267,14.9146,7.6406,22.3887a72.11,72.11,0,0,0,7.6045,16.1373,7.5766,7.5766,0,0,1,.8223,2.4414c.8985,4.0367.2936,4.8288-3.7883,4.7626-2.0971-.034-4.2093-.5073-6.2807-.3459a24.0618,24.0618,0,0,0-5.8616,1.3741c-6.08,2.0934-12.1627,4.1951-18.16,6.5111-5.87,2.2666-11.7544,4.2156-18.1535,4.2191a8.3,8.3,0,0,1-6.1691-2.7661,6.0837,6.0837,0,0,1-.8838-7.2664c.7133-1.3446,1.2041-2.8074,2-4.7042-3.9075,2.2569-7.3012,4.2239-10.7018,6.1791-3.2868,1.89-6.668,3.6329-9.8423,5.695a51.5014,51.5014,0,0,0-6.4638,5.1565c-2.9331,2.6652-6.1334,4.4777-10.2374,4.3175-3.4724-.1356-4.9767-1.0556-5.6838-4.4078-1.289-6.11-2.3644-12.267-3.433-18.4211-.7073-4.0734-1.1815-8.188-1.9424-12.25-.0994-.5309-1.2921-1.2314-1.9679-1.22-4.9412.0823-9.8891.1963-14.8168.5516a92.488,92.488,0,0,1-19.2058-.4524,9.1058,9.1058,0,0,1-6.7619-4.4588c-1.5511-2.6446-.0181-5.2464,1.7058-7.4976C151.0569,348.8921,151.2868,348.628,151.6926,348.1333ZM264.6589,31.0346c1.8546,2.1627,4.0757,3.7454,4.8509,5.8585a25.7313,25.7313,0,0,1,.5665,15.5314,59.1586,59.1586,0,0,1-8.0578,18.1171c-3.31,4.9079-6.6708,9.8045-10.3568,14.429a88.2667,88.2667,0,0,1-8.9835,9.3838c-2.9162,2.7168-6.1376,5.1071-9.2368,7.6263-2.5846,2.1008-5.1868,4.18-8.3108,6.6954,1.31.2776,1.94.4368,2.5792.5424,4.5394.7507,9.1223,1.3019,13.608,2.2935,3.54.7826,6.96,2.1064,10.4353,3.1829,3.3305,1.0316,6.6563,2.0793,9.999,3.07,1.5076.4466,3.4285,1.5424,4.5111,1.0131a108.9094,108.9094,0,0,0,11.3247-6.7053c3.6083-2.3438,7.1087-4.8586,10.5985-7.3786,3.7855-2.7334,7.5812-5.4626,11.23-8.3723,3.5983-2.87,7.0513-5.925,10.5076-8.9676,3.8648-3.4022,7.6355-6.9111,11.5028-10.31,1.2754-1.121.9837-2.0086.0329-3.1164-2.9769-3.4686-7.074-5.1271-11.0747-6.9287-3.7944-1.7087-7.6421-3.2984-11.4442-4.99-1.9713-.877-3.8947-1.8615-5.4786-2.6236-.3038,4.2475-.7329,8.31-.8514,12.3817-.1585,5.4427-3.2364,9.2268-6.9638,12.5644a87.2837,87.2837,0,0,1-7.5961,5.6q-7.2354,5.182-14.4991,10.3242c-2.3052,1.6283-4.6537,3.1951-6.9826,4.79l.3094.6043c2.0712-.9288,4.1113-1.94,6.232-2.7376.6627-.2491,2.018-.1876,2.2338.1953.6292,1.1165.5215,2.1923-1.1655,2.6129-1.0889.2714-2.0181,1.13-3.0938,1.5184-2.8494,1.0277-5.7,2.0987-8.6281,2.8443a1.7648,1.7648,0,0,1-2.071-2.6761,20.9488,20.9488,0,0,1,4.4918-5.0928c2.5732-1.9507,5.5942-3.2985,8.2663-5.1335,6.0577-4.16,12.1364-8.307,17.9717-12.7666a24.6429,24.6429,0,0,0,7.5814-8.8422c1.77-3.6882,1.398-7.4835,1.2472-11.2773-.165-4.1506-.747-8.2463-2.8683-11.9693-1.76-3.0887-3.35-6.2751-5.1368-9.3472a79.4648,79.4648,0,0,0-5.9545-9.507c-1.8337-2.319-4.1815-4.5883-7.455-4.7087-4.1667-.1532-8.251-1.0254-12.5441-.0107-7.5253,1.7787-15.2021,2.9174-22.8182,4.3091-1.4656.2678-2.9755.3441-4.411.7166A139.3021,139.3021,0,0,1,203.52,38.0447c-6.5863.4633-13.0479-.5421-19.4738-1.9362-4.1041-.89-8.2581-1.5516-12.3922-2.3025-7.4962-1.3615-14.976-2.8289-22.5-4.0132-3.0812-.485-6.3114-.05-9.3811-.5748-3.5274-.6037-6.5524.6727-9.3319,2.188a7.61,7.61,0,0,0-4.2712,7.661,30.0607,30.0607,0,0,1-.2448,5.1625c-.2333,2.7594-.9809,5.559-.7079,8.26a53.1162,53.1162,0,0,0,4.5764,17.1052c2.4843,5.3647,4.8893,10.723,9.6606,14.8l-2.8893-9.5376c2.5639.153,3.7849.7079,4.2274,2.6835a21.5119,21.5119,0,0,0,1.4718,3.6095c2.142,4.9963,6.9342,7.4871,10.471,11.1691a114.3388,114.3388,0,0,1,8.5549,10.2394c1.2165,1.6058.5186,2.8357-1.4187,3.2215a8.1579,8.1579,0,0,1-7.8913-2.4154c-1.9632-2.0467-3.7444-4.2679-5.7065-6.3157-6.1517-6.4207-12.6668-12.5406-16.9482-20.498a55.5614,55.5614,0,0,1-6.1163-16.3961c-.5051-2.7846-1.1508-5.5438-1.7878-8.5756-2.0266,1.354-3.675,2.66-5.4989,3.6384-7.6392,4.0986-15.451,7.8911-22.9539,12.2213-3.8941,2.2473-7.3337,5.3105-10.8639,8.1478-1.6418,1.32-1.53,2.9191.1517,4.294,7.5916,6.2069,15.0589,12.5747,22.8172,18.5656,5.496,4.2439,11.367,8.0051,17.1064,11.9295,3.3029,2.2583,6.7469,4.3145,10.0005,6.6392a11.401,11.401,0,0,0,11.6582,1.5026c3.505-1.4043,7.0914-2.6232,10.6907-3.771,6.8191-2.1745,13.6762-4.2293,20.5083-6.3637a22.1963,22.1963,0,0,0,2.4874-1.1743c-1.0249-.7669-1.5934-1.2585-2.2251-1.6477a20.9975,20.9975,0,0,1-2.2483-1.2149c-7.8434-6.3179-15.66-12.6159-22.4123-20.2058a85.97,85.97,0,0,1-16.5651-27.039c-2.0146-5.363-3.0988-11.0866-1.6955-16.8943.7849-3.2487,2.1732-6.1368,5.5868-7.42a6.574,6.574,0,0,1,1.49,1.22c.8143,1.2492,1.69,2.7027.3539,4.0217-2.2636,2.235-2.764,4.9156-2.5722,7.911.4016,6.2736,2.8863,11.91,5.489,17.4638,1.1862,2.5311,2.613,5.1524,5.5091,6.2686,5.8454,2.2529,11.5721,5.0219,17.6109,6.51A107.2286,107.2286,0,0,0,187.3215,79.41c10.0407.3754,20.1358-.1032,30.1817-.6728A89.2968,89.2968,0,0,0,237.87,75.469c6.14-1.8125,12.1128-3.7775,17.3875-7.45,2.8513-1.985,5.5764-4.04,6.569-7.7728,1.0918-4.1064,3.0288-8.0158,3.8434-12.1593.6082-3.094.9008-6.5447-1.3954-9.4394-.7383-.9306-1.764-2.1025-1.6908-3.0924C262.6825,34.2221,263.7175,32.9582,264.6589,31.0346ZM230.6644,124.326c-.4462.6983-.84,1.0605-.9219,1.4833a16.5874,16.5874,0,0,1-4.0416,7.9715c-.274.3093.057,1.6912.5107,2.0193,2.49,1.8,5.0811,3.4657,7.6833,5.1047,3.671,2.3124,7.4507,4.4586,11.0561,6.8672a114.0681,114.0681,0,0,1,9.8691,7.243c1.8494,1.547,3.1833,3.6984,4.82,5.5139,3.1319,3.4739,6.3966,6.8312,9.4553,10.3673q5.4989,6.3575,10.72,12.9535a62.5754,62.5754,0,0,1,3.613,5.7079c-4.0817.992-7.2832-.2543-10.0838-1.663-6.9069-3.4742-13.1632-7.947-17.2558-14.7664-.5395-.899-.8463-2.7955-.3378-3.3,1.3707-1.3612,1.9852.5355,2.8453,1.2478a1.7926,1.7926,0,0,1,.4449.5289c3.0082,5.7693,8.1717,9.233,13.4781,12.5119a32.6261,32.6261,0,0,0,4.06,1.8235l.508-.6086c-.6926-.83-1.36-1.6831-2.0825-2.4867-2.2634-2.518-4.63-4.9482-6.8059-7.539-3.9986-4.7612-7.7638-9.7229-11.8577-14.3983-4.9782-5.6852-11.5253-9.4041-17.7693-13.4714-4.4319-2.8869-8.9181-5.69-13.3519-8.5743-1.8007-1.1712-3.1559-.84-4.0876,1.0991-.2319.4827-.6708.8727-.8688,1.364-.95,2.358-1.7308,4.7765-.2633,7.1894,1.6263,2.6743,3.5,5.2042,5.0324,7.9283,3.51,6.24,7.02,12.4887,10.2619,18.87a51.7409,51.7409,0,0,1,4.9349,17.9409c.9731,8.8379,1.4379,17.76,5.5056,25.9333,2.7509,5.5278,5.32,11.155,8.3044,16.5532a21.7106,21.7106,0,0,0,5.1685,6.0774c4.8353,3.9709,10.7194,5.7311,16.7413,7.0081a43.73,43.73,0,0,0,5.33.8636c3.4729.296,6.9568.5685,10.4387.6045a3.1519,3.1519,0,0,0,3.2953-2.3861c.5554-1.7158,1.8451-3.1814,2.5986-4.8531a2.4021,2.4021,0,0,0-.374-2.041,44.7478,44.7478,0,0,0-4.31-4.83c-4.1673-3.9234-8.4053-7.7731-12.6658-11.5958a51.2544,51.2544,0,0,1-11.9763-16.5768c-.5086-1.0758-.6616-3.4251-.194-3.6668,2.0731-1.071,2.5326,1.2011,3.2828,2.35,2.5236,3.8648,4.5037,8.1376,7.3688,11.7114,2.8426,3.5458,6.5069,6.4321,9.8059,9.6128,2.4225,2.3358,4.9682,4.5611,7.2234,7.0493,3.1662,3.4933,4.9569,6.2833,9.6565,1.9388a18.1216,18.1216,0,0,0,4.0742-4.6695c1.9993-3.9318,1.1273-8.2535.6823-12.3849-.3738-3.47-1.41-6.8654-2.0834-10.3074a42.3309,42.3309,0,0,1-1.076-11.9837,12.1227,12.1227,0,0,1,5.3681-9.5162c4.0108-2.74,7.9114-5.6988,12.1558-8.0216a9.0818,9.0818,0,0,0,4.9955-8.045c.14-2.5865-1.28-4.8776-2.4895-6.7332-1.2094,1.4631-2.1007,3.5976-3.3295,3.8138-2.7754.4883-5.9791.7468-8.5406-.1861-6.5035-2.3686-12.78-5.3785-19.0869-8.2626-3.2864-1.5026-6.4661-3.2446-9.6576-4.9468-3.3379-1.78-6.6306-3.6449-9.9456-5.4679q-7.9133-4.3516-15.8281-8.7c-4.8649-2.6873-9.7116-5.4076-14.5767-8.0944-2.9-1.6018-5.8644-3.0932-8.7186-4.7723C235.13,127.41,233.0129,125.8789,230.6644,124.326Zm11.05,244.45c-.3895-1.6432-.6683-3.1393-1.1007-4.5895-2.3347-7.83-4.7657-15.6319-7.0421-23.4787-1.105-3.8091-2.0236-7.6774-2.8887-11.55-1.9438-8.7017-3.9792-17.389-5.6386-26.1463-1.3462-7.1043-2.3074-14.2878-3.2445-21.4617-1.3683-10.4741-2.7775-20.9506-3.7771-31.4633-1.3282-13.9668-2.56-27.9542-3.3182-41.9607-.8819-16.291-1.2339-32.6114-1.7332-48.9216-.0531-1.7361-.4845-2.3138-2.2824-2.2111a76.5344,76.5344,0,0,1-11.5047.1569c-1.91-.1806-2.5069.5272-2.813,1.8363a55.168,55.168,0,0,0-1.4509,8.0052c-.8328,10.2-1.4193,20.4193-2.27,30.6171-.6475,7.764-1.689,15.4957-2.3057,23.2615a178.7735,178.7735,0,0,0-.9339,20.1465c.2781,8.182,1.4349,16.3326,2.16,24.5013,1.1264,12.6893,2.2869,25.3765,3.278,38.0767.5063,6.4883.7627,13,.981,19.5064.6274,18.7041.9392,37.4275,4.33,55.9191.6217,3.39.981,6.8277,1.58,10.2226.3725,2.1121,1.8449,3.24,3.3284,2.5926a18.06,18.06,0,0,0,3.5975-2.1575c3.3685-2.5418,6.47-5.5009,10.0487-7.6874C226.2986,377.3563,234.1191,373.1085,241.714,368.7757ZM217.2109,158.0366l-.71.0788a39.5247,39.5247,0,0,0-.2879,4.1511c.3314,10.3749.717,20.7481,1.0847,31.1218.2216,6.2531.2582,12.5193.7035,18.7563.7364,10.3143,1.6015,20.6237,2.6638,30.9091.979,9.4793,2.2276,18.9324,3.4713,28.382,1.1529,8.76,2.3694,17.5142,3.7243,26.2451.8935,5.7583,1.93,11.504,3.1771,17.1951,1.4663,6.69,3.16,13.3338,4.8846,19.9639,1.6857,6.4814,3.54,12.919,5.31,19.3786,1.2761,4.6575,2.5147,9.3256,3.8226,13.9741a7.8444,7.8444,0,0,0,1.0478,2.0189,6.4739,6.4739,0,0,1-.1742,7.6423,24.9582,24.9582,0,0,0-2.2857,4.2908c-.4768,1.1607-.2461,2.002,1.195,2.7636,2.2391,1.1835,4.02.2776,6.0021-.3741,6.9184-2.2744,13.92-4.3125,20.7679-6.7794,5.6794-2.0457,11.27-4.1923,17.4421-4.0162.5684.0162,1.5584-.2175,1.6326-.5149a3.0344,3.0344,0,0,0-.4173-1.8988,66.5741,66.5741,0,0,1-3.3379-6.2735c-2.08-5.4124-3.945-10.909-5.84-16.3912-1.9487-5.6384-3.8915-11.28-5.7239-16.9571-1.7808-5.5166-3.3952-11.0866-5.1252-16.62-1.7346-5.5485-3.5106-11.0843-5.29-16.6188-1.3135-4.0861-2.6916-8.1517-3.9867-12.2435-1.9152-6.0516-3.8644-12.0944-5.6477-18.1852-1.9362-6.6128-3.3685-13.3916-5.6315-19.8851-2.21-6.3419-5.1859-12.4175-7.8377-18.6048-.7617-1.7774-1.5895-3.5267-2.3459-5.3062-2.7462-6.46-5.638-12.8655-8.1545-19.4145-1.752-4.56-3.0248-9.307-4.4311-13.9947-2.0145-6.7151-3.9472-13.4546-5.931-20.1789C219.7405,166.4419,218.469,162.2411,217.2109,158.0366Zm-92.84,14.1489a31.6741,31.6741,0,0,1,2.7676-3.27,52.898,52.898,0,0,1,5.0876-4.0731,18.5364,18.5364,0,0,1,11.1716-3.5655c1.5153.0265,2.05.8285,1.4856,2.1344a17.9307,17.9307,0,0,1-6.5576,7.9525q-8.3783,5.598-16.8059,11.1221a69.5915,69.5915,0,0,0-17.15,15.2079c-3.7721,4.8323-6.6888,9.9267-7.7312,15.8474a169.2708,169.2708,0,0,0-1.7149,16.99,8.4022,8.4022,0,0,0,3.3012,7.6487c1.7887,1.37,3.5863,2.73,5.42,4.038,1.8885,1.3471,3.1868.7424,4.1711-1.2467a45.5666,45.5666,0,0,1,4.4348-7.2746c3.491-4.6137,7.3169-8.9749,10.7889-13.602,3.3634-4.4825,6.33-9.2629,9.6977-13.7419,4.7866-6.3658,9.6258-12.6484,12.7723-20.0773,2.6506-6.2581,5.6-12.3908,8.4749-18.552a62.1168,62.1168,0,0,1,3.3618-6.3469c.3294-.5343,1.3935-.6155,2.12-.9048a11.3916,11.3916,0,0,1,.4842,2.1367,3.6983,3.6983,0,0,1-.4627,1.5636c-2.7712,6.0909-5.5289,12.1883-8.3532,18.2546-2.0213,4.3415-3.7365,8.8955-6.2988,12.9-4.7181,7.3741-9.8374,14.5028-15.017,21.5671-4.9537,6.7561-10.3078,13.2188-15.255,19.9794a39.1039,39.1039,0,0,0-4.4614,8.3411c-.9594,2.3553.583,6.702,2.29,6.9649a43.38,43.38,0,0,0,9.2887.6484c2.6834-.1718,5.3081-1.2056,7.9674-1.821a5.13,5.13,0,0,0,4.206-4.6495c.1722-1.3985.1669-2.8313.4673-4.1991.8659-3.9429,1.7634-7.8827,2.8033-11.7824,1.2605-4.7275,2.6248-9.4295,4.0548-14.1086a55.06,55.06,0,0,1,2.3322-6.0572c1.3383-3.0385,2.8474-6.0018,4.18-9.0427,1.6158-3.6871,3.1094-7.4276,4.6812-11.1343,1.9565-4.6138,4.0023-9.191,5.89-13.8324,1.5164-3.7279,2.6124-7.6435,4.337-11.2654a109.4468,109.4468,0,0,1,6.603-11.74c2.8512-4.4694,5.9676-8.774,9.0731-13.075,1.3077-1.8111,3.61-3.2211,4.173-5.1828a25.636,25.636,0,0,1,4.8534-8.7541c1.3475-1.7377,2.6483-3.7506,1.7963-6.2352-.4226-1.2326-.88-2.4533-1.4715-4.0976a36.3444,36.3444,0,0,1-3.0576,2.5081c-5.7348,3.73-11.4257,7.5373-17.2861,11.0614-5.3022,3.1885-10.8343,5.9918-16.2056,9.0689-4.432,2.5391-8.7568,5.2646-13.1652,7.8458q-9.4165,5.5137-18.8952,10.921c-1.7514.9967-3.6518,1.7278-5.4389,2.6663-3.8269,2.01-7.5594,4.2109-11.4522,6.08-4.0581,1.9489-8.3213,3.47-12.3824,5.4135-5.3769,2.5727-9.0673,1.9978-12.71-2.4508a9.3184,9.3184,0,0,0-2.378,7.31c.3264,2.7256,2.379,5.0685,4.7723,6.6217,4.1452,2.69,8.5186,5.0323,12.6279,7.7729,2.5869,1.7252,4.8755,3.8887,5.36,7.2938a9.6091,9.6091,0,0,0,.9564,2.0942,25.4478,25.4478,0,0,1,1.5934-2.9319c5.4-7.1671,12.2258-12.7993,19.6072-17.759,5.1549-3.4636,10.5432-6.5785,15.7544-9.9612a43.2554,43.2554,0,0,0,4.2892-3.6142c-.6266-.4045-1.0662-.4824-1.3256-.3017-2.8252,1.9678-5.6951,3.8833-8.399,6.0087C128.3082,172.7427,126.8844,173.7788,124.3705,172.1855Zm60.0148-30.2373-.7467-.1245a30.1691,30.1691,0,0,0-2.339,2.79c-2.794,4.2477-5.6952,8.44-8.2215,12.8447-2.5289,4.41-4.8168,8.9769-6.9105,13.6106-1.5566,3.4451-2.5124,7.1566-3.954,10.66-2.1441,5.21-4.4809,10.3419-6.7356,15.5068-1.42,3.2528-2.8613,6.4965-4.2542,9.7608-1.5181,3.5575-3.0868,7.0981-4.4514,10.7148-.9557,2.5331-1.6757,5.1628-2.3777,7.7824-1.44,5.3728-2.906,10.7429-4.15,16.1624-.8522,3.7111-1.2416,7.5265-2.0279,11.2552-1.2632,5.99-2.68,11.9466-4.0388,17.9158-.8483,3.7257-1.6155,7.4733-2.5873,11.1668-1.4615,5.5547-3.0751,11.0692-4.6142,16.6035-.6451,2.3194-1.3,4.637-1.8893,6.9709-1.6859,6.6816-3.397,13.3578-4.98,20.0639-.6962,2.9482-1.1352,5.959-1.6418,8.95-.7759,4.58-1.654,9.1509-2.2047,13.76-.3122,2.6133.535,3.0765,3.0415,2.133,3.2014-1.205,6.293-2.83,9.5884-3.632,8.7474-2.1275,17.5723-3.9408,26.3836-5.7975,1.4128-.2976,1.9544-.8533,1.9632-2.3183.0533-8.8438-.0707-17.7.3614-26.5271q.7609-15.5481,2.3861-31.05c.7028-6.8109,1.9947-13.5676,3.184-20.32,1.3212-7.5019,2.7683-14.9831,4.2662-22.452,1.5293-7.6256,3.0575-15.2557,4.8266-22.8276,1.5932-6.8194,3.4386-13.5831,5.3057-20.3346,2.3585-8.5287,4.7587-17.0484,7.3279-25.5153,1.2071-3.9779,2.78-7.8515,4.3288-11.7158.7166-1.7883,1.37-3.26-.9064-4.4593-3.4131-1.7981-3.875-5.0331-3.7975-8.472C184.5425,144.019,184.4337,142.9829,184.3853,141.9482Zm-.7052,46.6712-.55-.2918a16.652,16.652,0,0,0-.97,2.2121c-1.7134,6.1259-3.4646,12.2429-5.0508,18.4021-1.6644,6.4625-3.2837,12.9417-4.6951,19.4629-1.71,7.9025-3.3172,15.8328-4.7225,23.7945-1.7059,9.664-3.22,19.3636-4.6839,29.0679-.6281,4.1635-1.0266,8.3695-1.3413,12.57-.4432,5.9177-.8157,11.8448-1.0221,17.7748-.1664,4.7823-.0793,9.5752-.0375,14.3628.0558,6.3867.27,12.7738.1925,19.1581a7.3664,7.3664,0,0,1-1.6167,3.8922A50.7583,50.7583,0,0,1,155.49,352.78a2.2194,2.2194,0,0,0-.5176,1.63c.0493.3184.7819.7109,1.24.758a104.31,104.31,0,0,0,11.6145,1c7.0517-.0706,14.0976-.7073,21.1494-.7828,2.2064-.0236,2.6886-.553,2.5506-2.5981-.3958-5.8671-.6565-11.744-.9173-17.6194-.071-1.6005.1212-3.2126.0527-4.8133-.06-1.3908-.4485-2.772-.46-4.1594-.0273-3.2688.2669-6.5481.1036-9.8066-.4523-9.0251-.9808-18.0487-1.6642-27.0588-.3369-4.4417-1.1893-8.842-1.6217-13.2791-1.0479-10.7545-2.2808-21.504-2.8545-32.2867-.3264-6.135.3871-12.3391.8341-18.4975.4289-5.9088,1.1672-11.7946,1.6727-17.6989.2534-2.96.291-5.9384.4441-9.3a20.3228,20.3228,0,0,1-1.6819,1.5353c-.6912.4867-1.4448.8846-2.1716,1.32a9.3109,9.3109,0,0,1-.5572-2.58C182.9479,195.2293,183.3421,191.9265,183.68,188.6194Zm70.7371-115.323-.6365-.62c-2.2669,1.1009-4.4313,2.5733-6.82,3.2325-6.9719,1.9242-13.9756,3.837-21.079,5.1452a116.1856,116.1856,0,0,1-15.6857,1.2919c-5.8194.2672-11.6581.4856-17.4754.3053a137.2791,137.2791,0,0,1-13.93-1.4381c-5.1842-.6954-10.37-1.4476-15.4972-2.4686a58.2173,58.2173,0,0,1-7.6869-2.5663c-1.7153-.6015-3.4129-1.2534-5.1185-1.8828l-.4025.6164c1.91,2.3613,3.6677,4.8677,5.7578,7.057A150.7577,150.7577,0,0,0,176.9617,100.51c2.4965,1.79,5.0934,3.4488,7.72,5.0429a2.6975,2.6975,0,0,0,1.9585-.1306c.91-.3295,1.7061-1.1684,2.6138-1.2808,5.99-.7412,11.2114,1.8607,16.6105,3.85,2.9765,1.0969,6.3089,2.1278,9.2843.1708,5.8381-3.84,11.5258-7.91,17.2429-11.9315,7.3275-5.1541,13.2291-11.772,18.8908-18.62C252.4132,76.2439,253.3767,74.7383,254.4172,73.2964Zm-68.6517,39.9484-.4369-.9964c-1.4544.0918-2.91.1717-4.363.2775-5.6775.4135-10.8156,2.72-16.1018,4.5392-7.61,2.6184-15.2814,5.0578-22.8919,7.6743-5.2149,1.7929-10.3928,3.7-15.5428,5.6718A56.3243,56.3243,0,0,0,119.91,133.45c-4.6214,2.4878-9.2009,5.0554-13.76,7.6559a44.86,44.86,0,0,0-5.6518,3.6048c-3.8974,3.0794-7.78,6.1969-11.4482,9.5412-3.3822,3.0838-6.4761,6.484-9.6971,9.7448l.51.63,3.2422-1.2161c1.9941,2.73-1,3.7274-1.6094,5.9278,1.5752-.1093,2.9641.0841,4.1315-.3367,5.1135-1.8429,10.3091-3.5578,15.2-5.8951,6.5908-3.15,12.9653-6.7627,19.3648-10.3,5.8846-3.2524,11.6967-6.6376,17.5093-10.0183q10.9057-6.3431,21.7556-12.7822c3.3365-1.9789,6.6155-4.0548,9.9159-6.0943,2.6866-1.66,5.3956-3.2865,8.0411-5.01C180.23,117.0661,182.984,115.1343,185.7655,113.2448Zm37.1682.3992a10.1214,10.1214,0,0,0,.9665,1.7132c4.1233,3.9617,8.9927,6.9264,13.7939,9.9222,4.5162,2.818,9.35,5.1225,14.0011,7.73,5.9151,3.3158,11.79,6.7036,17.6762,10.0707,3.4827,1.9922,6.9063,4.0934,10.4425,5.9849,4.49,2.4019,9.0576,4.6612,13.6108,6.944,3.8642,1.9372,7.7034,3.9376,11.65,5.6931,3.6014,1.6018,7.3116,2.97,11.0174,4.3208a16.7525,16.7525,0,0,0,4.2665.8918c.5918.051,1.6975-.49,1.7563-.8827a2.1839,2.1839,0,0,0-.8926-1.8709c-1.2158-.5479-1.78-1.512-.912-2.2649.6026-.5229,2.0883-.2686,3.0882-.01.683.1768,1.2088.96,1.8049,1.4724l.4574-.5264a26.665,26.665,0,0,0-2.5881-3.4844c-6.9367-6.777-14.1419-13.2813-22.2832-18.5736a149.54,149.54,0,0,0-14.5623-7.9715c-3.2167-1.6139-6.6271-2.8533-9.9883-4.1644-4.2364-1.6526-8.4755-3.3117-12.7795-4.7737-4.0485-1.3753-8.1861-2.4871-12.2786-3.7343-5.0213-1.53-10.0325-3.0942-15.057-4.6141a26.4087,26.4087,0,0,0-4.2638-1.0806C229.1031,114.0872,226.3216,113.9319,222.9337,113.644Zm-29.0462,12.7177c-1.4612,1.9964-2.78,3.8875-4.1927,5.7062-1.89,2.4331-1.7142,3.1749,1.1588,4.2142,2.8248,1.0219,5.6193,2.1441,8.4876,3.0256,4.1688,1.2811,8.3485,2.8,12.8206,2.0283a4.893,4.893,0,0,0,2.8452-1.5762c2.3808-3.0909,4.4745-6.4018,6.8278-9.5154,3.43-4.5381,4.3845-6.4138-.8859-10.4466a36.0253,36.0253,0,0,0-16.699-6.8953c-1.6043-.2541-4.1713-.0686-4.6125-.9387-1.1875-2.3421-3.1856-1.977-4.9363-2.3559-2.6248-.568-3.2189.3406-2.4371,2.8836.8627,2.8064,1.3246,5.7419,2.2794,8.5115a5.8892,5.8892,0,0,0,2.5259,3.222c2.9089,1.3969,6.0781,2.24,9.0587,3.5038a27.6184,27.6184,0,0,1,6.0979,3.28c1.4682,1.1293,3.2175,2.9523,2.2126,4.887-.494.951-2.8209,1.3069-4.32,1.3111-4.2843.0118-7.5729-2.7621-11.2905-4.38-2.4489-1.0657-3.1078-2.5009-2.18-4.83Zm-3.8312,13.2669c-1.5143,3.95-.7673,9.8526,4.1989,11.0357a61.0282,61.0282,0,0,0,13.6935,1.2117c4.4519.0516,5.98-3.1537,5.2449-7.287C205.0433,145.2678,197.695,142.1581,190.0563,139.6286Zm44.6985,58.0567c2.0946-3.8324-3.4051-21.9665-7.1014-24.05C230.0132,181.6273,232.3457,189.5265,234.7548,197.6853ZM147.4518,91.7946l-.7053.7378c3.4653,3.1488,5.27,8.0544,9.9989,9.8662l.78-.8165Zm62.92,42.1543.3446-1.0168-10.5071-3.89-.3075.8113C203.305,131.4372,206.3139,134.0089,210.3722,133.9489Zm-21.7035,51.3448-.8553-.139-1.5613,7.1917,1.2455.222Q188.0832,188.931,188.6687,185.2937Z"/><path class="cls-2" d="M264.6589,31.0346c-.9414,1.9236-1.9764,3.1875-2.0751,4.5208-.0732.99.9525,2.1618,1.6908,3.0924,2.2962,2.8947,2.0036,6.3454,1.3954,9.4394-.8146,4.1435-2.7516,8.0529-3.8434,12.1593-.9926,3.7329-3.7177,5.7878-6.569,7.7728-5.2747,3.6722-11.2475,5.6372-17.3875,7.45a89.2968,89.2968,0,0,1-20.3669,3.2682c-10.0459.57-20.141,1.0482-30.1817.6728a107.2286,107.2286,0,0,1-21.4762-3.2285c-6.0388-1.4879-11.7655-4.2569-17.6109-6.51-2.8961-1.1162-4.3229-3.7375-5.5091-6.2686-2.6027-5.5536-5.0874-11.19-5.489-17.4638-.1918-2.9954.3086-5.676,2.5722-7.911,1.3357-1.319.46-2.7725-.3539-4.0217a6.574,6.574,0,0,0-1.49-1.22c-3.4136,1.2834-4.8019,4.1715-5.5868,7.42-1.4033,5.8077-.3191,11.5313,1.6955,16.8943a85.97,85.97,0,0,0,16.5651,27.039c6.7525,7.59,14.5689,13.8879,22.4123,20.2058a20.9975,20.9975,0,0,0,2.2483,1.2149c.6317.3892,1.2.8808,2.2251,1.6477a22.1963,22.1963,0,0,1-2.4874,1.1743c-6.8321,2.1344-13.6892,4.1892-20.5083,6.3637-3.5993,1.1478-7.1857,2.3667-10.6907,3.771a11.401,11.401,0,0,1-11.6582-1.5026c-3.2536-2.3247-6.6976-4.3809-10.0005-6.6392-5.7394-3.9244-11.61-7.6856-17.1064-11.9295C97.3145,92.4557,89.8472,86.0879,82.2556,79.881c-1.6816-1.3749-1.7935-2.9743-.1517-4.294,3.53-2.8373,6.97-5.9005,10.8639-8.1478,7.5029-4.33,15.3147-8.1227,22.9539-12.2213,1.8239-.9786,3.4723-2.2844,5.4989-3.6384.637,3.0318,1.2827,5.791,1.7878,8.5756a55.5614,55.5614,0,0,0,6.1163,16.3961c4.2814,7.9574,10.7965,14.0773,16.9482,20.498,1.9621,2.0478,3.7433,4.269,5.7065,6.3157a8.1579,8.1579,0,0,0,7.8913,2.4154c1.9373-.3858,2.6352-1.6157,1.4187-3.2215a114.3388,114.3388,0,0,0-8.5549-10.2394c-3.5368-3.682-8.329-6.1728-10.471-11.1691a21.5119,21.5119,0,0,1-1.4718-3.6095c-.4425-1.9756-1.6635-2.5305-4.2274-2.6835l2.8893,9.5376c-4.7713-4.0768-7.1763-9.4351-9.6606-14.8A53.1162,53.1162,0,0,1,125.2166,52.49c-.273-2.7014.4746-5.501.7079-8.26a30.0607,30.0607,0,0,0,.2448-5.1625,7.61,7.61,0,0,1,4.2712-7.661c2.78-1.5153,5.8045-2.7917,9.3319-2.188,3.07.5252,6.3.09,9.3811.5748,7.5243,1.1843,15.0041,2.6517,22.5,4.0132,4.1341.7509,8.2881,1.4121,12.3922,2.3025,6.4259,1.3941,12.8875,2.4,19.4738,1.9362a139.3021,139.3021,0,0,0,25.2366-4.2685c1.4355-.3725,2.9454-.4488,4.411-.7166,7.6161-1.3917,15.2929-2.53,22.8182-4.3091,4.2931-1.0147,8.3774-.1425,12.5441.0107,3.2735.12,5.6213,2.39,7.455,4.7087a79.4648,79.4648,0,0,1,5.9545,9.507c1.7872,3.0721,3.377,6.2585,5.1368,9.3472,2.1213,3.723,2.7033,7.8187,2.8683,11.9693.1508,3.7938.523,7.5891-1.2472,11.2773a24.6429,24.6429,0,0,1-7.5814,8.8422c-5.8353,4.46-11.914,8.6065-17.9717,12.7666-2.6721,1.835-5.6931,3.1828-8.2663,5.1335a20.9488,20.9488,0,0,0-4.4918,5.0928,1.7648,1.7648,0,0,0,2.071,2.6761c2.9284-.7456,5.7787-1.8166,8.6281-2.8443,1.0757-.388,2.0049-1.247,3.0938-1.5184,1.687-.4206,1.7947-1.4964,1.1655-2.6129-.2158-.3829-1.5711-.4444-2.2338-.1953-2.1207.7973-4.1608,1.8088-6.232,2.7376l-.3094-.6043c2.3289-1.5946,4.6774-3.1614,6.9826-4.79q7.269-5.1346,14.4991-10.3242a87.2837,87.2837,0,0,0,7.5961-5.6c3.7274-3.3376,6.8053-7.1217,6.9638-12.5644.1185-4.0716.5476-8.1342.8514-12.3817,1.5839.7621,3.5073,1.7466,5.4786,2.6236,3.8021,1.6917,7.65,3.2814,11.4442,4.99,4.0007,1.8016,8.0978,3.46,11.0747,6.9287.9508,1.1078,1.2425,1.9954-.0329,3.1164-3.8673,3.3992-7.638,6.9081-11.5028,10.31-3.4563,3.0426-6.9093,6.0981-10.5076,8.9676-3.6487,2.91-7.4444,5.6389-11.23,8.3723-3.49,2.52-6.99,5.0348-10.5985,7.3786a108.9094,108.9094,0,0,1-11.3247,6.7053c-1.0826.5293-3.0035-.5665-4.5111-1.0131-3.3427-.99-6.6685-2.0381-9.999-3.07-3.4754-1.0765-6.8954-2.4-10.4353-3.1829-4.4857-.9916-9.0686-1.5428-13.608-2.2935-.6391-.1056-1.2693-.2648-2.5792-.5424,3.124-2.5153,5.7262-4.5946,8.3108-6.6954,3.0992-2.5192,6.3206-4.9095,9.2368-7.6263a88.2667,88.2667,0,0,0,8.9835-9.3838c3.686-4.6245,7.0465-9.5211,10.3568-14.429a59.1586,59.1586,0,0,0,8.0578-18.1171,25.7313,25.7313,0,0,0-.5665-15.5314C268.7346,34.78,266.5135,33.1973,264.6589,31.0346Z"/><path class="cls-2" d="M230.6644,124.326c2.3485,1.5529,4.466,3.0835,6.7079,4.4025,2.8542,1.6791,5.8182,3.1705,8.7186,4.7723,4.8651,2.6868,9.7118,5.4071,14.5767,8.0944q7.9049,4.3667,15.8281,8.7c3.315,1.823,6.6077,3.6877,9.9456,5.4679,3.1915,1.7022,6.3712,3.4442,9.6576,4.9468,6.3073,2.8841,12.5834,5.894,19.0869,8.2626,2.5615.9329,5.7652.6744,8.5406.1861,1.2288-.2162,2.12-2.3507,3.3295-3.8138,1.21,1.8556,2.63,4.1467,2.4895,6.7332a9.0818,9.0818,0,0,1-4.9955,8.045c-4.2444,2.3228-8.145,5.2815-12.1558,8.0216a12.1227,12.1227,0,0,0-5.3681,9.5162,42.3309,42.3309,0,0,0,1.076,11.9837c.6733,3.442,1.71,6.8373,2.0834,10.3074.445,4.1314,1.317,8.4531-.6823,12.3849a18.1216,18.1216,0,0,1-4.0742,4.6695c-4.7,4.3445-6.49,1.5545-9.6565-1.9388-2.2552-2.4882-4.8009-4.7135-7.2234-7.0493-3.299-3.1807-6.9633-6.067-9.8059-9.6128-2.8651-3.5738-4.8452-7.8466-7.3688-11.7114-.75-1.1487-1.21-3.4208-3.2828-2.35-.4676.2417-.3146,2.591.194,3.6668a51.2544,51.2544,0,0,0,11.9763,16.5768c4.26,3.8227,8.4985,7.6724,12.6658,11.5958a44.7478,44.7478,0,0,1,4.31,4.83,2.4021,2.4021,0,0,1,.374,2.041c-.7535,1.6717-2.0432,3.1373-2.5986,4.8531a3.1519,3.1519,0,0,1-3.2953,2.3861c-3.4819-.036-6.9658-.3085-10.4387-.6045a43.73,43.73,0,0,1-5.33-.8636c-6.0219-1.277-11.906-3.0372-16.7413-7.0081a21.7106,21.7106,0,0,1-5.1685-6.0774c-2.9843-5.3982-5.5535-11.0254-8.3044-16.5532-4.0677-8.1738-4.5325-17.0954-5.5056-25.9333a51.7409,51.7409,0,0,0-4.9349-17.9409c-3.2417-6.3813-6.7516-12.63-10.2619-18.87-1.5324-2.7241-3.4061-5.254-5.0324-7.9283-1.4675-2.4129-.6866-4.8314.2633-7.1894.198-.4913.6369-.8813.8688-1.364.9317-1.9391,2.2869-2.27,4.0876-1.0991,4.4338,2.884,8.92,5.6874,13.3519,8.5743,6.244,4.0673,12.7911,7.7862,17.7693,13.4714,4.0939,4.6754,7.8591,9.6371,11.8577,14.3983,2.1759,2.5908,4.5425,5.021,6.8059,7.539.7224.8036,1.39,1.6565,2.0825,2.4867l-.508.6086a32.6261,32.6261,0,0,1-4.06-1.8235c-5.3064-3.2789-10.47-6.7426-13.4781-12.5119a1.7926,1.7926,0,0,0-.4449-.5289c-.86-.7123-1.4746-2.609-2.8453-1.2478-.5085.5048-.2017,2.4013.3378,3.3,4.0926,6.8194,10.3489,11.2922,17.2558,14.7664,2.8006,1.4087,6.0021,2.655,10.0838,1.663a62.5754,62.5754,0,0,0-3.613-5.7079q-5.2268-6.5832-10.72-12.9535c-3.0587-3.5361-6.3234-6.8934-9.4553-10.3673-1.6369-1.8155-2.9708-3.9669-4.82-5.5139a114.0681,114.0681,0,0,0-9.8691-7.243c-3.6054-2.4086-7.3851-4.5548-11.0561-6.8672-2.6022-1.639-5.1935-3.3042-7.6833-5.1047-.4537-.3281-.7847-1.71-.5107-2.0193a16.5874,16.5874,0,0,0,4.0416-7.9715C229.8248,125.3865,230.2182,125.0243,230.6644,124.326Z"/><path class="cls-2" d="M241.714,368.7757c-7.5949,4.3328-15.4154,8.5806-23,13.2146-3.5785,2.1865-6.68,5.1456-10.0487,7.6874a18.06,18.06,0,0,1-3.5975,2.1575c-1.4835.6476-2.9559-.4805-3.3284-2.5926-.5986-3.3949-.9579-6.8326-1.58-10.2226-3.3912-18.4916-3.703-37.215-4.33-55.9191-.2183-6.5063-.4747-13.0181-.981-19.5064-.9911-12.7-2.1516-25.3874-3.278-38.0767-.7251-8.1687-1.8819-16.3193-2.16-24.5013a178.7735,178.7735,0,0,1,.9339-20.1465c.6167-7.7658,1.6582-15.4975,2.3057-23.2615.85-10.1978,1.4369-20.4176,2.27-30.6171a55.168,55.168,0,0,1,1.4509-8.0052c.3061-1.3091.9031-2.0169,2.813-1.8363a76.5344,76.5344,0,0,0,11.5047-.1569c1.7979-.1027,2.2293.475,2.2824,2.2111.4993,16.31.8513,32.6306,1.7332,48.9216.7581,14.0065,1.99,27.9939,3.3182,41.9607,1,10.5127,2.4088,20.9892,3.7771,31.4633.9371,7.1739,1.8983,14.3574,3.2445,21.4617,1.6594,8.7573,3.6948,17.4446,5.6386,26.1463.8651,3.8724,1.7837,7.7407,2.8887,11.55,2.2764,7.8468,4.7074,15.6487,7.0421,23.4787C241.0457,365.6364,241.3245,367.1325,241.714,368.7757Z"/><path class="cls-2" d="M217.2109,158.0366c1.2581,4.2045,2.53,8.4053,3.7714,12.6147,1.9838,6.7243,3.9165,13.4638,5.931,20.1789,1.4063,4.6877,2.6791,9.4352,4.4311,13.9947,2.5165,6.549,5.4083,12.9542,8.1545,19.4145.7564,1.78,1.5842,3.5288,2.3459,5.3062,2.6518,6.1873,5.6275,12.2629,7.8377,18.6048,2.263,6.4935,3.6953,13.2723,5.6315,19.8851,1.7833,6.0908,3.7325,12.1336,5.6477,18.1852,1.2951,4.0918,2.6732,8.1574,3.9867,12.2435,1.7791,5.5345,3.5551,11.07,5.29,16.6188,1.73,5.5333,3.3444,11.1033,5.1252,16.62,1.8324,5.6768,3.7752,11.3187,5.7239,16.9571,1.8948,5.4822,3.7594,10.9788,5.84,16.3912a66.5741,66.5741,0,0,0,3.3379,6.2735,3.0344,3.0344,0,0,1,.4173,1.8988c-.0742.2974-1.0642.5311-1.6326.5149-6.1718-.1761-11.7627,1.9705-17.4421,4.0162-6.8479,2.4669-13.85,4.505-20.7679,6.7794-1.9823.6517-3.763,1.5576-6.0021.3741-1.4411-.7616-1.6718-1.6029-1.195-2.7636a24.9582,24.9582,0,0,1,2.2857-4.2908,6.4739,6.4739,0,0,0,.1742-7.6423,7.8444,7.8444,0,0,1-1.0478-2.0189c-1.3079-4.6485-2.5465-9.3166-3.8226-13.9741-1.77-6.46-3.6241-12.8972-5.31-19.3786-1.7245-6.63-3.4183-13.2735-4.8846-19.9639-1.2472-5.6911-2.2836-11.4368-3.1771-17.1951-1.3549-8.7309-2.5714-17.4848-3.7243-26.2451-1.2437-9.45-2.4923-18.9027-3.4713-28.382-1.0623-10.2854-1.9274-20.5948-2.6638-30.9091-.4453-6.237-.4819-12.5032-.7035-18.7563-.3677-10.3737-.7533-20.7469-1.0847-31.1218a39.5247,39.5247,0,0,1,.2879-4.1511Z"/><path class="cls-2" d="M124.3705,172.1855c2.5139,1.5933,3.9377.5572,5.5218-.6878,2.7039-2.1254,5.5738-4.0409,8.399-6.0087.2594-.1807.699-.1028,1.3256.3017a43.2554,43.2554,0,0,1-4.2892,3.6142c-5.2112,3.3827-10.5995,6.4976-15.7544,9.9612-7.3814,4.96-14.2069,10.5919-19.6072,17.759a25.4478,25.4478,0,0,0-1.5934,2.9319,9.6091,9.6091,0,0,1-.9564-2.0942c-.4845-3.4051-2.7731-5.5686-5.36-7.2938-4.1093-2.7406-8.4827-5.0828-12.6279-7.7729-2.3933-1.5532-4.4459-3.8961-4.7723-6.6217a9.3184,9.3184,0,0,1,2.378-7.31c3.6431,4.4486,7.3335,5.0235,12.71,2.4508,4.0611-1.9433,8.3243-3.4646,12.3824-5.4135,3.8928-1.8695,7.6253-4.0706,11.4522-6.08,1.7871-.9385,3.6875-1.67,5.4389-2.6663q9.4836-5.3973,18.8952-10.921c4.4084-2.5812,8.7332-5.3067,13.1652-7.8458,5.3713-3.0771,10.9034-5.88,16.2056-9.0689,5.86-3.5241,11.5513-7.3315,17.2861-11.0614a36.3444,36.3444,0,0,0,3.0576-2.5081c.5919,1.6443,1.0489,2.865,1.4715,4.0976.852,2.4846-.4488,4.4975-1.7963,6.2352a25.636,25.636,0,0,0-4.8534,8.7541c-.5629,1.9617-2.8653,3.3717-4.173,5.1828-3.1055,4.301-6.2219,8.6056-9.0731,13.075a109.4468,109.4468,0,0,0-6.603,11.74c-1.7246,3.6219-2.8206,7.5375-4.337,11.2654-1.8879,4.6414-3.9337,9.2186-5.89,13.8324-1.5718,3.7067-3.0654,7.4472-4.6812,11.1343-1.3324,3.0409-2.8415,6.0042-4.18,9.0427a55.06,55.06,0,0,0-2.3322,6.0572c-1.43,4.6791-2.7943,9.3811-4.0548,14.1086-1.04,3.9-1.9374,7.84-2.8033,11.7824-.3,1.3678-.2951,2.8006-.4673,4.1991a5.13,5.13,0,0,1-4.206,4.6495c-2.6593.6154-5.284,1.6492-7.9674,1.821a43.38,43.38,0,0,1-9.2887-.6484c-1.7069-.2629-3.2493-4.61-2.29-6.9649a39.1039,39.1039,0,0,1,4.4614-8.3411c4.9472-6.7606,10.3013-13.2233,15.255-19.9794,5.18-7.0643,10.2989-14.193,15.017-21.5671,2.5623-4.0046,4.2775-8.5586,6.2988-12.9,2.8243-6.0663,5.582-12.1637,8.3532-18.2546a3.6983,3.6983,0,0,0,.4627-1.5636,11.3916,11.3916,0,0,0-.4842-2.1367c-.7268.2893-1.7909.37-2.12.9048a62.1168,62.1168,0,0,0-3.3618,6.3469c-2.875,6.1612-5.8243,12.2939-8.4749,18.552-3.1465,7.4289-7.9857,13.7115-12.7723,20.0773-3.3678,4.479-6.3343,9.2594-9.6977,13.7419-3.472,4.6271-7.2979,8.9883-10.7889,13.602a45.5666,45.5666,0,0,0-4.4348,7.2746c-.9843,1.9891-2.2826,2.5938-4.1711,1.2467-1.8338-1.308-3.6314-2.6683-5.42-4.038a8.4022,8.4022,0,0,1-3.3012-7.6487,169.2708,169.2708,0,0,1,1.7149-16.99c1.0424-5.9207,3.9591-11.0151,7.7312-15.8474a69.5915,69.5915,0,0,1,17.15-15.2079q8.42-5.5345,16.8059-11.1221a17.9307,17.9307,0,0,0,6.5576-7.9525c.5649-1.3059.03-2.1079-1.4856-2.1344a18.5364,18.5364,0,0,0-11.1716,3.5655,52.898,52.898,0,0,0-5.0876,4.0731A31.6741,31.6741,0,0,0,124.3705,172.1855Z"/><path class="cls-2" d="M184.3853,141.9482c.0484,1.0347.1572,2.0708.134,3.104-.0775,3.4389.3844,6.6739,3.7975,8.472,2.2767,1.1994,1.623,2.671.9064,4.4593-1.5485,3.8643-3.1217,7.7379-4.3288,11.7158-2.5692,8.4669-4.9694,16.9866-7.3279,25.5153-1.8671,6.7515-3.7125,13.5152-5.3057,20.3346-1.7691,7.5719-3.2973,15.202-4.8266,22.8276-1.4979,7.4689-2.945,14.95-4.2662,22.452-1.1893,6.7525-2.4812,13.5092-3.184,20.32q-1.5978,15.4851-2.3861,31.05c-.4321,8.8274-.3081,17.6833-.3614,26.5271-.0088,1.465-.55,2.0207-1.9632,2.3183-8.8113,1.8567-17.6362,3.67-26.3836,5.7975-3.2954.8015-6.387,2.427-9.5884,3.632-2.5065.9435-3.3537.48-3.0415-2.133.5507-4.6086,1.4288-9.179,2.2047-13.76.5066-2.9906.9456-6.0014,1.6418-8.95,1.5835-6.7061,3.2946-13.3823,4.98-20.0639.5888-2.3339,1.2442-4.6515,1.8893-6.9709,1.5391-5.5343,3.1527-11.0488,4.6142-16.6035.9718-3.6935,1.739-7.4411,2.5873-11.1668,1.359-5.9692,2.7756-11.9263,4.0388-17.9158.7863-3.7287,1.1757-7.5441,2.0279-11.2552,1.2444-5.4195,2.71-10.79,4.15-16.1624.702-2.62,1.422-5.2493,2.3777-7.7824,1.3646-3.6167,2.9333-7.1573,4.4514-10.7148,1.3929-3.2643,2.8342-6.508,4.2542-9.7608,2.2547-5.1649,4.5915-10.2963,6.7356-15.5068,1.4416-3.5031,2.3974-7.2146,3.954-10.66,2.0937-4.6337,4.3816-9.2008,6.9105-13.6106,2.5263-4.4049,5.4275-8.597,8.2215-12.8447a30.1691,30.1691,0,0,1,2.339-2.79Z"/><path class="cls-2" d="M183.68,188.6194c-.338,3.3071-.7322,6.61-.975,9.9239a9.3109,9.3109,0,0,0,.5572,2.58c.7268-.4359,1.48-.8338,2.1716-1.32a20.3228,20.3228,0,0,0,1.6819-1.5353c-.1531,3.362-.1907,6.34-.4441,9.3-.5055,5.9043-1.2438,11.79-1.6727,17.6989-.447,6.1584-1.16,12.3625-.8341,18.4975.5737,10.7827,1.8066,21.5322,2.8545,32.2867.4324,4.4371,1.2848,8.8374,1.6217,13.2791.6834,9.01,1.2119,18.0337,1.6642,27.0588.1633,3.2585-.1309,6.5378-.1036,9.8066.0116,1.3874.4005,2.7686.46,4.1594.0685,1.6007-.1237,3.2128-.0527,4.8133.2608,5.8754.5215,11.7523.9173,17.6194.138,2.0451-.3442,2.5745-2.5506,2.5981-7.0518.0755-14.0977.7122-21.1494.7828a104.31,104.31,0,0,1-11.6145-1c-.4579-.0471-1.1905-.44-1.24-.758a2.2194,2.2194,0,0,1,.5176-1.63,50.7583,50.7583,0,0,0,3.6928-3.7546,7.3664,7.3664,0,0,0,1.6167-3.8922c.0776-6.3843-.1367-12.7714-.1925-19.1581-.0418-4.7876-.1289-9.5805.0375-14.3628.2064-5.93.5789-11.8571,1.0221-17.7748.3147-4.2008.7132-8.4068,1.3413-12.57,1.464-9.7043,2.978-19.4039,4.6839-29.0679,1.4053-7.9617,3.0121-15.892,4.7225-23.7945,1.4114-6.5212,3.0307-13,4.6951-19.4629,1.5862-6.1592,3.3374-12.2762,5.0508-18.4021a16.652,16.652,0,0,1,.97-2.2121Z"/><path class="cls-2" d="M185.7655,113.2448c-2.7815,1.8895-5.5354,3.8213-8.3522,5.6564-2.6455,1.7235-5.3545,3.35-8.0411,5.01-3.3,2.04-6.5794,4.1154-9.9159,6.0943q-10.8512,6.436-21.7556,12.7822c-5.8126,3.3807-11.6247,6.7659-17.5093,10.0183-6.4,3.537-12.774,7.15-19.3648,10.3-4.8906,2.3373-10.0862,4.0522-15.2,5.8951-1.1674.4208-2.5563.2274-4.1315.3367.61-2.2,3.6035-3.1976,1.6094-5.9278l-3.2422,1.2161-.51-.63c3.221-3.2608,6.3149-6.661,9.6971-9.7448,3.6679-3.3443,7.5508-6.4618,11.4482-9.5412a44.86,44.86,0,0,1,5.6518-3.6048c4.5593-2.6005,9.1388-5.1681,13.76-7.6559a56.3243,56.3243,0,0,1,6.5194-3.0383c5.15-1.972,10.3279-3.8789,15.5428-5.6718,7.6105-2.6165,15.282-5.0559,22.8919-7.6743,5.2862-1.819,10.4243-4.1257,16.1018-4.5392,1.4534-.1058,2.9086-.1857,4.363-.2775Z"/><path class="cls-2" d="M222.9337,113.644c3.3879.2879,6.1694.4432,8.9265.7917a26.4087,26.4087,0,0,1,4.2638,1.0806c5.0245,1.52,10.0357,3.0838,15.057,4.6141,4.0925,1.2472,8.23,2.359,12.2786,3.7343,4.304,1.462,8.5431,3.1211,12.7795,4.7737,3.3612,1.3111,6.7716,2.55,9.9883,4.1644a149.54,149.54,0,0,1,14.5623,7.9715c8.1413,5.2923,15.3465,11.7966,22.2832,18.5736a26.665,26.665,0,0,1,2.5881,3.4844l-.4574.5264c-.5961-.5122-1.1219-1.2956-1.8049-1.4724-1-.259-2.4856-.5133-3.0882.01-.8675.7529-.3038,1.717.912,2.2649a2.1839,2.1839,0,0,1,.8926,1.8709c-.0588.3931-1.1645.9337-1.7563.8827a16.7525,16.7525,0,0,1-4.2665-.8918c-3.7058-1.3511-7.416-2.719-11.0174-4.3208-3.9468-1.7555-7.786-3.7559-11.65-5.6931-4.5532-2.2828-9.12-4.5421-13.6108-6.944-3.5362-1.8915-6.96-3.9927-10.4425-5.9849-5.8863-3.3671-11.7611-6.7549-17.6762-10.0707-4.6511-2.6072-9.4849-4.9117-14.0011-7.73-4.8012-2.9958-9.6706-5.96-13.7939-9.9222A10.1214,10.1214,0,0,1,222.9337,113.644Z"/><path class="cls-2" d="M193.8875,126.3617l2.7606,1.635c-.9281,2.329-.2692,3.7642,2.18,4.83,3.7176,1.6178,7.0062,4.3917,11.2905,4.38,1.4993-.0042,3.8262-.36,4.32-1.3111,1.0049-1.9347-.7444-3.7577-2.2126-4.887a27.6184,27.6184,0,0,0-6.0979-3.28c-2.9806-1.264-6.15-2.1069-9.0587-3.5038a5.8892,5.8892,0,0,1-2.5259-3.222c-.9548-2.77-1.4167-5.7051-2.2794-8.5115-.7818-2.543-.1877-3.4516,2.4371-2.8836,1.7507.3789,3.7488.0138,4.9363,2.3559.4412.87,3.0082.6846,4.6125.9387a36.0253,36.0253,0,0,1,16.699,6.8953c5.27,4.0328,4.3159,5.9085.8859,10.4466-2.3533,3.1136-4.447,6.4245-6.8278,9.5154a4.893,4.893,0,0,1-2.8452,1.5762c-4.4721.7719-8.6518-.7472-12.8206-2.0283-2.8683-.8815-5.6628-2.0037-8.4876-3.0256-2.873-1.0393-3.0485-1.7811-1.1588-4.2142C191.1072,130.2492,192.4263,128.3581,193.8875,126.3617Z"/><path class="cls-2" d="M190.0563,139.6286c7.6387,2.5295,14.987,5.6392,23.1373,4.96.7353,4.1333-.793,7.3386-5.2449,7.287a61.0282,61.0282,0,0,1-13.6935-1.2117C189.289,149.4812,188.542,143.5789,190.0563,139.6286Z"/><path class="cls-2" d="M147.4518,91.7946l10.0731,9.7875-.78.8165c-4.729-1.8118-6.5336-6.7174-9.9989-9.8662Z"/><path class="cls-2" d="M210.3722,133.9489c-4.0583.06-7.0672-2.5117-10.47-4.0953l.3075-.8113,10.5071,3.89Z"/><polygon class="cls-1" points="403 107 328.536 75.25 397 67 403 107"/><polygon class="cls-1" points="73.643 77.018 -7 113 -10 70 75.732 74.768 73.643 77.018"/><polygon class="cls-1" points="330.786 82 408 114 328 115 330.786 82"/></svg>