<svg id="Layer_1" data-name="Layer 1" xmlns="http://www.w3.org/2000/svg" viewBox="0 0 400 400"><defs><style>.cls-1{fill:#e20c10;}.cls-2{fill:#c3c3c3;}</style></defs><title>icon4</title><path d="M11.318,244.1715c-.8928-1.9271-.404-3.6965.3962-5.5537.929-2.1559,1.6076-4.4227,2.3449-6.6578q2.5624-7.7681,5.0644-15.5559c.3619-1.131.4893-2.3372.8543-3.4668.809-2.5031,1.748-4.9644,2.5461-7.4708,1.0292-3.2324,1.9254-6.5073,2.9666-9.7356.9428-2.9233,2.033-5.7989,3-8.7148.4853-1.4639.799-2.9839,1.2624-4.4558,1.49-4.7333,2.7446-9.5672,4.6318-14.1386a34.3314,34.3314,0,0,0,1.9846-7.5808c.1882-1.1106,1.1034-2.0773,1.4736-3.1814,1.8327-5.4658,3.5624-10.9661,5.3952-16.4319.7316-2.1821,1.6651-4.2956,2.4517-6.46.9307-2.5614,1.7855-5.15,2.7028-7.7167,1.2923-3.6155,2.619-7.2188,3.9177-10.8321,1.12-3.1151,2.2189-6.2376,3.33-9.3556,1.44-4.04,2.8576-8.0877,4.3321-12.1148,1.5011-4.1,2.85-8.2729,4.6441-12.2429,2.4266-5.3694,3.7337-11.1227,6.4251-16.4571,1.8371-3.6411,4.594-5.9174,7.3439-8.307A65.1073,65.1073,0,0,1,90.05,49.34a99.805,99.805,0,0,1,16.8158-7.2548c4.8538-1.5452,9.8916-2.5587,14.6573-4.3229,6.8487-2.5354,14.0384-3.3947,21.1186-4.5867,7.79-1.3115,15.7424-1.6837,23.6325-2.3676,2.3579-.2044,4.757.0585,7.1131-.1564,1.6314-.1489,3.2179-1.0778,4.8307-1.0958,10.4833-.1172,20.9684-.0924,31.4529-.087,3.495.0019,6.9991-.0613,10.4832.158,7.8532.4943,15.7038,1.0636,23.5408,1.7668,4.3562.3909,8.72.9164,13.0146,1.7274q11.44,2.16,22.7905,4.78a122.9773,122.9773,0,0,1,14.4118,4.1072c5.0112,1.8319,9.7591,4.3707,14.7066,6.3937a62.794,62.794,0,0,1,15.27,9.181A28.2933,28.2933,0,0,1,332.3,69.0307c1.6108,3.7963,3.215,7.5964,4.7491,11.4241,1.5329,3.8245,2.975,7.6853,4.4573,11.53,1.643,4.2617,3.3412,8.5032,4.9134,12.7908,1.368,3.7306,2.5622,7.5244,3.8891,11.2706,2.88,8.1307,5.8291,16.2371,8.6787,24.3784,1.0175,2.9069,1.7426,5.9158,2.756,8.8242,1.4259,4.0918,3.031,8.1208,4.49,12.2016.7415,2.0739,1.3108,4.2087,1.9933,6.3045q1.956,6.0061,3.9551,11.9983,2.7918,8.3629,5.62,16.7137c2.1163,6.2043,4.3512,12.3692,6.3868,18.5995,1.4858,4.5475,2.67,9.1928,4.11,13.7561.7985,2.53,1.8585,4.9768,2.7781,7.4694.77,2.0874,1.153,4.0979-.4607,6.0813-.909,1.1174-1.1688,2.2235.5681,3.2565,5.9606,3.545,11.784,7.32,17.7149,10.9155,5.87,3.5593,11.8235,6.9824,17.6892,10.5494a2.6449,2.6449,0,0,1,1.0047,1.9252,46.7388,46.7388,0,0,1-.449,5.1161l-39.8263-23.4529c-2.6426,4.72-4.9744,8.9125-7.3328,13.09-1.979,3.5054-3.8482,7.0837-6.0184,10.4678-3.1877,4.9706-6.5563,9.8278-9.9365,14.6715-1.5951,2.2859-3.3267,4.4867-5.1241,6.6184-1.7383,2.0615-3.67,3.9587-5.4642,5.9747-2.7074,3.042-5.3142,6.1753-8.0706,9.1714a65.114,65.114,0,0,1-5.4985,5.3255c-3.4508,2.9609-6.9479,5.8762-10.5461,8.6545-3.1,2.3937-6.3771,4.5573-9.558,6.8475-1.8966,1.3655-3.7483,2.7932-5.6432,4.1611a12.7217,12.7217,0,0,1-1.68.9382q-3.21,1.641-6.4288,3.2632c-2.31,1.1676-4.564,2.4717-6.947,3.4656-5.09,2.1229-10.2463,4.088-15.3786,6.11a5.7663,5.7663,0,0,1-6.839-3.09q-2.6259-7.2383-5.1731-14.5049c-1.8673-5.3556-3.6727-10.7327-5.5152-16.0969-2.4154-7.0319-4.8049-14.073-7.272-21.0867-2.3148-6.5807-4.6946-13.1387-7.0871-19.6917-1.6678-4.5682-3.3558-9.13-5.1231-13.6608-2.7029-6.9291-5.5082-13.8183-8.2179-20.7449-1.3667-3.4937-2.5306-7.0681-3.9458-10.5409-1.5817-3.8814-3.3695-7.6782-5.0169-11.5335-.7539-1.7643-1.3717-3.5864-2.0768-5.3722-1.161-2.9407-2.3632-5.8653-3.507-8.8126a2.6494,2.6494,0,0,0-3.0092-1.7226c-3.6336.2046-7.2672.4272-10.9038.5588a192.1106,192.1106,0,0,1-25.41-.9369,3.0742,3.0742,0,0,0-3.5549,2.01c-2.0013,4.9961-3.9832,10-6.019,14.982-1.9768,4.8375-4.06,9.632-5.9986,14.4845-.9308,2.33-1.5778,4.772-2.4533,7.1261-3.109,8.36-6.31,16.6861-9.3811,25.06-2.4593,6.7055-4.793,13.4573-7.16,20.1966q-3.7,10.5387-7.3507,21.0949c-1.6275,4.7274-3.1492,9.4913-4.7883,14.2146-1.5676,4.5171-3.2633,8.99-4.83,13.5074-.8938,2.5781-1.63,5.21-2.4587,7.8116-.559,1.7562-1.12,3.5133-1.7429,5.2473-.6014,1.6731-4.8768,3.1677-6.6879,2.5106-4.7668-1.7294-9.61-3.2574-14.3288-5.1067-3.1392-1.23-6.1282-2.85-9.1621-4.3408-3.1583-1.552-6.3091-3.1221-9.4224-4.7616-1.0828-.57-2.0257-1.4-3.0638-2.0622-2.7224-1.7365-5.5028-3.3855-8.1781-5.1909a40.8162,40.8162,0,0,1-3.9835-3.2693c-2.41-2.1164-4.7764-4.2834-7.1787-6.4092-1.91-1.69-3.8555-3.3413-5.7706-5.0265-2.8817-2.5357-5.8112-5.0223-8.589-7.6677-.8667-.8254-1.1553-2.2366-1.9755-3.1361-2.0823-2.2839-4.4223-4.337-6.453-6.6624-1.4735-1.6872-2.56-3.706-3.924-5.4969-1.5453-2.0288-3.3782-3.8546-4.7868-5.9682-3.861-5.7931-7.6663-11.6292-11.289-17.5729-1.8523-3.039-3.1978-6.3825-4.9058-9.5156-.9149-1.6782-2.113-3.2021-3.4554-5.2008-.8635.4329-2.2937,1.0423-3.6167,1.8315q-9.0238,5.3832-17.9921,10.8591c-3.2473,1.9862-6.4338,4.0717-9.6478,6.1124q0-4.0234,0-8.0469c4.5076-2.62,9.0607-5.1664,13.51-7.8819q6.8613-4.1872,13.5294-8.686c.7085-.4763.9451-1.6547,1.4-2.5084l-1.6293-.6319ZM383.48,234.6052a16.0495,16.0495,0,0,0-1.7943,2.4837c-.73,1.6123-1.8018,1.6431-3.0357.8014-1.2905-.88-.6724-1.7582.0289-2.7927,2.17-3.2012,3.6905-6.5451,2.1259-10.5788-.8769-2.2608-1.43-4.6468-2.1374-6.974-.5748-1.8926-1.1011-3.8028-1.7547-5.6682-1.4564-4.1574-3.0248-8.2758-4.463-12.4393-1.8016-5.2157-3.5215-10.46-5.2713-15.6932q-3.6054-10.7835-7.2024-21.57-3.1446-9.4284-6.2844-18.8585c-.6792-2.0311-1.36-4.0624-2.0936-6.0742-1.9906-5.46-4.062-10.8908-6-16.3688-1.5265-4.3138-2.8169-8.7116-4.3666-13.0164-2.2411-6.2254-4.61-12.4049-6.9474-18.5953-1.3262-3.5127-2.6541-7.0262-4.0776-10.5a16.831,16.831,0,0,0-1.718-2.6628c-1.8006,2.6933-3.2608,5.25-5.08,7.5193a164.7434,164.7434,0,0,1-11.2007,13.1856c-5.2418,5.2878-10.8887,10.1831-16.485,15.1066a108.361,108.361,0,0,1-9.2957,7.3037c-4.7458,3.3321-9.5614,6.584-14.5132,9.5974-4.022,2.4477-8.2463,4.5776-12.4593,6.6921-3.2844,1.6486-6.657,3.135-10.0524,4.544-2.1748.9025-4.4511,1.5692-6.7017,2.2788-4.9121,1.5487-9.8219,3.1078-14.7616,4.5643-3.2322.953-6.5152,1.7336-10.12,2.6821.4812,1.2334.9141,2.457,1.4334,3.6428a1.8627,1.8627,0,0,1-.9336,2.7658c-1.1979.6166-1.7485.0727-2.2106-.9928a18.6983,18.6983,0,0,1-1.3527-2.4831,2.2179,2.2179,0,0,0-2.7246-1.914c-.9615.1013-1.9248.1957-2.89.2537-1.63.098-1.8413,1.0175-1.3038,2.2929.5152,1.2225,1.15,2.394,1.68,3.6109,1.3806,3.172,2.6583,6.3909,4.1173,9.5259,1.329,2.8557,2.972,5.5682,4.2454,8.4461,2.2059,4.9855,4.2231,10.0542,6.3382,15.08,2.2239,5.2846,4.4966,10.5489,6.6969,15.8433,1.4682,3.533,2.8226,7.1132,4.2715,10.6544,2.0306,4.963,4.138,9.8948,6.1437,14.8677,1.5419,3.823,2.9712,7.6912,4.4619,11.5349,2.2037,5.6822,4.4451,11.35,6.6122,17.0459.81,2.1293,1.3873,4.3471,2.1923,6.4787,2.0474,5.4213,4.2593,10.782,6.2264,16.2315,2.1717,6.0163,4.113,12.1151,6.211,18.1585,2.6752,7.7056,5.4041,15.3925,8.115,23.0857,2.0068,5.6952,3.9705,11.4067,6.0994,17.056a2.7171,2.7171,0,0,0,2.1576,1.4249,32.2112,32.2112,0,0,0,5.4717-1.5759,99.5483,99.5483,0,0,0,21.21-10.2293,213.1233,213.1233,0,0,0,18.2789-13.04,156.62,156.62,0,0,0,14.8385-13.41A174.9155,174.9155,0,0,0,356.54,288.4185c4.8069-6.2674,9.3455-12.7653,13.62-19.4078,3.2709-5.0826,5.9941-10.522,8.8778-15.8477a90.7021,90.7021,0,0,0,5.1311-10.2456C385.1718,240.326,386.0018,237.354,383.48,234.6052ZM43.48,281.21a12.5917,12.5917,0,0,0,1.1894,3.1982c3.127,4.0083,6.2487,8.0325,9.5975,11.8539a163.2571,163.2571,0,0,0,22.6835,21.6243c2.57,1.9915,5.0385,4.1254,7.7046,5.9765,2.4235,1.6827,5.0626,3.0527,7.588,4.5911,3.5214,2.1451,6.863,4.6661,10.5738,6.401,6,2.805,12.23,5.1207,18.3786,7.6028,2.4755.9993,2.8517.73,3.6939-1.8717,1.1542-3.5659,2.3824-7.1079,3.5859-10.6578,2.39-7.05,4.8084-14.09,7.1694-21.1491,1.5228-4.5529,2.9669-9.132,4.441-13.7011.6136-1.902,1.1486-3.8319,1.8309-5.7085,2.6425-7.2684,5.3383-14.5174,7.9981-21.7795,2.1071-5.7532,4.1139-11.5444,6.3045-17.2654,2.6293-6.8667,5.4376-13.6645,8.1084-20.5155,1.8465-4.7363,3.578-9.5173,5.386-14.2687,1.3845-3.6388,2.738-7.2918,4.231-10.8864,2.3127-5.5678,4.7327-11.091,7.1064-16.6334.81-1.8913,1.5879-3.7969,2.4322-5.6727,1.9645-4.3642,3.9892-8.7016,5.9361-13.0736,2.0982-4.7119,4.0141-9.5088,6.2345-14.1613,2.0835-4.3657,2.0483-4.5045-2.7512-4.7647-2.035-.11-3.05.5977-3.3937,2.5943a3.7388,3.7388,0,0,1-1.1069,2.31,8.8254,8.8254,0,0,1-2.925.7815,24.3948,24.3948,0,0,1-.2-2.5521,4.5617,4.5617,0,0,1,.4567-1.2487c.9226-2.6591.7363-2.7541-1.989-3.2391a96.7384,96.7384,0,0,1-10.3915-2.3506c-5.2511-1.5472-10.4263-3.3537-15.625-5.0765a45.7012,45.7012,0,0,1-5.8392-2.1q-8.4147-4.1355-16.6934-8.5454c-3.6842-1.9752-7.31-4.0843-10.82-6.3519-3.7036-2.3923-7.2961-4.9682-10.8341-7.6022-4.3228-3.2181-8.71-6.3845-12.7525-9.9345-4.1236-3.6214-7.8884-7.655-11.76-11.5583-2.2661-2.2848-4.582-4.5466-6.6087-7.036-2.7487-3.3763-5.2419-6.9606-8.0232-10.6955-.3207.6165-.7269,1.2638-1.0074,1.9616-.8271,2.0568-1.62,4.1277-2.3981,6.2035-2.0982,5.5961-4.2238,11.1823-6.2578,16.8018-1.5624,4.3168-2.9814,8.6853-4.5013,13.0178-2.2214,6.3323-4.5063,12.6425-6.7077,18.9816-1.9553,5.63-3.8521,11.2813-5.7353,16.9363-.6065,1.8213-1.0226,3.7063-1.6376,5.5244-2.32,6.8582-4.7212,13.6888-7.0157,20.5553-.8654,2.59-1.4176,5.2853-2.2954,7.87-2.78,8.1877-5.6794,16.3349-8.4606,24.5222-.8544,2.5153-1.3889,5.1386-2.2271,7.66-1.2556,3.7771-2.6717,7.5007-3.9553,11.269a1.988,1.988,0,0,0,.2255,1.48c1.3075,2.1255,2.7559,4.1668,4,6.3269a2.114,2.114,0,0,1-.2651,1.9036c-1.8313,2.2176-3.2573,2.23-6.6411-.15a10.2241,10.2241,0,0,0,.0507,2.9542,31.508,31.508,0,0,0,1.8359,3.5126c2.5116,4.9233,4.8993,9.9135,7.5418,14.765,2.1828,4.0075,4.6007,7.8918,7.0258,11.7608,1.805,2.88,3.7385,5.6833,5.7294,8.438A5.3071,5.3071,0,0,0,43.48,281.21ZM323.8043,67.8167l.5407-.3122a8.6447,8.6447,0,0,0-1.1239-2.6434,23.7183,23.7183,0,0,0-4.0768-3.5908,103.3456,103.3456,0,0,0-9.9991-6.3229c-4.5456-2.3777-9.27-4.4315-14-6.431-2.2266-.9413-4.7345-1.2183-6.959-2.1634-7.7464-3.2914-16.0854-4.2628-24.1457-6.3025A103.3743,103.3743,0,0,0,252.2,38.1984c-4.8406-.6394-9.6848-1.314-14.5491-1.6988-7.47-.5909-14.9549-1.2548-22.4389-1.3252-9.1221-.0859-18.254.3056-27.3737.6838-9.9346.4119-19.9084-.1076-29.7887,1.7283-6.0368,1.1218-12.21,1.4875-18.2913,2.3984a104.1664,104.1664,0,0,0-11.5214,2.3687c-5.327,1.4279-10.6,3.075-15.8441,4.7878A91.1184,91.1184,0,0,0,102.0485,51.05,85.26,85.26,0,0,0,84.6011,61.3851c-1.6512,1.3224-3.6213,2.4681-4.123,4.423,1.3231.75,2.8847,1.1272,3.2133,1.98.267.6928-.77,2.1227-1.5405,2.9276-1.2478,1.3039-2.5019,2.599-1.1672,4.3454,3.6888,4.8268,7.2034,9.8462,11.3766,14.2279a183.9356,183.9356,0,0,0,16.655,15.4985c6.7333,5.509,13.78,10.68,21.01,15.5209,5.243,3.5107,11.0063,6.2441,16.5362,9.3268,7.773,4.333,16.167,7.1691,24.5662,9.917a98.4087,98.4087,0,0,0,20.366,4.4631c5.8123.6107,11.4563,1.84,17.353.1065,7.5194-2.21,15.23-3.76,22.79-5.8443a101.8748,101.8748,0,0,0,12.3252-4.2991c6.0868-2.556,12.12-5.2674,18.0324-8.2028a178.3121,178.3121,0,0,0,18.0065-9.7365,144.1466,144.1466,0,0,0,22.7118-18.0434c2.6492-2.6076,5.3362-5.1808,7.8986-7.872A77.6162,77.6162,0,0,0,323.0661,73.827a2.2506,2.2506,0,0,0-.3148-2.0984c-1.4232-1.343-3.1042-2.4094-4.57-3.7129-.5171-.46-1.09-1.4274-.9257-1.93a2.274,2.274,0,0,1,1.83-1.1312,5.2222,5.2222,0,0,1,2.3224,1.0542C322.2506,66.5423,323.0092,67.2083,323.8043,67.8167ZM216.6129,187.0678l-.8741-.018c-1.7078,2.4-3.3853,4.8234-5.146,7.1844-.4015.5384-1.0842,1.2156-1.6481,1.2255a43.2277,43.2277,0,0,1-8.4311-.2773c-2.5754-.4684-5.0085-1.7193-7.6724-2.6871l-2.0276,3.3893a6.8712,6.8712,0,0,0,2.2162.8457q12.1088.2115,24.22.2248a7.5025,7.5025,0,0,0,2.5138-.8773C218.5889,192.7183,217.6009,189.8931,216.6129,187.0678Zm-9.0474-20.6624-4.6076-9.5513c-.6943.4-1.6987.6246-1.9863,1.2046-1.3368,2.6961-2.475,5.4906-3.7268,8.3467ZM198.49,180.4645c-.2145,2.1089,1.9375,4.473,4.0119,4.2927,2.2914-.1991,3.6082-1.5318,3.6163-4.1277a4.1579,4.1579,0,0,0-3.87-4.3023C200.3283,176.2515,198.5,178.2639,198.49,180.4645Zm9.1258-6.5552c3.14,3.9162,2.3356,8.132,1.0349,12.4309,2.5973-1.5171,2.8946-3.8427,2.788-6.3393C211.3222,177.278,210.54,174.9574,207.6155,173.9093Zm-10.79.1853c-2.43,1.578-3.9208,3.6087-3.5792,6.6107a8.5086,8.5086,0,0,0,3.368,5.6157C193.9194,182.1307,194.1351,178.1228,196.8259,174.0946Zm-6.629,15.9623-1.6085-1.6794c-.4.521-1.0332,1.0056-1.1218,1.575-.0654.4209.5791.9521.9074,1.4342Z"/><path class="cls-1" d="M383.48,234.6052c2.5215,2.7488,1.6915,5.7208.6885,8.3122a90.7021,90.7021,0,0,1-5.1311,10.2456c-2.8837,5.3257-5.6069,10.7651-8.8778,15.8477-4.2749,6.6425-8.8135,13.14-13.62,19.4078a174.9155,174.9155,0,0,1-13.3344,15.5087,156.62,156.62,0,0,1-14.8385,13.41,213.1233,213.1233,0,0,1-18.2789,13.04,99.5483,99.5483,0,0,1-21.21,10.2293,32.2112,32.2112,0,0,1-5.4717,1.5759,2.7171,2.7171,0,0,1-2.1576-1.4249c-2.1289-5.6493-4.0926-11.3608-6.0994-17.056-2.7109-7.6932-5.44-15.38-8.115-23.0857-2.098-6.0434-4.0393-12.1422-6.211-18.1585-1.9671-5.4495-4.179-10.81-6.2264-16.2315-.805-2.1316-1.3821-4.3494-2.1923-6.4787-2.1671-5.6961-4.4085-11.3637-6.6122-17.0459-1.4907-3.8437-2.92-7.7119-4.4619-11.5349-2.0057-4.9729-4.1131-9.9047-6.1437-14.8677-1.4489-3.5412-2.8033-7.1214-4.2715-10.6544-2.2-5.2944-4.473-10.5587-6.6969-15.8433-2.1151-5.026-4.1323-10.0947-6.3382-15.08-1.2734-2.8779-2.9164-5.59-4.2454-8.4461-1.459-3.135-2.7367-6.3539-4.1173-9.5259-.53-1.2169-1.165-2.3884-1.68-3.6109-.5375-1.2754-.3264-2.1949,1.3038-2.2929.9649-.058,1.9282-.1524,2.89-.2537a2.2179,2.2179,0,0,1,2.7246,1.914,18.6983,18.6983,0,0,0,1.3527,2.4831c.4621,1.0655,1.0127,1.6094,2.2106.9928a1.8627,1.8627,0,0,0,.9336-2.7658c-.5193-1.1858-.9522-2.4094-1.4334-3.6428,3.605-.9485,6.888-1.7291,10.12-2.6821,4.94-1.4565,9.85-3.0156,14.7616-4.5643,2.2506-.71,4.5269-1.3763,6.7017-2.2788,3.3954-1.409,6.768-2.8954,10.0524-4.544,4.213-2.1145,8.4373-4.2444,12.4593-6.6921,4.9518-3.0134,9.7674-6.2653,14.5132-9.5974a108.361,108.361,0,0,0,9.2957-7.3037c5.5963-4.9235,11.2432-9.8188,16.485-15.1066a164.7434,164.7434,0,0,0,11.2007-13.1856c1.8188-2.2693,3.279-4.826,5.08-7.5193a16.831,16.831,0,0,1,1.718,2.6628c1.4235,3.4736,2.7514,6.9871,4.0776,10.5,2.3373,6.19,4.7063,12.37,6.9474,18.5953,1.55,4.3048,2.84,8.7026,4.3666,13.0164,1.9385,5.478,4.01,10.9089,6,16.3688.7334,2.0118,1.4144,4.0431,2.0936,6.0742q3.152,9.426,6.2844,18.8585,3.5975,10.7861,7.2024,21.57c1.75,5.2335,3.47,10.4775,5.2713,15.6932,1.4382,4.1635,3.0066,8.2819,4.463,12.4393.6536,1.8654,1.18,3.7756,1.7547,5.6682.7069,2.3272,1.26,4.7132,2.1374,6.974,1.5646,4.0337.0441,7.3776-2.1259,10.5788-.7013,1.0345-1.3194,1.9123-.0289,2.7927,1.2339.8417,2.3058.8109,3.0357-.8014A16.0495,16.0495,0,0,1,383.48,234.6052Zm-91.222,96.7124a23.9671,23.9671,0,0,1,2.2375-1.4794c1.3933-.6812,2.8677-1.2073,4.2181-1.96.4991-.2781,1.1479-1.1249,1.0389-1.5237-.8076-2.9527-2.3576-3.43-5.0717-1.765a10.0447,10.0447,0,0,1-2.9056,1.4709c-1.4833.321-2.4907.9912-1.9131,2.4687C290.2674,329.565,291.3717,330.3275,292.2583,331.3176Zm23.3009-13.8954a16.7892,16.7892,0,0,0-.98-2.81c-.2079-.4041-1.2556-.8471-1.5359-.6684a69.07,69.07,0,0,0-6.78,4.7935c-.3128.2572.1514,1.8045.5969,2.5516a1.5753,1.5753,0,0,0,2.5892.5554C311.3038,320.41,313.2443,319.0877,315.5592,317.4222Zm15.42-11.9773c-.8246-1.07-1.4087-2.2668-2.3666-2.8747-.441-.28-1.7129.4567-2.4326.9757a27.3352,27.3352,0,0,0-3.2825,2.8743c-.6188.6185-1.5231,1.4452-1.4734,2.1171.0664.8953.8265,2.3212,1.4876,2.4435.8332.1542,1.922-.692,2.8019-1.26,1.3621-.8787,1.6716-3.2391,4.0372-2.8025C330.0112,306.9667,330.4371,306.1174,330.9792,305.4449ZM227.1,171.5855c-1.1533-2.6393-2.0621-5.0555-3.2843-7.3011-.3443-.6325-1.6074-.765-2.449-1.1268-.3013.7277-1.0167,1.59-.8319,2.16a55.841,55.841,0,0,0,2.8768,7.1509,2.348,2.348,0,0,0,2.084.8556C226.1231,173.171,226.5557,172.2187,227.1,171.5855Zm123.61,113.623c1.9248-2.2269,3.267-3.82,4.6553-5.3712.87-.9728,1.0165-3.24.0788-3.7453-1.2542-.6758-2.268-.4308-3.2172.8481-1.4136,1.9045-3.0886,3.615-4.901,5.6931Zm10.5613-14.4667c.7172-.2175,1.4014-.21,1.6346-.5309a64.7433,64.7433,0,0,0,3.9144-5.8344,1.77,1.77,0,0,0-.9093-2.7579c-1.1936-.4788-2.1351-.72-2.8818.8628-.7384,1.5655-1.9933,2.8792-2.8642,4.3938a3.6028,3.6028,0,0,0-.5195,2.3875C359.7938,269.8587,360.709,270.2636,361.2711,270.7418Zm-17.38,21.1678c-.518-.8063-.76-1.6411-1.2059-1.7708a2.8268,2.8268,0,0,0-2.252.2071c-1.5567,1.3-2.9264,2.8249-4.3561,4.2749-1.0349,1.05-1.5213,1.9113-.0684,3.2489,1.4311,1.3174,2.1025.6746,3.0476-.3765.5845-.65,1.441-1.0625,1.9965-1.73C342.0542,294.5585,342.9215,293.2426,343.8911,291.91Zm-66.5506,22.3412c.5937-.9269,1.4919-1.7263,1.3439-2.196-.9506-3.0164-2.0866-5.9786-3.2915-8.9052a1.6989,1.6989,0,0,0-1.5937-.5213c-.55.2709-1.3151,1.1619-1.2,1.5595.84,2.8949,1.8356,5.7486,2.8959,8.5725C275.6764,313.2419,276.4037,313.5183,277.3405,314.2508ZM234.354,188.6729c-1.3622-2.6356-2.6028-5.1869-4.0326-7.6274-.1973-.3366-1.4346-.3477-1.9977-.0894a1.7864,1.7864,0,0,0-.6231,1.6346,60.2169,60.2169,0,0,0,2.9071,7.1394c.2615.5217,1.5751.7573,2.3617.6813C233.4194,190.3679,233.7831,189.4311,234.354,188.6729Zm49.9333,141.2789c-1.119-3.0148-2.1154-5.8525-3.271-8.6239-.1494-.3582-1.1742-.5925-1.6967-.47a1.5763,1.5763,0,0,0-.762,1.3552c.6685,2.8623,1.3854,5.7222,2.3235,8.5031.1452.43,1.51.6324,2.2908.5876C283.557,331.2814,283.8959,330.4549,284.2873,329.9518Zm84.94-77.1342c.7751.78,1.4178,1.8509,1.8487,1.7715a4.2432,4.2432,0,0,0,2.5134-1.4986c.917-1.288,1.1291-3.273,2.2655-4.1627,1.5911-1.2456.7664-2.1749-.0126-2.7723-.6092-.4672-2.3511-.5664-2.636-.16C371.7623,248.0549,370.6294,250.3328,369.2275,252.8176Zm-102.7557,23.003c-.8406-2.8127-1.5319-5.4447-2.4666-7.9871-.1887-.5135-1.2976-.9132-1.985-.9173-.3107-.0019-.9938,1.1758-.8813,1.6778a71.0437,71.0437,0,0,0,2.2228,7.9835c.1807.5149,1.4233.8577,2.1833.8707C265.8529,277.4534,266.18,276.3638,266.4718,275.8206Zm-24.9824-60.7062a14.1238,14.1238,0,0,0,.225,2.8537c.524,1.7455,1.3179,3.4111,1.8219,5.1611.3863,1.3415.9385,2.6506,2.436,2.0362.6533-.268,1.2407-1.9971,1.0217-2.8474-.6527-2.5345-1.72-4.9623-2.6415-7.4772Zm12.8535,35.6334c.6842,2.15,1.1942,3.83,1.7573,5.4925a9.5667,9.5667,0,0,0,1.1666,2.7874c.3808.4955,1.62.9612,1.958.7191a2.571,2.571,0,0,0,1.0219-2.1137,57.9325,57.9325,0,0,0-2.7056-7.1976,2.1961,2.1961,0,0,0-1.8518-.9081C255.1323,249.601,254.6742,250.4225,254.3429,250.7478ZM272.089,295.89c.4641-4.3251-1.1721-7.4377-2.3829-10.61-.1493-.3914-1.557-.4783-2.334-.3688-.3162.0446-.8227,1.0811-.7,1.5114a57.6665,57.6665,0,0,0,2.5066,7.4524C269.5318,294.6767,270.8347,295.06,272.089,295.89Zm-22.3479-64.7634a3.9623,3.9623,0,0,0-1.2461,4.7756c.4682,1.6143,1.3961,3.1174,1.71,4.7485.35,1.8217,1.4382,1.575,2.623,1.3794,1.6085-.2656,1.253-1.46.9458-2.4164a32.3875,32.3875,0,0,0-1.6529-4.0326C251.4525,234.1833,250.6654,232.8429,249.7411,231.1262Zm-8.7391-25.24c-1.1841-2.6421-2.1013-4.95-3.2656-7.1255-.3442-.6432-1.3853-.9135-2.107-1.3547-.3027.7433-.9588,1.55-.8393,2.2177a24.0907,24.0907,0,0,0,1.5139,5.0422,21.1153,21.1153,0,0,0,2.0462,3.1962Z"/><path class="cls-1" d="M43.48,281.21a5.3071,5.3071,0,0,1-1.78-1.1711c-1.9909-2.7547-3.9244-5.5585-5.7294-8.438-2.4251-3.869-4.843-7.7533-7.0258-11.7608-2.6425-4.8515-5.03-9.8417-7.5418-14.765a31.508,31.508,0,0,1-1.8359-3.5126,10.2241,10.2241,0,0,1-.0507-2.9542c3.3838,2.3793,4.81,2.3672,6.6411.15a2.114,2.114,0,0,0,.2651-1.9036c-1.2441-2.16-2.6925-4.2014-4-6.3269a1.988,1.988,0,0,1-.2255-1.48c1.2836-3.7683,2.7-7.4919,3.9553-11.269.8382-2.5216,1.3727-5.1449,2.2271-7.66,2.7812-8.1873,5.68-16.3345,8.4606-24.5222.8778-2.5852,1.43-5.2805,2.2954-7.87,2.2945-6.8665,4.696-13.6971,7.0157-20.5553.615-1.8181,1.0311-3.7031,1.6376-5.5244,1.8832-5.655,3.78-11.3059,5.7353-16.9363,2.2014-6.3391,4.4863-12.6493,6.7077-18.9816,1.52-4.3325,2.9389-8.701,4.5013-13.0178,2.034-5.62,4.16-11.2057,6.2578-16.8018.7783-2.0758,1.571-4.1467,2.3981-6.2035.2805-.6978.6867-1.3451,1.0074-1.9616C77.1782,81.479,79.6714,85.0633,82.42,88.44c2.0267,2.4894,4.3426,4.7512,6.6087,7.036,3.8712,3.9033,7.636,7.9369,11.76,11.5583,4.0422,3.55,8.43,6.7164,12.7525,9.9345,3.538,2.634,7.1305,5.21,10.8341,7.6022,3.5107,2.2676,7.1362,4.3767,10.82,6.3519q8.2631,4.43,16.6934,8.5454a45.7012,45.7012,0,0,0,5.8392,2.1c5.1987,1.7228,10.3739,3.5293,15.625,5.0765a96.7384,96.7384,0,0,0,10.3915,2.3506c2.7253.485,2.9116.58,1.989,3.2391a4.5617,4.5617,0,0,0-.4567,1.2487,24.3948,24.3948,0,0,0,.2,2.5521,8.8254,8.8254,0,0,0,2.925-.7815,3.7388,3.7388,0,0,0,1.1069-2.31c.3441-1.9966,1.3587-2.7047,3.3937-2.5943,4.7995.26,4.8347.399,2.7512,4.7647-2.22,4.6525-4.1363,9.4494-6.2345,14.1613-1.9469,4.372-3.9716,8.7094-5.9361,13.0736-.8443,1.8758-1.6222,3.7814-2.4322,5.6727-2.3737,5.5424-4.7937,11.0656-7.1064,16.6334-1.493,3.5946-2.8465,7.2476-4.231,10.8864-1.808,4.7514-3.5395,9.5324-5.386,14.2687-2.6708,6.851-5.4791,13.6488-8.1084,20.5155-2.1906,5.721-4.1974,11.5122-6.3045,17.2654-2.66,7.2621-5.3556,14.5111-7.9981,21.7795-.6823,1.8766-1.2173,3.8065-1.8309,5.7085-1.4741,4.5691-2.9182,9.1482-4.441,13.7011-2.361,7.0593-4.7793,14.0995-7.1694,21.1491-1.2035,3.55-2.4317,7.0919-3.5859,10.6578-.8422,2.602-1.2184,2.871-3.6939,1.8717-6.149-2.4821-12.3788-4.7978-18.3786-7.6028-3.7108-1.7349-7.0524-4.2559-10.5738-6.401-2.5254-1.5384-5.1645-2.9084-7.588-4.5911-2.6661-1.8511-5.1349-3.985-7.7046-5.9765a163.2571,163.2571,0,0,1-22.6835-21.6243c-3.3488-3.8214-6.4705-7.8456-9.5975-11.8539A12.5917,12.5917,0,0,1,43.48,281.21Zm4.4248-1.3684c.4136,1.7338.4385,2.9635,2.2831,3.3642.7051.1531,1.1564,1.2469,1.8513,1.7269a12.3642,12.3642,0,0,0,3.471,1.9041c.4544.1284,1.6237-.8577,1.8225-1.5268.447-1.5053.4119-3.0271-1.2148-4.124a6.3375,6.3375,0,0,1-2.1858-2.4425c-.878-1.9249-2.4857-1.98-3.9147-1.45C49.1217,277.6263,48.5965,278.9585,47.905,279.842Zm-11.2717-15.56a30.5474,30.5474,0,0,0,1.48,2.8125c.947,1.3986,2.2557,2.615,2.9235,4.1242.8136,1.8385,2.1066,1.6215,3.244.9955,1.2718-.7,2.5711-2.0615,1.7317-3.5872a32.0637,32.0637,0,0,0-4.4313-5.9928,3.2592,3.2592,0,0,0-2.8511-.6223C37.9057,262.2829,37.37,263.4314,36.6333,264.2816ZM25.7207,248.0929a86.6613,86.6613,0,0,0,4.9988,7.6028c.5141.6426,2.4331.7807,3.3.343.8255-.4169,2.3116-1.3735,1.4016-3.0006a60.9582,60.9582,0,0,0-3.3655-5.8712,3.27,3.27,0,0,0-2.7021-1.0711C28.2018,246.31,27.1839,247.2425,25.7207,248.0929Zm56.2407,64.56a10.5528,10.5528,0,0,0,2.3915-2.2572A2.4448,2.4448,0,0,0,83.97,308.1a61.1119,61.1119,0,0,0-5.6447-4.4979c-1.6122-1.1631-2.8749-.1925-3.6614,1.138-.4243.7178-.6622,2.1633-.2475,2.6414a23.1712,23.1712,0,0,0,4.113,3.452A30.5605,30.5605,0,0,0,81.9614,312.6526Zm34.0247,15.7423c-.0928-.1406-.2852-.7773-.7012-1.0039-2.1188-1.1548-4.2906-2.2133-6.4537-3.2857a1.9593,1.9593,0,0,0-2.9376.9225c-.8187,1.496-1.2684,3.1156.4323,4.0756a30.3483,30.3483,0,0,0,6.2823,2.564C114.6647,332.2768,116.0327,330.9875,115.9861,328.3949Zm-45.1753-30.73a11.7333,11.7333,0,0,0-1.3942-2.29c-1.5295-1.4758-3.198-2.8067-4.7475-4.263a1.94,1.94,0,0,0-3.0866.1043c-.9217,1.12-1.8194,2.6287-.4585,3.9735a44.228,44.228,0,0,0,5.2231,4.3474,2.6663,2.6663,0,0,0,2.2776.2A9.7756,9.7756,0,0,0,70.8108,297.665Zm20.9273,16.7729c-.7051.5545-1.82,1.0076-2.1007,1.7686a3.1441,3.1441,0,0,0,.4556,2.7641,56.02,56.02,0,0,0,5.09,4.0678c1.2144.95,2.2871.9664,3.1259-.466.2978-.5085.4936-1.0763.7849-1.5893,1.0795-1.9009.7864-2.7194-1.1372-3.5489-1.1918-.5138-2.3011-1.216-3.4675-1.7931C93.7044,315.2527,92.884,314.9353,91.7381,314.4379Zm41.2963-8.7562c-.5153-.928-.8446-2.41-1.556-2.6248-1.7154-.5169-2.3442.8625-2.733,2.3785-.5658,2.2054-1.4158,4.3429-1.8894,6.5638-.1634.7664.4361,1.6956.6871,2.55.9626-.4347,2.4439-.6218,2.7916-1.35A72.5867,72.5867,0,0,0,133.0344,305.6817Zm19.3724-62.3761a14.26,14.26,0,0,0,2.6736-2.8427,19.0585,19.0585,0,0,0,1.7942-5.1848c.2123-1.0839.16-2.9052-.481-3.3325-1.4769-.984-2.5363.4808-3.3543,1.6131a6.2205,6.2205,0,0,0-.6049,1.8633,26.9682,26.9682,0,0,1-1.2287,4.0041C150.4638,240.9744,150.7587,242.0684,152.4068,243.3056Zm-19.9175,53.6118c1.5964-.691,3.2926-.9086,3.5338-1.62a74.4789,74.4789,0,0,0,2.24-9.1327,1.6859,1.6859,0,0,0-.94-1.3719,1.7519,1.7519,0,0,0-1.558.6817c-1.1738,2.6589-2.2754,5.3566-3.2314,8.1005C132.2443,294.4072,132.4893,295.4255,132.4893,296.9174Zm12.5313-28.4065c-.4513-.5546-.7526-1.2809-1.2153-1.4049-.6064-.1626-1.7908-.0551-1.9484.2908-1.3042,2.8624-2.4946,5.7836-3.5413,8.75-.1709.4844.493,1.7992.8394,1.8254.8873.0671,2.3907-.1211,2.6269-.657C143.017,274.5119,143.9345,271.5689,145.0206,268.5109Zm-22.3815,64.2265c.7746-.5355,2.0377-.9311,2.3227-1.6927a55.11,55.11,0,0,0,2.2667-8c.1209-.5769-.6715-1.7033-1.311-2.0008-1.063-.4946-1.9341.0715-2.291,1.321-.4813,1.6851-1.179,3.3148-1.5723,5.0171C121.6466,329.1459,120.4547,331.0672,122.6391,332.7374Zm28.15-80.817-.9055-2.7211c-.7545.4462-1.9151.7188-2.1929,1.3687a70.84,70.84,0,0,0-2.9853,8.4408c-.1133.3984,1.0656,1.3225,1.7987,1.7272a1.65,1.65,0,0,0,1.4751-.65C149.0115,257.3461,149.9022,254.5523,150.7888,251.92Zm12.8454-34.6771c-.4464-.9992-.5574-1.8207-.9912-2.0619a1.9043,1.9043,0,0,0-1.8069.1382c-2.0055,2.5007-3.5573,5.26-3.5276,8.5881.0054.6024.6144,1.6991.9449,1.6992.7846,0,2.0069-.308,2.2784-.8673C161.7377,222.2561,162.6711,219.64,163.6342,217.2433Zm.1049-11.3962c.4731.7412.8945,1.9573,1.3267,1.9612.8678.0078,2.236-.4244,2.5242-1.0668a47.1042,47.1042,0,0,0,2.4828-7.2776c.1647-.6251-.526-1.4756-.8236-2.2224-.8218.3482-2.0833.4763-2.3874,1.0838C165.6859,200.6735,164.8154,203.1746,163.7391,205.8471ZM182.6305,162.34c-.9813.8924-1.7292,1.2763-2.0043,1.8769a62.8828,62.8828,0,0,0-2.4351,6.1306,12.43,12.43,0,0,0-.2834,2.8349c1.0517-.2,2.7323-.0676,3.0458-.6592a51.0773,51.0773,0,0,0,3.2076-7.8533C184.3113,164.2172,183.3543,163.3971,182.6305,162.34ZM175.83,179.66c-1.2281,1.2075-2.1215,1.7468-2.5069,2.5347-.8345,1.7058-1.2122,3.6522-2.1531,5.2831-.7242,1.2554-.5791,2.3635.4215,2.7537a2.963,2.963,0,0,0,2.7508-.9213,40.58,40.58,0,0,0,2.7081-6.9555C177.2149,181.8158,176.4666,180.9981,175.83,179.66Z"/><path class="cls-1" d="M323.8043,67.8167c-.7951-.6084-1.5537-1.2744-2.3963-1.8077a5.2222,5.2222,0,0,0-2.3224-1.0542,2.274,2.274,0,0,0-1.83,1.1312c-.1646.5023.4086,1.47.9257,1.93,1.4655,1.3035,3.1465,2.37,4.57,3.7129a2.2506,2.2506,0,0,1,.3148,2.0984,77.6162,77.6162,0,0,1-12.4546,16.2965c-2.5624,2.6912-5.2494,5.2644-7.8986,7.872a144.1466,144.1466,0,0,1-22.7118,18.0434,178.3121,178.3121,0,0,1-18.0065,9.7365c-5.9121,2.9354-11.9456,5.6468-18.0324,8.2028a101.8748,101.8748,0,0,1-12.3252,4.2991c-7.56,2.0841-15.2706,3.6344-22.79,5.8443-5.8967,1.7331-11.5407.5042-17.353-.1065a98.4087,98.4087,0,0,1-20.366-4.4631c-8.3992-2.7479-16.7932-5.584-24.5662-9.917-5.53-3.0827-11.2932-5.8161-16.5362-9.3268-7.23-4.841-14.277-10.0119-21.01-15.5209A183.9356,183.9356,0,0,1,92.36,89.2888c-4.1732-4.3817-7.6878-9.4011-11.3766-14.2279-1.3347-1.7464-.0806-3.0415,1.1672-4.3454.77-.8049,1.8075-2.2348,1.5405-2.9276-.3286-.8526-1.89-1.23-3.2133-1.98.5017-1.9549,2.4718-3.1006,4.123-4.423A85.26,85.26,0,0,1,102.0485,51.05a91.1184,91.1184,0,0,1,10.3445-3.9083c5.244-1.7128,10.5171-3.36,15.8441-4.7878a104.1664,104.1664,0,0,1,11.5214-2.3687c6.0812-.9109,12.2545-1.2766,18.2913-2.3984,9.88-1.8359,19.8541-1.3164,29.7887-1.7283,9.12-.3782,18.2516-.77,27.3737-.6838,7.484.07,14.9692.7343,22.4389,1.3252,4.8643.3848,9.7085,1.0594,14.5491,1.6988a103.3743,103.3743,0,0,1,11.8405,1.8521c8.06,2.04,16.3993,3.0111,24.1457,6.3025,2.2245.9451,4.7324,1.2221,6.959,2.1634,4.73,2,9.4542,4.0533,14,6.431a103.3456,103.3456,0,0,1,9.9991,6.3229,23.7183,23.7183,0,0,1,4.0768,3.5908,8.6447,8.6447,0,0,1,1.1239,2.6434ZM98.532,56.3351c-2.7683,1.1269-5.3164,2.1754-7.8738,3.2005-1.2883.5164-3.1086.995-2.5855,2.605.25.7707,2.3041,1.2,3.5823,1.3111.9353.0817,1.9517-.5729,2.9057-.9634.6684-.2736,1.2645-.7335,1.9411-.975C99.1836,60.5559,99.4373,60.0773,98.532,56.3351Zm65.2563-11.6068.0007-.0879c1.0412,0,2.0834.03,3.1231-.0076,1.3331-.0487,2.8138-.328,2.57-1.9933a2.6306,2.6306,0,0,0-2.9182-2.3779,35.7051,35.7051,0,0,1-4.9051.1115c-2.2218-.1757-2.6542,1.0112-2.5976,2.8359.0621,2.0026,1.4979,1.6461,2.7227,1.6432C162.4523,44.8507,163.12,44.7721,163.7883,44.7283Zm-20.192,2.436c1.9843-.2584,3.9957-.3924,5.9436-.8176a2.3284,2.3284,0,0,0,2.0785-2.8661c-.2813-1.6822-1.543-1.3253-2.5891-1.3149-1.6264.0162-3.2543.11-4.8766.2351-1.2942.1-3.31,1.9426-3.191,2.8459A2.0081,2.0081,0,0,0,143.5963,47.1643ZM124.87,51.02c3.19-.7267,5.7947-1.2376,8.3228-2.0011.3122-.0943.5845-1.8281.2228-2.28a3.3083,3.3083,0,0,0-2.468-1.0243c-1.9707.1268-3.9131.641-5.8792.9083-1.4045.1909-2.3925.9024-2.022,2.2878C123.2753,49.7685,124.313,50.4105,124.87,51.02Zm-10.61-1.2252c-2.8919,1.0785-5.5185,1.8548-7.9411,3.0461-1.2376.6085-.9528,2.0065.2053,2.6756a3.7351,3.7351,0,0,0,2.5239.3481c1.9227-.471,3.7612-1.2766,5.674-1.8,1.3279-.3633,2.03-1.208,1.6238-2.3883C116.0928,50.9436,115.06,50.48,114.2591,49.7947Zm86.4573-6.8329V42.98a14.8734,14.8734,0,0,0,3.5506-.0807,2.4471,2.4471,0,0,0,1.3974-1.7483c.0681-.5236-.7757-1.69-1.147-1.6625-2.6084.1941-5.1914-1.58-7.7524-.191-.7073.3837-1.6549,1.28-1.6012,1.8577a2.6808,2.6808,0,0,0,1.7762,1.7283A16.4743,16.4743,0,0,0,200.7164,42.9618Zm-18.2262.5711V43.43c.8887,0,1.7782-.0236,2.666.0056,1.2869.0424,2.3688-.0413,2.3607-1.7973-.0078-1.6943-1.1607-1.9744-2.3649-1.9572-2.1445.0306-4.2845.2981-6.43.3888-1.2876.0544-1.8158.837-1.551,1.8681a2.4744,2.4744,0,0,0,1.57,1.5241A19.4111,19.4111,0,0,0,182.49,43.5329Zm60.2578-1.32c-.4779-.3122-.9181-.816-1.4238-.8936a60.1981,60.1981,0,0,0-7.6477-.8893c-.7849-.0187-1.5969,1.1037-2.3964,1.7036.7357.5595,1.4058,1.4467,2.2209,1.61,1.6521.3306,3.5421-.1327,5.0439.4629C240.84,45.1167,241.794,44.1113,242.748,42.2129Zm-24.3564.7722v.1221a26.8205,26.8205,0,0,0,3.99-.0689,1.8856,1.8856,0,0,0,1.1317-1.4342c.01-.6749-.5073-1.9337-.837-1.9466a74.1044,74.1044,0,0,0-8.1775.1432c-.4111.0294-1.1207,1.0969-1.0349,1.5633a2.2847,2.2847,0,0,0,1.3846,1.5492A17.136,17.136,0,0,0,218.3916,42.9851ZM269.4509,45.55a4.9783,4.9783,0,0,0-1.5131,1.338c-.1713.3023.4556,1.5049.9167,1.643a70.4389,70.4389,0,0,0,7.5644,1.8253c.51.0931,1.6474-.6359,1.6672-1.0277.0382-.7541-.3634-2.0809-.85-2.2176C274.9031,46.4563,272.4808,46.12,269.4509,45.55Zm16.6023,4.0779c-1.8527,1.522-1.794,2.361.5527,3.2743a51.7427,51.7427,0,0,0,6.0654,1.9751c.5483.1386,1.7482-.3666,1.8323-.7537.1467-.6743-.1248-1.9181-.6047-2.159a25.58,25.58,0,0,0-4.4006-1.4274C288.462,50.2374,287.4119,49.9847,286.0532,49.6282ZM250.49,42.6058c-.5921.8891-1.4163,2.263.4424,2.8806a52.0192,52.0192,0,0,0,6.8851,1.3581c1.1863.2212,2.0387.0078,2.1566-1.439.1122-1.3757-.3586-2.0167-1.8283-2.0951C255.6633,43.1781,253.1907,42.8646,250.49,42.6058Zm53.01,13.3769c-.55.4716-1.18.7792-1.404,1.2715-.2075.455-.1527,1.5124.0806,1.6114q3.7086,1.5733,7.5361,2.8554a1.553,1.553,0,0,0,1.3362-.7569c.124-.5494-.056-1.5736-.4285-1.7623C308.3555,58.055,306,57.0877,303.4993,55.9827Z"/><path class="cls-1" d="M216.6129,187.0678c.988,2.8253,1.976,5.65,3.1509,9.01a7.5025,7.5025,0,0,1-2.5138.8773q-12.11.0041-24.22-.2248a6.8712,6.8712,0,0,1-2.2162-.8457l2.0276-3.3893c2.6639.9678,5.097,2.2187,7.6724,2.6871a43.2277,43.2277,0,0,0,8.4311.2773c.5639-.01,1.2466-.6871,1.6481-1.2255,1.7607-2.361,3.4382-4.784,5.146-7.1844Z"/><path class="cls-1" d="M207.5655,166.4054H197.2448c1.2518-2.8561,2.39-5.6506,3.7268-8.3467.2876-.58,1.292-.8047,1.9863-1.2046Z"/><path class="cls-2" d="M198.49,180.4645c.01-2.2006,1.8386-4.213,3.7586-4.1373a4.1579,4.1579,0,0,1,3.87,4.3023c-.0081,2.5959-1.3249,3.9286-3.6163,4.1277C200.4272,184.9375,198.2752,182.5734,198.49,180.4645Z"/><path class="cls-2" d="M207.6155,173.9093c2.9243,1.0481,3.7067,3.3687,3.8229,6.0916.1066,2.4966-.1907,4.8222-2.788,6.3393C209.9511,182.0413,210.7552,177.8255,207.6155,173.9093Z"/><path class="cls-2" d="M196.8259,174.0946c-2.6908,4.0282-2.9065,8.0361-.2112,12.2264a8.5086,8.5086,0,0,1-3.368-5.6157C192.9051,177.7033,194.3962,175.6726,196.8259,174.0946Z"/><path class="cls-1" d="M190.1969,190.0569l-1.8229,1.33c-.3283-.4821-.9728-1.0133-.9074-1.4342.0886-.5694.7221-1.054,1.1218-1.575Z"/><path d="M292.2583,331.3176c-.8866-.99-1.9909-1.7526-2.3959-2.7884-.5776-1.4775.43-2.1477,1.9131-2.4687a10.0447,10.0447,0,0,0,2.9056-1.4709c2.7141-1.6646,4.2641-1.1877,5.0717,1.765.109.3988-.54,1.2456-1.0389,1.5237-1.35.7526-2.8248,1.2787-4.2181,1.96A23.9671,23.9671,0,0,0,292.2583,331.3176Z"/><path d="M315.5592,317.4222c-2.3149,1.6655-4.2554,2.9882-6.11,4.4225a1.5753,1.5753,0,0,1-2.5892-.5554c-.4455-.7471-.91-2.2944-.5969-2.5516a69.07,69.07,0,0,1,6.78-4.7935c.28-.1787,1.328.2643,1.5359.6684A16.7892,16.7892,0,0,1,315.5592,317.4222Z"/><path d="M330.9792,305.4449c-.5421.6725-.968,1.5218-1.2284,1.4738-2.3656-.4366-2.6751,1.9238-4.0372,2.8025-.88.5676-1.9687,1.4138-2.8019,1.26-.6611-.1223-1.4212-1.5482-1.4876-2.4435-.05-.6719.8546-1.4986,1.4734-2.1171a27.3352,27.3352,0,0,1,3.2825-2.8743c.72-.519,1.9916-1.2555,2.4326-.9757C329.5705,303.1781,330.1546,304.375,330.9792,305.4449Z"/><path d="M227.1,171.5855c-.5445.6332-.9771,1.5855-1.6044,1.7383a2.348,2.348,0,0,1-2.084-.8556,55.841,55.841,0,0,1-2.8768-7.1509c-.1848-.57.5306-1.432.8319-2.16.8416.3618,2.1047.4943,2.449,1.1268C225.0381,166.53,225.9469,168.9462,227.1,171.5855Z"/><path d="M350.71,285.2085l-3.3841-2.5753c1.8124-2.0781,3.4874-3.7886,4.901-5.6931.9492-1.2789,1.963-1.5239,3.2172-.8481.9377.5052.7916,2.7725-.0788,3.7453C353.9768,281.3888,352.6346,282.9816,350.71,285.2085Z"/><path d="M361.2711,270.7418c-.5621-.4782-1.4773-.8831-1.6258-1.4791a3.6028,3.6028,0,0,1,.5195-2.3875c.8709-1.5146,2.1258-2.8283,2.8642-4.3938.7467-1.5832,1.6882-1.3416,2.8818-.8628a1.77,1.77,0,0,1,.9093,2.7579,64.7433,64.7433,0,0,1-3.9144,5.8344C362.6725,270.5316,361.9883,270.5243,361.2711,270.7418Z"/><path d="M343.8911,291.91c-.97,1.333-1.8369,2.6489-2.8383,3.8532-.5555.6679-1.412,1.08-1.9965,1.73-.9451,1.0511-1.6165,1.6939-3.0476.3765-1.4529-1.3376-.9665-2.1993.0684-3.2489,1.43-1.45,2.7994-2.9751,4.3561-4.2749a2.8268,2.8268,0,0,1,2.252-.2071C343.1316,290.2685,343.3731,291.1033,343.8911,291.91Z"/><path d="M277.3405,314.2508c-.9368-.7325-1.6641-1.0089-1.845-1.4905-1.06-2.8239-2.0554-5.6776-2.8959-8.5725-.1155-.3976.6494-1.2886,1.2-1.5595a1.6989,1.6989,0,0,1,1.5937.5213c1.2049,2.9266,2.3409,5.8888,3.2915,8.9052C278.8324,312.5245,277.9342,313.3239,277.3405,314.2508Z"/><path d="M234.354,188.6729c-.5709.7582-.9346,1.695-1.3846,1.7385-.7866.076-2.1-.16-2.3617-.6813a60.2169,60.2169,0,0,1-2.9071-7.1394,1.7864,1.7864,0,0,1,.6231-1.6346c.5631-.2583,1.8-.2472,1.9977.0894C231.7512,183.486,232.9918,186.0373,234.354,188.6729Z"/><path d="M284.2873,329.9518c-.3914.5031-.73,1.33-1.1154,1.3517-.7807.0448-2.1456-.1572-2.2908-.5876-.9381-2.7809-1.655-5.6408-2.3235-8.5031a1.5763,1.5763,0,0,1,.762-1.3552c.5225-.1222,1.5473.1121,1.6967.47C282.1719,324.0993,283.1683,326.937,284.2873,329.9518Z"/><path d="M369.2275,252.8176c1.4019-2.4848,2.5348-4.7627,3.979-6.8224.2849-.4061,2.0268-.3069,2.636.16.779.5974,1.6037,1.5267.0126,2.7723-1.1364.89-1.3485,2.8747-2.2655,4.1627a4.2432,4.2432,0,0,1-2.5134,1.4986C370.6453,254.6685,370.0026,253.5972,369.2275,252.8176Z"/><path d="M266.4718,275.8206c-.2922.5432-.6189,1.6328-.9268,1.6276-.76-.013-2.0026-.3558-2.1833-.8707a71.0437,71.0437,0,0,1-2.2228-7.9835c-.1125-.502.5706-1.68.8813-1.6778.6874.0041,1.7963.4038,1.985.9173C264.94,270.3759,265.6312,273.0079,266.4718,275.8206Z"/><path d="M241.4894,215.1144l2.8631-.2736c.9218,2.5149,1.9888,4.9427,2.6415,7.4772.219.85-.3684,2.5794-1.0217,2.8474-1.4975.6144-2.05-.6947-2.436-2.0362-.504-1.75-1.2979-3.4156-1.8219-5.1611A14.1238,14.1238,0,0,1,241.4894,215.1144Z"/><path d="M254.3429,250.7478c.3313-.3253.7894-1.1468,1.3464-1.22a2.1961,2.1961,0,0,1,1.8518.9081,57.9325,57.9325,0,0,1,2.7056,7.1976,2.571,2.571,0,0,1-1.0219,2.1137c-.3383.2421-1.5772-.2236-1.958-.7191A9.5667,9.5667,0,0,1,256.1,256.24C255.5371,254.5781,255.0271,252.8978,254.3429,250.7478Z"/><path d="M272.089,295.89c-1.2543-.83-2.5572-1.2129-2.91-2.0146a57.6665,57.6665,0,0,1-2.5066-7.4524c-.1228-.43.3837-1.4668.7-1.5114.777-.11,2.1847-.0226,2.334.3688C270.9169,288.4519,272.5531,291.5645,272.089,295.89Z"/><path d="M249.7411,231.1262c.9243,1.7167,1.7114,3.0571,2.3794,4.4545a32.3875,32.3875,0,0,1,1.6529,4.0326c.3072.9562.6627,2.1508-.9458,2.4164-1.1848.1956-2.2728.4423-2.623-1.3794-.3135-1.6311-1.2414-3.1342-1.71-4.7485A3.9623,3.9623,0,0,1,249.7411,231.1262Z"/><path d="M241.002,205.8859l-2.6518,1.9759a21.1153,21.1153,0,0,1-2.0462-3.1962,24.0907,24.0907,0,0,1-1.5139-5.0422c-.1195-.6678.5366-1.4744.8393-2.2177.7217.4412,1.7628.7115,2.107,1.3547C238.9007,200.936,239.8179,203.2438,241.002,205.8859Z"/><path d="M47.905,279.842c.6915-.8835,1.2167-2.2157,2.1126-2.5479,1.429-.53,3.0367-.4751,3.9147,1.45a6.3375,6.3375,0,0,0,2.1858,2.4425c1.6267,1.0969,1.6618,2.6187,1.2148,4.124-.1988.6691-1.3681,1.6552-1.8225,1.5268a12.3642,12.3642,0,0,1-3.471-1.9041c-.6949-.48-1.1462-1.5738-1.8513-1.7269C48.3435,282.8055,48.3186,281.5758,47.905,279.842Z"/><path d="M36.6333,264.2816c.7368-.85,1.2724-1.9987,2.0968-2.27a3.2592,3.2592,0,0,1,2.8511.6223,32.0637,32.0637,0,0,1,4.4313,5.9928c.8394,1.5257-.46,2.8874-1.7317,3.5872-1.1374.626-2.43.843-3.244-.9955-.6678-1.5092-1.9765-2.7256-2.9235-4.1242A30.5474,30.5474,0,0,1,36.6333,264.2816Z"/><path d="M25.7207,248.0929c1.4632-.85,2.4811-1.7833,3.6326-1.9971a3.27,3.27,0,0,1,2.7021,1.0711,60.9582,60.9582,0,0,1,3.3655,5.8712c.91,1.6271-.5761,2.5837-1.4016,3.0006-.8667.4377-2.7857.3-3.3-.343A86.6613,86.6613,0,0,1,25.7207,248.0929Z"/><path d="M81.9614,312.6526a30.5605,30.5605,0,0,1-3.4322-1.819,23.1712,23.1712,0,0,1-4.113-3.452c-.4147-.4781-.1768-1.9236.2475-2.6414.7865-1.3305,2.0492-2.3011,3.6614-1.138A61.1119,61.1119,0,0,1,83.97,308.1a2.4448,2.4448,0,0,1,.3831,2.2953A10.5528,10.5528,0,0,1,81.9614,312.6526Z"/><path d="M115.9861,328.3949c.0466,2.5926-1.3214,3.8819-3.3779,3.2725a30.3483,30.3483,0,0,1-6.2823-2.564c-1.7007-.96-1.251-2.58-.4323-4.0756a1.9593,1.9593,0,0,1,2.9376-.9225c2.1631,1.0724,4.3349,2.1309,6.4537,3.2857C115.7009,327.6176,115.8933,328.2543,115.9861,328.3949Z"/><path d="M70.8108,297.665a9.7756,9.7756,0,0,1-2.1861,2.0718,2.6663,2.6663,0,0,1-2.2776-.2A44.228,44.228,0,0,1,61.124,295.19c-1.3609-1.3448-.4632-2.8539.4585-3.9735a1.94,1.94,0,0,1,3.0866-.1043c1.5495,1.4563,3.218,2.7872,4.7475,4.263A11.7333,11.7333,0,0,1,70.8108,297.665Z"/><path d="M91.7381,314.4379c1.1459.4974,1.9663.8148,2.7515,1.2032,1.1664.5771,2.2757,1.2793,3.4675,1.7931,1.9236.8295,2.2167,1.648,1.1372,3.5489-.2913.513-.4871,1.0808-.7849,1.5893-.8388,1.4324-1.9115,1.4164-3.1259.466a56.02,56.02,0,0,1-5.09-4.0678,3.1441,3.1441,0,0,1-.4556-2.7641C89.9185,315.4455,91.033,314.9924,91.7381,314.4379Z"/><path d="M133.0344,305.6817a72.5867,72.5867,0,0,1-2.7,7.5177c-.3477.7283-1.829.9154-2.7916,1.35-.251-.8547-.85-1.7839-.6871-2.55.4736-2.2209,1.3236-4.3584,1.8894-6.5638.3888-1.516,1.0176-2.8954,2.733-2.3785C132.19,303.2712,132.5191,304.7537,133.0344,305.6817Z"/><path d="M152.4068,243.3056c-1.6481-1.2372-1.943-2.3312-1.2011-3.88a26.9682,26.9682,0,0,0,1.2287-4.0041,6.2205,6.2205,0,0,1,.6049-1.8633c.818-1.1323,1.8774-2.5971,3.3543-1.6131.6414.4273.6933,2.2486.481,3.3325a19.0585,19.0585,0,0,1-1.7942,5.1848A14.26,14.26,0,0,1,152.4068,243.3056Z"/><path d="M132.4893,296.9174c0-1.4919-.245-2.51.0449-3.3421.956-2.7439,2.0576-5.4416,3.2314-8.1005a1.7519,1.7519,0,0,1,1.558-.6817,1.6859,1.6859,0,0,1,.94,1.3719,74.4789,74.4789,0,0,1-2.24,9.1327C135.7819,296.0088,134.0857,296.2264,132.4893,296.9174Z"/><path d="M145.0206,268.5109c-1.0861,3.058-2.0036,6.001-3.2387,8.804-.2362.5359-1.74.7241-2.6269.657-.3464-.0262-1.01-1.341-.8394-1.8254,1.0467-2.9661,2.2371-5.8873,3.5413-8.75.1576-.3459,1.342-.4534,1.9484-.2908C144.268,267.23,144.5693,267.9563,145.0206,268.5109Z"/><path d="M122.6391,332.7374c-2.1844-1.67-.9925-3.5915-.5849-5.3555.3933-1.7023,1.091-3.332,1.5723-5.0171.3569-1.25,1.228-1.8156,2.291-1.321.6395.2975,1.4319,1.4239,1.311,2.0008a55.11,55.11,0,0,1-2.2667,8C124.6768,331.8063,123.4137,332.2019,122.6391,332.7374Z"/><path d="M150.7888,251.92c-.8866,2.6319-1.7773,5.4257-2.81,8.1659a1.65,1.65,0,0,1-1.4751.65c-.7331-.4047-1.912-1.3288-1.7987-1.7272a70.84,70.84,0,0,1,2.9853-8.4408c.2778-.65,1.4384-.9225,2.1929-1.3687Z"/><path d="M163.6342,217.2433c-.9631,2.3969-1.8965,5.0128-3.1024,7.4963-.2715.5593-1.4938.8675-2.2784.8673-.3305,0-.94-1.0968-.9449-1.6992-.03-3.3277,1.5221-6.0874,3.5276-8.5881a1.9043,1.9043,0,0,1,1.8069-.1382C163.0768,215.4226,163.1878,216.2441,163.6342,217.2433Z"/><path d="M163.7391,205.8471c1.0763-2.6725,1.9468-5.1736,3.1227-7.5218.3041-.6075,1.5656-.7356,2.3874-1.0839.2976.7469.9883,1.5974.8236,2.2225a47.1042,47.1042,0,0,1-2.4828,7.2776c-.2882.6424-1.6564,1.0746-2.5242,1.0668C164.6336,207.8044,164.2122,206.5883,163.7391,205.8471Z"/><path d="M182.6305,162.34c.7238,1.0569,1.6808,1.877,1.5306,2.33a51.0773,51.0773,0,0,1-3.2076,7.8533c-.3135.5916-1.9941.4588-3.0458.6592a12.43,12.43,0,0,1,.2834-2.8349,62.8828,62.8828,0,0,1,2.4351-6.1306C180.9013,163.6165,181.6492,163.2326,182.6305,162.34Z"/><path d="M175.83,179.66c.6368,1.3382,1.3851,2.1559,1.22,2.6947a40.58,40.58,0,0,1-2.7081,6.9555,2.963,2.963,0,0,1-2.7508.9213c-1.0006-.39-1.1457-1.4983-.4215-2.7537.9409-1.6309,1.3186-3.5773,2.1531-5.2831C173.7083,181.4067,174.6017,180.8674,175.83,179.66Z"/><path d="M98.532,56.3351c.9053,3.7422.6516,4.2208-2.03,5.1782-.6766.2415-1.2727.7014-1.9411.975-.954.39-1.97,1.0451-2.9057.9634-1.2782-.1115-3.3319-.54-3.5823-1.3111-.5231-1.61,1.2972-2.0886,2.5855-2.605C93.2156,58.5105,95.7637,57.462,98.532,56.3351Z"/><path d="M163.7883,44.7283c-.6681.0438-1.336.1224-2.0042.1239-1.2248.0029-2.6606.3594-2.7227-1.6432-.0566-1.8247.3758-3.0116,2.5976-2.8359a35.7051,35.7051,0,0,0,4.9051-.1115,2.6306,2.6306,0,0,1,2.9182,2.3779c.2436,1.6653-1.2371,1.9446-2.57,1.9933-1.04.038-2.0819.0076-3.1231.0076Z"/><path d="M143.5963,47.1643a2.0081,2.0081,0,0,1-2.6346-1.9176c-.1187-.9033,1.8968-2.7462,3.191-2.8459,1.6223-.1249,3.25-.2189,4.8766-.2351,1.0461-.01,2.3078-.3673,2.5891,1.3149a2.3284,2.3284,0,0,1-2.0785,2.8661C147.592,46.7719,145.5806,46.9059,143.5963,47.1643Z"/><path d="M124.87,51.02c-.5565-.6094-1.5942-1.2514-1.8236-2.1095-.3705-1.3854.6175-2.0969,2.022-2.2878,1.9661-.2673,3.9085-.7815,5.8792-.9083a3.3083,3.3083,0,0,1,2.468,1.0243c.3617.4521.0894,2.1859-.2228,2.28C130.6642,49.7823,128.06,50.2932,124.87,51.02Z"/><path d="M114.2591,49.7947c.8.6851,1.8337,1.1489,2.0859,1.8815.4063,1.18-.2959,2.025-1.6238,2.3883-1.9128.5234-3.7513,1.329-5.674,1.8a3.7351,3.7351,0,0,1-2.5239-.3481c-1.1581-.6691-1.4429-2.0671-.2053-2.6756C108.7406,51.65,111.3672,50.8732,114.2591,49.7947Z"/><path d="M200.7164,42.9618a16.4743,16.4743,0,0,1-3.7763-.078,2.6808,2.6808,0,0,1-1.7762-1.7283c-.0537-.5781.8939-1.474,1.6012-1.8577,2.561-1.3893,5.144.3851,7.7524.191.3713-.0277,1.2151,1.1389,1.147,1.6625A2.4471,2.4471,0,0,1,204.2671,42.9a14.8734,14.8734,0,0,1-3.5506.0807Z"/><path d="M182.49,43.5329a19.4111,19.4111,0,0,1-3.7488-.07,2.4744,2.4744,0,0,1-1.57-1.5241c-.2648-1.0311.2634-1.8137,1.551-1.8681,2.1452-.0907,4.2852-.3582,6.43-.3888,1.2042-.0172,2.3571.2629,2.3649,1.9572.0081,1.756-1.0738,1.84-2.3607,1.7973-.8878-.0292-1.7773-.0056-2.666-.0056Z"/><path d="M242.748,42.2129c-.954,1.8984-1.9076,2.9038-4.2031,1.9934-1.5018-.5956-3.3918-.1323-5.0439-.4629-.8151-.1631-1.4852-1.05-2.2209-1.61.7995-.6,1.6115-1.7223,2.3964-1.7036a60.1981,60.1981,0,0,1,7.6477.8893C241.83,41.3969,242.27,41.9007,242.748,42.2129Z"/><path d="M218.3916,42.9851a17.136,17.136,0,0,1-3.543-.0719,2.2847,2.2847,0,0,1-1.3846-1.5492c-.0858-.4664.6238-1.5339,1.0349-1.5633a74.1044,74.1044,0,0,1,8.1775-.1432c.33.0129.8469,1.2717.837,1.9466a1.8856,1.8856,0,0,1-1.1317,1.4342,26.8205,26.8205,0,0,1-3.99.0689Z"/><path d="M269.4509,45.55c3.03.57,5.4522.906,7.7851,1.561.4867.1367.8883,1.4635.85,2.2176-.02.3918-1.1569,1.1208-1.6672,1.0277a70.4389,70.4389,0,0,1-7.5644-1.8253c-.4611-.1381-1.088-1.3407-.9167-1.643A4.9783,4.9783,0,0,1,269.4509,45.55Z"/><path d="M286.0532,49.6282c1.3587.3565,2.4088.6092,3.4451.9093a25.58,25.58,0,0,1,4.4006,1.4274c.48.2409.7514,1.4847.6047,2.159-.0841.3871-1.284.8923-1.8323.7537a51.7427,51.7427,0,0,1-6.0654-1.9751C284.2592,51.9892,284.2005,51.15,286.0532,49.6282Z"/><path d="M250.49,42.6058c2.701.2588,5.1736.5723,7.6558.7046,1.47.0784,1.94.7194,1.8283,2.0951-.1179,1.4468-.97,1.66-2.1566,1.439a52.0192,52.0192,0,0,1-6.8851-1.3581C249.0734,44.8688,249.8976,43.4949,250.49,42.6058Z"/><path d="M303.4993,55.9827c2.5011,1.105,4.8562,2.0723,7.12,3.2191.3725.1887.5525,1.2129.4285,1.7623a1.553,1.553,0,0,1-1.3362.7569q-3.8213-1.2766-7.5361-2.8554c-.2333-.099-.2881-1.1564-.0806-1.6114C302.32,56.7619,302.9492,56.4543,303.4993,55.9827Z"/></svg>