<svg id="Layer_1" data-name="Layer 1" xmlns="http://www.w3.org/2000/svg" viewBox="0 0 400 400"><defs><style>.cls-1{fill:#305da4;}.cls-2{fill:#e20c10;}</style></defs><title>sailor</title><polygon class="cls-1" points="425 434 -8 434 -11 169 21 156 390.869 134.943 437 174 425 434"/><path d="M232.761,220.6688c.4019,3.392.8507,6.619,1.1512,9.86.364,3.9272-.9232,7.0805-4.4405,9.2259a2.641,2.641,0,0,0-.7923,2.1541c.1326,1.2211.7825,2.3776.9965,3.6,1.0228,5.8426,1.8853,11.7143,2.9684,17.5452,1.4982,8.0655,3.2955,16.0775,4.6844,24.1606,1.5937,9.2748,2.632,18.6494,4.38,27.8919,1.3986,7.394,3.5089,14.6529,5.2753,21.9785.2352.9755.2615,2,.4588,2.9863,1.7322,8.6619,3.4612,17.3246,5.2465,25.9756a18.73,18.73,0,0,0,1.275,3.8661c1.3918,3.0915-.0411,5.2716-2.5795,6.4541a172.9761,172.9761,0,0,1-16.7737,6.9633,44.76,44.76,0,0,1-10.731,1.893c-8.8664.7438-17.18-1.5135-25.1764-5.19-1.19-.5471-3.1658-.6395-3.4988-1.4609-.3741-.9228.825-2.4057,1.1262-3.6948.8275-3.54,1.502-7.1163,2.322-10.6584.3645-1.5745-.1019-2.1943-1.7308-2.21-7.78-.0734-14.8064-2.7321-21.5339-6.3834a6.3659,6.3659,0,0,0-1.017-.4184c-3.6756-1.2316-3.7806-1.2874-1.8314-4.82,3.89-7.05,5.7946-14.6714,7.0275-22.5528,1.1139-7.1208,2.5089-14.1975,3.7656-21.2961,1.0511-5.9373,1.97-11.9005,3.1522-17.8112,1.2146-6.0714,2.7682-12.0747,4.0026-18.1426.9081-4.4641,1.3333-9.0326,2.3694-13.4622.6934-2.9646,2.0941-5.762,3.1521-8.6439.8419-2.2931,1.742-4.5747,2.37-6.9272.1068-.4-.9309-1.3191-1.6094-1.6766-2.0619-1.0864-4.392-1.75-6.2764-3.0667-2.9257-2.0442-4.0318-5.2309-4.1694-8.7242-.0755-1.9168-.0135-3.839-.0135-6.3322-4.4238-.6343-8.714-1.1875-12.9824-1.8756-6.8252-1.1005-13.64-2.2657-20.4515-3.4505-5.49-.955-11.0086-1.7979-16.4422-3.0139-9.1592-2.05-18.3062-4.1863-27.3732-6.6055-7.826-2.0881-15.6592-4.2753-23.26-7.0466a265.5648,265.5648,0,0,1-25.8656-10.7937,163.3791,163.3791,0,0,1-20.4737-12.18c-6.17-4.238-11.8618-9.1885-17.6467-13.9674-3.8157-3.1521-3.6835-3.1925-8.5571-.5282-3.0206,1.6513-6.15,3.1175-9.298,4.5145-1.1773.5224-2.72,1.2475-3.3942-.8165-.6034-1.8474-1.4108-3.7517,1.15-4.8818,3.83-1.69,7.664-3.3723,11.4508-5.1547a3.1193,3.1193,0,0,0,1.16-1.6018c.6067-1.4348.7433-3.22,1.6914-4.3347,7.737-9.0969,15.6668-18.0294,23.4372-27.0982,6.24-7.2831,12.2638-14.7525,18.5212-22.0206,8.4749-9.8438,17.1175-19.5429,25.6195-29.3636,6.3758-7.3647,12.6188-14.8445,18.9743-22.227a53.5073,53.5073,0,0,1,5.9438-6.1967,7.9731,7.9731,0,0,1,4.73-2.0194q10.8627.231,21.7078,1.1274c5.278.444,10.5144,1.3819,15.7694,2.0984,10.8418,1.4782,21.7368,2.6489,32.5116,4.5143,12.259,2.1224,24.54,1.6357,36.7662.7336,11.0092-.8123,21.9536-2.646,32.8876-4.289,8.0026-1.2025,15.9535-2.7653,23.9051-4.2841,4.8964-.9353,9.7794-1.9754,14.6167-3.1763,5.6025-1.3908,9.3767,1.6417,12.9664,5.0922,8.07,7.7572,16.1928,15.4664,24.0621,23.4247,7.2969,7.3794,14.2737,15.0746,21.4267,22.5973,5.4377,5.7188,10.9851,11.3342,16.3828,17.09,4.8042,5.1231,9.4179,10.4248,14.2108,15.559,5.3819,5.7653,10.877,11.4249,16.3062,17.1463a33.2419,33.2419,0,0,1,2.6371,3.067c.98,1.3237,1.1131,2.5021-.37,3.8022-7.0722,6.2013-13.87,12.729-21.1287,18.6993a196.8061,196.8061,0,0,1-16.9061,12.0626c-6.1648,4.0611-12.4556,7.9558-18.8784,11.5928-5.3386,3.0229-10.8969,5.676-16.4522,8.2927-5.8191,2.7408-11.6757,5.4324-17.6559,7.791-5.0478,1.9909-10.26,3.5915-15.4636,5.1536-7.036,2.1123-14.1186,4.0748-21.2126,5.9851a50.5048,50.5048,0,0,1-5.9862.92q-9.3411,1.3363-18.6842,2.6592C242.1532,219.3841,237.64,219.996,232.761,220.6688Zm-1.18-99.2475.0667.67c9.6393-1.0317,19.2935-1.9439,28.9113-3.1476,4.5116-.5646,8.9674-1.626,13.4146-2.6148a4.0092,4.0092,0,0,0,2.5584-1.6825c2.9126-6.239,5.7433-12.5209,8.4033-18.8717,1.9246-4.5948,3.5622-9.31,5.3052-13.9805q4.2771-11.46,8.5171-22.9343c.733-1.9885.0113-3.2515-2.1185-3.4792a90.5014,90.5014,0,0,0-10.9468-.9289c-2.7128.0423-2.8237-1.3264-2.7441-3.2148.0975-2.3138,1.3125-2.3691,3.1775-1.7376a16.7577,16.7577,0,0,0,3.5582.2466c3.28.3347,6.6008.4924,9.8215,1.1381,3.6885.74,5.9369,4.8248,4.7984,7.7807-2.017,5.237-3.8975,10.5265-5.8307,15.7957-1.7167,4.6789-3.3117,9.4065-5.1692,14.0288-2.4961,6.2111-5.1986,12.3391-7.8012,18.5075-1.8018,4.27-3.4867,8.5935-5.4,12.8131-2.4926,5.4977-5.127,10.9321-7.761,16.3643-2.4842,5.1232-4.8164,10.34-7.6309,15.2785-3.9182,6.8751-8.0015,13.68-12.4305,20.2332a196.9076,196.9076,0,0,1-12.4256,16.2961,41.6787,41.6787,0,0,1-13.02,10.8176,2.0926,2.0926,0,0,0-.5886,1.9117c1.3576,3.9245,2.9655,7.7641,4.2691,11.7051.6466,1.9548,1.3953,3.2312,3.739,2.9191,3.6032-.48,7.2338-.7541,10.8358-1.2407,7.24-.9782,14.4848-1.9382,21.6944-3.11a100.7025,100.7025,0,0,0,11.47-2.58c6.4462-1.8411,12.85-3.844,19.22-5.9346,4.8244-1.5832,9.6258-3.2688,14.333-5.1677,4.2668-1.7212,8.4255-3.7241,12.5718-5.7268,5.0483-2.4383,10.1705-4.7707,15.0134-7.5758,6.6205-3.8347,13.1457-7.8706,19.4574-12.1916,6.5986-4.5176,13.0221-9.3165,19.2841-14.292,4.7836-3.8009,9.0116-8.3092,13.8527-12.0264,2.3806-1.828,1.4784-2.96.1822-4.3372-3.8641-4.1053-7.9066-8.0441-11.7278-12.1878-7.0344-7.6281-13.8812-15.43-20.9579-23.0182-5.3172-5.7015-10.8854-11.1685-16.3176-16.7634-9.6311-9.9193-19.1885-19.9109-28.8886-29.7621-4.5578-4.6287-9.3179-9.0643-14.1083-13.4542-1.5576-1.4274-3.5258-3.4647-5.2649-3.4248-4.1462.0952-8.28,1.2018-12.397,2.0089-9.0172,1.7675-18.01,3.66-27.0352,5.3854-4.3027.8227-8.6371,1.5569-12.99,2.0246C232.7419,53.007,223,54.1947,213.226,54.7181a197.8,197.8,0,0,1-48.3572-3.5063c-6.53-1.2651-13.2259-1.681-19.8514-2.4389-4.1952-.48-8.4-.8807-12.6-1.3116-5.3615-.55-10.715-1.2938-16.09-1.5234a7.3507,7.3507,0,0,0-5.0224,2.0235c-4.1612,4.333-7.9987,8.9784-11.93,13.53Q85.0754,78.0457,70.8008,94.6205c-7.777,9.0095-15.6121,17.9694-23.3387,27.0219Q34.5344,136.7884,21.801,152.1a2.1881,2.1881,0,0,0,.0758,2.123c4.1794,4.2338,8.1712,8.7254,12.7768,12.4511A158.0809,158.0809,0,0,0,67.5367,186.676a211.0059,211.0059,0,0,0,22.0251,8.6416c9.6438,3.2389,19.4287,6.0791,29.2246,8.8364,6.1212,1.7231,12.3491,3.0979,18.5751,4.4109,7.6616,1.6157,15.3438,3.17,23.0675,4.4452,7.833,1.2934,15.7289,2.2047,23.5942,3.3053,2.202.3081,3.41-.2618,3.6056-2.8029.3472-4.5088.0462-9.17,2.536-13.323.2221-.37-.5226-1.7535-1.1431-2.1279a55.7811,55.7811,0,0,1-13.8105-12.2988c-4.33-5.1766-8.3624-10.62-12.2634-16.1322-3.5287-4.9857-6.8661-10.1248-9.9936-15.3716-3.3724-5.6574-6.4828-11.4764-9.5615-17.302-3.4995-6.6219-6.9355-13.2813-10.2146-20.0143-2.656-5.4534-5.0886-11.0179-7.5309-16.5725-3.5652-8.1087-7.0624-16.2475-10.5648-24.3837-1.93-4.4844-3.73-9.0267-5.7372-13.4761-2.32-5.1442-.5114-9.2428,4.9532-10.29,4.38-.84,8.8287-1.3256,13.2544-1.9126,1.4576-.1933,2.6985-.1086,2.8,1.9767.0953,1.9492-.4911,2.7857-2.4989,3.0233-3.5219.4167-7.0383.9848-10.5055,1.7293-3.6473.7832-3.7047.9391-2.37,4.3268,2.8179,7.1528,5.5834,14.3322,8.6421,21.3828,4.6554,10.7306,9.564,21.3511,14.3118,32.042a5.5717,5.5717,0,0,0,5.2733,3.7712c6.7576.4013,13.487,1.3309,20.2463,1.64,13.5128.6188,27.0391.9358,40.5573,1.4425,3.5615.1335,7.1189.77,10.67.706C220.3166,122.2471,225.9471,121.7507,231.5805,121.4213Zm-89.2769,2.0129c2.4232,4.9136,4.3106,9.3513,6.7137,13.4894q8.0755,13.9057,16.5915,27.5542c6.1579,9.8436,13.1675,19.0347,22.22,26.46,2.3637,1.9388,4.8052,4.3737,8.2464,3.199a28.58,28.58,0,0,1,16.6-.6942c2.4518.6178,4.8964,1.2995,7.2828,2.129,1.5372.5344,2.92,1.3458,3.6485-.984.0981-.3135.7558-.4345,1.1295-.6821,2.4725-1.6381,5.3882-2.8787,7.32-5.01a187.0123,187.0123,0,0,0,15.0561-18.165,210.6173,210.6173,0,0,0,12.0516-20.51c4.96-9.16,9.6143-18.4865,14.6344-28.1946a12.4392,12.4392,0,0,0-2.49-.2107c-5.5446,1.012-11.0406,2.4765-16.6279,3.029-9.9352.9824-19.9179,1.8251-29.8924,1.9817-11.8009.1851-23.615-.3882-35.4218-.6929-5.6887-.1467-11.38-.3277-17.0587-.6815-6.1061-.38-12.1949-1.03-18.298-1.468C150.2921,123.7169,146.5625,123.6276,142.3036,123.4342Zm67.245,117.424c-2.9961-.5336-6.58-.6016-6.7325,4.8092-.0063.2228-.37.4141-.4573.6592-1.6983,4.7716-3.8168,9.4467-4.9645,14.3488-1.7763,7.5866-2.8632,15.3335-4.2888,23.0037-.9994,5.3774-2.0879,10.7382-3.1154,16.1105-1.3,6.7953-2.6525,13.5816-3.8433,20.3961-1.0675,6.1091-1.9424,12.2519-2.9175,18.3774a7.34,7.34,0,0,1-.4057,1.3018c-1.14,3.16-2.37,6.2914-3.3683,9.4954-.2342.7519.0578,2.3274.5388,2.5377,3.733,1.6318,7.464,3.4964,11.4,4.3887,8.4369,1.9128,17.0189,1.2069,25.4854-.028,3.8306-.5587,7.5082-2.1036,11.3036-2.9953,1.7519-.4116,1.9214-1.4171,1.7313-2.8087-.5168-3.7819-1.144-7.5512-1.5589-11.344-.846-7.7343-1.5676-15.482-2.3668-23.2216-.6563-6.3568-1.1689-12.7357-2.0694-19.0586-1.4789-10.3829-3.366-20.7083-4.7952-31.0974-.8232-5.984-1.182-12.039-1.5737-18.0735C217.1121,240.912,217.1988,240.9064,209.5486,240.8582Zm14.0505.8511-1.2138.2035c.8541,7.96,1.5466,15.9409,2.6023,23.8738,1.382,10.3843,3.1731,20.7143,4.5533,31.0988.9163,6.8932,1.4614,13.8373,2.0975,20.7656.5117,5.5725.8705,11.1589,1.37,16.7327.6184,6.9054,1.3459,13.8014,1.9124,20.7107a2.3013,2.3013,0,0,1-1.1687,1.8524c-5.038,1.48-10.0707,3.059-15.2088,4.0924a62.0192,62.0192,0,0,1-11.5063.9848c-2.5875.0282-3.2439,1.1077-3.4532,3.4266a74.2373,74.2373,0,0,1-1.47,8.3083c-.2826,1.3645-.1921,2.2548,1.4267,2.6441,1.5777.3793,3.0426,1.2652,4.6263,1.5754,4.8088.9422,9.7073,2.6158,14.4658,2.319,5.736-.3579,11.4373-2.2015,17.0113-3.8757,3.3182-.9966,6.363-2.9037,9.2846-4.2851-1.1106-4.631-2.1572-8.83-3.1209-13.0471-2.13-9.32-4.2932-18.633-6.2983-27.98-1.6026-7.4706-3.1288-14.9634-4.4311-22.491-1.0251-5.9249-1.5754-11.93-2.4852-17.8771-.9939-6.4961-2.0968-12.9773-3.2678-19.444-1.0185-5.6246-2.21-11.2176-3.3024-16.8291C225.1953,250.2191,224.4054,245.9626,223.5991,241.7093Zm-8.5812-5.43.019-.6818c2.9322,0,5.8686.1,8.7956-.0241,4.0468-.1712,4.4843-.8306,4.6122-4.76.2886-8.8623-2.3576-17.1074-5.3919-25.2163a10.7542,10.7542,0,0,0-4.3426-4.963c-5.0357-3.0274-10.7648-3.2047-16.4575-2.8311-3.6073.2368-6.633,1.881-7.6375,5.53a93.2169,93.2169,0,0,0-1.9666,10.9609c-.3923,2.6218-.272,5.3514-.9125,7.8991-1.7723,7.0509,1.8662,12.718,9.03,13.3454C205.5019,235.9536,210.2663,236.0436,215.0179,236.279Z"/><path class="cls-2" d="M231.5805,121.4213c-5.6334.3294-11.2639.8258-16.9014.9273-3.5508.064-7.1082-.5725-10.67-.706-13.5182-.5067-27.0445-.8237-40.5573-1.4425-6.7593-.3095-13.4887-1.2391-20.2463-1.64a5.5717,5.5717,0,0,1-5.2733-3.7712c-4.7478-10.6909-9.6564-21.3114-14.3118-32.042-3.0587-7.0506-5.8242-14.23-8.6421-21.3828-1.3346-3.3877-1.2772-3.5436,2.37-4.3268,3.4672-.7445,6.9836-1.3126,10.5055-1.7293,2.0078-.2376,2.5942-1.0741,2.4989-3.0233-.1018-2.0853-1.3427-2.17-2.8-1.9767-4.4257.587-8.8747,1.0731-13.2544,1.9126-5.4646,1.0474-7.2735,5.146-4.9532,10.29,2.0069,4.4494,3.8068,8.9917,5.7372,13.4761,3.5024,8.1362,7,16.275,10.5648,24.3837,2.4423,5.5546,4.8749,11.1191,7.5309,16.5725,3.2791,6.733,6.7151,13.3924,10.2146,20.0143,3.0787,5.8256,6.1891,11.6446,9.5615,17.302,3.1275,5.2468,6.4649,10.3859,9.9936,15.3716,3.901,5.512,7.9335,10.9556,12.2634,16.1322a55.7811,55.7811,0,0,0,13.8105,12.2988c.62.3744,1.3652,1.7575,1.1431,2.1279-2.49,4.153-2.1888,8.8142-2.536,13.323-.1956,2.5411-1.4036,3.111-3.6056,2.8029-7.8653-1.1006-15.7612-2.0119-23.5942-3.3053-7.7237-1.2754-15.4059-2.8295-23.0675-4.4452-6.226-1.313-12.4539-2.6878-18.5751-4.4109-9.7959-2.7573-19.5808-5.5975-29.2246-8.8364a211.0059,211.0059,0,0,1-22.0251-8.6416,158.0809,158.0809,0,0,1-32.8831-20.0024c-4.6056-3.7257-8.5974-8.2173-12.7768-12.4511a2.1881,2.1881,0,0,1-.0758-2.123q12.7558-15.291,25.6611-30.4571C55.1887,112.59,63.0238,103.63,70.8008,94.6205Q85.0942,78.0618,99.374,61.4915c3.9316-4.5517,7.7691-9.1971,11.93-13.53a7.3507,7.3507,0,0,1,5.0224-2.0235c5.3753.23,10.7288.9734,16.09,1.5234,4.2008.4309,8.4052.8318,12.6,1.3116,6.6255.7579,13.3216,1.1738,19.8514,2.4389a197.8,197.8,0,0,0,48.3572,3.5063c9.7736-.5234,19.5159-1.7111,29.2553-2.7574,4.353-.4677,8.6874-1.2019,12.99-2.0246,9.025-1.7258,18.018-3.6179,27.0352-5.3854,4.1173-.8071,8.2508-1.9137,12.397-2.0089,1.7391-.04,3.7073,1.9974,5.2649,3.4248,4.79,4.39,9.5505,8.8255,14.1083,13.4542,9.7,9.8512,19.2575,19.8428,28.8886,29.7621,5.4322,5.5949,11,11.0619,16.3176,16.7634,7.0767,7.5881,13.9235,15.39,20.9579,23.0182,3.8212,4.1437,7.8637,8.0825,11.7278,12.1878,1.2962,1.3771,2.1984,2.5092-.1822,4.3372-4.8411,3.7172-9.0691,8.2255-13.8527,12.0264-6.262,4.9755-12.6855,9.7744-19.2841,14.292-6.3117,4.321-12.8369,8.3569-19.4574,12.1916-4.8429,2.8051-9.9651,5.1375-15.0134,7.5758-4.1463,2.0027-8.305,4.0056-12.5718,5.7268-4.7072,1.8989-9.5086,3.5845-14.333,5.1677-6.37,2.0906-12.7738,4.0935-19.22,5.9346a100.7025,100.7025,0,0,1-11.47,2.58c-7.21,1.1718-14.4546,2.1318-21.6944,3.11-3.602.4866-7.2326.7609-10.8358,1.2407-2.3437.3121-3.0924-.9643-3.739-2.9191-1.3036-3.941-2.9115-7.7806-4.2691-11.7051a2.0926,2.0926,0,0,1,.5886-1.9117,41.6787,41.6787,0,0,0,13.02-10.8176A196.9076,196.9076,0,0,0,252.28,171.6857c4.429-6.5535,8.5123-13.3581,12.4305-20.2332,2.8145-4.9387,5.1467-10.1553,7.6309-15.2785,2.634-5.4322,5.2684-10.8666,7.761-16.3643,1.9133-4.22,3.5982-8.5426,5.4-12.8131,2.6026-6.1684,5.3051-12.2964,7.8012-18.5075,1.8575-4.6223,3.4525-9.35,5.1692-14.0288,1.9332-5.2692,3.8137-10.5587,5.8307-15.7957,1.1385-2.9559-1.11-7.0411-4.7984-7.7807-3.2207-.6457-6.5411-.8034-9.8215-1.1381a16.7577,16.7577,0,0,1-3.5582-.2466c-1.865-.6315-3.08-.5762-3.1775,1.7376-.08,1.8884.0313,3.2571,2.7441,3.2148a90.5014,90.5014,0,0,1,10.9468.9289c2.13.2277,2.8515,1.4907,2.1185,3.4792Q294.5262,70.3371,290.24,81.794c-1.743,4.67-3.3806,9.3857-5.3052,13.9805-2.66,6.3508-5.4907,12.6327-8.4033,18.8717a4.0092,4.0092,0,0,1-2.5584,1.6825c-4.4472.9888-8.903,2.05-13.4146,2.6148-9.6178,1.2037-19.272,2.1159-28.9113,3.1476Z"/><path class="cls-1" d="M142.3036,123.4342c4.2589.1934,7.9885.2827,11.7053.55,6.1031.4381,12.1919,1.0877,18.298,1.468,5.6785.3538,11.37.5348,17.0587.6815,11.8068.3047,23.6209.878,35.4218.6929,9.9745-.1566,19.9572-.9993,29.8924-1.9817,5.5873-.5525,11.0833-2.017,16.6279-3.029a12.4392,12.4392,0,0,1,2.49.2107c-5.02,9.7081-9.674,19.0343-14.6344,28.1946a210.6173,210.6173,0,0,1-12.0516,20.51,187.0123,187.0123,0,0,1-15.0561,18.165c-1.9316,2.1312-4.8473,3.3718-7.32,5.01-.3737.2476-1.0314.3686-1.1295.6821-.7289,2.33-2.1113,1.5184-3.6485.984-2.3864-.83-4.831-1.5112-7.2828-2.129a28.58,28.58,0,0,0-16.6.6942c-3.4412,1.1747-5.8827-1.26-8.2464-3.199-9.0526-7.4251-16.0622-16.6162-22.22-26.46q-8.5282-13.6326-16.5915-27.5542C146.6142,132.7855,144.7268,128.3478,142.3036,123.4342Z"/><path class="cls-2" d="M209.5486,240.8582c7.65.0482,7.5635.0538,8.0015,6.8014.3917,6.0345.7505,12.0895,1.5737,18.0735,1.4292,10.3891,3.3163,20.7145,4.7952,31.0974.9,6.3229,1.4131,12.7018,2.0694,19.0586.7992,7.74,1.5208,15.4873,2.3668,23.2216.4149,3.7928,1.0421,7.5621,1.5589,11.344.19,1.3916.0206,2.3971-1.7313,2.8087-3.7954.8917-7.473,2.4366-11.3036,2.9953-8.4665,1.2349-17.0485,1.9408-25.4854.028-3.9357-.8923-7.6667-2.7569-11.4-4.3887-.481-.21-.773-1.7858-.5388-2.5377.9978-3.204,2.2283-6.3354,3.3683-9.4954a7.34,7.34,0,0,0,.4057-1.3018c.9751-6.1255,1.85-12.2683,2.9175-18.3774,1.1908-6.8145,2.5436-13.6008,3.8433-20.3961,1.0275-5.3723,2.116-10.7331,3.1154-16.1105,1.4256-7.67,2.5125-15.4171,4.2888-23.0037,1.1477-4.9021,3.2662-9.5772,4.9645-14.3488.0873-.2451.451-.4364.4573-.6592C202.9687,240.2566,206.5525,240.3246,209.5486,240.8582Z"/><path class="cls-2" d="M223.5991,241.7093c.8063,4.2533,1.5962,8.51,2.423,12.7591,1.0919,5.6115,2.2839,11.2045,3.3024,16.8291,1.171,6.4667,2.2739,12.9479,3.2678,19.444.91,5.9469,1.46,11.9522,2.4852,17.8771,1.3023,7.5276,2.8285,15.02,4.4311,22.491,2.0051,9.3469,4.1687,18.66,6.2983,27.98.9637,4.2175,2.01,8.4161,3.1209,13.0471-2.9216,1.3814-5.9664,3.2885-9.2846,4.2851-5.574,1.6742-11.2753,3.5178-17.0113,3.8757-4.7585.2968-9.657-1.3768-14.4658-2.319-1.5837-.31-3.0486-1.1961-4.6263-1.5754-1.6188-.3893-1.7093-1.28-1.4267-2.6441a74.2373,74.2373,0,0,0,1.47-8.3083c.2093-2.3189.8657-3.3984,3.4532-3.4266a62.0192,62.0192,0,0,0,11.5063-.9848c5.1381-1.0334,10.1708-2.612,15.2088-4.0924a2.3013,2.3013,0,0,0,1.1687-1.8524c-.5665-6.9093-1.294-13.8053-1.9124-20.7107-.4991-5.5738-.8579-11.16-1.37-16.7327-.6361-6.9283-1.1812-13.8724-2.0975-20.7656-1.38-10.3845-3.1713-20.7145-4.5533-31.0988-1.0557-7.9329-1.7482-15.9141-2.6023-23.8738Z"/><path class="cls-2" d="M215.0179,236.279c-4.7516-.2354-9.516-.3254-14.2519-.74-7.1637-.6274-10.8022-6.2945-9.03-13.3454.6405-2.5477.52-5.2773.9125-7.8991a93.2169,93.2169,0,0,1,1.9666-10.9609c1.0045-3.6493,4.03-5.2935,7.6375-5.53,5.6927-.3736,11.4218-.1963,16.4575,2.8311a10.7542,10.7542,0,0,1,4.3426,4.963c3.0343,8.1089,5.6805,16.354,5.3919,25.2163-.1279,3.9289-.5654,4.5883-4.6122,4.76-2.927.1238-5.8634.0241-8.7956.0241Z"/></svg>