<svg id="Layer_1" data-name="Layer 1" xmlns="http://www.w3.org/2000/svg" viewBox="0 0 400 400"><defs><style>.cls-1{fill:#7d7e84;}.cls-2{fill:#e20c10;}.cls-3{fill:#c3c3c3;}</style></defs><title>long buttondown_tp</title><path d="M361.3936,121.6669c-.5195,5.26-.7738,10.2252-1.5448,15.1094q-1.99,12.6059-4.5317,25.1223c-1.2479,6.1643-2.755,12.2859-4.4,18.3576-1.8794,6.9352-4.1527,13.7632-6.0509,20.6937-2.5051,9.1459-4.8236,18.3431-7.1993,27.5241q-2.1606,8.3493-4.2484,16.7172c-2.2881,9.2038-4.5328,18.4183-6.813,27.624-1.4255,5.7547-2.9137,11.494-4.3169,17.254-1.509,6.1938-2.9461,12.4053-4.4245,18.6066-1.5052,6.3135-3.0547,12.6167-4.5259,18.938-1.5312,6.5786-2.926,13.1893-4.5,19.7573-2.1079,8.7971-4.3336,17.5659-6.503,26.3483-1.137,4.6028-2.2393,9.2145-3.4225,13.8054-.1344.5214-.6925.9335-1.0541,1.3964a6.6807,6.6807,0,0,1-1.3211-1.457c-4.366-9.3823-8.64-18.8074-13.0374-28.1749-3.1335-6.6754-6.3107-13.3349-9.6686-19.899-3.21-6.275-6.6653-12.425-10.0386-18.6159q-3.708-6.8046-7.4862-13.5709a22.8467,22.8467,0,0,0-2.3974-3.9074,2.7728,2.7728,0,0,0-2.3781-.5512c-3.1517.89-6.2051,2.1383-9.37,2.9692-5.1924,1.3633-10.3853,3.0928-15.6818,3.615-11.0611,1.0906-22.1883,1.9859-33.2916,2.0252a170.6019,170.6019,0,0,1-26.8472-2.2228c-5.2465-.8206-10.2151-3.4184-15.5665-5.308-.6371,1.391-1.495,3.149-2.2567,4.9476-3.3308,7.8653-6.55,15.779-9.9747,23.6029-2.4785,5.6625-5.3,11.1742-7.8144,16.8217-2.6321,5.9115-5.0432,11.9212-7.6217,17.8572-1.7377,4-3.6542,7.9233-5.374,11.9309-.61,1.423-.7637,3.0388-1.34,4.4808a12.9224,12.9224,0,0,1-1.7027,2.4592,9.4705,9.4705,0,0,1-1.9413-2.4134c-.8518-2.3955-1.4163-4.8922-2.1214-7.3411-2.3743-8.2454-4.6782-16.5123-7.1662-24.7233-2.1165-6.9845-4.4719-13.8964-6.6822-20.8529-2.7364-8.6123-5.4961-17.2182-8.1244-25.8637-1.9647-6.4626-3.65-13.01-5.617-19.4719-2.4958-8.2-5.1672-16.3466-7.726-24.5277-.8154-2.6069-1.498-5.2549-2.2677-7.8764q-3.86-13.1471-7.7382-26.2887c-2.96-10.0689-5.9523-20.1289-8.8591-30.2133q-3.4114-11.8356-6.64-23.7238c-2.2-8.0906-4.6695-16.1342-6.3193-24.3394-1.3466-6.6972-1.6592-13.6025-2.4636-20.71a6.2652,6.2652,0,0,0-1.7023.1908c-5.5844,1.9864-11.1447,4.0406-16.7259,6.0363-2.3171.8285-4.6745,1.5437-7.0017,2.3448-4.3822,1.5084-8.751,3.0557-13.1362,4.5553-1.1921.4076-2.5861,1.1147-3.1-.85-.3923-1.499-1.4074-3.0038,1.2955-3.8379,6.1566-1.9,12.2058-4.1527,18.28-6.3134,5.0642-1.8014,10.1007-3.6807,15.1529-5.5163a68.8935,68.8935,0,0,0,6.906-2.559,6.3149,6.3149,0,0,0,2.5385-2.81c2.8691-5.82,5.4843-11.7672,8.409-17.5582,2.1624-4.2814,4.5334-8.4716,7.0459-12.5584,3.4054-5.539,7.1051-10.8966,10.5449-16.4154,2.5366-4.07,4.8726-8.2652,7.2745-12.4183,4.1644-7.2008,8.2828-14.4284,12.475-21.613,2.5117-4.3047,4.9938-8.6372,7.7431-12.7891,1.7784-2.6856,3.6633-5.5283,6.16-7.4376a12.3217,12.3217,0,0,1,7.4364-2.2932c9.35.3826,18.7209.9434,28.0031,2.0913,8.1435,1.0071,16.1429,3.1376,24.2723,4.3137A224.0778,224.0778,0,0,0,185.6613,24.39c13.3249.5515,26.6956,1.2362,39.9983.6845,10.4908-.435,20.93-2.5056,31.3441-4.1522,2.9856-.4721,5.7764-2.0877,8.7124-2.9992a15.305,15.305,0,0,1,4.6244-.7136c6.1708.067,12.456-.406,18.4807.6118,7.6582,1.2938,14.8835,4.5221,19.857,10.8288,3.6114,4.5792,6.4291,9.791,9.528,14.766,4.2148,6.7665,8.4333,13.5325,12.5127,20.3806,3.4276,5.754,6.6685,11.62,9.9737,17.446,3.3895,5.9748,6.8736,11.9,10.0969,17.9636,2.5484,4.794,4.7177,9.7884,7.1675,14.6372a4.9774,4.9774,0,0,0,2.2795,2.4568c4.9241,1.6768,9.9506,3.05,14.9041,4.6439,6.3253,2.0358,12.6083,4.2025,18.9233,6.2708,2.5913.8488,5.2009,1.6532,7.8346,2.3564,2.068.5522,1.3247,2.0416.9177,3.07a2.4584,2.4584,0,0,1-2.2038.9312c-3.4889-.9912-6.8941-2.2719-10.3642-3.3353-5.8651-1.7973-11.772-3.4585-17.632-5.272-3.0251-.9364-5.9767-2.1085-8.9854-3.1017A9.9152,9.9152,0,0,0,361.3936,121.6669ZM192.3687,252.6352c-1.935-1.5163-3.2962-2.4055-4.4427-3.5162-2.9272-2.8355-3.7724-3.0538-6.74-.9948-.9285.6443-1.86,1.7966-2.4977.1351-.2615-.6814.5038-2.2186,1.243-2.7331,1.98-1.3783,2.27-2.2711.5983-4.024-2.9656-3.11-6.1612-6.0216-8.9229-9.3006-6.5387-7.763-13.0342-15.5732-19.24-23.6013a152.5129,152.5129,0,0,1-9.7416-14.5979c-4.2474-7.0428-8.41-14.1545-12.2046-21.447-2.8861-5.5467-5.1863-11.402-7.6674-17.1546-2.5833-5.99-5.3361-11.9261-7.5249-18.0607-2.1424-6.0045-3.6928-12.222-5.4529-18.36-.9029-3.1491-1.7737-6.3114-2.5236-9.4995-1.84-7.8226-3.9787-15.6012-5.2885-23.5149a122.9873,122.9873,0,0,1-1.42-24.08c.24-7.4478,1.4083-14.5051,5.5274-20.8677,1.4749-2.2782,3.2282-3.9848,6.2109-3.4242,1.4141.2658,2.7833.7923,4.2021,1.0071,10.1247,1.5333,20.2581,3.0091,30.3865,4.518,9.77,1.4555,19.5026,3.2578,29.3166,4.2894a182.3088,182.3088,0,0,0,23.4564.8944c9.6342-.2354,19.2591-1.0946,28.8715-1.8856,6.2994-.5183,12.5692-1.397,18.8529-2.1078q10.6835-1.2084,21.3678-2.4085c3.9264-.4481,7.8466-.9507,11.7742-1.3876,3.8074-.4236,7.6162-.8595,11.4359-1.1257.6458-.045,1.4405.64,2.0121,1.1575,5.0545,4.5789,6.93,10.5422,7.2255,17.1191a128.287,128.287,0,0,1-2.3427,32.368c-1.1911,5.652-1.9937,11.3955-3.3989,16.99-1.6821,6.6971-3.8145,13.2813-5.7627,19.9112q-2.62,8.9167-5.265,17.8263a62.9221,62.9221,0,0,1-2.16,7.0581c-2.7492,6.3938-5.58,12.7585-8.6,19.028-2.0759,4.31-4.3879,8.5213-6.8339,12.6343-3.3123,5.57-6.8368,11.0142-10.3028,16.4919-2.5167,3.9775-4.9431,8.0232-7.6655,11.857-4.0607,5.7184-8.3089,11.3056-12.5475,16.8955-4.1417,5.4622-8.3966,10.8386-12.5523,16.2905-2.1532,2.825-4.1991,5.7319-6.2248,8.5076,3.0437,1.9572,5.76,3.442,8.1654,5.3237a51.9244,51.9244,0,0,1,6.86,6.4111c3.7649,4.25,7.4243,8.6082,10.8816,13.11,2.9715,3.8695,5.5658,8.0271,8.4244,11.9869a2.2044,2.2044,0,0,0,1.9448.6867,32.6273,32.6273,0,0,0,4.048-2.0425c-.0786-.4459-.1254-.71-.1719-.9749-.1642-.9346-.6737-2.5722-.4361-2.6891,1.4834-.7288,2.5459-.0733,3.2022,1.4853a22.5432,22.5432,0,0,0,1.7848,3.0407c1.6469,2.6457.6643,7.4519-1.7394,8.4535-2.431,1.0129-2.6173,2.0611-1.2707,4.3623,4.1492,7.09,8.3062,14.1813,12.2273,21.3987,3.5073,6.4554,6.7169,13.073,10.0369,19.63q5.3058,10.4781,10.5718,20.9759,2.1716,4.3149,4.3232,8.6395l.7875-.0212c.3566-1.2581.7842-2.5013,1.0526-3.7778.36-1.7119.4989-3.473.903-5.1724,2.0716-8.7111,4.2039-17.4078,6.3022-26.1126.8133-3.3739,1.5435-6.7686,2.3989-10.1316,1.7973-7.0658,3.69-14.1074,5.472-21.1771,1.5168-6.0177,2.9285-12.0618,4.3949-18.0924,2.3516-9.6717,4.7338-19.3361,7.0547-29.0152,1.0654-4.443,1.9973-8.9179,3.0253-13.37.738-3.1963,1.4658-6.3978,2.3186-9.5644,2.6082-9.6845,5.291-19.349,7.9107-29.03,1.1228-4.15,2.12-8.3332,3.2467-12.4819,2.7474-10.12,5.7392-20.1793,8.2423-30.359,1.8549-7.5432,3.1088-15.2346,4.6-22.866.2814-1.44.261-2.9518.6544-4.3535,1.5322-5.46,2.4282-10.98,1.0934-16.5752a37.18,37.18,0,0,0-2.8829-7.9247c-.5933-1.1875-2.164-1.8869-3.8148-3.2343-.3-1.4608-.3679-4.027-1.36-6.1644-2.252-4.8531-4.9339-9.5085-7.4874-14.2192-2.3326-4.3033-4.6427-8.6226-7.1152-12.8455-2.7411-4.6813-5.6708-9.2517-8.489-13.8884-2.4821-4.0837-4.8421-8.244-7.404-12.2764-3.1535-4.9638-6.8993-9.6018-9.6007-14.791-4.2684-8.199-11.3086-12.25-19.7856-13.619-7.6454-1.2352-15.413-1.639-23.1086,1.174a81.4469,81.4469,0,0,1-16.78,4.0039,207.393,207.393,0,0,1-25.8318,2.3141c-13.3159.1495-26.6577-.25-39.9571-.985-9.7056-.5365-19.3945-1.7489-29.0275-3.109-7.6924-1.086-15.2446-3.18-22.9412-4.215a83.4131,83.4131,0,0,0-21.67-.3473,5.2387,5.2387,0,0,0-3.218,1.68,106.1478,106.1478,0,0,0-6.82,9.7366C94.2246,39.6045,90.08,46.8056,85.9149,53.9928c-2.5992,4.4856-5.0022,9.0872-7.6786,13.5249-3.3146,5.4957-6.8758,10.842-10.231,16.3139q-6.3134,10.2962-12.4427,20.7047c-1.4066,2.3942-2.5142,4.9641-3.7261,7.3891,4.2895,2.5845,1.9358,6.4063,2.923,9.443-3.23.6487-3.6662.3043-3.6721-2.3858-.0027-1.2562-.1411-2.5122-.2179-3.7682-3.3046,6.8361-5.0868,13.8478-4.1559,21.1734A157.0992,157.0992,0,0,0,50,153.5c2.106,8.6958,4.5133,17.3193,6.84,25.9606,1.686,6.2612,3.438,12.5048,5.1823,18.75.7634,2.7333,1.5354,5.4659,2.3829,8.1739,2.5534,8.16,5.1787,16.2973,7.71,24.4638,1.5386,4.9631,2.9694,9.96,4.4251,14.9483,2.5313,8.6749,5.0339,17.3582,7.5713,26.0313.7938,2.7135,1.6217,5.4184,2.5021,8.105,1.7823,5.4386,3.7378,10.8239,5.3881,16.3016,1.9452,6.4564,3.4765,13.04,5.49,19.473,2.4225,7.7385,5.3166,15.33,7.7261,23.0719,2.6355,8.4685,4.909,17.0491,7.4345,25.553.6511,2.1925,1.656,4.28,2.706,6.9418.511-.9817.7379-1.3519.9045-1.7477,1.8308-4.35,3.584-8.7347,5.4915-13.051,3.235-7.32,6.5829-14.59,9.8517-21.8956q5.62-12.56,11.1788-25.1483c1.0262-2.3213,2.6328-4.6415,2.7731-7.0325.1643-2.7993,1.4533-4.6967,2.8278-6.7922a19.06,19.06,0,0,0,1.9654-3.89,51.9818,51.9818,0,0,1,9.6753-16.2228,168.1079,168.1079,0,0,1,12.4554-13.4286c4.7436-4.4117,10.2034-7.8836,16.9387-8.6294A23.9629,23.9629,0,0,0,192.3687,252.6352ZM114.6938,118.2976c.7178,2.361,1.239,4.0519,1.7459,5.7471,1.1564,3.8669,2.0789,7.8223,3.5086,11.5849,2.4413,6.425,5.13,12.76,7.8442,19.0761,2.399,5.5825,4.7439,11.2084,7.5332,16.5975,3.241,6.2619,6.8677,12.33,10.4665,18.3991q3.4477,5.8149,7.3141,11.3785c3.3891,4.8814,6.9717,9.6282,10.4583,14.4421,2.1321,2.9437,4.3261,5.4114,8.6364,4.7814a106.3733,106.3733,0,0,1,13.4326-.9873c16.778-.3041,33.5591-.4413,50.3372-.7465a3.9782,3.9782,0,0,0,2.694-1.5492c3.2207-4.4773,6.309-9.0507,9.3966-13.6224,2.8279-4.1871,5.7017-8.3487,8.3673-12.6384,3.2951-5.3028,6.5465-10.6438,9.5412-16.119,3.4226-6.2578,6.9768-12.5031,9.6737-19.0818,2.8129-6.8615,4.6827-14.1107,6.9451-21.1966,1.4381-4.5041,2.8741-9.01,4.2307-13.5386a15.8464,15.8464,0,0,0,.2911-3.0579c-6.7348,1.0251-12.9453,2.098-19.1917,2.887-6.8246.8619-13.6706,1.6181-20.5286,2.1387-11.0879.8416-22.1864,1.6059-33.2938,2.1061-7.0014.3152-14.0294.2054-21.0412.0682-5.03-.0983-10.0509-.79-15.0777-.8123a366.63,366.63,0,0,1-43.9932-3.2357C127.8237,120.1461,121.6784,119.2507,114.6938,118.2976Zm-1.879-9.9144-.8724.7258c.5546,1.1957.8,2.8766,1.7367,3.4727a13.4233,13.4233,0,0,0,4.926,1.4021c4.52.7611,9.0485,1.4889,13.5942,2.0695,6.6428.8485,13.2861,1.95,19.96,2.2464,15.4746.6873,30.9685.9327,46.4529,1.4143,3.3821.1052,6.7576.6383,10.1348.625,2.9159-.0115,5.8246-.5966,8.7454-.7944,10.5449-.7144,21.1038-1.2462,31.6376-2.0934,7.7678-.6246,15.5026-1.653,23.2562-2.4621,3.8492-.4015,7.7615-.4407,11.5391-1.1834,1.8831-.37,4.6432.199,5.4564-2.6137.68-2.351,1.3519-4.7142,1.8312-7.1113,1.612-8.0626,3.4886-16.0945,4.602-24.2287,1.2885-9.4132,1.7282-18.925-.248-28.35-.1564-.746-1.003-2.0089-1.3365-1.95-2.2986.4085-4.5294,1.1855-6.82,1.6609a6.4082,6.4082,0,0,1-2.3148-.4319c.5812-.7081,1.0558-1.8743,1.7636-2.039a73.2908,73.2908,0,0,1,7.2647-.99c-1.4619-2.1507-2.5648-4.1622-5.2343-3.8595-2.8952.3283-5.7469,1.0214-8.6318,1.4621-4.8821.7458-9.7641,1.5106-14.6664,2.0995q-10.6643,1.2807-21.3584,2.31-14.1351,1.3578-28.29,2.5074c-4.2255.3424-8.4738.65-12.7072.5995-9.0242-.1083-18.075-.0984-27.0585-.83-7.0726-.5758-14.0493-2.2649-21.0894-3.3212-7.4394-1.1162-14.8993-2.0991-22.3577-3.0837-6.7354-.8891-13.483-1.686-20.2208-2.5576-2.1929-.2836-2.5984,1.2327-3.0138,2.8033-.5127,1.9385,1.0179,1.758,2.1056,2.0467a3.1734,3.1734,0,0,1,1.2979.42,8.4973,8.4973,0,0,1,1.1014,1.5632c-.49.3068-.9921.89-1.4694.87-1.6273-.0658-3.2461-.3436-5.0712-.5652-.5516,1.7895-1.4542,3.4795-1.5358,5.2085-.2779,5.8827-.5013,11.7867-.3085,17.6683a108.6971,108.6971,0,0,0,3.92,24.6541c.6171,2.2975.0156,5.4069,1.3587,6.8854,1.2829,1.4123,4.4164,1.0417,6.6375,1.7607a2.981,2.981,0,0,1,1.6463,2.1836c.0663,1.4631-1.0243,1.7339-2.3274,1.234C115.5189,109.3006,114.1612,108.8565,112.8148,108.3832Zm65.0617,196.9147c3.5968.53,6.3913,1.3293,9.17,1.2786,8.7065-.1585,17.42-.454,26.1058-1.0564,5.9107-.41,11.7725-1.4862,17.6692-2.1486a67.0463,67.0463,0,0,0,16.8863-4.57c2.3078-.8992,2.4069-1.8294,1.1977-3.573-2.5714-3.7076-5.1534-7.4082-7.6934-11.1372a99.1607,99.1607,0,0,0-16.7572-19.57c-2.2913-1.984-4.3819-4.1358-7.7074-2.0827a1.0192,1.0192,0,0,1-.8039.0938c-.5339-.2233-1.2872-.4519-1.4511-.8732-.1479-.38.3163-1.0516.6111-1.5328a5.92,5.92,0,0,1,1.0351-.9672c-2.74-1.89-5.2621-.9335-7.3918.3a115.8392,115.8392,0,0,0-11.24,7.4361c-6.658,4.9722-10.8538,11.8765-14.2184,19.2952a63.1679,63.1679,0,0,0-3.1731,9.0339C179.2135,298.4409,178.6488,301.7522,177.8765,305.2979Zm-5.6825-80.7205c.3641,1.0268.4008,1.5446.6758,1.8432,3.7,4.018,7.2485,8.2,11.2025,11.9536,5.5216,5.2422,11.2666,10.2619,17.1239,15.1265,1.1451.951,2.1733,2.7776,4.6446,1.9368,4.9019-1.6679,7.6091-5.5715,10.5682-9.2769,4.2141-5.2769,8.3508-10.6156,12.5157-15.9317,1.66-2.1184,3.3064-4.247,4.959-6.3709l-.4546-.7911Zm.1011,80.3485.7461-.9393a9.65,9.65,0,0,0-2.1015-1.6738c-1.3344-.5578-2.8331-.7252-4.1614-1.2934a1.9911,1.9911,0,0,1-.9549-1.6453,1.9029,1.9029,0,0,1,1.5065-1.0655,32.5594,32.5594,0,0,1,4.3691.5612c1.5949.2509,2.2831-.3693,2.5577-2.0089,1.0116-6.0427,3.47-11.5293,6.2462-16.982a49.9683,49.9683,0,0,1,17.4147-19.6183,1.4173,1.4173,0,0,0,.6492-1.0279,1.3767,1.3767,0,0,0-.8706-.865,12.78,12.78,0,0,0-2.1813-.3037c-9.7783-1.1037-16.5841,4.5221-22.92,10.6114a95.9641,95.9641,0,0,0-10.6262,12.6419,65.4389,65.4389,0,0,0-5.4763,9.9422,2.5729,2.5729,0,0,0,.7182,2.4124c1.7625.7467,2.2448,1.8646,1.4828,3.4375-.0948.1957-1.6591-.4534-2.5476-.4728a16.7626,16.7626,0,0,0-2.8039.388c.2726.7387.33,1.8212.8584,2.1516a21.7991,21.7991,0,0,0,5.0649,2.4572C163.5494,302.9446,167.5772,305.41,172.2951,304.9259Zm86.5543-11.8145-.2939-.8169c-1.2587.5558-2.5514,1.0508-3.7476,1.7188-.2393.1336-.11.9268-.1849,1.82Z"/><path class="cls-1" d="M192.3687,252.6352a23.9629,23.9629,0,0,1-2.9475.8013c-6.7353.7458-12.1951,4.2177-16.9387,8.6294a168.1079,168.1079,0,0,0-12.4554,13.4286,51.9818,51.9818,0,0,0-9.6753,16.2228,19.06,19.06,0,0,1-1.9654,3.89c-1.3745,2.0955-2.6635,3.9929-2.8278,6.7922-.14,2.391-1.7469,4.7112-2.7731,7.0325q-5.5638,12.5854-11.1788,25.1483c-3.2688,7.3053-6.6167,14.5754-9.8517,21.8956-1.9075,4.3163-3.6607,8.7007-5.4915,13.051-.1666.3958-.3935.766-.9045,1.7477-1.05-2.6619-2.0549-4.7493-2.706-6.9418-2.5255-8.5039-4.799-17.0845-7.4345-25.553-2.41-7.7422-5.3036-15.3334-7.7261-23.0719-2.0138-6.4334-3.5451-13.0166-5.49-19.473-1.65-5.4777-3.6058-10.863-5.3881-16.3016-.88-2.6866-1.7083-5.3915-2.5021-8.105-2.5374-8.6731-5.04-17.3564-7.5713-26.0313-1.4557-4.9884-2.8865-9.9852-4.4251-14.9483-2.5318-8.1665-5.1571-16.3039-7.71-24.4638-.8475-2.708-1.62-5.4406-2.3829-8.1739-1.7443-6.2453-3.4963-12.4889-5.1823-18.75C54.5129,170.8194,52.1056,162.1959,50,153.5a157.0992,157.0992,0,0,1-3.286-17.1123c-.9309-7.3256.8513-14.3373,4.1559-21.1734.0768,1.256.2152,2.512.2179,3.7682.0059,2.69.4426,3.0345,3.6721,2.3858-.9872-3.0367,1.3665-6.8585-2.923-9.443,1.2119-2.425,2.3195-4.9949,3.7261-7.3891Q61.68,94.1229,68.0053,83.8316c3.3552-5.4719,6.9164-10.8182,10.231-16.3139,2.6764-4.4377,5.0794-9.0393,7.6786-13.5249,4.1648-7.1872,8.31-14.3883,12.6274-21.4835a106.1478,106.1478,0,0,1,6.82-9.7366,5.2387,5.2387,0,0,1,3.218-1.68,83.4131,83.4131,0,0,1,21.67.3473c7.6966,1.0349,15.2488,3.129,22.9412,4.215,9.633,1.36,19.3219,2.5725,29.0275,3.109,13.2994.7353,26.6412,1.1345,39.9571.985a207.393,207.393,0,0,0,25.8318-2.3141,81.4469,81.4469,0,0,0,16.78-4.0039c7.6956-2.813,15.4632-2.4092,23.1086-1.174,8.477,1.37,15.5172,5.42,19.7856,13.619,2.7014,5.1892,6.4472,9.8272,9.6007,14.791,2.5619,4.0324,4.9219,8.1927,7.404,12.2764,2.8182,4.6367,5.7479,9.2071,8.489,13.8884,2.4725,4.2229,4.7826,8.5422,7.1152,12.8455,2.5535,4.7107,5.2354,9.3661,7.4874,14.2192.9918,2.1374,1.06,4.7036,1.36,6.1644,1.6508,1.3474,3.2215,2.0468,3.8148,3.2343a37.18,37.18,0,0,1,2.8829,7.9247c1.3348,5.5956.4388,11.1148-1.0934,16.5752-.3934,1.4017-.373,2.9139-.6544,4.3535-1.4915,7.6314-2.7454,15.3228-4.6,22.866-2.5031,10.18-5.4949,20.2387-8.2423,30.359-1.1262,4.1487-2.1239,8.3322-3.2467,12.4819-2.62,9.6814-5.3025,19.3459-7.9107,29.03-.8528,3.1666-1.5806,6.3681-2.3186,9.5644-1.028,4.4523-1.96,8.9272-3.0253,13.37-2.3209,9.6791-4.7031,19.3435-7.0547,29.0152-1.4664,6.0306-2.8781,12.0747-4.3949,18.0924-1.7819,7.07-3.6747,14.1113-5.472,21.1771-.8554,3.363-1.5856,6.7577-2.3989,10.1316-2.0983,8.7048-4.2306,17.4015-6.3022,26.1126-.4041,1.6994-.5431,3.46-.903,5.1724-.2684,1.2765-.696,2.52-1.0526,3.7778l-.7875.0212q-2.161-4.32-4.3232-8.6395-5.28-10.4912-10.5718-20.9759c-3.32-6.5566-6.53-13.1742-10.0369-19.63-3.9211-7.2174-8.0781-14.3083-12.2273-21.3987-1.3466-2.3012-1.16-3.3494,1.2707-4.3623,2.4037-1.0016,3.3863-5.8078,1.7394-8.4535a22.5432,22.5432,0,0,1-1.7848-3.0407c-.6563-1.5586-1.7188-2.2141-3.2022-1.4853-.2376.1169.2719,1.7545.4361,2.6891.0465.2645.0933.529.1719.9749a32.6273,32.6273,0,0,1-4.048,2.0425,2.2044,2.2044,0,0,1-1.9448-.6867c-2.8586-3.96-5.4529-8.1174-8.4244-11.9869-3.4573-4.502-7.1167-8.8605-10.8816-13.11a51.9244,51.9244,0,0,0-6.86-6.4111c-2.4056-1.8817-5.1217-3.3665-8.1654-5.3237,2.0257-2.7757,4.0716-5.6826,6.2248-8.5076,4.1557-5.4519,8.4106-10.8283,12.5523-16.2905,4.2386-5.59,8.4868-11.1771,12.5475-16.8955,2.7224-3.8338,5.1488-7.8795,7.6655-11.857,3.466-5.4777,6.99-10.922,10.3028-16.4919,2.446-4.113,4.758-8.3243,6.8339-12.6343,3.02-6.2695,5.85-12.6342,8.6-19.028a62.9221,62.9221,0,0,0,2.16-7.0581q2.6384-8.9113,5.265-17.8263c1.9482-6.63,4.0806-13.2141,5.7627-19.9112,1.4052-5.5949,2.2078-11.3384,3.3989-16.99a128.287,128.287,0,0,0,2.3427-32.368c-.2954-6.5769-2.171-12.54-7.2255-17.1191-.5716-.5179-1.3663-1.2025-2.0121-1.1575-3.82.2662-7.6285.7021-11.4359,1.1257-3.9276.4369-7.8478.94-11.7742,1.3876q-10.6821,1.2191-21.3678,2.4085c-6.2837.7108-12.5535,1.59-18.8529,2.1078-9.6124.791-19.2373,1.65-28.8715,1.8856a182.3088,182.3088,0,0,1-23.4564-.8944c-9.814-1.0316-19.5467-2.8339-29.3166-4.2894-10.1284-1.5089-20.2618-2.9847-30.3865-4.518-1.4188-.2148-2.788-.7413-4.2021-1.0071-2.9827-.5606-4.736,1.146-6.2109,3.4242-4.1191,6.3626-5.2869,13.42-5.5274,20.8677a122.9873,122.9873,0,0,0,1.42,24.08c1.31,7.9137,3.4485,15.6923,5.2885,23.5149.75,3.1881,1.6207,6.35,2.5236,9.4995,1.76,6.1384,3.3105,12.3559,5.4529,18.36,2.1888,6.1346,4.9416,12.0709,7.5249,18.0607,2.4811,5.7526,4.7813,11.6079,7.6674,17.1546,3.7946,7.2925,7.9572,14.4042,12.2046,21.447A152.5129,152.5129,0,0,0,152.3661,208.6c6.2063,8.0281,12.7018,15.8383,19.24,23.6013,2.7617,3.279,5.9573,6.1907,8.9229,9.3006,1.6716,1.7529,1.3817,2.6457-.5983,4.024-.7392.5145-1.5045,2.0517-1.243,2.7331.6376,1.6615,1.5692.5092,2.4977-.1351,2.9677-2.059,3.8129-1.8407,6.74.9948C189.0725,250.23,190.4337,251.1189,192.3687,252.6352Zm103.9127,95.8134c-.3893-1.2813-.5262-1.88-.75-2.4435-1.52-3.837-.3889-7.3218,3.057-9.1845a1.5022,1.5022,0,0,1,1.28.0162c1.8824,1.2046,2.47-.3331,2.8478-1.5076a26.1525,26.1525,0,0,0,.7609-4.6269c.252-1.9313-.8576-2.2192-2.3748-1.8182a8.4772,8.4772,0,0,0-1.59.7971c-2.693-6.4362-6.6019-9.2224-11.8475-8.581-3.447.4214-8.138,4.8912-8.6606,8.1984-.4664,2.951-.1672,6.0372,1.7689,8.1013,2.1956,2.3409,5.2443,3.8816,7.4066,5.4066,1.18,2.932,2.1777,5.6691,3.4321,8.2828.22.46,1.5391.6047,2.31.52.6158-.0674,1.1694-.704,1.9509-1.22.21,1.2678.3653,2.2083.6687,4.0427,1.1394-1.0247,2.1129-1.5017,2.4064-2.2466a20.9792,20.9792,0,0,0,1.2559-5c.096-.7525-.4967-1.5929-.7767-2.3934-.9062.5793-1.8529,1.1071-2.6935,1.77C296.4827,346.7593,296.53,347.3344,296.2814,348.4486Zm-179.06-11.8271H113.32c.1845,1.15.3389,2.307.5669,3.4487.1064.5328.3891,1.0278.5342,1.5558,1.0154,3.6954,1.1087,3.637,4.8879,2.9969,1.7225-.2918,2.0407-1.2558,2.1909-2.6046.3624-3.2572,1.2795-5.8177,5.1328-6.6972,1.5664-.3576,2.9722-2.2337,4.061-3.7073,2.7026-3.6578,2.1245-10.1372-.9622-13.1948a10.4661,10.4661,0,0,0-13.4646-.6386,51.6708,51.6708,0,0,0-4.5828,4.9716,6.21,6.21,0,0,0-.9882-1.7,2.2819,2.2819,0,0,0-1.6509-.4816,1.7045,1.7045,0,0,0-1.1023.9735c-.5366,1.4211,1.691,6.8071,2.8215,7.7351a79.7712,79.7712,0,0,1,6.1866,5.6448C117.3823,335.3616,117.1943,336.4108,117.2211,336.6215ZM92.8479,264.984c-.8273-2.2649-1.5322-4.4108-2.4154-6.4807-.2657-.6228-1.0273-1.0341-1.5617-1.5423-.4132.7074-1.295,1.5271-1.157,2.1024a44.7375,44.7375,0,0,0,2.2194,6.671,2.3338,2.3338,0,0,0,1.8622.9665C92.1323,266.699,92.4635,265.6486,92.8479,264.984Zm49.0256,26.4431c-.3935-.5024-.704-1.2766-1.1172-1.3361a2.2023,2.2023,0,0,0-1.8313.606,63.2442,63.2442,0,0,0-3.5019,6.0747,1.6447,1.6447,0,0,0,.6567,1.4793c.663.2533,1.9672.374,2.167.0439C139.5478,296.1465,140.6239,293.8618,141.8735,291.4271ZM98.2889,281.77c-.9375-2.5314-1.6854-4.8755-2.7048-7.0948-.2861-.6227-1.3706-.8786-2.0888-1.3028-.2855.76-.9149,1.5845-.7872,2.2673a40.5706,40.5706,0,0,0,1.4663,4.6367C94.8523,282.4221,96.1268,282.96,98.2889,281.77Zm3.8435,17.4454c.4928-1.5487,1.0818-2.3941.9015-3.0168a41.72,41.72,0,0,0-2.3125-6.0813,2.0456,2.0456,0,0,0-1.8043-.8481c-.63.3135-1.4364,1.3062-1.3358,1.8613a23.4155,23.4155,0,0,0,1.6613,5.3685C99.609,297.3153,100.6236,297.8406,102.1324,299.2154ZM78.464,218.93c-.7306-2.6733-1.2934-5.1507-2.1311-7.5315-.2362-.6714-1.2775-1.0595-1.95-1.5775-.4248.7444-1.2716,1.5415-1.1866,2.2222.1775,1.42,1.0239,2.7482,1.2737,4.1706C74.8477,218.3617,76.04,219.1274,78.464,218.93Zm49.65,93.1773c.4008.4093.9423,1.4073,1.4809,1.4058A2.9744,2.9744,0,0,0,131.84,312.32a25.5531,25.5531,0,0,0,2.0619-5.0256,3.2423,3.2423,0,0,0-.2533-2.1366c-.9038-.1215-2.42-.187-2.6946.3019A61.4834,61.4834,0,0,0,128.1144,312.1068Zm-19.7867-.04c-.8592-2.09-1.5526-4.0588-2.4927-5.9017-.3046-.5969-1.2557-.8637-1.9111-1.2816-.3265.6639-1.051,1.4327-.9085,1.973a36.7609,36.7609,0,0,0,2.1139,5.8765,2.3029,2.3029,0,0,0,1.8608.95C107.416,313.6634,107.7993,312.7454,108.3277,312.0672ZM73.8329,202.1237a48.5682,48.5682,0,0,0-1.8466-5.8738c-.4271-.9435-1.55-1.5718-2.3592-2.3424a14.1314,14.1314,0,0,0-.5443,3.2027,25.7543,25.7543,0,0,0,.8339,3.4129C70.4822,203.4005,71.2386,203.7,73.8329,202.1237Zm233.696,111.9046-1.488-2.1791c-.5744.5479-1.4373.996-1.6681,1.6628a37.1256,37.1256,0,0,0-1.4595,5.7569,1.8936,1.8936,0,0,0,.8948,1.6187,1.9755,1.9755,0,0,0,1.6965-.8818C306.267,318.1861,306.7953,316.2684,307.5289,314.0283Zm-34.3568-.1156-.3411.9257c.9747,2.2309,1.85,4.5151,2.995,6.6549.281.525,1.4666.8115,2.19.74.3139-.031.8922-1.3981.6934-1.8962a31.8855,31.8855,0,0,0-2.9042-5.7976C275.4419,313.99,274.0778,314.103,273.1721,313.9127ZM65.246,169.281a25.4142,25.4142,0,0,1-1.3-2.8361,18.9024,18.9024,0,0,1-.6727-3.2141c-.2217-1.6521-1.3783-2.0118-2.5335-1.4439-.5363.2636-.8559,1.6347-.7342,2.42.2039,1.3153.9478,2.5369,1.2716,3.8456C61.9437,170.7482,62.7057,171.0456,65.246,169.281Zm180.8129,94.8579c-2.1-2.6872-3.5184-4.6466-5.1168-6.4457-.4093-.4606-1.3889-.4147-2.1064-.6015-.1.7362-.5489,1.7054-.24,2.1679a40.564,40.564,0,0,0,4.3037,5.447C243.214,265.0363,244.4909,264.4487,246.0589,264.1389Zm68.1362,16.2818q-.5151-.3881-1.03-.7759c-.6954.3564-1.8352.5666-2.009,1.0947a55.626,55.626,0,0,0-1.6586,6.7945c-.0723.3721.526,1.2434.7893,1.2332a1.8672,1.8672,0,0,0,1.4581-.8089C312.6449,285.4761,313.3948,282.9392,314.1951,280.4207Zm-4.1577,17.2722-1.3949-1.7474a11.6949,11.6949,0,0,0-1.4252,2.2349,33.3718,33.3718,0,0,0-1.116,4.2333c-.1466.67-.4114,1.6282-.0918,2.0021a2.16,2.16,0,0,0,1.9877.4088,2.6888,2.6888,0,0,0,1.3552-1.6913C309.6961,301.618,309.7648,300.04,310.0374,297.6929ZM161.38,265.0235c-.5534-.77-.8132-1.5077-1.2737-1.6677a2.02,2.02,0,0,0-1.6875.4292,25.1664,25.1664,0,0,0-3.878,4.0595c-.4742.6872-.0783,1.9749-.0772,2.99a18.3859,18.3859,0,0,0,2.1954-.71,3.9732,3.9732,0,0,0,1.276-.9989C159.0841,267.8129,160.1837,266.4562,161.38,265.0235Zm103.36,35.5586c1.2354,2.3708,2.2542,4.583,3.56,6.61.2544.3949,1.6624.214,2.4594.002.2814-.075.6252-1.1906.43-1.5666a62.2988,62.2988,0,0,0-3.3912-5.7754,2.0356,2.0356,0,0,0-1.6937-.7743C265.5986,299.1914,265.2448,299.9866,264.74,300.5821Zm-92.0279-48.1572c-.7088-.07-1.7916-.525-2.3049-.1658a46.4292,46.4292,0,0,0-4.9354,4.19,1.5847,1.5847,0,0,0-.3683,1.4364,2.2285,2.2285,0,0,0,1.4,1.0583C168.2308,259.234,172.8236,254.9388,172.7123,252.4249ZM56.3543,146.6131a55.665,55.665,0,0,0,1.225,6.2874c.1971.6378,1.3581.9778,2.0785,1.454.4089-.76,1.2512-1.59,1.1436-2.268a27.7115,27.7115,0,0,0-1.5756-5.4328,2.0508,2.0508,0,0,0-1.5391-1.0773C57.2111,145.5706,56.7265,146.3,56.3543,146.6131Zm94.588,131.3254c-.62-.8624-.8561-1.5376-1.22-1.6159a2.0635,2.0635,0,0,0-1.7235.35,65.225,65.225,0,0,0-3.9232,5.4908,1.8825,1.8825,0,0,0,.0067,1.7287c.2767.373,1.4324.6558,1.6071.4566C147.5039,282.2793,149.1986,280.1038,150.9423,277.9385ZM77.6836,225.9534A56.23,56.23,0,0,0,79.6,233.0242c.3138.7732,1.7871,1.076,2.7313,1.5934a8.2139,8.2139,0,0,0,.2943-2.62c-.3442-1.58-1.0571-3.0751-1.4907-4.64C80.5619,225.29,79.4046,225.0412,77.6836,225.9534ZM52.5774,129.8192c.6354,2.7442,1.1872,5.3676,1.9051,7.9448.0978.3512,1.09.7344,1.551.6216a1.7025,1.7025,0,0,0,.994-1.3114c-.0707-1.7393-.397-3.466-.5481-5.2045C56.282,129.5979,55.0149,129.217,52.5774,129.8192ZM65.5362,176.66c-.5575,1.1384-1.3907,2.0206-1.2474,2.6952a47.557,47.557,0,0,0,2.1144,6.9079,1.9146,1.9146,0,0,0,1.79.6035,2.2292,2.2292,0,0,0,.9163-1.8484,44.0824,44.0824,0,0,0-1.5289-5.7544C67.3874,178.67,66.78,178.2106,65.5362,176.66ZM328.087,216.2206l-.8452-1.3395c-.6626.4824-1.6869.8351-1.9156,1.473-.5485,1.53-.5184,3.2743-1.1145,4.7763-.4587,1.1557-.6807,2.1061.6728,2.2217a2.7908,2.7908,0,0,0,2.1582-1.5367A37.1866,37.1866,0,0,0,328.087,216.2206ZM87.913,249.92c-.7169-2.4224-1.3368-4.7565-2.1276-7.0312-.2135-.6144-.9451-1.0487-1.4388-1.5657-.4552.65-1.3273,1.3288-1.2848,1.9444a36.63,36.63,0,0,0,.9692,4.8293C84.476,250.2369,85.795,250.57,87.913,249.92ZM349.1652,137.5318l-1.0739-2.2854c-.6981.4426-1.8656.7685-2.01,1.3489a43.9734,43.9734,0,0,0-.9478,6.4285c-.0249.2608.7716.8817,1.11.83a1.9616,1.9616,0,0,0,1.3868-.9508C348.2274,141.2114,348.635,139.4527,349.1652,137.5318ZM250.2233,270.1055l-1.3548.142c-.1687,1.0639-.77,2.3131-.4118,3.1513a15.84,15.84,0,0,0,2.9071,4.1517c.4806.5352,1.4621.62,2.2161.91.147-.7411.6518-1.67.3785-2.19C252.8428,274.1475,251.4892,272.1494,250.2233,270.1055Zm70.6842-21.3031c-.4982-.6387-.8081-1.3957-1.32-1.5744a1.7075,1.7075,0,0,0-1.4988.7774,53.0072,53.0072,0,0,0-1.8338,6.2632c-.1176.5251.47,1.2078.7329,1.8179.6033-.3137,1.5507-.485,1.75-.9661C319.5647,253.1232,320.1657,251.0326,320.9075,248.8024ZM332.71,199.9587c-.0451-.0511-.5322-.9166-.8077-.8539-.7539.1719-1.8024.5781-2.045,1.1726a28.0487,28.0487,0,0,0-1.3411,5.0156,9.4771,9.4771,0,0,0,.0576,2.19c.8532-.4188,2.1927-.6358,2.4665-1.2951A46.602,46.602,0,0,0,332.71,199.9587Zm-104.11,45.0076c-.8279.5-1.5265.685-1.6162,1.0292a2.1293,2.1293,0,0,0,.2534,1.7648,43.1234,43.1234,0,0,0,4.7957,3.9554c.42.2941,1.3753-.0231,2.0048-.2659a1.32,1.32,0,0,0,.2249-1.1959C232.4282,248.4569,230.5191,246.7366,228.5994,244.9663Zm104.267-54.7593c.444.79.6237,1.567,1.05,1.741.44.18,1.5-.0736,1.632-.4017.87-2.1615,1.6072-4.3813,2.27-6.6169.11-.3722-.3162-1.2771-.5634-1.3041-.52-.0568-1.389.1483-1.5834.5223C334.6444,186.1219,333.7828,188.182,332.8664,190.207ZM312.74,271.3758c2.2333,1.2381,3.0683.87,3.4051-1.6789a28.2126,28.2126,0,0,0,.519-4.0816c-.0122-.7247-.6666-1.4386-1.0311-2.1574-.5435.5983-1.37,1.113-1.5761,1.811C313.5,267.1551,313.2056,269.1193,312.74,271.3758Zm9.2981-30.7909c.87-2.8424,1.6856-5.2815,2.2745-7.7742.0611-.2589-1.4162-1.3441-1.8556-1.18C320.3386,232.424,319.74,238.4826,322.0384,240.5849Zm25.2843-114.1231a3.9321,3.9321,0,0,0,1.0728,1.2228c.2108.1348,1.32-.5251,1.45-.9833a25.4566,25.4566,0,0,0,1.0086-5.2754c.0467-.7346-.7261-1.5214-1.1261-2.2844-.6946.6243-1.7977,1.1406-1.9971,1.8957A30.9423,30.9423,0,0,0,347.3227,126.4618Zm-4.5718,42.807a4.165,4.165,0,0,0-.8741-1.41,1.5411,1.5411,0,0,0-1.42.3057c-.7887,2.31-1.4921,4.6545-2.0686,7.0256-.0762.3135.6348,1.036,1.1051,1.19a1.4737,1.4737,0,0,0,1.26-.7139C341.4572,173.7,342.0162,171.682,342.7509,169.2688Zm-.2218-11.09c.1432.35.5493,1.3429.9553,2.3359a16.0143,16.0143,0,0,0,1.7861-2.8681c.4009-1.08.0943-2.5031.6668-3.4207.8074-1.2943.4328-2.0367-.7024-2.201a2.4972,2.4972,0,0,0-2.0245,1.3013A25.54,25.54,0,0,0,342.5291,158.1788Z"/><path class="cls-1" d="M112.8148,108.3832c1.3464.4733,2.7041.9174,4.036,1.4285,1.3031.5,2.3937.2291,2.3274-1.234a2.981,2.981,0,0,0-1.6463-2.1836c-2.2211-.719-5.3546-.3484-6.6375-1.7607-1.3431-1.4785-.7416-4.5879-1.3587-6.8854a108.6971,108.6971,0,0,1-3.92-24.6541c-.1928-5.8816.0306-11.7856.3085-17.6683.0816-1.729.9842-3.419,1.5358-5.2085,1.8251.2216,3.4439.4994,5.0712.5652.4773.0193.9789-.5635,1.4694-.87a8.4973,8.4973,0,0,0-1.1014-1.5632,3.1734,3.1734,0,0,0-1.2979-.42c-1.0877-.2887-2.6183-.1082-2.1056-2.0467.4154-1.5706.8209-3.0869,3.0138-2.8033,6.7378.8716,13.4854,1.6685,20.2208,2.5576,7.4584.9846,14.9183,1.9675,22.3577,3.0837,7.04,1.0563,14.0168,2.7454,21.0894,3.3212,8.9835.7314,18.0343.7215,27.0585.83,4.2334.0509,8.4817-.2571,12.7072-.5995q14.1537-1.1469,28.29-2.5074,10.6917-1.0271,21.3584-2.31c4.9023-.5889,9.7843-1.3537,14.6664-2.0995,2.8849-.4407,5.7366-1.1338,8.6318-1.4621,2.67-.3027,3.7724,1.7088,5.2343,3.8595a73.2908,73.2908,0,0,0-7.2647.99c-.7078.1647-1.1824,1.3309-1.7636,2.039a6.4082,6.4082,0,0,0,2.3148.4319c2.2905-.4754,4.5213-1.2524,6.82-1.6609.3335-.0592,1.18,1.2037,1.3365,1.95,1.9762,9.4249,1.5365,18.9367.248,28.35-1.1134,8.1342-2.99,16.1661-4.602,24.2287-.4793,2.3971-1.1514,4.76-1.8312,7.1113-.8132,2.8127-3.5733,2.2434-5.4564,2.6137-3.7776.7427-7.69.7819-11.5391,1.1834-7.7536.8091-15.4884,1.8375-23.2562,2.4621-10.5338.8472-21.0927,1.379-31.6376,2.0934-2.9208.1978-5.8295.7829-8.7454.7944-3.3772.0133-6.7527-.52-10.1348-.625-15.4844-.4816-30.9783-.727-46.4529-1.4143-6.674-.2964-13.3173-1.3979-19.96-2.2464-4.5457-.5806-9.0745-1.3084-13.5942-2.0695a13.4233,13.4233,0,0,1-4.926-1.4021c-.9364-.5961-1.1821-2.277-1.7367-3.4727Zm15.5145-.0714L126.3017,109.5c.4209.6372.76,1.7414,1.2765,1.8324a70.1435,70.1435,0,0,0,7.5587.8091c.28.0184.9068-.7922.8481-1.1261a1.8549,1.8549,0,0,0-1.0154-1.2943C132.9576,109.1938,130.9007,108.8379,128.3293,108.3118Zm12.1617-55.65-.1247.3854a2.3309,2.3309,0,0,0-.82-.0273c-.7646.266-1.5057.5994-2.2558.9068.485.556.8862,1.4682,1.47,1.6055a70.0651,70.0651,0,0,0,7.1679,1.2229c.3559.0455,1.031-.5234,1.1309-.9167a1.4406,1.4406,0,0,0-.662-1.25C144.4568,53.8694,142.465,53.29,140.491,52.6621Zm56.66,63.5434v-.023a9.029,9.029,0,0,0,2.7283-.0651c.6788-.2257,1.1667-1.0256,1.7392-1.5709-.5893-.5372-1.132-1.4577-1.7771-1.5361a16.9045,16.9045,0,0,0-4.9266.0917c-.8.1414-1.46,1.0723-2.1834,1.6462a11.5089,11.5089,0,0,0,2.2365,1.41A6.8215,6.8215,0,0,0,197.1512,116.2055Zm-16.3433-3.2361v-.1362a16.8215,16.8215,0,0,0-3.0342.0513c-.55.1022-1.004.7228-1.5013,1.11.3731.4233.6925,1.14,1.1283,1.22a48.8907,48.8907,0,0,0,6.461.8172c.5472.0257,1.1371-.8544,1.7074-1.3183-.5727-.5813-1.0532-1.4557-1.7407-1.6718A10.4579,10.4579,0,0,0,180.8079,112.9694ZM122.78,50.2654a5.471,5.471,0,0,0-1.55,1.109,1.741,1.741,0,0,0,.4841,1.5274,56.6453,56.6453,0,0,0,6.8928,1.3056c.4214.05,1.32-.9213,1.3554-1.4629a2.1024,2.1024,0,0,0-1.1164-1.7081C127.0682,50.6374,125.2218,50.5453,122.78,50.2654Zm92.5317,65.6183.1.4007a12.7189,12.7189,0,0,0,2.6162-1.2531,2.0444,2.0444,0,0,0,.3674-1.7129,1.488,1.488,0,0,0-1.19-.7749,60.6946,60.6946,0,0,0-6.53.46c-.4429.06-1,.9592-1.069,1.5247a1.6393,1.6393,0,0,0,.9836,1.2934C212.1513,115.9729,213.7357,115.8837,215.3113,115.8837Zm-67.5746-1.8829-.0008.178a19.3793,19.3793,0,0,0,3.2944-.0614c.4277-.0747.9273-.7967,1.0291-1.2981.0646-.3186-.4861-1.0442-.8584-1.1222a41.8972,41.8972,0,0,0-6.1544-.9636c-.6872-.04-1.426.8179-2.1412,1.2653.6919.6673,1.28,1.5794,2.106,1.931A7.46,7.46,0,0,0,147.7367,114.0008Zm111.8855-1.84a45.1236,45.1236,0,0,0,5.91-.4993c.7211-.1575,1.2547-1.1731,1.8735-1.7988-.74-.4525-1.5034-1.3148-2.2169-1.2756a23.312,23.312,0,0,0-5.0289,1.0015,6.3485,6.3485,0,0,0-1.73,1.2454C258.9455,111.4072,259.46,111.98,259.6222,112.1607Zm-15.86,1.9875c2.6976-.5518,4.7507-.9219,6.7676-1.4345.3281-.0834.7942-1.0423.6842-1.1763-.3963-.4831-1.0068-1.0934-1.5452-1.1018a28.812,28.812,0,0,0-5.4832.3652c-.67.1192-1.6806,1.0316-1.6716,1.5679C242.525,113.0446,243.4211,113.7058,243.762,114.1482Zm-3.4145-56.6466,0-.1071a20.3471,20.3471,0,0,0,3.5676-.068c.4716-.085,1.0148-.8858,1.1209-1.4386.0572-.2981-.7345-1.087-1.1521-1.0935a55.52,55.52,0,0,0-6.602.2564c-.4582.0475-.83.9263-1.2417,1.4221.5184.3943.9942,1.026,1.5648,1.1281A12.1428,12.1428,0,0,0,240.3475,57.5016Zm-84.8821-2.6542-1.4549,1.197a7.4736,7.4736,0,0,0,2.079,1.5114,21.3893,21.3893,0,0,0,4.7815.7645,6.9867,6.9867,0,0,0,2.3631-.8028c-.5854-.7347-1.0534-1.9242-1.78-2.1119A38.34,38.34,0,0,0,155.4654,54.8474Zm96.8454-.69-.251,1.3471c.833.3385,1.6918,1.009,2.4935.9465a22.4745,22.4745,0,0,0,5.0095-1.057c.65-.2066,1.115-.995,1.6642-1.5185-.6154-.354-1.2765-1.07-1.8383-.999C257.0133,53.1755,254.6674,53.709,252.3108,54.157Zm25.6809-1.4c-1.4759-2.3232-7.9015-2.3543-8.6942-.3882-.1633.4049.8927,1.8724,1.2552,1.8259C272.998,53.8806,275.408,53.2909,277.9917,52.7569Zm-102.89,6.4891.0008.0567a9.2088,9.2088,0,0,0,2.1765-.0365,11.1787,11.1787,0,0,0,2.11-1.0032c-.6575-.5675-1.26-1.5232-1.9835-1.6268a29.8856,29.8856,0,0,0-5.724-.15c-.484.0245-.932.7611-1.3965,1.17.4228.4763.779,1.2573,1.282,1.3673A21.1138,21.1138,0,0,0,175.1021,59.246Zm44.1409-1.9425c.2884.6741.3876,1.1227.4947,1.1245,2.8366.05,5.675.0847,8.5091-.0046.179-.0056.63-1.2977.4247-1.5358a2.81,2.81,0,0,0-1.8645-.993,22.8476,22.8476,0,0,0-7.564,1.4089Zm-27.4765,2.3576,0-.0562a15.5414,15.5414,0,0,0,2.7431-.0422,5.5838,5.5838,0,0,0,1.6328-.9469c-.4456-.5488-.8513-1.5262-1.3437-1.5719a42.0811,42.0811,0,0,0-6.3229-.0714c-.47.0274-1.2676.855-1.2439,1.2764a1.92,1.92,0,0,0,1.2465,1.3489A17.0646,17.0646,0,0,0,191.7665,59.6611Zm84.3991,50.3555a33.6441,33.6441,0,0,0,5.6478-.4979c.6976-.1854,1.1286-1.3737,1.6806-2.107-.7827-.3426-1.5882-1.0114-2.3432-.9586a18.3948,18.3948,0,0,0-4.4048.9839,10.3751,10.3751,0,0,0-2.1731,1.365Zm-108.2311,5.1655.7455-.8645c-.577-.6391-1.0939-1.7479-1.742-1.8307a38.5115,38.5115,0,0,0-6.3055-.1346c-.4543.017-.8852.6571-1.3269,1.01.4288.4608.8185,1.2707,1.2929,1.3238C163.0318,114.9588,165.487,115.0364,167.9345,115.1821Zm39.7118-55.7378v-.0572a18.35,18.35,0,0,0,3.3037-.0582c.5479-.1016.9838-.8071,1.47-1.24-.531-.498-1.0419-1.3945-1.5966-1.4225a38.506,38.506,0,0,0-6.0453.2236c-.5338.0575-.9959.78-1.4909,1.198.5326.452,1.0036,1.1408,1.6126,1.2991A11.1981,11.1981,0,0,0,207.6463,59.4443Zm21.7729,55.8269.2293-.617a17.452,17.452,0,0,0,3.5734-.0735c.5531-.1176.9409-1.0125,1.4035-1.5555-.5166-.3554-1.0168-.9789-1.5531-1.0117a12.9432,12.9432,0,0,0-3.56.2906c-1.3209.2938-3.426-1.0415-3.6781,1.3261C225.79,114.0453,228.1628,114.7176,229.4192,115.2712Z"/><path class="cls-1" d="M177.8765,305.2979c.7723-3.5457,1.337-6.857,2.2392-10.0738a63.1679,63.1679,0,0,1,3.1731-9.0339c3.3646-7.4187,7.56-14.323,14.2184-19.2952a115.8392,115.8392,0,0,1,11.24-7.4361c2.13-1.2332,4.6517-2.19,7.3918-.3a5.92,5.92,0,0,0-1.0351.9672c-.2948.4812-.759,1.1524-.6111,1.5328.1639.4213.9172.65,1.4511.8732a1.0192,1.0192,0,0,0,.8039-.0938c3.3255-2.0531,5.4161.0987,7.7074,2.0827a99.1607,99.1607,0,0,1,16.7572,19.57c2.54,3.729,5.122,7.43,7.6934,11.1372,1.2092,1.7436,1.11,2.6738-1.1977,3.573a67.0463,67.0463,0,0,1-16.8863,4.57c-5.8967.6624-11.7585,1.7388-17.6692,2.1486-8.6858.6024-17.3993.8979-26.1058,1.0564C184.2678,306.6272,181.4733,305.8276,177.8765,305.2979Zm44.473-23.2634c-2.3529-4.1084-2.3225-4.0474-6.4716-1.9824a2.6692,2.6692,0,0,1-2.3858-.6916c-4.2129-4.8066-9.32-6.5155-15.511-4.8084a11.98,11.98,0,0,1-2.7637.8769c-2.7849.0235-6.3144,4.2-5.8285,6.9925a26.6394,26.6394,0,0,1,.4214,4.3287c.0219,2.6907.3021,5.1286,1.98,7.5258,3.616,5.166,7.1853,7.0029,14.0268,5.7628,3.5367-.6411,8.3408-3.8333,9.0683-9.1371.4866-3.548,1.8287-6.52,5.6677-7.665A7.3034,7.3034,0,0,0,222.35,282.0345Zm-39.59,14.5049c.5768.6038,1.2053,1.733,1.7,1.6773.8971-.1013,2.2341-.7423,2.4617-1.4541a21.4717,21.4717,0,0,0,.735-5.4033c.03-.5844-.4689-1.6672-.8041-1.6991-.6578-.0627-1.7722.2735-1.9888.76C184.062,292.2222,183.5486,294.1525,182.76,296.5394Zm20.369,6.7394.5173,1.1584c2.5559,0,5.1212.1173,7.6609-.0851.6114-.0488,1.1382-1.1581,1.704-1.78-.6395-.5177-1.2289-1.3777-1.929-1.48a10.012,10.012,0,0,0-4.1176.1582A20.1856,20.1856,0,0,0,203.129,303.2788Zm5.2145-37.19-.1225-.9083c-.7917-.16-1.773-.6951-2.34-.4092a23.3362,23.3362,0,0,0-4.9635,3.2489c-.4833.4275-.1356,1.7942-.1679,2.7315a14.3321,14.3321,0,0,0,2.2591-.3744,5.0237,5.0237,0,0,0,1.6343-.97C205.9048,268.3342,207.1136,267.199,208.3435,266.0887Zm28.9659,33.656a56.4786,56.4786,0,0,0,6.4681-1.9521c.6782-.2891.9257-1.5887,1.37-2.4266a8.6111,8.6111,0,0,0-2.435-.28c-1.4151.2417-2.7752.7868-4.1778,1.124C235.7582,296.8773,235.5838,297.3613,237.3094,299.7447Zm-45.7067,5.0662a17.3882,17.3882,0,0,0,3.5454-.0706c.5837-.1237,1.0121-.98,1.5107-1.5056-.5291-.3584-1.0212-.9392-1.5939-1.0341a31.5343,31.5343,0,0,0-5.3863-.5205c-.7058.0061-1.4054.7468-2.1079,1.153.5213.6605.9181,1.57,1.5993,1.91A5.906,5.906,0,0,0,191.6027,304.8109ZM221.95,303.09a50.9849,50.9849,0,0,0,5.9734-1.35c.6084-.2116.89-1.363,1.32-2.085-.7634-.28-1.5639-.8664-2.2824-.7788a21.8011,21.8011,0,0,0-4.7483,1.1692,8.0278,8.0278,0,0,0-2.0044,1.5951Z"/><path class="cls-1" d="M172.2951,304.9259c-4.7179.484-8.7457-1.9813-13.03-3.2925a21.7991,21.7991,0,0,1-5.0649-2.4572c-.5281-.33-.5858-1.4129-.8584-2.1517a16.7727,16.7727,0,0,1,2.8039-.3879c.8885.0194,2.4528.6685,2.5476.4728.762-1.5729.28-2.6908-1.4828-3.4375a2.5729,2.5729,0,0,1-.7182-2.4124,65.4389,65.4389,0,0,1,5.4763-9.9422,95.9641,95.9641,0,0,1,10.6262-12.6419c6.3361-6.0893,13.1419-11.7151,22.92-10.6114a12.78,12.78,0,0,1,2.1813.3037,1.3767,1.3767,0,0,1,.8706.865,1.4173,1.4173,0,0,1-.6492,1.0279,49.9683,49.9683,0,0,0-17.4147,19.6183c-2.7759,5.4527-5.2346,10.9393-6.2462,16.982-.2746,1.64-.9628,2.26-2.5577,2.0089a32.5594,32.5594,0,0,0-4.3691-.5612,1.9029,1.9029,0,0,0-1.5065,1.0655,1.9911,1.9911,0,0,0,.9549,1.6453c1.3283.5682,2.827.7356,4.1614,1.2934a9.65,9.65,0,0,1,2.1015,1.6738Z"/><path class="cls-2" d="M258.8494,293.1114l-4.2264,2.7224c.0746-.8937-.0544-1.6869.1849-1.82,1.1962-.668,2.4889-1.163,3.7476-1.7188Z"/><path d="M296.2814,348.4486c.2481-1.1142.2013-1.6893.452-1.8869.8406-.6625,1.7873-1.19,2.6935-1.77.28.8.8727,1.6409.7767,2.3934a20.9792,20.9792,0,0,1-1.2559,5c-.2935.7449-1.267,1.2219-2.4064,2.2466-.3034-1.8344-.459-2.7749-.6687-4.0427-.7815.5163-1.3351,1.1529-1.9509,1.22-.7706.0843-2.0892-.0608-2.31-.52-1.2544-2.6137-2.2519-5.3508-3.4321-8.2828-2.1623-1.525-5.211-3.0657-7.4066-5.4066-1.9361-2.0641-2.2353-5.15-1.7689-8.1013.5226-3.3072,5.2136-7.777,8.6606-8.1984,5.2456-.6414,9.1545,2.1448,11.8475,8.581a8.4772,8.4772,0,0,1,1.59-.7971c1.5172-.401,2.6268-.1131,2.3748,1.8182a26.1525,26.1525,0,0,1-.7609,4.6269c-.3781,1.1745-.9654,2.7122-2.8478,1.5076a1.5022,1.5022,0,0,0-1.28-.0162c-3.4459,1.8627-4.5766,5.3475-3.057,9.1845C295.7552,346.5691,295.8921,347.1673,296.2814,348.4486Zm-5.8979-19.4715-1.2428-.1541c-.6082.8741-1.6763,1.7414-1.6892,2.6241a3.0837,3.0837,0,0,0,1.7808,2.3331,1.7412,1.7412,0,0,0,2.3356-2.1039A10.9339,10.9339,0,0,0,290.3835,328.9771Z"/><path d="M117.2211,336.6215c-.0268-.2107.1612-1.26-.2707-1.698a79.7712,79.7712,0,0,0-6.1866-5.6448c-1.13-.928-3.3581-6.314-2.8215-7.7351a1.7045,1.7045,0,0,1,1.1023-.9735,2.2819,2.2819,0,0,1,1.6509.4816,6.21,6.21,0,0,1,.9882,1.7,51.6708,51.6708,0,0,1,4.5828-4.9716,10.4661,10.4661,0,0,1,13.4646.6386c3.0867,3.0576,3.6648,9.537.9622,13.1948-1.0888,1.4736-2.4946,3.35-4.061,3.7073-3.8533.88-4.77,3.44-5.1328,6.6972-.15,1.3488-.4684,2.3128-2.1909,2.6046-3.7792.64-3.8725.6985-4.8879-2.9969-.1451-.528-.4278-1.023-.5342-1.5558-.228-1.1417-.3824-2.2982-.5669-3.4487Zm5.403-8.0141c1.6858-1.7274,1.9179-3.8431.4084-4.8365a1.8,1.8,0,0,0-1.6936.3486C119.9079,325.731,120.38,327.2125,122.6241,328.6074Z"/><path d="M92.8479,264.984c-.3844.6646-.7156,1.715-1.0525,1.7169a2.3338,2.3338,0,0,1-1.8622-.9665,44.7375,44.7375,0,0,1-2.2194-6.671c-.138-.5753.7438-1.395,1.157-2.1024.5344.5082,1.296.9195,1.5617,1.5423C91.3157,260.5732,92.0206,262.7191,92.8479,264.984Z"/><path d="M141.8735,291.4271c-1.25,2.4347-2.3257,4.7194-3.6267,6.8678-.2.33-1.504.2094-2.167-.0439a1.6447,1.6447,0,0,1-.6567-1.4793,63.2442,63.2442,0,0,1,3.5019-6.0747,2.2023,2.2023,0,0,1,1.8313-.606C141.17,290.1505,141.48,290.9247,141.8735,291.4271Z"/><path d="M98.2889,281.77c-2.1621,1.19-3.4366.6521-4.1145-1.4936a40.5706,40.5706,0,0,1-1.4663-4.6367c-.1277-.6828.5017-1.5073.7872-2.2673.7182.4242,1.8027.68,2.0888,1.3028C96.6035,276.8945,97.3514,279.2386,98.2889,281.77Z"/><path d="M102.1324,299.2154c-1.5088-1.3748-2.5234-1.9-2.89-2.7164a23.4155,23.4155,0,0,1-1.6613-5.3685c-.1006-.5551.7063-1.5478,1.3358-1.8613a2.0456,2.0456,0,0,1,1.8043.8481,41.72,41.72,0,0,1,2.3125,6.0813C103.2142,296.8213,102.6252,297.6667,102.1324,299.2154Z"/><path d="M78.464,218.93c-2.4245.1979-3.6163-.5678-3.9935-2.7162-.25-1.4224-1.0962-2.75-1.2737-4.1706-.085-.6807.7618-1.4778,1.1866-2.2222.672.518,1.7133.9061,1.95,1.5775C77.1706,213.7788,77.7334,216.2562,78.464,218.93Z"/><path d="M128.1144,312.1068a61.4834,61.4834,0,0,1,2.84-6.6471c.2746-.4889,1.7908-.4234,2.6946-.3019a3.2423,3.2423,0,0,1,.2533,2.1366A25.5531,25.5531,0,0,1,131.84,312.32a2.9744,2.9744,0,0,1-2.2446,1.1926C129.0567,313.5141,128.5152,312.5161,128.1144,312.1068Z"/><path d="M108.3277,312.0672c-.5284.6782-.9117,1.5962-1.3376,1.6164a2.3029,2.3029,0,0,1-1.8608-.95,36.7609,36.7609,0,0,1-2.1139-5.8765c-.1425-.54.582-1.3091.9085-1.973.6554.4179,1.6065.6847,1.9111,1.2816C106.7751,308.0084,107.4685,309.9773,108.3277,312.0672Z"/><path d="M73.8329,202.1237c-2.5943,1.5759-3.3507,1.2768-3.9162-1.6006a25.7543,25.7543,0,0,1-.8339-3.4129,14.1314,14.1314,0,0,1,.5443-3.2027c.8089.7706,1.9321,1.3989,2.3592,2.3424A48.5682,48.5682,0,0,1,73.8329,202.1237Z"/><path d="M307.5289,314.0283c-.7336,2.24-1.2619,4.1578-2.0243,5.9775a1.9755,1.9755,0,0,1-1.6965.8818,1.8936,1.8936,0,0,1-.8948-1.6187,37.1256,37.1256,0,0,1,1.4595-5.7569c.2308-.6668,1.0937-1.1149,1.6681-1.6628Z"/><path d="M273.1721,313.9127c.9057.19,2.27.0774,2.6332.6266a31.8855,31.8855,0,0,1,2.9042,5.7976c.1988.4981-.38,1.8652-.6934,1.8962-.7235.0717-1.9091-.2148-2.19-.74-1.1451-2.14-2.02-4.424-2.995-6.6549Z"/><path d="M65.246,169.281c-2.54,1.7646-3.3023,1.4672-3.9693-1.2286-.3238-1.3087-1.0677-2.53-1.2716-3.8456-.1217-.7852.1979-2.1563.7342-2.42,1.1552-.5679,2.3118-.2082,2.5335,1.4439a18.9024,18.9024,0,0,0,.6727,3.2141A25.4142,25.4142,0,0,0,65.246,169.281Z"/><path d="M246.0589,264.1389c-1.568.31-2.8449.8974-3.1592.5677a40.564,40.564,0,0,1-4.3037-5.447c-.3092-.4625.1395-1.4317.24-2.1679.7175.1868,1.6971.1409,2.1064.6015C242.5405,259.4923,243.9584,261.4517,246.0589,264.1389Z"/><path d="M314.1951,280.4207c-.8,2.5185-1.55,5.0554-2.4506,7.5376a1.8672,1.8672,0,0,1-1.4581.8089c-.2633.01-.8616-.8611-.7893-1.2332a55.626,55.626,0,0,1,1.6586-6.7945c.1738-.5281,1.3136-.7383,2.009-1.0947Q313.68,280.0327,314.1951,280.4207Z"/><path d="M310.0374,297.6929c-.2726,2.3474-.3413,3.9251-.685,5.44a2.6888,2.6888,0,0,1-1.3552,1.6913,2.16,2.16,0,0,1-1.9877-.4088c-.32-.3739-.0548-1.3325.0918-2.0021a33.3718,33.3718,0,0,1,1.116-4.2333,11.6949,11.6949,0,0,1,1.4252-2.2349Z"/><path d="M161.38,265.0235c-1.1961,1.4327-2.2957,2.7894-3.445,4.1027a3.9732,3.9732,0,0,1-1.276.9989,18.3816,18.3816,0,0,1-2.1955.71c-.001-1.0153-.3969-2.303.0773-2.99a25.1664,25.1664,0,0,1,3.878-4.0595,2.02,2.02,0,0,1,1.6875-.4292C160.5666,263.5158,160.8264,264.2534,161.38,265.0235Z"/><path d="M264.74,300.5821c.5046-.5955.8584-1.3907,1.3648-1.5039a2.0356,2.0356,0,0,1,1.6937.7743,62.2988,62.2988,0,0,1,3.3912,5.7754c.1949.376-.1489,1.4916-.43,1.5666-.797.212-2.205.3929-2.4594-.002C266.9944,305.1651,265.9756,302.9529,264.74,300.5821Z"/><path d="M172.7123,252.4249c.1113,2.5139-4.4815,6.8091-6.2081,6.5184a2.2285,2.2285,0,0,1-1.4-1.0583,1.5847,1.5847,0,0,1,.3683-1.4364,46.4292,46.4292,0,0,1,4.9354-4.19C170.9207,251.9,172.0035,252.3545,172.7123,252.4249Z"/><path d="M56.3543,146.6131c.3722-.3134.8568-1.0425,1.3324-1.0367a2.0508,2.0508,0,0,1,1.5391,1.0773,27.7115,27.7115,0,0,1,1.5756,5.4328c.1076.6785-.7347,1.5076-1.1436,2.268-.72-.4762-1.8814-.8162-2.0785-1.454A55.665,55.665,0,0,1,56.3543,146.6131Z"/><path d="M150.9423,277.9385c-1.7437,2.1653-3.4384,4.3408-5.2534,6.4107-.1747.1992-1.33-.0836-1.6071-.4566a1.8825,1.8825,0,0,1-.0067-1.7287,65.225,65.225,0,0,1,3.9232-5.4908,2.0635,2.0635,0,0,1,1.7235-.35C150.0862,276.4009,150.3223,277.0761,150.9423,277.9385Z"/><path d="M77.6836,225.9534c1.721-.9122,2.8783-.6637,3.451,1.404.4336,1.5654,1.1465,3.0607,1.4907,4.64a8.2139,8.2139,0,0,1-.2943,2.62c-.9442-.5174-2.4175-.82-2.7313-1.5934A56.23,56.23,0,0,1,77.6836,225.9534Z"/><path d="M52.5774,129.8192c2.4375-.6022,3.7046-.2213,3.902,2.05.1511,1.7385.4774,3.4652.5481,5.2045a1.7025,1.7025,0,0,1-.994,1.3114c-.4606.1128-1.4532-.27-1.551-.6216C53.7646,135.1868,53.2128,132.5634,52.5774,129.8192Z"/><path d="M65.5362,176.66c1.2439,1.5507,1.8512,2.01,2.0443,2.6038a44.0824,44.0824,0,0,1,1.5289,5.7544,2.2292,2.2292,0,0,1-.9163,1.8484,1.9146,1.9146,0,0,1-1.79-.6035,47.557,47.557,0,0,1-2.1144-6.9079C64.1455,178.6805,64.9787,177.7983,65.5362,176.66Z"/><path d="M328.087,216.2206a37.1866,37.1866,0,0,1-1.0443,5.5948,2.7908,2.7908,0,0,1-2.1582,1.5367c-1.3535-.1156-1.1315-1.066-.6728-2.2217.5961-1.502.566-3.2468,1.1145-4.7763.2287-.6379,1.253-.9906,1.9156-1.473Z"/><path d="M87.913,249.92c-2.118.65-3.437.317-3.882-1.8232a36.63,36.63,0,0,1-.9692-4.8293c-.0425-.6156.83-1.2944,1.2847-1.9444.4938.517,1.2254.9513,1.4389,1.5657C86.5762,245.1634,87.1961,247.4975,87.913,249.92Z"/><path d="M349.1652,137.5318c-.53,1.9209-.9378,3.68-1.5352,5.3712a1.9616,1.9616,0,0,1-1.3868.9508c-.3382.0517-1.1347-.5692-1.11-.83a43.9734,43.9734,0,0,1,.9478-6.4285c.1445-.58,1.312-.9063,2.01-1.3489Z"/><path d="M250.2233,270.1055c1.2659,2.0439,2.62,4.042,3.7351,6.1649.2733.52-.2315,1.4491-.3785,2.19-.754-.29-1.7355-.3749-2.2161-.91a15.84,15.84,0,0,1-2.9071-4.1517c-.3587-.8382.2431-2.0874.4118-3.1513Z"/><path d="M320.9075,248.8024c-.7418,2.23-1.3428,4.3208-2.17,6.318-.1993.4811-1.1467.6524-1.75.9661-.2633-.61-.8505-1.2928-.7329-1.8179a53.0072,53.0072,0,0,1,1.8338-6.2632,1.7075,1.7075,0,0,1,1.4988-.7774C320.0994,247.4067,320.4093,248.1637,320.9075,248.8024Z"/><path d="M332.71,199.9587a46.602,46.602,0,0,1-1.67,6.2291c-.2738.6593-1.6133.8763-2.4665,1.2951a9.4771,9.4771,0,0,1-.0576-2.19,28.0487,28.0487,0,0,1,1.3411-5.0156c.2426-.5945,1.2911-1.0007,2.045-1.1726C332.1775,199.0421,332.6646,199.9076,332.71,199.9587Z"/><path d="M228.5994,244.9663c1.92,1.77,3.8288,3.4906,5.6626,5.2876a1.32,1.32,0,0,1-.2249,1.1959c-.63.2428-1.5844.56-2.0048.2659a43.1234,43.1234,0,0,1-4.7957-3.9554,2.1293,2.1293,0,0,1-.2534-1.7648C227.0729,245.6513,227.7715,245.4658,228.5994,244.9663Z"/><path d="M332.8664,190.207c.9164-2.025,1.778-4.0851,2.8048-6.0594.1944-.374,1.063-.5791,1.5834-.5223.2472.027.6738.9319.5634,1.3041-.6626,2.2356-1.4,4.4554-2.27,6.6169-.1321.3281-1.1922.5814-1.632.4017C333.49,191.774,333.31,190.9969,332.8664,190.207Z"/><path d="M312.74,271.3758c.4653-2.2565.7592-4.2207,1.3169-6.1069.2064-.698,1.0326-1.2127,1.5761-1.811.3645.7188,1.0189,1.4327,1.0311,2.1574a28.2126,28.2126,0,0,1-.519,4.0816C315.8086,272.2454,314.9736,272.6139,312.74,271.3758Z"/><path d="M322.0384,240.5849c-2.2988-2.1023-1.7-8.1609.4189-8.9538.4394-.1645,1.9167.9207,1.8556,1.18C323.724,235.3034,322.9081,237.7425,322.0384,240.5849Z"/><path d="M347.3227,126.4618a30.9423,30.9423,0,0,1,.4081-5.4246c.1994-.7551,1.3025-1.2714,1.9971-1.8957.4.763,1.1728,1.55,1.1261,2.2844a25.4566,25.4566,0,0,1-1.0086,5.2754c-.13.4582-1.2391,1.1181-1.45.9833A3.9321,3.9321,0,0,1,347.3227,126.4618Z"/><path d="M342.7509,169.2688c-.7347,2.4132-1.2937,4.4312-1.997,6.3974a1.4737,1.4737,0,0,1-1.26.7139c-.47-.1536-1.1813-.8761-1.1051-1.19.5765-2.3711,1.28-4.7155,2.0686-7.0256a1.5411,1.5411,0,0,1,1.42-.3057A4.165,4.165,0,0,1,342.7509,169.2688Z"/><path d="M342.5291,158.1788a25.54,25.54,0,0,1,.6813-4.8526,2.4972,2.4972,0,0,1,2.0245-1.3013c1.1352.1643,1.51.9067.7024,2.201-.5725.9176-.2659,2.34-.6668,3.4207a16.0143,16.0143,0,0,1-1.7861,2.8681C343.0784,159.5217,342.6723,158.5288,342.5291,158.1788Z"/><path d="M128.3293,108.3118c2.5714.5261,4.6283.882,6.64,1.4089a1.8549,1.8549,0,0,1,1.0154,1.2943c.0587.3339-.5682,1.1445-.8481,1.1261a70.1435,70.1435,0,0,1-7.5587-.8091c-.5169-.091-.8556-1.1952-1.2765-1.8324Z"/><path d="M140.491,52.6621c1.974.6275,3.9658,1.2073,5.9061,1.9262a1.4406,1.4406,0,0,1,.662,1.25c-.1.3933-.775.9622-1.1309.9167a70.0651,70.0651,0,0,1-7.1679-1.2229c-.5836-.1373-.9848-1.05-1.47-1.6054.75-.3075,1.4912-.6409,2.2558-.9069a2.3309,2.3309,0,0,1,.82.0273Z"/><path d="M197.1512,116.2055a6.8215,6.8215,0,0,1-2.1831-.0471,11.5089,11.5089,0,0,1-2.2365-1.41c.7234-.5739,1.3836-1.5048,2.1834-1.6462a16.9045,16.9045,0,0,1,4.9266-.0917c.6451.0784,1.1878.9989,1.7771,1.5361-.5725.5453-1.06,1.3452-1.7392,1.5709a9.029,9.029,0,0,1-2.7283.0651Z"/><path d="M180.8079,112.9694a10.4579,10.4579,0,0,1,3.0206.072c.6875.2161,1.168,1.0905,1.7407,1.6718-.57.4639-1.16,1.344-1.7074,1.3183a48.8907,48.8907,0,0,1-6.461-.8172c-.4358-.08-.7552-.7967-1.1283-1.22.4973-.387.9511-1.0076,1.5013-1.11a16.8215,16.8215,0,0,1,3.0342-.0513Z"/><path d="M122.78,50.2654c2.4422.28,4.2886.372,6.0661.771a2.1024,2.1024,0,0,1,1.1164,1.7081c-.0351.5416-.934,1.5125-1.3554,1.4629a56.6453,56.6453,0,0,1-6.8928-1.3056,1.741,1.741,0,0,1-.4841-1.5274A5.471,5.471,0,0,1,122.78,50.2654Z"/><path d="M215.3113,115.8837c-1.5756,0-3.16.0892-4.721-.0623a1.6393,1.6393,0,0,1-.9836-1.2934c.0689-.5655.6261-1.4644,1.069-1.5247a60.6946,60.6946,0,0,1,6.53-.46,1.488,1.488,0,0,1,1.19.7749,2.0444,2.0444,0,0,1-.3674,1.7129,12.7189,12.7189,0,0,1-2.6162,1.2531Z"/><path d="M147.7367,114.0008a7.46,7.46,0,0,1-2.7253-.071c-.8263-.3516-1.4141-1.2637-2.106-1.931.7152-.4474,1.454-1.3048,2.1412-1.2653a41.8972,41.8972,0,0,1,6.1544.9636c.3723.078.923.8036.8584,1.1222-.1018.5014-.6014,1.2234-1.0291,1.2981a19.3793,19.3793,0,0,1-3.2944.0614Z"/><path d="M259.6222,112.1607c-.1618-.18-.6767-.7535-1.1916-1.3268a6.3485,6.3485,0,0,1,1.73-1.2454,23.312,23.312,0,0,1,5.0289-1.0015c.7135-.0392,1.4764.8231,2.2169,1.2756-.6188.6257-1.1524,1.6413-1.8735,1.7988A45.1236,45.1236,0,0,1,259.6222,112.1607Z"/><path d="M243.762,114.1482c-.3409-.4424-1.237-1.1036-1.2482-1.7795-.009-.5363,1.002-1.4487,1.6716-1.5679a28.812,28.812,0,0,1,5.4832-.3652c.5384.0084,1.1489.6187,1.5452,1.1018.11.134-.3561,1.0929-.6842,1.1763C248.5127,113.2263,246.46,113.5964,243.762,114.1482Z"/><path d="M240.3475,57.5016a12.1428,12.1428,0,0,1-2.7421.0994c-.5706-.1021-1.0464-.7338-1.5648-1.1281.4117-.4958.7835-1.3746,1.2417-1.4221a55.52,55.52,0,0,1,6.602-.2564c.4176.0065,1.2093.7954,1.1521,1.0935-.1061.5528-.6493,1.3536-1.1209,1.4386a20.3471,20.3471,0,0,1-3.5676.068Z"/><path d="M155.4654,54.8474a38.34,38.34,0,0,1,5.9886.5582c.7267.1877,1.1947,1.3772,1.78,2.1119a6.9867,6.9867,0,0,1-2.3631.8028,21.3893,21.3893,0,0,1-4.7815-.7645,7.4736,7.4736,0,0,1-2.079-1.5114Z"/><path d="M252.3108,54.157c2.3566-.448,4.7025-.9815,7.0779-1.2809.5618-.0709,1.2229.645,1.8383.999-.5492.5235-1.0142,1.3119-1.6642,1.5185a22.4745,22.4745,0,0,1-5.0095,1.057c-.8017.0625-1.6605-.608-2.4935-.9465Z"/><path d="M277.9917,52.7569c-2.5837.534-4.9937,1.1237-7.439,1.4377-.3625.0465-1.4185-1.421-1.2552-1.8259C270.09,50.4026,276.5158,50.4337,277.9917,52.7569Z"/><path d="M175.1021,59.246a21.1138,21.1138,0,0,1-3.535-.2218c-.503-.11-.8592-.891-1.282-1.3673.4645-.4094.9125-1.146,1.3965-1.17a29.8856,29.8856,0,0,1,5.724.15c.7239.1036,1.326,1.0593,1.9835,1.6268a11.1787,11.1787,0,0,1-2.11,1.0032,9.2088,9.2088,0,0,1-2.1765.0365Z"/><path d="M219.243,57.3035a22.8476,22.8476,0,0,1,7.564-1.4089,2.81,2.81,0,0,1,1.8645.993c.2049.2381-.2457,1.53-.4247,1.5358-2.8341.0893-5.6725.055-8.5091.0046C219.6306,58.4262,219.5314,57.9776,219.243,57.3035Z"/><path d="M191.7665,59.6611a17.0646,17.0646,0,0,1-3.2883-.0633,1.92,1.92,0,0,1-1.2465-1.3489c-.0237-.4214.7736-1.249,1.2439-1.2764a42.0811,42.0811,0,0,1,6.3229.0714c.4924.0457.8981,1.0231,1.3437,1.5719a5.5838,5.5838,0,0,1-1.6328.9469,15.5414,15.5414,0,0,1-2.7431.0422Z"/><path d="M276.1656,110.0166l-1.5927-1.2146a10.3751,10.3751,0,0,1,2.1731-1.365,18.3948,18.3948,0,0,1,4.4048-.9839c.755-.0528,1.56.616,2.3432.9586-.552.7333-.983,1.9216-1.6806,2.107A33.6441,33.6441,0,0,1,276.1656,110.0166Z"/><path d="M167.9345,115.1821c-2.4475-.1457-4.9027-.2233-7.336-.4958-.4744-.0531-.8641-.863-1.2929-1.3238.4417-.3531.8726-.9932,1.3269-1.01a38.5115,38.5115,0,0,1,6.3055.1346c.6481.0828,1.165,1.1916,1.742,1.8307Z"/><path d="M207.6463,59.4443a11.1981,11.1981,0,0,1-2.746-.0569c-.609-.1583-1.08-.8471-1.6126-1.2991.495-.4175.9571-1.14,1.4909-1.198a38.506,38.506,0,0,1,6.0453-.2236c.5547.028,1.0656.9245,1.5966,1.4225-.4866.4326-.9225,1.1381-1.47,1.24a18.35,18.35,0,0,1-3.3037.0582Z"/><path d="M229.4192,115.2712c-1.2564-.5536-3.6289-1.2259-3.5847-1.641.2521-2.3676,2.3572-1.0323,3.6781-1.3261a12.9432,12.9432,0,0,1,3.56-.2906c.5363.0328,1.0365.6563,1.5531,1.0117-.4626.543-.85,1.4379-1.4035,1.5555a17.452,17.452,0,0,1-3.5734.0735Z"/><path d="M222.35,282.0345a7.3034,7.3034,0,0,1-1.7964,1.2022c-3.839,1.1446-5.1811,4.117-5.6677,7.665-.7275,5.3038-5.5316,8.496-9.0683,9.1371-6.8415,1.24-10.4108-.5968-14.0268-5.7628-1.6779-2.3972-1.9581-4.8351-1.98-7.5258a26.6394,26.6394,0,0,0-.4214-4.3287c-.4859-2.7921,3.0436-6.969,5.8285-6.9925a11.98,11.98,0,0,0,2.7637-.8769c6.1915-1.7071,11.2981.0018,15.511,4.8084a2.6692,2.6692,0,0,0,2.3858.6916C220.027,277.9871,219.9966,277.9261,222.35,282.0345Zm-11.9415,5.15c-.01-4.5129-3.81-8.6923-7.88-8.4964-4.1332.199-7.7558,4.4113-7.9461,8.7705-.145,3.3237,4.1344,8.2212,8.2188,8.147C207.0493,295.5288,210.418,291.8623,210.408,287.1848Z"/><path d="M182.76,296.5394c.7886-2.3869,1.302-4.3172,2.1041-6.1191.2166-.4866,1.331-.8228,1.9888-.76.3352.0319.8341,1.1147.8041,1.6991a21.4717,21.4717,0,0,1-.735,5.4033c-.2276.7118-1.5646,1.3528-2.4617,1.4541C183.9653,298.2724,183.3368,297.1432,182.76,296.5394Z"/><path d="M203.129,303.2788a20.1856,20.1856,0,0,1,3.8356-2.0283,10.012,10.012,0,0,1,4.1176-.1582c.7.1024,1.29.9624,1.9289,1.48-.5657.6216-1.0925,1.7309-1.7039,1.78-2.54.2024-5.105.0851-7.6609.0851Z"/><path d="M208.3435,266.0887c-1.23,1.11-2.4387,2.2455-3.7006,3.3181a5.0237,5.0237,0,0,1-1.6343.97,14.3321,14.3321,0,0,1-2.2591.3744c.0323-.9373-.3154-2.304.1679-2.7315a23.3362,23.3362,0,0,1,4.9635-3.2489c.5671-.2859,1.5484.2495,2.34.4092Z"/><path d="M237.3094,299.7447c-1.7256-2.3834-1.5512-2.8674,1.2253-3.5348,1.4026-.3372,2.7627-.8823,4.1778-1.124a8.6111,8.6111,0,0,1,2.435.28c-.4443.8379-.6918,2.1375-1.37,2.4266A56.4786,56.4786,0,0,1,237.3094,299.7447Z"/><path d="M191.6027,304.8128a5.937,5.937,0,0,1-2.4327-.0694c-.6812-.34-1.078-1.25-1.5993-1.91.7025-.4062,1.4021-1.1469,2.1079-1.153a31.5343,31.5343,0,0,1,5.3863.5205c.5727.0949,1.0648.6757,1.5939,1.0341-.4986.5254-.927,1.3819-1.5107,1.5056A17.5238,17.5238,0,0,1,191.6027,304.8128Z"/><path d="M221.95,303.09l-1.7411-1.45a8.0256,8.0256,0,0,1,2.0043-1.5951,21.8011,21.8011,0,0,1,4.7483-1.1692c.7185-.0876,1.519.4984,2.2824.7788-.4308.722-.7121,1.8734-1.32,2.085A50.9849,50.9849,0,0,1,221.95,303.09Z"/><path class="cls-3" d="M290.3835,328.9771a10.9339,10.9339,0,0,1,1.1844,2.6992,1.7412,1.7412,0,0,1-2.3356,2.1039,3.0837,3.0837,0,0,1-1.7808-2.3331c.0129-.8827,1.081-1.75,1.6892-2.6241Z"/><path class="cls-3" d="M122.6241,328.6074c-2.2444-1.3949-2.7162-2.8764-1.2852-4.4879a1.8,1.8,0,0,1,1.6936-.3486C124.542,324.7643,124.31,326.88,122.6241,328.6074Z"/><path class="cls-3" d="M210.408,287.1848c.01,4.6775-3.3587,8.344-7.607,8.4211-4.0844.0742-8.3638-4.8233-8.2188-8.147.19-4.3592,3.8129-8.5715,7.9461-8.7705C206.5975,278.4925,210.3983,282.6719,210.408,287.1848Zm-7.5221,6.8429c3.7332-.0393,6.5233-3.1928,6.4825-7.3269-.0329-3.3321-3.7064-6.6577-7.1957-6.5142-3.3236.1367-5.8584,3.3963-5.9366,7.2733A6.0786,6.0786,0,0,0,202.8859,294.0277Z"/><path d="M202.8859,294.0277a6.0786,6.0786,0,0,1-6.65-6.5678c.0782-3.877,2.613-7.1366,5.9366-7.2733,3.4893-.1435,7.1628,3.1821,7.1957,6.5142C209.4092,290.8349,206.6191,293.9884,202.8859,294.0277Zm-3.6834-6.9665c-.0491,2.1732,1.5183,4.1827,3.32,4.2565,1.966.08,3.4005-1.6172,3.4523-4.0856.0468-2.229-1.5915-4.322-3.47-4.1049C200.3089,283.381,199.25,284.8634,199.2025,287.0612Z"/><path class="cls-3" d="M199.2045,287.0629c.0451-2.2,1.1044-3.6819,3.3-3.9357,1.8788-.2171,3.5171,1.8759,3.47,4.1049-.0518,2.4684-1.4863,4.166-3.4523,4.0856C200.7208,291.2439,199.1534,289.2344,199.2045,287.0629Z"/></svg>