<svg id="Layer_1" data-name="Layer 1" xmlns="http://www.w3.org/2000/svg" viewBox="0 0 400 400"><defs><style>.cls-1{fill:#192863;}.cls-2{fill:#fff;}.cls-3{fill:#e20c10;}.cls-4{fill:#c3c3c3;}</style></defs><title>Artboard 1</title><polygon class="cls-1" points="-99 416 504 416 504 137 423 150 389 143 11 142 -35 152 -99 137 -99 416"/><path class="cls-2" d="M310.4,348.53l1.36-.77c.89-2.42,1.72-4.86,2.7-7.25q4.25-10.35,8.6-20.66c1.88-4.49,3.8-9,5.7-13.45,1.69-4,3.44-8,5-12,1.86-4.73,3.49-9.54,5.4-14.25,2.71-6.65,5.62-13.22,8.35-19.87,1.82-4.45,3.39-9,5.22-13.43,2.52-6.14,5.27-12.18,7.76-18.32,2.7-6.68,5.32-13.4,7.81-20.17q4.57-12.47,8.83-25.06c1-3.07,1.69-6.28,2.49-9.43,2-7.89,4-15.79,6.09-23.66.18-.66,1.09-1.66,1.58-1.62a80.92,80.92,0,0,1,8.9,1.19c5.43,1.05,10.82,2.28,16.24,3.38,1.39.28,2.43-.19,2.41-1.85,0-1.31.64-2.73-1.64-3.15-5.64-1-11.23-2.38-16.85-3.58-3-.63-5.93-1.22-8.1-1.67-1.73-4-3-7.39-4.6-10.56a161.66,161.66,0,0,0-7.89-14.24c-5.32-8.22-10.94-16.25-16.51-24.31q-6.35-9.17-12.89-18.17C341.65,69.12,336.33,63,332,56.18c-5.79-9.16-14.6-13-24.42-15-10.47-2.06-21.1-.47-31.65,0a34.77,34.77,0,0,0-5.3.56c-8.37,1.7-16.67,3.91-25.11,5.12A268.26,268.26,0,0,1,218,49.3c-10.85.42-21.72.31-32.58.15-8.1-.12-16.2-.7-24.3-1-10.56-.42-20.83-2.72-31.19-4.53-7.51-1.32-15.2-1.72-22.83-2.25A60.41,60.41,0,0,0,80.78,46a31.74,31.74,0,0,0-11.56,7.37c-4.52,4.9-7.93,10.82-11.79,16.33q-6.18,8.8-12.32,17.66C41.59,92.4,38,97.43,34.57,102.54s-6.9,10-9.93,15.23c-3.7,6.39-8.43,12.2-10.66,19.41-.55,1.76-1.3,3.79-2.63,4.89s-3.42,1.26-5.22,1.65c-8.53,1.88-17.08,3.69-25.62,5.52-3,.64-6,1.29-9,1.88-2.57.5-1.7,2.57-1.78,4.06-.11,1.78,1.08,1.67,2.48,1.38,8.92-1.87,17.85-3.64,26.77-5.49,3.72-.77,7.41-1.74,11.15-2.39.81-.15,2.43.51,2.58,1.09,1.44,5.38,2.6,10.82,3.91,16.23,1,4.06,1.92,8.14,3.13,12.13,1.77,5.84,3.69,11.63,5.69,17.39,1.74,5,3.56,9.94,5.55,14.82,4.15,10.19,8.44,20.32,12.66,30.49q2.8,6.75,5.56,13.52c.8,2,1.43,4,2.3,6,2.53,5.66,5.24,11.24,7.69,16.93,3.76,8.74,7.37,17.54,11,26.32q5,12,10.07,24c1,2.48,2.1,4.94,3.14,7.41,1.7,4,3.38,8,5.1,12,.34.79,1,2.18,1.28,2.13a5.18,5.18,0,0,0,2.76-1.4c2.29-2.38,4.35-5,6.63-7.38q7.07-7.41,14.28-14.67c4.86-4.91,9.7-9.83,14.72-14.58q7.08-6.7,14.52-13c4.6-3.93,9.38-7.65,14.16-11.36,1.66-1.29,3.56-2.27,6-3.81,0,1.82,0,2.73,0,3.63q0,35.42.1,70.83c0,8.43,0,16.87,0,25.3,0,1.85.43,2.74,2.55,2.57,3.44-.28,3.72-.43,3.65-4.07-.29-14.43-.7-28.85-.83-43.28-.18-18.83-.12-37.66-.24-56.5a4.23,4.23,0,0,1,2.79-4.25,53,53,0,0,0,5.62-3c4.58-2.89,9.6-5.27,14.85-5.59,7.81-.47,15.85-1.7,23.48,1.7,4.2,1.86,8.68,3.2,12.64,5.47a149.75,149.75,0,0,1,15,10.07c7.41,5.52,14.87,11,21.84,17.08,8.73,7.6,17.05,15.68,25.4,23.71,5.09,4.9,9.93,10.08,14.8,15.2C306.59,343.91,308.45,346.27,310.4,348.53Z"/><path class="cls-2" d="M195.28,304.76l.25.71c3.07-1.09,6.36-1.8,9.17-3.35a11.41,11.41,0,0,0,3.77-16.67c-5.4-7.66-16.52-8.07-22.46-3.15-3,2.46-4.87,3.59-8.23,1.51-1.49-.93-2.74-.47-3.2,1.63-.67,3.08-1.09,2.81,3.58,4.77,1.41.59,2.76.87,2.88,2.84C181.47,299.82,187.5,305.38,195.28,304.76Z"/><path d="M310.4,348.53c-1.95-2.26-3.81-4.62-5.86-6.78-4.87-5.12-9.71-10.3-14.8-15.2-8.35-8-16.67-16.11-25.4-23.71-7-6.06-14.43-11.56-21.84-17.08a149.75,149.75,0,0,0-15-10.07c-4-2.27-8.44-3.61-12.64-5.47-7.63-3.4-15.67-2.17-23.48-1.7-5.25.32-10.27,2.7-14.85,5.59a53,53,0,0,1-5.62,3,4.23,4.23,0,0,0-2.79,4.25c.12,18.84.06,37.67.24,56.5.13,14.43.54,28.85.83,43.28.07,3.64-.21,3.79-3.65,4.07-2.12.17-2.56-.72-2.55-2.57.05-8.43,0-16.87,0-25.3q0-35.41-.1-70.83c0-.9,0-1.81,0-3.63-2.47,1.54-4.37,2.52-6,3.81-4.78,3.71-9.56,7.43-14.16,11.36q-7.43,6.31-14.52,13c-5,4.75-9.86,9.67-14.72,14.58s-9.57,9.73-14.28,14.67c-2.28,2.39-4.34,5-6.63,7.38a5.18,5.18,0,0,1-2.76,1.4c-.31.05-.94-1.34-1.28-2.13-1.72-4-3.4-8-5.1-12-1-2.47-2.1-4.93-3.14-7.41q-5-12-10.07-24c-3.68-8.78-7.29-17.58-11-26.32C56.74,271.57,54,266,51.5,260.33c-.87-1.95-1.5-4-2.3-6q-2.75-6.76-5.56-13.52c-4.22-10.17-8.51-20.3-12.66-30.49-2-4.88-3.81-9.84-5.55-14.82-2-5.76-3.92-11.55-5.69-17.39-1.21-4-2.15-8.07-3.13-12.13-1.31-5.41-2.47-10.85-3.91-16.23-.15-.58-1.77-1.24-2.58-1.09-3.74.65-7.43,1.62-11.15,2.39-8.92,1.85-17.85,3.62-26.77,5.49-1.4.29-2.59.4-2.48-1.38.08-1.49-.79-3.56,1.78-4.06,3-.59,6-1.24,9-1.88,8.54-1.83,17.09-3.64,25.62-5.52,1.8-.39,3.93-.56,5.22-1.65s2.08-3.13,2.63-4.89c2.23-7.21,7-13,10.66-19.41,3-5.23,6.53-10.2,9.93-15.23s7-10.14,10.54-15.2q6.15-8.84,12.32-17.66c3.86-5.51,7.27-11.43,11.79-16.33A31.74,31.74,0,0,1,80.78,46a60.41,60.41,0,0,1,26.27-4.34c7.63.53,15.32.93,22.83,2.25,10.36,1.81,20.63,4.11,31.19,4.53,8.1.33,16.2.91,24.3,1,10.86.16,21.73.27,32.58-.15a268.26,268.26,0,0,0,27.61-2.41c8.44-1.21,16.74-3.42,25.11-5.12a34.77,34.77,0,0,1,5.3-.56c10.55-.47,21.18-2.06,31.65,0,9.82,1.93,18.63,5.81,24.42,15,4.29,6.8,9.61,12.94,14.36,19.45q6.56,9,12.89,18.17c5.57,8.06,11.19,16.09,16.51,24.31a161.66,161.66,0,0,1,7.89,14.24c1.63,3.17,2.87,6.54,4.6,10.56,2.17.45,5.14,1,8.1,1.67,5.62,1.2,11.21,2.54,16.85,3.58,2.28.42,1.63,1.84,1.64,3.15,0,1.66-1,2.13-2.41,1.85-5.42-1.1-10.81-2.33-16.24-3.38a80.92,80.92,0,0,0-8.9-1.19c-.49,0-1.4,1-1.58,1.62-2.09,7.87-4.07,15.77-6.09,23.66-.8,3.15-1.45,6.36-2.49,9.43q-4.26,12.58-8.83,25.06c-2.49,6.77-5.11,13.49-7.81,20.17-2.49,6.14-5.24,12.18-7.76,18.32-1.83,4.44-3.4,9-5.22,13.43-2.73,6.65-5.64,13.22-8.35,19.87-1.91,4.71-3.54,9.52-5.4,14.25-1.6,4-3.35,8-5,12-1.9,4.48-3.82,9-5.7,13.45q-4.33,10.32-8.6,20.66c-1,2.39-1.81,4.83-2.7,7.25ZM97.27,136.76a12.43,12.43,0,0,0,.41,3q1.93,5.17,4.12,10.24c3,6.94,5.57,14.09,9.17,20.69a155.2,155.2,0,0,0,12.49,18.8C128,195.4,133,201,138,206.56c5.54,6.25,11.34,12.27,16.88,18.52,2,2.24,4.19,2.78,7,2.68,6.17-.21,12.36-.14,18.54-.18,19.47-.11,39-.18,58.42-.41a8.28,8.28,0,0,0,4.68-1.89,44.58,44.58,0,0,0,5-5.35q5.08-5.73,10.13-11.49c5.05-5.79,10.24-11.47,15.07-17.44,3.26-4,5.86-8.6,9-12.76,4.87-6.47,8.2-13.68,11-21.22,1.73-4.65,3.89-9.15,5.71-13.77,1-2.58,1.73-5.28,2.66-8.22-1.6.08-2.9.07-4.18.21-5.46.61-10.89,1.39-16.36,1.88-9.1.84-18.21,1.73-27.34,2.19-17.36.88-34.73,1.75-52.11,2.09-12.12.23-24.27-.22-36.39-.73-19.15-.82-38.28-1.92-57.42-2.95C104.71,137.52,101.14,137.1,97.27,136.76ZM164.42,233l0,.87c2.17,2.23,4.28,4.52,6.52,6.67,6.33,6.05,12.73,12,19.06,18.06,3.86,3.7,12.74,5,16.5,2.22a68.92,68.92,0,0,0,5.77-5Q221.16,247.43,230,239c2-1.89,3.81-3.93,5.76-5.95Zm55.19,23.47-.82,1c6.1,4.84,12.15,9.74,18.3,14.51,6.31,4.89,12.74,9.63,19.06,14.49s12.52,9.78,18.81,14.63,12.69,9.65,19,14.52,12.5,9.73,18.78,14.62c1.91-3.6,1.86-3.95-1-6.11q-5-3.82-10-7.62l-16.42-12.4c-6.44-4.85-12.91-9.66-19.34-14.52-7.32-5.54-14.59-11.15-21.92-16.68-5.47-4.13-10.94-8.27-16.53-12.24C225.13,259,223.07,256.26,219.61,256.49Zm96.17,66c1.37-2.64,1.63-4.17-1.2-5.51-2.51-1.19-4.56-3.35-6.84-5q-9.78-7.32-19.58-14.6c-5.88-4.35-11.76-8.69-17.69-13-8.54-6.15-17.15-12.19-25.67-18.35-5.73-4.13-11.34-8.41-17-12.58a6.5,6.5,0,0,0-2.52-1.08,1.77,1.77,0,0,0-1.54.7,1.87,1.87,0,0,0,.62,1.6c3.8,3,7.63,5.95,11.53,8.81,5.56,4.06,11.24,7.95,16.76,12.06,6.51,4.85,12.85,9.94,19.35,14.8,5.57,4.16,11.33,8.07,16.89,12.24,7.3,5.48,14.46,11.15,21.73,16.67C312.18,320.5,314,321.43,315.78,322.53Zm4.68-9.62c-.3-.66-.39-1.39-.81-1.72-1.13-.91-2.43-1.61-3.62-2.46-4.75-3.41-9.46-6.87-14.23-10.27-4.61-3.29-9.27-6.53-13.92-9.77-4.88-3.41-9.8-6.76-14.67-10.19s-9.52-6.84-14.3-10.22q-8.76-6.19-17.56-12.32c-3.67-2.56-7.33-5.14-11.08-7.58-.49-.31-1.47.13-2.22.23.21.69.21,1.62.67,2a57.06,57.06,0,0,0,5,3.88c4.73,3.31,9.59,6.45,14.25,9.85,6.56,4.79,13,9.83,19.5,14.64,6,4.39,12.12,8.6,18.16,12.93,4.47,3.21,8.89,6.49,13.33,9.73,5.76,4.2,11.51,8.43,17.32,12.57a3.87,3.87,0,0,0,2.64.85C319.52,315,319.9,313.76,320.46,312.91ZM177.77,255.2c-2.33,2-4.42,4.08-6.71,5.85-6.32,4.87-12.78,9.56-19.09,14.45s-12.57,10.07-18.92,15-12.67,9.72-19,14.58c-8.49,6.53-16.93,13.1-25.48,19.54-1.61,1.21-2.5,2.51-1.26,4.1.37.46,2.62.08,3.48-.59,8.17-6.33,16.23-12.81,24.33-19.23,6.2-4.91,12.43-9.78,18.63-14.7s12.6-10.07,18.89-15.12c4.27-3.42,8.5-6.89,12.79-10.29s8.31-6.59,12.58-9.73C179.92,257.69,179.89,256.66,177.77,255.2Zm145.48,49.95c-1.28-1.08-2.41-2.2-3.71-3.09-4-2.73-8.08-5.31-12.07-8.05-4.75-3.27-9.38-6.72-14.16-9.95s-10-6.39-14.92-9.74c-8.45-5.76-16.79-11.69-25.23-17.47-5.92-4.06-11.9-8-17.93-11.92-.71-.46-1.83-.29-2.76-.41.38.95.5,2.25,1.2,2.8,2.24,1.73,4.72,3.16,7.06,4.76q7.28,5,14.49,10c6.17,4.32,12.28,8.71,18.46,13,4.8,3.33,9.74,6.46,14.5,9.84,4.4,3.12,8.57,6.56,13,9.66,6.06,4.26,12.26,8.34,18.4,12.5.7.48,1.44.92,2.16,1.38C322.17,307.47,322.63,306.49,323.25,305.15Zm1-3.73c2-3.28,1.77-4.12-1.14-5.89s-6-3.57-8.87-5.53c-7.11-4.84-14.09-9.87-21.25-14.65-9.05-6.05-18.22-11.94-27.34-17.88-8.61-5.59-17.23-11.15-25.82-16.76-.95-.62-1.88-2.16-2.77-.42-.32.62.58,2.4,1.39,3,3.9,2.74,8,5.19,11.93,7.86,6,4,11.83,8.24,17.78,12.31,5.3,3.62,10.67,7.15,16,10.74q7.41,5,14.8,10.08c3.68,2.53,7.28,5.17,11,7.68C314.63,295.14,319.43,298.26,324.21,301.42ZM174.6,251.52c-1.27.73-2.25,1.19-3.1,1.81-2.65,1.94-5.24,4-7.89,5.9-4.6,3.36-9.28,6.6-13.83,10-6.45,4.86-12.77,9.88-19.2,14.75s-12.67,9.41-19,14.13c-8,5.93-15.85,11.93-23.86,17.77-4,2.88-4.13,2.91-2.71,6.5a11.22,11.22,0,0,0,2.45-1c4-3,8.08-6.05,12-9.16,7.14-5.59,14.18-11.32,21.37-16.85,8.34-6.4,16.84-12.6,25.22-19s16.91-12.83,25.16-19.5C172.62,255.78,175.49,255.18,174.6,251.52Zm-92.22,64c1.52-1.05,3.18-2.12,4.76-3.3,4.66-3.45,9.26-7,13.93-10.4,5.46-4,11-8,16.45-12,6.59-4.93,13.06-10,19.67-14.91,4.56-3.39,9.31-6.52,13.87-9.91,6.45-4.8,12.81-9.72,19.18-14.64a6.48,6.48,0,0,0,1.15-1.79c-.83-.21-1.77-.75-2.48-.54a9.94,9.94,0,0,0-2.69,1.77q-8.44,6.15-16.88,12.31c-6.78,5-13.51,10.05-20.32,15-7.78,5.67-15.62,11.27-23.43,16.91-7.65,5.53-15.22,11.17-23,16.55C80.3,312.15,80,313.38,82.38,315.49Zm157.53-78.44a14.71,14.71,0,0,0,1.69,1.52c3.16,2.06,6.36,4.05,9.51,6.13,4.72,3.12,9.38,6.35,14.13,9.45,6.66,4.36,13.39,8.6,20.06,13,6.06,3.95,12.07,8,18.11,12q8.4,5.54,16.83,11a33.18,33.18,0,0,0,5.15,3.17c.81.33,2.09-.47,3.16-.76-.35-.8-.49-1.92-1.1-2.34-5.29-3.62-10.65-7.12-16-10.62-4.44-2.91-8.91-5.75-13.36-8.64-4.76-3.1-9.48-6.27-14.28-9.31-5.34-3.38-10.8-6.57-16.12-10-7.47-4.78-14.81-9.76-22.31-14.5C243.94,236.21,242.13,234.91,239.91,237.05Zm91.83,48.06,1-1.28a9.3,9.3,0,0,1-2.47-.71c-5.36-3.36-10.63-6.85-16-10.18s-10.9-6.46-16.26-9.83c-7.74-4.86-15.36-9.93-23.1-14.79-7.42-4.66-14.93-9.19-22.43-13.75a46.15,46.15,0,0,0-5.53-3c-.56-.24-1.49.37-2.25.59.24.58.31,1.44.74,1.72q11.22,7.19,22.51,14.24c5.21,3.25,10.54,6.32,15.7,9.64,7.38,4.75,14.61,9.72,22,14.47,7.56,4.88,15.22,9.62,22.86,14.4.62.39,1.78,1,2,.84A8.5,8.5,0,0,0,331.74,285.11ZM78.6,308.49a4.62,4.62,0,0,0,1.34-.39c6.86-4.93,13.67-9.93,20.54-14.84,8.79-6.29,17.65-12.51,26.45-18.79q12.18-8.67,24.3-17.42c4.88-3.55,9.69-7.2,14.49-10.86a6.6,6.6,0,0,0,1.2-1.79c-1-.11-2.41-.71-3.06-.27-4.37,3-8.55,6.27-12.84,9.38-4.83,3.48-9.67,6.94-14.56,10.32-3.64,2.51-7.46,4.75-11.05,7.32-5.73,4.1-11.28,8.46-17,12.55-9.48,6.76-19,13.54-28.66,20C77.38,305.26,77.58,306.45,78.6,308.49Zm254.12-27.8c2.15-2.55,1.95-3.92-.84-5.45-.8-.45-1.66-.8-2.45-1.28-6.8-4.13-13.58-8.32-20.39-12.43-4.24-2.56-8.55-5-12.79-7.55-7-4.2-13.9-8.46-20.86-12.68-5.94-3.6-11.89-7.21-17.87-10.75a57,57,0,0,0-6.62-3.34c-.47-.2-1.36.56-2.05.88.42.59.71,1.39,1.28,1.74,5.4,3.33,10.86,6.56,16.28,9.85,5.79,3.52,11.56,7.09,17.34,10.63,5.32,3.26,10.67,6.46,16,9.77,6.53,4.07,13,8.24,19.5,12.33C323.63,275.17,328.09,277.85,332.72,280.69ZM76.33,301.85l9.13-6.41q7.53-5.32,15.08-10.64,8.77-6.17,17.58-12.27c3.62-2.51,7.31-4.91,10.92-7.42q9-6.28,18-12.64c4.78-3.4,9.54-6.8,14.23-10.32.58-.43.63-1.56.93-2.36-1,.09-2.05-.1-2.8.32-1.59.88-3,2.12-4.47,3.15-4.83,3.33-9.71,6.6-14.53,10-6,4.18-11.95,8.5-18,12.63-8.11,5.52-16.33,10.9-24.48,16.37-6.55,4.4-13,8.9-19.61,13.22C74.65,297.81,74.22,298.68,76.33,301.85ZM255,222.41l-2,1.2c.4.61.66,1.42,1.21,1.79,1.83,1.22,3.78,2.25,5.66,3.39,5.48,3.31,10.91,6.7,16.43,10,5.77,3.41,11.65,6.66,17.43,10.06s11.48,6.87,17.21,10.32c4.64,2.79,9.27,5.61,13.91,8.38,3,1.79,6,3.59,9.07,5.23.63.33,2.28.11,2.36-.18a4.5,4.5,0,0,0-.13-2.9c-.27-.62-1.23-1-1.92-1.38-3.11-1.78-6.27-3.48-9.36-5.29-4.74-2.78-9.42-5.66-14.15-8.44-4.2-2.45-8.46-4.79-12.66-7.24-7.21-4.19-14.4-8.43-21.6-12.64-4.9-2.87-9.8-5.74-14.72-8.57C259.65,224.86,257.44,223.72,255,222.41ZM157,235,71.26,291.7l2.48,2.79c6.46-4.28,12.74-8.4,19-12.56q7.69-5.12,15.33-10.32c6-4.13,12-8.34,18.11-12.44,3.81-2.57,7.76-4.92,11.57-7.49,6.43-4.36,12.73-8.92,19.25-13.15C159.07,237.18,158.42,236.43,157,235Zm101.9-17.15c-.51.46-1.21.8-1.32,1.27a1.86,1.86,0,0,0,.6,1.61c3.92,2.36,7.9,4.63,11.86,6.92q8.82,5.1,17.64,10.19c4.79,2.74,9.6,5.42,14.4,8.14,5.44,3.08,10.91,6.12,16.3,9.27q8.79,5.13,17.47,10.46c1.8,1.1,3.41,1,3.92-1,.2-.8-1.23-2.37-2.27-3.08-2.05-1.38-4.37-2.36-6.53-3.58-5.92-3.35-11.79-6.78-17.71-10.12-4.86-2.74-9.78-5.4-14.67-8.12Q289.8,235,281.06,230c-4.87-2.75-9.69-5.57-14.58-8.28C264.06,220.41,261.55,219.23,258.87,217.88ZM70.45,287.67c4-2.45,7.69-4.65,11.31-7,5.17-3.34,10.26-6.78,15.41-10.16,4-2.62,8-5.19,12-7.81q7.7-5,15.35-10.13c5.33-3.52,10.63-7.09,16-10.58,4-2.63,8-5.36,12.17-7.7,2.32-1.29,1.72-2.1.28-3.38-1.36.72-2.64,1.28-3.81,2-4.33,2.74-8.63,5.55-12.94,8.33q-6.11,4-12.23,7.9-6.37,4.09-12.77,8.16c-3.79,2.41-7.62,4.78-11.39,7.23-5.16,3.33-10.27,6.73-15.42,10.07-4.61,3-9.19,6-13.91,8.84C67.79,285.11,69,286.28,70.45,287.67ZM260.6,215.36l8.54,4.79c4.33,2.41,8.65,4.85,13,7.22,4.84,2.62,9.77,5.1,14.57,7.79,6,3.36,11.88,6.91,17.85,10.31q9.58,5.47,19.24,10.81a60.13,60.13,0,0,0,6.43,3.2,2.44,2.44,0,0,0,2.15-.94,2.23,2.23,0,0,0-.63-2.11c-4-2.4-8.11-4.65-12.2-6.92q-7.44-4.15-14.91-8.25c-4.59-2.51-9.23-5-13.81-7.5-4.9-2.71-9.75-5.53-14.65-8.23-6.49-3.58-13-7.16-19.56-10.6C264.78,214,262.6,212.44,260.6,215.36ZM111.56,48v84.51h3.36a12.77,12.77,0,0,0,.2-1.5q0-40.17.07-80.33C115.19,47.91,113.89,47.51,111.56,48Zm-3.2-.3c-2.38-.69-3.57-.32-3.41,2.21.11,1.76-.21,3.55-.21,5.32q0,36.52-.06,73c0,1,.09,2,.14,3.12h3.54ZM267.24,208.8,265,210.15c.32.49.52,1.17,1,1.42,4.25,2.34,8.54,4.62,12.84,6.88,6.35,3.35,12.74,6.64,19.09,10s12.93,6.94,19.36,10.47c4.82,2.64,9.59,5.39,14.4,8.06,3.37,1.87,6.73,3.78,10.21,5.44a3.28,3.28,0,0,0,3.06-.41c.92-1.18.2-2.31-1.2-3-3.93-2-7.81-4.08-11.69-6.16-6.6-3.53-13.18-7.11-19.79-10.62-3.35-1.79-6.78-3.43-10.13-5.22-5.09-2.7-10.13-5.48-15.2-8.21-3.78-2-7.54-4.1-11.36-6.06C272.83,211.35,270.05,210.13,267.24,208.8Zm-200,72.35c1.85-1,3.43-1.76,4.89-2.69,7.51-4.79,15-9.68,22.47-14.44,7.7-4.88,15.49-9.62,23.2-14.49q15.58-9.85,31.09-19.83c.5-.33.68-1.13,1-1.72-.66-.21-1.45-.77-1.94-.58a24,24,0,0,0-3.54,2c-7.42,4.55-14.83,9.12-22.26,13.65-9.18,5.59-18.41,11.1-27.56,16.76C85.7,265.35,77,271.19,68,276.45,65.14,278.1,66.14,279.19,67.22,281.15ZM271,203.75c-2.77,2.51-2.68,2.52.7,4s6.84,3.15,10.16,4.91c6.49,3.44,12.87,7.06,19.37,10.48s12.85,6.44,19.2,9.78c8.75,4.62,17.43,9.36,26.11,14,2.08-2.82,1.93-3.64-.82-5.06-.83-.42-1.75-.67-2.57-1.1-8.63-4.46-17.25-8.95-25.88-13.4-4.72-2.44-9.47-4.82-14.2-7.24L283,209.85C279,207.8,275,205.78,271,203.75Zm-123.82-69c0-7.76,0-15.32,0-22.89q0-28.35,0-56.7c0-1.43.13-3.14-2-2.75a2.84,2.84,0,0,0-1.6,2.18c-.07,25.82,0,51.65,0,77.47C143.48,134.38,144.53,135.29,147.15,134.74Zm9.42-80.67c-.06.77-.18,1.49-.18,2.21q0,38.06.11,76.11c0,3,.29,3.18,3.54,2.6a3.49,3.49,0,0,0,.18-.79q0-38.74-.08-77.51C160.14,54.07,158.78,53.79,156.57,54.07ZM64.71,274.19c5.16-3,10.18-5.89,15.1-8.9,5.54-3.4,11-7,16.5-10.42,5.78-3.58,11.64-7,17.44-10.58,4-2.44,8-5,12-7.41,6.26-3.84,12.55-7.63,18.77-11.52.46-.29.52-1.22.77-1.86-.58-.16-1.28-.62-1.72-.44a38.51,38.51,0,0,0-4.37,2.27c-4.46,2.56-8.94,5.08-13.33,7.75-5.78,3.52-11.44,7.24-17.23,10.74-6.44,3.89-13,7.61-19.46,11.43-7.43,4.38-14.82,8.83-22.26,13.18C63.39,270.47,63.05,271.16,64.71,274.19ZM257.39,133.32c0-.91.12-1.65.12-2.38q-.27-32.55-.55-65.09c0-4.4,0-8.8-.2-13.19,0-.72-1.27-1.38-1.95-2.07a9.3,9.3,0,0,0-1.67,2,5.84,5.84,0,0,0-.06,2.22c.24,25.35.52,50.7.67,76.05C253.77,133.67,255.09,133.71,257.39,133.32ZM351,236.62c-1.1-.59-2.05-1.14-3-1.62-5.46-2.67-11-5.26-16.39-8-5.26-2.63-10.43-5.46-15.69-8.08s-10.64-5.05-15.93-7.63c-8.12-4-16.19-8-24.34-11.93a2.4,2.4,0,0,0-2.11.9,2.21,2.21,0,0,0,.65,2.08c3.32,1.74,6.75,3.29,10.14,4.92,5.2,2.52,10.44,5,15.59,7.59,8,4.09,15.87,8.34,23.82,12.48,7.16,3.73,14.3,7.51,21.56,11C349.5,240.45,350.12,240.06,351,236.62ZM137.12,51a25.85,25.85,0,0,0-.33,2.92q0,27.72.07,55.44c0,2.31.45,4.61.5,6.93.09,5.28,0,10.58.18,15.86,0,.9,1.19,1.75,1.83,2.63.39-.93,1.11-1.87,1.11-2.8.06-25.76,0-51.52.08-77.27C140.56,52.3,139.66,51.29,137.12,51Zm113.54,82.63c0-.67.11-1.22.1-1.76q-.28-38.77-.58-77.55c0-1.44-.31-2.34-1.94-2.38s-2,1-1.93,2.36c.19,9.28.41,18.55.48,27.82q.19,24.51.2,49C247,133.72,248.19,134.14,250.66,133.58ZM142.4,219.83c-2.5-2.61-4.28-1-5.94-.06-3.18,1.8-6.24,3.85-9.41,5.69-4.37,2.54-8.83,4.94-13.2,7.48-5.78,3.37-11.49,6.86-17.27,10.23-6,3.48-12,6.83-18,10.33-5.38,3.15-10.66,6.5-16.05,9.64-3,1.74-3.08,1.79-.29,4.24Zm65.9-84.41c3.51.62,3.84.37,3.82-2.81-.05-8.79-.14-17.58-.17-26.37-.06-16.09-.08-32.19-.15-48.28,0-3.18-.69-3.67-3.5-3Zm143.06,97.67c.73-.57,1.69-1,2.08-1.76.17-.32-.69-1.54-1.33-1.88q-6-3.21-12.06-6.17c-5.55-2.72-11.14-5.36-16.71-8q-7.93-3.8-15.88-7.61c-4-1.94-8.08-3.91-12.13-5.84-5-2.39-9.95-4.82-15-7-.68-.3-1.84.49-2.78.77a8.34,8.34,0,0,0,1.62,2.33,22,22,0,0,0,3.09,1.27c5.69,2.82,11.35,5.7,17,8.53,3.88,1.94,7.79,3.81,11.67,5.75,4.89,2.44,9.75,4.93,14.64,7.36q8.65,4.31,17.35,8.54C345.6,230.57,348.31,231.72,351.36,233.09ZM297.75,45.74q.94,41.61,1.88,83.24c2.62.77,3.47-.21,3.28-2.43-.12-1.48-.34-3-.35-4.46q-.4-36.91-.72-73.82C301.82,45.55,300.65,45.08,297.75,45.74Zm-98.82,89.81a10.49,10.49,0,0,0,.14-1.21q-.07-28.78-.17-57.58c0-6.36-.17-12.73-.21-19.09,0-1.54-.05-2.83-2.16-2.7s-1.46,1.69-1.47,2.88c0,1.4,0,2.8,0,4.21q.45,35.63.88,71.26C196,135.32,196.41,136.46,198.93,135.55ZM354.49,227c2.57-2.43,2.67-3-.27-4.47-5.64-2.9-11.42-5.55-17.17-8.22-3.92-1.83-7.92-3.49-11.85-5.3q-11.25-5.21-22.45-10.51c-4.05-1.92-8-4-12.08-5.89a55.31,55.31,0,0,0-7.13-3c-.76-.23-1.88.69-2.84,1.07a8.25,8.25,0,0,0,1.44,1.7,18.35,18.35,0,0,0,2.86,1.56c2.66,1.25,5.35,2.46,8,3.72,5.15,2.46,10.27,5,15.44,7.41,3.81,1.8,7.69,3.46,11.5,5.28,7.39,3.51,14.75,7.09,22.12,10.65ZM269.27,48.24c-2.56-.56-3.38.29-3.31,2.69q.39,12.21.5,24.43c.13,17.89.16,35.78.23,53.67a8.74,8.74,0,0,0,.21,2.77,2.07,2.07,0,0,0,1.56,1.18,2.57,2.57,0,0,0,1.84-1.21,5.84,5.84,0,0,0,.16-2.49q-.54-26.49-1.08-53c-.1-4.78-.09-9.56-.11-14.33C269.26,57.4,269.27,52.82,269.27,48.24ZM98.46,89.3h-.1q0,19.67,0,39.32c0,1.2-.42,2.51,1.56,2.56s2.06-1,2.06-2.52c0-8,0-15.9.06-23.85q.06-27.24.11-54.47c0-1.37.36-3-1.85-3S98.47,49,98.47,50.26Q98.44,69.78,98.46,89.3Zm39.67,126.15c-2.17-2-3.34-1.83-5.82-.35q-10.5,6.28-21.15,12.35C105,231,98.79,234.32,92.61,237.77s-12.38,6.89-18.54,10.38c-4.8,2.72-9.6,5.43-14.3,8.31-3,1.84-2.92,2-.1,4.06Zm158.2-85.21q-.54-42.51-1.08-84.66c-3.33-.5-3.37-.51-3.63,2.16a34.61,34.61,0,0,0-.13,4.2c.45,14.66,1,29.32,1.36,44,.23,10.38.13,20.78.17,31.17,0,1,0,2,0,3.14ZM358,220.65c.33-2,2.52-3.46-1.06-4.87-6.47-2.57-12.7-5.76-19.05-8.63-3.77-1.71-7.61-3.26-11.39-4.94q-9.32-4.16-18.61-8.39c-4.26-1.94-8.47-4-12.76-5.89-2.78-1.22-5.64-2.27-8.53-3.21-.52-.17-1.32.54-2,.84.37.65.57,1.6,1.12,1.88,2.78,1.43,5.64,2.72,8.5,4,5.71,2.56,11.44,5,17.13,7.64,7.78,3.55,15.53,7.16,23.29,10.77,4.1,1.89,8.17,3.84,12.26,5.73C350.45,217.24,354,218.86,358,220.65Zm-97.74-87.78c3.22.86,3.91-.32,3.88-2.9-.23-17.49-.28-35-.54-52.48-.13-8.67-.56-17.35-1-26,0-.62-.93-1.21-1.43-1.8a18.75,18.75,0,0,0-1.55,1.79c-.16.25,0,.73,0,1.1.19,17.22.41,34.43.55,51.65C260.3,113.75,260.24,123.27,260.24,132.87Zm12.35-43.05h.65q0,9.53,0,19.06c0,7.12,0,14.23.11,21.34,0,.77.85,1.52,1.3,2.28.81-.8,1.65-1.58,2.42-2.42.14-.15,0-.54,0-.82-.31-10.72-.75-21.44-.91-32.17-.24-15.8-.27-31.61-.47-47.41,0-.83-.72-2.25-1.29-2.36-1.62-.3-1.84,1-1.84,2.36C272.61,63.06,272.59,76.44,272.59,89.82ZM188.48,55c0,.58-.11,1-.11,1.5,0,13.1,0,26.2.18,39.3.08,6.8.57,13.6.72,20.4.13,5.75,0,11.5.11,17.25,0,.81,1,1.61,1.5,2.41.5-.79,1.44-1.58,1.44-2.38,0-25.26-.13-50.53-.13-75.8C192.19,55,191.34,54.1,188.48,55Zm13.38,80.22c3.43,1.05,3.79.87,3.77-2.2-.09-14.41-.25-28.82-.34-43.23-.07-11-.07-21.9-.08-32.86,0-1.24-.11-2.28-1.7-2.26s-2.2.8-2,2.33a10.42,10.42,0,0,1,0,1.12c.11,15.91.26,31.81.34,47.72C201.9,115.7,201.86,125.52,201.86,135.26Zm85.55,46.28c1.16.54,2,1,3,1.36,4,1.69,8,3.29,12,5.06,6.22,2.77,12.36,5.7,18.58,8.46,4,1.79,8.21,3.3,12.25,5.1,4.36,1.93,8.6,4.11,12.94,6.08,4,1.83,8.18,3.42,12.18,5.32,1.14.55,1.9,1.38,2.53-.32.44-1.19,1.22-2.42-.84-3.11s-4.06-1.73-6.08-2.63c-6.22-2.77-12.41-5.6-18.66-8.31-4.32-1.88-8.74-3.51-13.05-5.39-6-2.6-11.92-5.37-17.92-8-4.87-2.12-9.81-4.11-14.79-6.19ZM214.81,54.76v80.6l4.13-.19c-.44-27-.86-53.68-1.29-80.41ZM56.13,254.08c5.63-3,11.18-5.87,16.64-8.89,7.46-4.15,14.83-8.45,22.28-12.61,6.11-3.4,12.31-6.65,18.43-10,6.35-3.5,12.66-7.08,19-10.67.46-.26,1.09-1,1-1.29a2,2,0,0,0-1.36-1.15,5.53,5.53,0,0,0-2.64.63c-7.14,3.82-14.27,7.66-21.36,11.58-8.84,4.89-17.61,9.9-26.46,14.76-8.23,4.52-16.46,9-24.82,13.31C54.07,251.1,55,252.29,56.13,254.08Zm97.7-159.75h-.36q0-19.1,0-38.19c0-1.4.48-3.3-1.91-3.26s-1.68,1.88-1.7,3.14c-.08,5.71-.08,11.41-.06,17.12q.12,29.48.27,59c0,1.68.19,3.09,2.26,3.06s1.48-1.78,1.48-2.92Q153.86,113.29,153.83,94.33Zm138.88,79.45c-.32.35-1.2.87-1.22,1.42a2.71,2.71,0,0,0,1,2.15c1.48.74,3.21,1,4.74,1.65,6.5,2.8,12.95,5.71,19.45,8.5,4.07,1.75,8.23,3.3,12.29,5.06,5.8,2.53,11.55,5.2,17.34,7.76,4.81,2.12,9.64,4.2,14.51,6.17.71.29,1.71-.17,2.57-.29-.24-1.12-.13-2.91-.77-3.24-3.27-1.66-6.73-3-10.13-4.36-4.28-1.75-8.59-3.43-12.85-5.21q-12.72-5.31-25.41-10.72c-4.74-2-9.46-4.07-14.21-6.06C297.78,175.66,295.45,174.83,292.71,173.78ZM130.19,205.33c-1.51-.25-2.48-.73-3.15-.46a78.15,78.15,0,0,0-7.28,3.46c-7.86,4.17-15.67,8.43-23.53,12.6-4.73,2.51-9.53,4.9-14.27,7.39q-8.33,4.34-16.6,8.75c-4,2.11-8,4.19-11.8,6.52-.66.4-.58,2-.83,3.07a6.9,6.9,0,0,0,2.44-.25c3.3-1.66,6.5-3.49,9.77-5.2,6.22-3.23,12.51-6.33,18.69-9.63,9.47-5.08,18.86-10.3,28.31-15.42,5.47-3,11-5.86,16.46-8.83C128.9,207.06,129.21,206.45,130.19,205.33Zm236.75-11.42a12.34,12.34,0,0,0,2.18-2.34c.17-.31-.54-1.55-1.09-1.78-4.19-1.71-8.43-3.28-12.66-4.87-4.59-1.73-9.21-3.35-13.76-5.17-6.4-2.56-12.72-5.31-19.12-7.87-7.43-3-14.91-5.82-22.37-8.71-.43-.16-1-.47-1.33-.32a16.63,16.63,0,0,0-2.33,1.44c.49.7.83,1.73,1.5,2.05,1.33.63,2.9.74,4.28,1.29,5.31,2.1,10.57,4.32,15.87,6.43,4.28,1.7,8.61,3.25,12.88,5,6.58,2.65,13.12,5.4,19.67,8.11l13.25,5.51ZM95.44,131.18V47.27c-1.29.91-2.72,1.41-2.77,2C92.3,54,92,58.74,92,63.47c0,4.57.5,9.15.53,13.73s-.28,8.88-.37,13.33c-.19,9.82-.51,19.64-.39,29.45,0,3.25,1.23,6.49,2,9.72C93.87,130.08,94.48,130.34,95.44,131.18Zm271.54,66c-.79-.38-1.58-.83-2.42-1.15-2.41-.94-4.87-1.76-7.26-2.75-7.06-2.9-14.07-5.91-21.14-8.79-4.1-1.67-8.3-3.11-12.4-4.76-8.61-3.47-17.18-7-25.79-10.48a6.89,6.89,0,0,0-3-.29c-.35,0-.86.72-.91,1.15a1.53,1.53,0,0,0,.68,1.27c5.33,2.28,10.68,4.54,16.05,6.72,4.46,1.81,9,3.41,13.43,5.27,6.26,2.63,12.41,5.5,18.67,8.12s12.65,4.77,18.75,7.64C364.31,200.41,365.92,201.18,367,197.23Zm-239.49-64v-2.82q0-29.37.05-58.73c0-6.65,0-13.3,0-20,0-1.91-.27-3.67-3.17-3.07v2.22q0,15.17,0,30.34,0,24.73-.06,49.46C124.33,132.58,124.73,133.83,127.49,133.23ZM371.7,183.71c-2.94-1.11-5.6-2.14-8.28-3.11-4.85-1.78-9.74-3.47-14.58-5.3-5.44-2-10.81-4.24-16.24-6.29-4.58-1.73-9.22-3.33-13.81-5-5.43-2-10.81-4.17-16.26-6.15a5.84,5.84,0,0,0-2.93.06,1.55,1.55,0,0,0-.87,1.22c0,.36.54.92,1,1.08q8.61,3.41,17.26,6.69c3,1.14,6.12,2.08,9.12,3.25,7.11,2.77,14.19,5.61,21.27,8.45,4.6,1.83,9.17,3.75,13.78,5.54,2.92,1.13,5.9,2.11,8.83,3.15ZM285.2,46.35c.52,28.28,1,56.36,1.55,84.45,1.64.15,3.16.62,3.09-1.93-.32-12.15-.62-24.3-.76-36.45-.16-14.5-.14-29-.2-43.51C288.86,45.39,288.86,45.39,285.2,46.35Zm17.35,105.16-1,.61c.48,1,.7,2.64,1.46,2.93,5.16,2,10.43,3.78,15.66,5.61,2.53.88,5.08,1.69,7.58,2.64q11.12,4.2,22.2,8.49c2.83,1.09,5.61,2.3,8.45,3.36,4.42,1.66,8.85,3.3,13.33,4.77.63.21,2.19-.47,2.25-.9.13-.9-.18-2.53-.76-2.77-4-1.66-8.08-3.09-12.17-4.5-5.33-1.84-10.71-3.5-16-5.39-8-2.86-15.93-5.83-23.87-8.8-2.82-1.06-5.57-2.34-8.41-3.35S305.46,152.4,302.55,151.51ZM237.78,93.8h-.56q0-18.83,0-37.65c0-1.37.44-3.29-2-3.21-2.18.07-1.83,1.77-1.78,3.12.26,7.55.71,15.1.82,22.66.24,17.33.3,34.66.52,52,0,1.46-1.17,4.07,1.19,4.14s1.78-2.6,1.79-4.23C237.8,118.34,237.78,106.07,237.78,93.8ZM51.11,241.16c1.22-.79,2.09-1.45,3-1.94,7.78-4,15.6-8,23.36-12.07s15.37-8.26,23.08-12.34c7.31-3.86,14.68-7.63,22-11.46,1-.53,3.1-.52,2-2.4-.31-.53-2.27-.13-3.47-.08a2.77,2.77,0,0,0-1,.46c-6.84,3.57-13.66,7.18-20.52,10.71-3.51,1.8-7.14,3.38-10.64,5.19-6.43,3.33-12.76,6.84-19.21,10.12s-13,6.4-19.48,9.68a2.2,2.2,0,0,0-1,1.89C49.6,239.74,50.45,240.37,51.11,241.16ZM279.8,131.34c2.94.28,4.32-.33,4-3-.33-2.86-.66-5.73-.75-8.6-.16-5.8-.19-11.6-.22-17.41-.06-9.07,0-18.15-.14-27.22s-.33-18-.43-26.93c0-1.86-.91-2.61-2.34-1.7-.75.49-1.05,2-1.11,3.16s.53,2.54.54,3.81q.25,26.94.42,53.87C279.84,115.28,279.8,123.22,279.8,131.34Zm25.61,14.51-2.12,1.7c.58.58,1.07,1.37,1.77,1.69,1.49.69,3.09,1.16,4.65,1.7,5.32,1.82,10.67,3.57,16,5.45,8,2.83,15.95,5.74,23.91,8.64,2.94,1.08,5.84,2.28,8.78,3.37,4.58,1.69,9.17,3.38,13.81,4.91.6.2,2.19-.62,2.19-.95,0-1-.35-2.6-1-2.85-4.81-1.85-9.72-3.45-14.61-5.09s-9.85-3.2-14.74-4.9c-6-2.09-11.95-4.3-17.91-6.48-2.76-1-5.46-2.14-8.23-3.09C313.88,148.56,309.82,147.29,305.41,145.85Zm-61-52.39H244c0-3.75,0-7.49,0-11.23-.08-9.17-.15-18.34-.33-27.5,0-.75-.76-2-1.35-2.13-1.3-.28-2.33.4-2.22,2,0,.84,0,1.69,0,2.53.33,12.79.69,25.57,1,38.36.12,5.8.1,11.6.13,17.4,0,6.55,0,13.1.1,19.65,0,.76.88,1.49,1.36,2.24a8.13,8.13,0,0,0,1.68-2.09,8.62,8.62,0,0,0,.09-2.79Zm61,49.14c3.21,1.2,6.34,2.42,9.5,3.54,8.71,3.1,17.41,6.2,26.16,9.2,5.5,1.89,11.08,3.57,16.62,5.38,2.53.83,5,1.76,7.56,2.64,3.11,1.1,6.2,2.27,9.35,3.22.52.15,1.9-.71,1.88-1-.06-1-.39-2.6-1-2.82-8.36-3-16.78-5.76-25.21-8.54-10.37-3.4-20.76-6.71-31.11-10.14-2.87-.94-5.59-2.37-8.48-3.2C309,140.35,306.61,138.7,305.41,142.6Zm-183.29,54-.41-1a14.89,14.89,0,0,0-3.75.33,65.24,65.24,0,0,0-6,2.74c-3.67,1.77-7.35,3.52-11,5.34-6.68,3.36-13.31,6.83-20,10.15-5.29,2.62-10.69,5-16,7.63-5.62,2.74-11.17,5.64-16.81,8.34-1.37.66-2.16,1.44-1.21,2.67a2.92,2.92,0,0,0,2.71.72c6.44-3.19,12.76-6.61,19.16-9.85,9.11-4.62,18.27-9.15,27.41-13.69,8.08-4,16.18-8,24.26-12A9.29,9.29,0,0,0,122.12,196.57Zm-77,31.19c.94-.33,1.49-.46,2-.7,6.2-3,12.42-6,18.59-9.05,9.65-4.78,19.23-9.7,28.91-14.41,7.32-3.56,14.77-6.87,22.1-10.4.51-.25.57-1.44.83-2.19-.66-.22-1.5-.84-2-.63-6.4,2.87-12.78,5.78-19.1,8.81-8.62,4.13-17.16,8.43-25.78,12.55s-17.07,8-25.55,12.09c-.61.3-.91,1.59-1,2.45C44.11,226.76,44.82,227.31,45.14,227.76ZM304.55,47.57c.32,25,.62,49.75.93,74.47l1.35.16c.78-3.7,2.19-7.4,2.22-11.11.1-13.74-.25-27.49-.48-41.23a4.65,4.65,0,0,0-.84-2.78c-1.68-1.88-.78-3.62-.14-5.47a13.65,13.65,0,0,0,1-3.58c.14-3.17,0-6.35,0-9.76ZM309.14,134c-2,1.92-2.08,2.79-.05,3.51,3,1.06,6,2,9,2.94,2.65.84,5.34,1.56,8,2.46,6.38,2.16,12.73,4.41,19.1,6.6,2.46.85,5,1.59,7.42,2.43q11.57,3.92,23.11,7.87c1.51.52,2.4.34,2.8-1.49s-.3-2.22-1.86-2.61c-3.41-.83-6.77-1.85-10.11-2.92-6.31-2-12.59-4.12-18.89-6.16-9.85-3.19-19.72-6.35-29.57-9.55C315.07,136.15,312.12,135.07,309.14,134ZM179.34,95.58h-.09q0-15.31,0-30.64c0-2.62.1-5.25-.13-7.86-.07-.8-1.1-1.52-1.69-2.28-.47.73-1,1.44-1.4,2.19-.12.21,0,.55,0,.83q.12,37.53.24,75c0,1.2-.56,2.86,1.64,2.81,2,0,1.41-1.64,1.42-2.71Q179.37,114.27,179.34,95.58Zm201,54c-1.72-.42-3.45-.73-5.11-1.25-8.44-2.65-16.86-5.38-25.31-8-6-1.87-12-3.58-18-5.44-3.27-1-6.46-2.25-9.72-3.27s-6.56-2-9.89-2.73c-.69-.16-1.61.66-2.43,1,.51.58.91,1.45,1.55,1.68,4.08,1.49,8.19,2.88,12.33,4.2,3.09,1,6.27,1.7,9.35,2.73,5.33,1.78,10.59,3.82,15.94,5.55,6,1.93,12,3.63,18,5.46a64.12,64.12,0,0,1,7.87,2.59C378.56,153.83,378.9,153.82,380.31,149.6Zm-266,37.49c-.43-.78-.68-1.65-1-1.66a8,8,0,0,0-3.48.4c-5.2,2.48-10.28,5.22-15.48,7.69-6.56,3.11-13.21,6-19.82,9L47.42,214.92a20.55,20.55,0,0,0-4.2,2.08c-.82.65-1.13,1.95-1.67,3a10.41,10.41,0,0,0,3.14.35,14.38,14.38,0,0,0,2.89-1.48c5.43-2.5,10.9-4.91,16.29-7.48,8.63-4.13,17.16-8.47,25.82-12.54,7.35-3.45,14.82-6.64,22.22-10A14.94,14.94,0,0,0,114.3,187.09ZM163,54.59V70.71q0,30.62.11,61.24c0,1.36-.88,3.46,1.84,3.53s1.86-2.06,1.83-3.4c-.18-10.55-.52-21.1-.67-31.65,0-3.05.58-6.11.55-9.17s-.71-5.91-.75-8.87c-.13-8.52-.1-17-.09-25.56C165.84,55.07,165.54,53.8,163,54.59Zm150.15,68c-.24.24-1.25.78-1.25,1.32a2.64,2.64,0,0,0,1.25,2.09c6.74,2.27,13.52,4.42,20.31,6.53,7.41,2.31,14.83,4.56,22.26,6.8,7.62,2.3,15.25,4.54,22.88,6.83,1.12.33,2.25.83,2.54-1,.21-1.32.49-2.47-1.44-3-4.27-1.16-8.45-2.65-12.72-3.86-9.08-2.57-18.21-5-27.29-7.58-3.53-1-7-2.36-10.49-3.44C324.1,125.75,319,124.29,313.17,122.59ZM231,54.2c-3-.28-4.6-.08-3.37,2.9a8,8,0,0,1,.11,2.78q.24,33.86.47,67.69c0,2.48,0,5,0,7.42,3.05.32,3.45-.09,3.1-2.85a23.65,23.65,0,0,1-.16-2.8L231,74C230.94,67.46,231,60.92,231,54.2ZM106.36,174.59c-2.24.88-4.14,1.56-6,2.37-6,2.67-12.06,5.45-18.14,8.07-4.24,1.83-8.6,3.38-12.84,5.2Q57.08,195.51,44.86,201c-3.22,1.44-6.33,3.09-9.5,4.65.07.44.13.87.19,1.31,1.17.16,2.45.71,3.48.4a57.53,57.53,0,0,0,7.19-2.86c5.71-2.57,11.35-5.29,17.08-7.81,6.08-2.67,12.27-5.08,18.35-7.76,7.92-3.49,15.74-7.23,23.69-10.65C107.75,177.22,107.47,176.17,106.36,174.59ZM221,94.74h.56c0,12.82,0,25.64.05,38.46,0,.74.87,1.46,1.33,2.19.51-.7,1.43-1.4,1.45-2.12.11-3.39-.07-6.79-.07-10.19q0-21.9,0-43.81c0-7.58-.06-15.17,0-22.75,0-1.53-.29-2.87-2.12-2.1-.64.27-1.07,1.75-1.08,2.68C221,69.66,221,82.2,221,94.74Zm160.08,44.68c-.44-3.5-2.4-4.93-5.14-5.6-4.69-1.15-9.38-2.26-14.05-3.44-3.05-.77-6.09-1.57-9.09-2.5-6-1.83-11.93-3.81-17.91-5.64q-6.88-2.1-13.84-4c-2.28-.62-4.63-1-6.95-1.48l-.66.81c.53.83.89,2.19,1.61,2.42,8.7,2.86,17.42,5.65,26.2,8.24,6.74,2,13.59,3.62,20.36,5.52,3.17.9,6.23,2.19,9.4,3.11S377.5,138.53,381.08,139.42ZM30.2,188.81c.36-.32.52-.58.76-.67q7.59-3,15.22-5.94c4.13-1.6,8.31-3.1,12.41-4.79,6-2.5,12-5.25,18-7.67,6.87-2.73,13.85-5.18,20.74-7.86,1-.4,3-.85,1.91-2.55-.38-.62-2.33-.8-3.29-.44-4.9,1.85-9.68,4-14.56,5.92-4.65,1.81-9.4,3.34-14,5.16-6.43,2.53-12.77,5.27-19.2,7.81-6.17,2.44-12.41,4.71-18.58,7.16a2.09,2.09,0,0,0-1.06,1.75C28.77,187.47,29.58,188.07,30.2,188.81Zm139.56-53.7c3.5.88,3.78.75,3.69-2.4-.08-3-.56-5.93-.58-8.89-.1-17.52-.1-35-.15-52.55,0-4.87,0-9.74-.21-14.61,0-.74-1-1.45-1.52-2.17a7.58,7.58,0,0,0-1.53,2.08,11.19,11.19,0,0,0-.09,3.07q.18,36.24.39,72.49ZM35.17,201.53c2-.92,3.75-1.76,5.52-2.52q13.38-5.67,26.76-11.3c9.7-4.08,19.42-8.11,29.11-12.23,2.36-1,4.64-2.2,6.89-3.42.41-.22.9-1.16.75-1.39a2.5,2.5,0,0,0-1.59-1.13,4.56,4.56,0,0,0-2.12.59C96.3,172,92.15,174,87.92,175.74c-4.58,1.94-9.25,3.67-13.85,5.57q-12.52,5.19-25,10.48-7.38,3.14-14.66,6.5c-.51.23-1.11,1.25-1,1.66C33.66,200.56,34.49,201,35.17,201.53Zm5.18,12.84c1.18-.4,2.09-.62,2.93-1,5.85-2.69,11.66-5.46,17.52-8.13,3.85-1.75,7.81-3.31,11.65-5.09,5.76-2.66,11.45-5.49,17.2-8.18,6.24-2.91,12.52-5.71,18.74-8.66a10.58,10.58,0,0,0,2.35-2.11,34.61,34.61,0,0,0-3.79-.43,4.51,4.51,0,0,0-1.8.67c-3.89,1.86-7.73,3.82-11.65,5.59-4.21,1.89-8.52,3.57-12.74,5.44-8.18,3.6-16.33,7.28-24.49,10.9-3.71,1.65-7.45,3.21-11.14,4.89a35.88,35.88,0,0,0-5.33,2.85c-.54.36-.7,1.54-.7,2.34C39.1,213.78,40,214.11,40.35,214.37Zm60-50.39c-3.67,1.35-7.09,2.49-10.41,3.84-8.36,3.39-16.67,6.92-25,10.31-4.62,1.88-9.34,3.53-14,5.43-6.13,2.51-12.19,5.22-18.33,7.71-1.3.53-2.32.95-1.71,2.51s1.66,1.25,2.89.73c7-3,14-6,21-8.82,6.76-2.75,13.62-5.28,20.38-8,8.55-3.49,17-7.08,25.55-10.7.57-.24.9-1.05,1.35-1.59Zm-4.46-11.17a22.76,22.76,0,0,0-2.27.56c-4.77,1.77-9.54,3.54-14.29,5.35-8.79,3.35-17.55,6.77-26.35,10.1-8.37,3.16-16.78,6.2-25.13,9.42a2.52,2.52,0,0,0-1.19,2.18c.22.85.76,1.59,2.4.93,7-2.85,14.2-5.29,21.31-7.92,4.34-1.61,8.68-3.23,13-4.94,5-2,9.85-4.13,14.83-6.07C84.1,160.1,90.1,158,96,155.64a2.48,2.48,0,0,0,1.17-1.79C97.25,153.53,96.23,153.07,95.87,152.81ZM24.33,172.06c-.13.31-.27.62-.4.92,1,.72,2.35,2.27,3.07,2,5.85-2,11.59-4.29,17.38-6.48,9.15-3.46,18.31-6.93,27.48-10.34,4.76-1.77,9.58-3.37,14.34-5.14a75.9,75.9,0,0,0,7.37-3.15c.61-.3.86-1.34,1.27-2.05-.82-.2-1.74-.73-2.46-.53-2.48.67-4.93,1.53-7.33,2.44-5.09,1.94-10.11,4.05-15.23,5.9S59.28,159.11,54.05,161c-7.89,2.82-15.74,5.78-23.6,8.7C28.4,170.44,26.37,171.26,24.33,172.06Zm109.76-38.65V100.89c0-11.32,0-22.64,0-34q0-7.44-.36-14.88c0-.66-.87-1.29-1.34-1.93-.52.68-1.06,1.34-1.52,2.05-.13.2,0,.55,0,.83q0,19.66.07,39.33,0,19.38.05,38.76C131,132.76,131.07,134.23,134.09,133.41ZM118.16,48.14c0,.62-.12,1.08-.12,1.53q0,30.19,0,60.38c0,6.93,0,13.85.08,20.78,0,.74.91,1.47,1.4,2.21.47-.7,1.36-1.39,1.37-2.09.11-16.94.13-33.88.16-50.82,0-6.78,0-13.57,0-20.35,0-3.21.08-6.42.07-9.63C121.08,48.39,120.28,47.52,118.16,48.14Zm-27,93.37c-1.05.28-1.7.4-2.3.63-5.62,2.09-11.2,4.28-16.84,6.27-6.69,2.37-13.44,4.57-20.16,6.85q-11.32,3.83-22.64,7.67a23.68,23.68,0,0,0-4.86,1.93c-.66.41-.82,1.77-1,2.74,0,.2,1,.93,1.37.82,2.38-.71,4.73-1.54,7.07-2.4,7.34-2.71,14.65-5.52,22-8.18,5-1.79,10-3.31,15-5.09,7.48-2.69,14.91-5.49,22.34-8.3a6.74,6.74,0,0,0,1.7-1.36C92.2,142.53,91.6,142,91.12,141.51ZM89,131.2c-1.1-.51-2-1.33-2.6-1.14-4.81,1.54-9.53,3.39-14.34,4.92-8.26,2.64-16.58,5.11-24.87,7.69-2.65.82-5.26,1.77-7.9,2.65-6,2-11.92,4-17.86,6-.72.24-1.84.59-1.93,1.06a3.24,3.24,0,0,0,.64,2.53c.34.36,1.57.07,2.31-.18,5.53-1.87,11-3.86,16.56-5.69s11-3.43,16.47-5.22c8.87-2.9,17.72-5.87,26.57-8.84,1.84-.61,3.66-1.29,5.44-2C87.93,132.75,88.19,132.18,89,131.2ZM21.41,159.38c.1,2.19.62,3.13,2.42,2a6.07,6.07,0,0,1,1.21-.63q11.57-3.9,23.15-7.76c2.73-.91,5.5-1.68,8.21-2.63,5.5-1.93,11-4,16.46-5.9,5.17-1.82,10.4-3.47,15.54-5.35,1-.38,2.88-1,1.81-2.7-.36-.55-2.22-.53-3.21-.21-3.4,1.09-6.7,2.53-10.09,3.66-5.44,1.81-10.94,3.41-16.37,5.24-8,2.7-16,5.54-24,8.28-4.62,1.58-9.29,3.05-13.9,4.67C22,158.29,21.63,159.13,21.41,159.38ZM182.51,55c0,3.2,0,5.86,0,8.51q.11,22.9.22,45.79c0,8,0,16.11.12,24.16,0,.78,1,1.55,1.59,2.32.49-.71,1.4-1.41,1.4-2.11q-.06-37.5-.26-75V55ZM86.58,126.18c0-.3.06-.61.08-.91-.76-.32-1.63-1-2.28-.88-1.68.4-3.24,1.31-4.91,1.81-6,1.82-12.1,3.56-18.16,5.33-2.74.8-5.52,1.5-8.23,2.39-5.72,1.88-11.38,3.91-17.11,5.75-5.37,1.73-10.8,3.23-16.14,5-.6.2-1,1.65-1,2.53,0,.3,1.49,1.1,2.06.92,6.61-2,13.18-4.26,19.76-6.41,2.72-.89,5.46-1.74,8.17-2.64q9.12-3,18.22-6.06t18.11-6A8,8,0,0,0,86.58,126.18Zm289.71,4.73L377,130c-1.28-1.2-2.35-2.95-3.87-3.5-4.33-1.57-8.82-2.7-13.27-3.92-5.54-1.53-11.11-2.92-16.64-4.47-7.93-2.21-15.83-4.52-23.75-6.73a28.78,28.78,0,0,0-3.74-.53l-.74.79c.7,1,1.19,2.5,2.14,2.87,2.73,1.1,5.66,1.73,8.51,2.56,7.53,2.2,15,4.47,22.61,6.58,8.38,2.35,16.8,4.57,25.2,6.81A27.87,27.87,0,0,0,376.29,130.91Zm-357,9.86c1.51-.31,2.79-.48,4-.85,9-2.77,18-5.62,27.07-8.37,8.69-2.65,17.4-5.2,26.1-7.79a70.12,70.12,0,0,0,6.86-2.18c.57-.24.8-1.56.92-2.42,0-.21-1.14-.93-1.57-.8-5.44,1.72-10.82,3.66-16.28,5.33-7.78,2.39-15.6,4.64-23.42,6.89-6.49,1.87-13,3.59-19.5,5.56C21.55,136.73,19.27,137.39,19.31,140.77ZM23.23,133c1.72-.6,3.1-1.14,4.51-1.56q15.18-4.5,30.36-9c7.82-2.29,15.65-4.52,23.44-6.88.68-.2,1.13-1.17,1.68-1.79-.84-.36-1.77-1.16-2.51-1-2.15.45-4.2,1.34-6.32,2q-12.15,3.48-24.31,6.88c-6.68,1.87-13.45,3.45-20,5.61C27.44,128.1,23.69,128.2,23.23,133ZM371.4,122.43c-.78-3.4-1.85-4.24-4.89-4.85-4.45-.9-8.88-1.93-13.26-3.12-6.68-1.81-13.3-3.86-20-5.73q-7.21-2-14.48-3.76c-.63-.15-1.45.49-2.19.76.39.86.57,2.26,1.2,2.5a79.41,79.41,0,0,0,7.65,2.31c4.89,1.38,9.77,2.79,14.69,4.09q14.66,3.87,29.34,7.62A12.52,12.52,0,0,0,371.4,122.43Zm-290.13-16a27.21,27.21,0,0,0-3.54.56c-8.69,2.56-17.34,5.25-26.05,7.73-6.59,1.87-13.27,3.43-19.88,5.23A4.75,4.75,0,0,0,28,124.2a30.49,30.49,0,0,0,3-.52c5.16-1.44,10.3-3,15.45-4.38,3.31-.92,6.64-1.72,9.94-2.65,7.65-2.14,15.27-4.41,22.94-6.45C81.59,109.62,82.21,108.68,81.27,106.42Zm284.56,8.06c-.18-2.25-1-3.82-3-4.36-5.45-1.43-10.92-2.78-16.39-4.16l-10.22-2.6c-5.46-1.39-10.91-2.84-16.4-4.12-.55-.13-1.33.72-2,1.12.5.63.88,1.64,1.5,1.83,3.1.93,6.28,1.59,9.4,2.42q11.9,3.18,23.77,6.41c1.41.38,2.8.82,4.22,1.18C359.66,113,362.65,113.69,365.83,114.48ZM80,100.88a12.63,12.63,0,0,0-1.54.17c-6,1.57-12,3.19-18,4.71-7.36,1.86-14.74,3.62-22.11,5.45a8.82,8.82,0,0,0-5.81,4.6,32.29,32.29,0,0,0,3.55-.51c5.09-1.36,10.15-2.8,15.24-4.17,8.94-2.39,17.87-4.82,26.84-7.07C80.1,103.6,80.58,102.84,80,100.88Zm280.26,5.4c.3-.34.6-.67.89-1-1.3-1.19-2.42-3.06-3.93-3.47-6.89-1.85-13.9-3.24-20.84-4.9-5.11-1.22-10.17-2.67-15.3-3.86-.72-.17-1.66.57-2.5.89.6.91,1,2.41,1.82,2.62,4.93,1.3,9.95,2.24,14.91,3.44,3.67.89,7.28,2,10.95,3C351,104.12,355.64,105.17,360.3,106.28Zm-323,1.4a10.25,10.25,0,0,0,2.52.11c3.73-1,7.41-2.25,11.16-3.23,9-2.34,18-4.55,26.92-6.9.56-.15.94-1,1.4-1.57-.53-.38-1.09-1.13-1.6-1.09a28.06,28.06,0,0,0-5,.84C65.83,97.62,59,99.56,52,101.26,47,102.5,41.61,102.84,37.31,107.68Zm89,197.59-.47-.63-14.91,12c-6.16,4.94-12.3,9.9-18.51,14.77-2.21,1.74-2.53,3.31-.46,6.2Q109.14,321.38,126.27,305.27ZM355.92,98.75c-1.33-3.29-3.12-4.82-5.82-5.43-9.56-2.15-19.1-4.4-28.69-6.45-.65-.14-1.59,1-2.4,1.61.48.65.86,1.72,1.46,1.86,4.6,1.08,9.24,2,13.87,2.94.45.09.92.15,1.37.26ZM89.07,69.83c-2.87,1-2.84,3.13-2.9,5-.16,5-.25,10.11-.08,15.15.2,5.87.64,11.73,1.12,17.58.1,1.11.91,2.16,1.4,3.23l.46-.23Zm.12-19.56c-4.78.47-8.84,1.52-12.24,4.55,2.55-.06,5-.54,7.51-.72.85-.06,1.75.66,2.64,1-.77.6-1.46,1.58-2.31,1.75-3.62.75-7.3,1.24-10.94,1.87-1.9.33-3.13,1.32-3.17,3.39,3.74-.46,7.36-.75,10.92-1.41,1.4-.25,2.66-1.3,4-2l1,5.75c1.14-1.25,2.44-2,2.49-2.87C89.33,58,89.19,54.36,89.19,50.27ZM44.09,99.56c1.17-.15,1.73-.17,2.26-.29,5.75-1.39,11.5-2.82,17.26-4.2,4.26-1,8.55-1.87,12.77-3,.75-.2,1.21-1.47,1.8-2.25a11.43,11.43,0,0,0-2.21-1A4.51,4.51,0,0,0,74,89c-4.35,1.15-8.68,2.38-13,3.49s-8.66,2-13,3.07C46.07,96.05,44.86,97.21,44.09,99.56Zm305.56-9.18c.19-.3.38-.6.58-.9-1.27-1.11-2.36-2.78-3.83-3.22-4-1.2-8.11-1.91-12.2-2.75s-8.35-1.71-12.56-2.42c-.54-.09-1.23.67-1.85,1,.45.57.8,1.52,1.35,1.66,8.6,2.2,17.22,4.31,25.84,6.39A15.69,15.69,0,0,0,349.65,90.38Zm-40.6,247.07c2.81-3.68,2.75-3.9-.63-6.4-2.56-1.9-5.05-3.9-7.55-5.89-5.79-4.6-11.56-9.22-17.35-13.8-.1-.08-.44.13-.93.29ZM48.9,90.57l.3,1a4.85,4.85,0,0,0,1.7.32C57,90.52,63,89.09,69,87.66c2.6-.61,5.23-1.11,7.76-2,.6-.19.84-1.51,1.24-2.31-.63-.27-1.34-.88-1.87-.76-7.45,1.77-14.89,3.58-22.29,5.54A29.5,29.5,0,0,0,48.9,90.57ZM319.2,74.16l-.76,1.09c.54.74.93,1.93,1.63,2.16,2.45.78,5,1.24,7.5,1.79,2.69.6,5.39,1.17,8.08,1.75l9,1.93c-1.13-1.57-1.74-3.34-2.86-3.78a55.89,55.89,0,0,0-8.3-2c-1.45-.32-2.93-.48-4.38-.78C325.79,75.59,322.5,74.87,319.2,74.16ZM79.79,76.9A9,9,0,0,0,78,76.54c-6.39,1.17-12.83,2.17-19.14,3.67-1.43.34-4.11.93-3.8,4,7.8-1.69,15.32-3.27,22.8-5C78.5,79,78.93,77.94,79.79,76.9Zm259-1.62c-1.16-3.49-3.11-4.54-5.79-4.92s-5.42-1.16-8.15-1.59-5.3-.58-8.55-.93c1.09,2.51,2.33,3.74,4.43,4.06,3.23.48,6.47.91,9.69,1.5C332.92,73.86,335.42,74.53,338.75,75.28Zm-5-7.43c-1.65-2.85-3-4.52-5.9-4.41a25.64,25.64,0,0,1-5.53-.76c-3.51-.63-7-1.32-10.51-2l-.53,1.18c1,.71,1.86,1.78,2.94,2.07,3.38.88,6.84,1.49,10.27,2.17C327.36,66.67,330.21,67.19,333.77,67.85Zm-252.4,1.6c-6.47,1.3-12.65,2.45-18.77,3.83-1.1.25-2,1.46-3,2.22l.57.89a13.15,13.15,0,0,0,2.35,0c3.93-.75,8-1.19,11.71-2.49C76.67,73.06,80.25,74,81.37,69.45ZM163.5,274.17l.46.53c4.34-2.51,8.75-4.9,13-7.59a43,43,0,0,0,6.33-5.2c.41-.39.06-1.58.06-2.4a6.09,6.09,0,0,0-2.17.58c-3.49,2.64-6.92,5.37-10.34,8.1C168.36,270.16,165.94,272.17,163.5,274.17ZM312.81,72.57l-.78.07V96.71l.88,0A65.79,65.79,0,0,0,312.81,72.57ZM64.91,69.63c1.82-.45,3.29-.85,4.77-1.15,3.63-.73,7.29-1.34,10.9-2.16.73-.17,1.29-1.08,1.92-1.65-.79-.35-1.66-1.1-2.37-1-3.27.54-6.47,1.5-9.75,2C68,66,66.15,66.75,64.91,69.63Zm262.46-9,.6-.85c-1-.95-1.78-2.45-2.91-2.73-3.94-1-8-1.57-12-2.2a1.76,1.76,0,0,0-1.53.71,1.82,1.82,0,0,0,.48,1.69,8.24,8.24,0,0,0,3,1.27c2.67.44,5.38.61,8.06,1C324.52,59.78,325.93,60.27,327.37,60.64Zm-98.64,209.7.5-.57a10.41,10.41,0,0,0-1.42-1.6c-3.28-2.48-6.58-4.95-9.94-7.33a6.6,6.6,0,0,0-2.21-.6c.15,1,0,2.48.5,2.82C220.27,265.62,224.52,267.94,228.73,270.34Zm93-216.72c-3-4.22-7.54-4-12.38-5.17C312.48,54.31,318.1,51.34,321.75,53.62Z"/><path d="M195.28,304.76c-7.78.62-13.81-4.94-14.24-11.71-.12-2-1.47-2.25-2.88-2.84-4.67-2-4.25-1.69-3.58-4.77.46-2.1,1.71-2.56,3.2-1.63,3.36,2.08,5.27.95,8.23-1.51,5.94-4.92,17.06-4.51,22.46,3.15a11.41,11.41,0,0,1-3.77,16.67c-2.81,1.55-6.1,2.26-9.17,3.35Zm1.13-16.25c-3-.06-4.41,1.11-4.39,3.26a3.36,3.36,0,0,0,3.57,3.73,3.56,3.56,0,0,0,4-3.71C199.54,289.43,198.15,288.5,196.41,288.51Zm3.94,9.31c3.47-1.31,5.07-3.77,4.74-6.88a5.13,5.13,0,0,0-3.68-4.25C204.11,292.83,204,292.85,200.35,297.82ZM190,296.94c-2.48-3.54-1.63-6.88.09-10.26-2.5,1-2.86,3-2.83,5.1S187.33,295.93,190,296.94Z"/><path class="cls-1" d="M97.27,136.76c3.87.34,7.44.76,11,1,19.14,1,38.27,2.13,57.42,2.95,12.12.51,24.27,1,36.39.73,17.38-.34,34.75-1.21,52.11-2.09,9.13-.46,18.24-1.35,27.34-2.19,5.47-.49,10.9-1.27,16.36-1.88,1.28-.14,2.58-.13,4.18-.21-.93,2.94-1.64,5.64-2.66,8.22-1.82,4.62-4,9.12-5.71,13.77-2.81,7.54-6.14,14.75-11,21.22-3.13,4.16-5.73,8.72-9,12.76-4.83,6-10,11.65-15.07,17.44q-5,5.76-10.13,11.49a44.58,44.58,0,0,1-5,5.35,8.28,8.28,0,0,1-4.68,1.89c-19.47.23-39,.3-58.42.41-6.18,0-12.37,0-18.54.18-2.84.1-5-.44-7-2.68-5.54-6.25-11.34-12.27-16.88-18.52-5-5.59-10-11.16-14.51-17.12A155.2,155.2,0,0,1,111,170.64c-3.6-6.6-6.19-13.75-9.17-20.69q-2.17-5.07-4.12-10.24A12.43,12.43,0,0,1,97.27,136.76Z"/><path class="cls-1" d="M164.42,233h71.35c-2,2-3.78,4.06-5.76,5.95q-8.85,8.47-17.79,16.83a68.92,68.92,0,0,1-5.77,5c-3.76,2.81-12.64,1.48-16.5-2.22-6.33-6.05-12.73-12-19.06-18.06-2.24-2.15-4.35-4.44-6.52-6.67Z"/><path class="cls-3" d="M219.61,256.49c3.46-.23,5.52,2.48,8,4.22,5.59,4,11.06,8.11,16.53,12.24,7.33,5.53,14.6,11.14,21.92,16.68,6.43,4.86,12.9,9.67,19.34,14.52l16.42,12.4q5,3.79,10,7.62c2.82,2.16,2.87,2.51,1,6.11-6.28-4.89-12.5-9.78-18.78-14.62s-12.69-9.65-19-14.52-12.51-9.79-18.81-14.63-12.75-9.6-19.06-14.49c-6.15-4.77-12.2-9.67-18.3-14.51Z"/><path class="cls-3" d="M315.78,322.53c-1.78-1.1-3.6-2-5.2-3.25-7.27-5.52-14.43-11.19-21.73-16.67-5.56-4.17-11.32-8.08-16.89-12.24-6.5-4.86-12.84-9.95-19.35-14.8-5.52-4.11-11.2-8-16.76-12.06-3.9-2.86-7.73-5.82-11.53-8.81a1.87,1.87,0,0,1-.62-1.6,1.77,1.77,0,0,1,1.54-.7,6.5,6.5,0,0,1,2.52,1.08c5.7,4.17,11.31,8.45,17,12.58,8.52,6.16,17.13,12.2,25.67,18.35,5.93,4.27,11.81,8.61,17.69,13q9.82,7.26,19.58,14.6c2.28,1.7,4.33,3.86,6.84,5C317.41,318.36,317.15,319.89,315.78,322.53Z"/><path class="cls-3" d="M320.46,312.91c-.56.85-.94,2.06-1.54,2.18a3.87,3.87,0,0,1-2.64-.85c-5.81-4.14-11.56-8.37-17.32-12.57-4.44-3.24-8.86-6.52-13.33-9.73-6-4.33-12.17-8.54-18.16-12.93-6.55-4.81-12.94-9.85-19.5-14.64-4.66-3.4-9.52-6.54-14.25-9.85a57.06,57.06,0,0,1-5-3.88c-.46-.41-.46-1.34-.67-2,.75-.1,1.73-.54,2.22-.23,3.75,2.44,7.41,5,11.08,7.58q8.79,6.14,17.56,12.32c4.78,3.38,9.52,6.84,14.3,10.22s9.79,6.78,14.67,10.19c4.65,3.24,9.31,6.48,13.92,9.77,4.77,3.4,9.48,6.86,14.23,10.27,1.19.85,2.49,1.55,3.62,2.46C320.07,311.52,320.16,312.25,320.46,312.91Z"/><path class="cls-3" d="M177.77,255.2c2.12,1.46,2.15,2.49.24,3.89-4.27,3.14-8.43,6.44-12.58,9.73s-8.52,6.87-12.79,10.29q-9.44,7.58-18.89,15.12c-6.2,4.92-12.43,9.79-18.63,14.7-8.1,6.42-16.16,12.9-24.33,19.23-.86.67-3.11,1-3.48.59-1.24-1.59-.35-2.89,1.26-4.1,8.55-6.44,17-13,25.48-19.54,6.33-4.86,12.71-9.67,19-14.58s12.56-10.1,18.92-15,12.77-9.58,19.09-14.45C173.35,259.28,175.44,257.24,177.77,255.2Z"/><path class="cls-3" d="M323.25,305.15c-.62,1.34-1.08,2.32-1.54,3.3-.72-.46-1.46-.9-2.16-1.38-6.14-4.16-12.34-8.24-18.4-12.5-4.4-3.1-8.57-6.54-13-9.66-4.76-3.38-9.7-6.51-14.5-9.84-6.18-4.29-12.29-8.68-18.46-13q-7.22-5-14.49-10c-2.34-1.6-4.82-3-7.06-4.76-.7-.55-.82-1.85-1.2-2.8.93.12,2.05-.05,2.76.41,6,3.91,12,7.86,17.93,11.92,8.44,5.78,16.78,11.71,25.23,17.47,4.91,3.35,10,6.41,14.92,9.74s9.41,6.68,14.16,9.95c4,2.74,8.08,5.32,12.07,8.05C320.84,303,322,304.07,323.25,305.15Z"/><path class="cls-3" d="M324.21,301.42c-4.78-3.16-9.58-6.28-14.32-9.49-3.7-2.51-7.3-5.15-11-7.68q-7.38-5.08-14.8-10.08c-5.32-3.59-10.69-7.12-16-10.74-5.95-4.07-11.82-8.26-17.78-12.31-3.93-2.67-8-5.12-11.93-7.86-.81-.57-1.71-2.35-1.39-3,.89-1.74,1.82-.2,2.77.42,8.59,5.61,17.21,11.17,25.82,16.76,9.12,5.94,18.29,11.83,27.34,17.88,7.16,4.78,14.14,9.81,21.25,14.65,2.88,2,5.9,3.71,8.87,5.53S326.17,298.14,324.21,301.42Z"/><path class="cls-3" d="M174.6,251.52c.89,3.66-2,4.26-3.33,5.36-8.25,6.67-16.71,13.08-25.16,19.5s-16.88,12.57-25.22,19c-7.19,5.53-14.23,11.26-21.37,16.85-4,3.11-8,6.15-12,9.16a11.22,11.22,0,0,1-2.45,1c-1.42-3.59-1.24-3.62,2.71-6.5,8-5.84,15.91-11.84,23.86-17.77,6.32-4.72,12.7-9.37,19-14.13s12.75-9.89,19.2-14.75c4.55-3.42,9.23-6.66,13.83-10,2.65-1.93,5.24-4,7.89-5.9C172.35,252.71,173.33,252.25,174.6,251.52Z"/><path class="cls-3" d="M82.38,315.49c-2.38-2.11-2.08-3.34.24-4.95,7.75-5.38,15.32-11,23-16.55,7.81-5.64,15.65-11.24,23.43-16.91,6.81-5,13.54-10,20.32-15q8.41-6.18,16.88-12.31a9.94,9.94,0,0,1,2.69-1.77c.71-.21,1.65.33,2.48.54a6.48,6.48,0,0,1-1.15,1.79c-6.37,4.92-12.73,9.84-19.18,14.64-4.56,3.39-9.31,6.52-13.87,9.91-6.61,4.9-13.08,10-19.67,14.91-5.44,4.06-11,8-16.45,12-4.67,3.44-9.27,6.95-13.93,10.4C85.56,313.37,83.9,314.44,82.38,315.49Z"/><path class="cls-3" d="M239.91,237.05c2.22-2.14,4-.84,5.46.06,7.5,4.74,14.84,9.72,22.31,14.5,5.32,3.41,10.78,6.6,16.12,10,4.8,3,9.52,6.21,14.28,9.31,4.45,2.89,8.92,5.73,13.36,8.64,5.36,3.5,10.72,7,16,10.62.61.42.75,1.54,1.1,2.34-1.07.29-2.35,1.09-3.16.76a33.18,33.18,0,0,1-5.15-3.17q-8.42-5.5-16.83-11c-6-4-12.05-8-18.11-12-6.67-4.35-13.4-8.59-20.06-13-4.75-3.1-9.41-6.33-14.13-9.45-3.15-2.08-6.35-4.07-9.51-6.13A14.71,14.71,0,0,1,239.91,237.05Z"/><path class="cls-3" d="M331.74,285.11a8.5,8.5,0,0,1-1.26,2.37c-.19.19-1.35-.45-2-.84-7.64-4.78-15.3-9.52-22.86-14.4-7.37-4.75-14.6-9.72-22-14.47-5.16-3.32-10.49-6.39-15.7-9.64q-11.3-7-22.51-14.24c-.43-.28-.5-1.14-.74-1.72.76-.22,1.69-.83,2.25-.59a46.15,46.15,0,0,1,5.53,3c7.5,4.56,15,9.09,22.43,13.75,7.74,4.86,15.36,9.93,23.1,14.79,5.36,3.37,10.88,6.49,16.26,9.83s10.64,6.82,16,10.18a9.3,9.3,0,0,0,2.47.71Z"/><path class="cls-3" d="M78.6,308.49c-1-2-1.22-3.23,1.13-4.8,9.69-6.45,19.18-13.23,28.66-20,5.74-4.09,11.29-8.45,17-12.55,3.59-2.57,7.41-4.81,11.05-7.32,4.89-3.38,9.73-6.84,14.56-10.32,4.29-3.11,8.47-6.37,12.84-9.38.65-.44,2,.16,3.06.27a6.6,6.6,0,0,1-1.2,1.79c-4.8,3.66-9.61,7.31-14.49,10.86q-12.1,8.77-24.3,17.42c-8.8,6.28-17.66,12.5-26.45,18.79-6.87,4.91-13.68,9.91-20.54,14.84A4.62,4.62,0,0,1,78.6,308.49Z"/><path class="cls-3" d="M332.72,280.69c-4.63-2.84-9.09-5.52-13.51-8.28-6.52-4.09-13-8.26-19.5-12.33-5.29-3.31-10.64-6.51-16-9.77-5.78-3.54-11.55-7.11-17.34-10.63-5.42-3.29-10.88-6.52-16.28-9.85-.57-.35-.86-1.15-1.28-1.74.69-.32,1.58-1.08,2.05-.88a57,57,0,0,1,6.62,3.34c6,3.54,11.93,7.15,17.87,10.75,7,4.22,13.89,8.48,20.86,12.68,4.24,2.56,8.55,5,12.79,7.55,6.81,4.11,13.59,8.3,20.39,12.43.79.48,1.65.83,2.45,1.28C334.67,276.77,334.87,278.14,332.72,280.69Z"/><path class="cls-3" d="M76.33,301.85c-2.11-3.17-1.68-4,2-6.41,6.6-4.32,13.06-8.82,19.61-13.22,8.15-5.47,16.37-10.85,24.48-16.37,6.06-4.13,12-8.45,18-12.63,4.82-3.36,9.7-6.63,14.53-10,1.51-1,2.88-2.27,4.47-3.15.75-.42,1.85-.23,2.8-.32-.3.8-.35,1.93-.93,2.36-4.69,3.52-9.45,6.92-14.23,10.32q-9,6.36-18,12.64c-3.61,2.51-7.3,4.91-10.92,7.42q-8.82,6.09-17.58,12.27Q93,290.09,85.46,295.44Z"/><path class="cls-3" d="M255,222.41c2.42,1.31,4.63,2.45,6.79,3.69,4.92,2.83,9.82,5.7,14.72,8.57,7.2,4.21,14.39,8.45,21.6,12.64,4.2,2.45,8.46,4.79,12.66,7.24,4.73,2.78,9.41,5.66,14.15,8.44,3.09,1.81,6.25,3.51,9.36,5.29.69.4,1.65.76,1.92,1.38a4.5,4.5,0,0,1,.13,2.9c-.08.29-1.73.51-2.36.18-3.08-1.64-6.07-3.44-9.07-5.23-4.64-2.77-9.27-5.59-13.91-8.38-5.73-3.45-11.44-6.93-17.21-10.32s-11.66-6.65-17.43-10.06c-5.52-3.26-10.95-6.65-16.43-10-1.88-1.14-3.83-2.17-5.66-3.39-.55-.37-.81-1.18-1.21-1.79Z"/><path class="cls-3" d="M157,235c1.45,1.4,2.1,2.15,0,3.5-6.52,4.23-12.82,8.79-19.25,13.15-3.81,2.57-7.76,4.92-11.57,7.49-6.07,4.1-12.06,8.31-18.11,12.44q-7.64,5.2-15.33,10.32c-6.24,4.16-12.52,8.28-19,12.56l-2.48-2.79Z"/><path class="cls-3" d="M258.87,217.88c2.68,1.35,5.19,2.53,7.61,3.87,4.89,2.71,9.71,5.53,14.58,8.28q8.74,4.93,17.5,9.84c4.89,2.72,9.81,5.38,14.67,8.12,5.92,3.34,11.79,6.77,17.71,10.12,2.16,1.22,4.48,2.2,6.53,3.58,1,.71,2.47,2.28,2.27,3.08-.51,2-2.12,2.07-3.92,1q-8.67-5.33-17.47-10.46c-5.39-3.15-10.86-6.19-16.3-9.27-4.8-2.72-9.61-5.4-14.4-8.14q-8.83-5.07-17.64-10.19c-4-2.29-7.94-4.56-11.86-6.92a1.86,1.86,0,0,1-.6-1.61C257.66,218.68,258.36,218.34,258.87,217.88Z"/><path class="cls-3" d="M70.45,287.67c-1.44-1.39-2.66-2.56.07-4.18,4.72-2.81,9.3-5.85,13.91-8.84,5.15-3.34,10.26-6.74,15.42-10.07,3.77-2.45,7.6-4.82,11.39-7.23q6.41-4.07,12.77-8.16,6.13-3.93,12.23-7.9c4.31-2.78,8.61-5.59,12.94-8.33,1.17-.75,2.45-1.31,3.81-2,1.44,1.28,2,2.09-.28,3.38-4.19,2.34-8.16,5.07-12.17,7.7-5.35,3.49-10.65,7.06-16,10.58q-7.66,5.08-15.35,10.13c-4,2.62-8,5.19-12,7.81-5.15,3.38-10.24,6.82-15.41,10.16C78.14,283,74.43,285.22,70.45,287.67Z"/><path class="cls-3" d="M260.6,215.36c2-2.92,4.18-1.4,6-.43,6.57,3.44,13.07,7,19.56,10.6,4.9,2.7,9.75,5.52,14.65,8.23,4.58,2.53,9.22,5,13.81,7.5q7.47,4.1,14.91,8.25c4.09,2.27,8.19,4.52,12.2,6.92a2.23,2.23,0,0,1,.63,2.11,2.44,2.44,0,0,1-2.15.94,60.13,60.13,0,0,1-6.43-3.2q-9.65-5.35-19.24-10.81c-6-3.4-11.85-6.95-17.85-10.31-4.8-2.69-9.73-5.17-14.57-7.79-4.36-2.37-8.68-4.81-13-7.22Z"/><path class="cls-3" d="M111.56,48c2.33-.46,3.63-.06,3.63,2.68q-.1,40.17-.07,80.33a12.77,12.77,0,0,1-.2,1.5h-3.36Z"/><path class="cls-3" d="M108.36,47.67v83.68h-3.54c0-1.11-.14-2.12-.14-3.12q0-36.51.06-73c0-1.77.32-3.56.21-5.32C104.79,47.35,106,47,108.36,47.67Z"/><path class="cls-3" d="M267.24,208.8c2.81,1.33,5.59,2.55,8.29,3.93,3.82,2,7.58,4,11.36,6.06,5.07,2.73,10.11,5.51,15.2,8.21,3.35,1.79,6.78,3.43,10.13,5.22,6.61,3.51,13.19,7.09,19.79,10.62,3.88,2.08,7.76,4.16,11.69,6.16,1.4.72,2.12,1.85,1.2,3a3.28,3.28,0,0,1-3.06.41c-3.48-1.66-6.84-3.57-10.21-5.44-4.81-2.67-9.58-5.42-14.4-8.06q-9.64-5.3-19.36-10.47c-6.35-3.38-12.74-6.67-19.09-10-4.3-2.26-8.59-4.54-12.84-6.88-.45-.25-.65-.93-1-1.42Z"/><path class="cls-3" d="M67.22,281.15c-1.08-2-2.08-3,.76-4.7,9-5.26,17.72-11.1,26.61-16.6,9.15-5.66,18.38-11.17,27.56-16.76,7.43-4.53,14.84-9.1,22.26-13.65a24,24,0,0,1,3.54-2c.49-.19,1.28.37,1.94.58-.34.59-.52,1.39-1,1.72q-15.51,10-31.09,19.83c-7.71,4.87-15.5,9.61-23.2,14.49-7.52,4.76-15,9.65-22.47,14.44C70.65,279.39,69.07,280.14,67.22,281.15Z"/><path class="cls-3" d="M271,203.75c4,2,8,4.05,12,6.1L303,220.12c4.73,2.42,9.48,4.8,14.2,7.24,8.63,4.45,17.25,8.94,25.88,13.4.82.43,1.74.68,2.57,1.1,2.75,1.42,2.9,2.24.82,5.06-8.68-4.68-17.36-9.42-26.11-14-6.35-3.34-12.84-6.44-19.2-9.78s-12.88-7-19.37-10.48c-3.32-1.76-6.7-3.44-10.16-4.91S268.2,206.26,271,203.75Z"/><path class="cls-3" d="M147.15,134.74c-2.62.55-3.67-.36-3.67-2.69,0-25.82,0-51.65,0-77.47a2.84,2.84,0,0,1,1.6-2.18c2.14-.39,2,1.32,2,2.75q0,28.35,0,56.7C147.16,119.42,147.15,127,147.15,134.74Z"/><path class="cls-3" d="M156.57,54.07c2.21-.28,3.57,0,3.57,2.62q0,38.76.08,77.51a3.49,3.49,0,0,1-.18.79c-3.25.58-3.53.41-3.54-2.6q-.08-38.05-.11-76.11C156.39,55.56,156.51,54.84,156.57,54.07Z"/><path class="cls-3" d="M64.71,274.19c-1.66-3-1.32-3.72,2.17-5.76,7.44-4.35,14.83-8.8,22.26-13.18,6.48-3.82,13-7.54,19.46-11.43,5.79-3.5,11.45-7.22,17.23-10.74,4.39-2.67,8.87-5.19,13.33-7.75a38.51,38.51,0,0,1,4.37-2.27c.44-.18,1.14.28,1.72.44-.25.64-.31,1.57-.77,1.86-6.22,3.89-12.51,7.68-18.77,11.52-4,2.45-8,5-12,7.41-5.8,3.54-11.66,7-17.44,10.58-5.53,3.42-11,7-16.5,10.42C74.89,268.3,69.87,271.15,64.71,274.19Z"/><path class="cls-3" d="M257.39,133.32c-2.3.39-3.62.35-3.64-2.44-.15-25.35-.43-50.7-.67-76a5.84,5.84,0,0,1,.06-2.22,9.3,9.3,0,0,1,1.67-2c.68.69,1.91,1.35,1.95,2.07.22,4.39.17,8.79.2,13.19q.29,32.54.55,65.09C257.51,131.67,257.43,132.41,257.39,133.32Z"/><path class="cls-3" d="M351,236.62c-.87,3.44-1.49,3.83-5.73,1.77-7.26-3.53-14.4-7.31-21.56-11-7.95-4.14-15.85-8.39-23.82-12.48-5.15-2.63-10.39-5.07-15.59-7.59-3.39-1.63-6.82-3.18-10.14-4.92a2.21,2.21,0,0,1-.65-2.08,2.4,2.4,0,0,1,2.11-.9c8.15,3.91,16.22,8,24.34,11.93,5.29,2.58,10.65,5,15.93,7.63s10.43,5.45,15.69,8.08c5.43,2.72,10.93,5.31,16.39,8C348.94,235.48,349.89,236,351,236.62Z"/><path class="cls-3" d="M137.12,51c2.54.34,3.44,1.35,3.44,3.71-.07,25.75,0,51.51-.08,77.27,0,.93-.72,1.87-1.11,2.8-.64-.88-1.8-1.73-1.83-2.63-.2-5.28-.09-10.58-.18-15.86-.05-2.32-.49-4.62-.5-6.93q-.09-27.72-.07-55.44A25.85,25.85,0,0,1,137.12,51Z"/><path class="cls-3" d="M250.66,133.58c-2.47.56-3.67.14-3.67-2.49q0-24.51-.2-49c-.07-9.27-.29-18.54-.48-27.82,0-1.39.21-2.4,1.93-2.36s1.94.94,1.94,2.38q.27,38.78.58,77.55C250.77,132.36,250.7,132.91,250.66,133.58Z"/><path class="cls-3" d="M142.4,219.83,62.25,267.38c-2.79-2.45-2.71-2.5.29-4.24,5.39-3.14,10.67-6.49,16.05-9.64,6-3.5,12-6.85,18-10.33,5.78-3.37,11.49-6.86,17.27-10.23,4.37-2.54,8.83-4.94,13.2-7.48,3.17-1.84,6.23-3.89,9.41-5.69C138.12,218.83,139.9,217.22,142.4,219.83Z"/><path class="cls-3" d="M208.3,135.42V55c2.81-.72,3.49-.23,3.5,3,.07,16.09.09,32.19.15,48.28,0,8.79.12,17.58.17,26.37C212.14,135.79,211.81,136,208.3,135.42Z"/><path class="cls-3" d="M351.36,233.09c-3.05-1.37-5.76-2.52-8.41-3.8q-8.7-4.22-17.35-8.54c-4.89-2.43-9.75-4.92-14.64-7.36-3.88-1.94-7.79-3.81-11.67-5.75-5.68-2.83-11.34-5.71-17-8.53a22,22,0,0,1-3.09-1.27,8.34,8.34,0,0,1-1.62-2.33c.94-.28,2.1-1.07,2.78-.77,5.05,2.23,10,4.66,15,7,4.05,1.93,8.09,3.9,12.13,5.84q7.94,3.83,15.88,7.61c5.57,2.68,11.16,5.32,16.71,8q6.07,3,12.06,6.17c.64.34,1.5,1.56,1.33,1.88C353.05,232.08,352.09,232.52,351.36,233.09Z"/><path class="cls-3" d="M297.75,45.74c2.9-.66,4.07-.19,4.09,2.53q.27,36.92.72,73.82c0,1.49.23,3,.35,4.46.19,2.22-.66,3.2-3.28,2.43Q298.69,87.42,297.75,45.74Z"/><path class="cls-3" d="M198.93,135.55c-2.52.91-2.94-.23-3-2.23q-.41-35.62-.88-71.26c0-1.41-.05-2.81,0-4.21,0-1.19-.77-2.74,1.47-2.88s2.15,1.16,2.16,2.7c0,6.36.19,12.73.21,19.09q.12,28.8.17,57.58A10.49,10.49,0,0,1,198.93,135.55Z"/><path class="cls-3" d="M354.49,227l-12.43-6c-7.37-3.56-14.73-7.14-22.12-10.65-3.81-1.82-7.69-3.48-11.5-5.28-5.17-2.43-10.29-4.95-15.44-7.41-2.65-1.26-5.34-2.47-8-3.72a18.35,18.35,0,0,1-2.86-1.56,8.25,8.25,0,0,1-1.44-1.7c1-.38,2.08-1.3,2.84-1.07a55.31,55.31,0,0,1,7.13,3c4.05,1.91,8,4,12.08,5.89Q314,203.77,325.2,209c3.93,1.81,7.93,3.47,11.85,5.3,5.75,2.67,11.53,5.32,17.17,8.22C357.16,224,357.06,224.54,354.49,227Z"/><path class="cls-3" d="M269.27,48.24c0,4.58,0,9.16,0,13.73,0,4.77,0,9.55.11,14.33q.51,26.49,1.08,53a5.84,5.84,0,0,1-.16,2.49,2.57,2.57,0,0,1-1.84,1.21,2.07,2.07,0,0,1-1.56-1.18,8.74,8.74,0,0,1-.21-2.77c-.07-17.89-.1-35.78-.23-53.67q-.09-12.21-.5-24.43C265.89,48.53,266.71,47.68,269.27,48.24Z"/><path class="cls-3" d="M98.46,89.3q0-19.51,0-39c0-1.31-.5-3,1.83-2.95s1.85,1.66,1.85,3q0,27.22-.11,54.47c0,8-.07,15.9-.06,23.85,0,1.5-.18,2.57-2.06,2.52s-1.56-1.36-1.56-2.56q0-19.65,0-39.32Z"/><path class="cls-3" d="M138.13,215.45,59.67,260.52c-2.82-2-2.9-2.22.1-4.06,4.7-2.88,9.5-5.59,14.3-8.31,6.16-3.49,12.35-6.93,18.54-10.38S105,231,111.16,227.45q10.64-6.06,21.15-12.35C134.79,213.62,136,213.43,138.13,215.45Z"/><path class="cls-3" d="M296.33,130.24H293c0-1.12,0-2.13,0-3.14,0-10.39.06-20.79-.17-31.17-.33-14.67-.91-29.33-1.36-44a34.61,34.61,0,0,1,.13-4.2c.26-2.67.3-2.66,3.63-2.16Q295.79,87.76,296.33,130.24Z"/><path class="cls-3" d="M358,220.65c-3.94-1.79-7.53-3.41-11.1-5.06-4.09-1.89-8.16-3.84-12.26-5.73-7.76-3.61-15.51-7.22-23.29-10.77-5.69-2.6-11.42-5.08-17.13-7.64-2.86-1.29-5.72-2.58-8.5-4-.55-.28-.75-1.23-1.12-1.88.68-.3,1.48-1,2-.84,2.89.94,5.75,2,8.53,3.21,4.29,1.88,8.5,3.95,12.76,5.89q9.28,4.23,18.61,8.39c3.78,1.68,7.62,3.23,11.39,4.94,6.35,2.87,12.58,6.06,19.05,8.63C360.5,217.19,358.31,218.7,358,220.65Z"/><path class="cls-3" d="M260.24,132.87c0-9.6.06-19.12,0-28.65-.14-17.22-.36-34.43-.55-51.65,0-.37-.2-.85,0-1.1a18.75,18.75,0,0,1,1.55-1.79c.5.59,1.41,1.18,1.43,1.8.41,8.66.84,17.34,1,26,.26,17.49.31,35,.54,52.48C264.15,132.55,263.46,133.73,260.24,132.87Z"/><path class="cls-3" d="M272.59,89.82c0-13.38,0-26.76,0-40.14,0-1.4.22-2.66,1.84-2.36.57.11,1.27,1.53,1.29,2.36.2,15.8.23,31.61.47,47.41.16,10.73.6,21.45.91,32.17,0,.28.13.67,0,.82-.77.84-1.61,1.62-2.42,2.42-.45-.76-1.28-1.51-1.3-2.28-.11-7.11-.1-14.22-.11-21.34q0-9.52,0-19.06Z"/><path class="cls-3" d="M188.48,55c2.86-.94,3.71,0,3.71,2.68,0,25.27.12,50.54.13,75.8,0,.8-.94,1.59-1.44,2.38-.52-.8-1.49-1.6-1.5-2.41-.14-5.75,0-11.5-.11-17.25-.15-6.8-.64-13.6-.72-20.4-.16-13.1-.14-26.2-.18-39.3C188.37,56.08,188.44,55.62,188.48,55Z"/><path class="cls-3" d="M201.86,135.26c0-9.74,0-19.56,0-29.38-.08-15.91-.23-31.81-.34-47.72a10.42,10.42,0,0,0,0-1.12c-.18-1.53.49-2.31,2-2.33s1.7,1,1.7,2.26c0,11,0,21.91.08,32.86.09,14.41.25,28.82.34,43.23C205.65,136.13,205.29,136.31,201.86,135.26Z"/><path class="cls-3" d="M287.41,181.54l2.07-2.54c5,2.08,9.92,4.07,14.79,6.19,6,2.6,11.92,5.37,17.92,8,4.31,1.88,8.73,3.51,13.05,5.39,6.25,2.71,12.44,5.54,18.66,8.31,2,.9,4,1.92,6.08,2.63s1.28,1.92.84,3.11c-.63,1.7-1.39.87-2.53.32-4-1.9-8.15-3.49-12.18-5.32-4.34-2-8.58-4.15-12.94-6.08-4-1.8-8.21-3.31-12.25-5.1-6.22-2.76-12.36-5.69-18.58-8.46-3.95-1.77-8-3.37-12-5.06C289.46,182.51,288.57,182.08,287.41,181.54Z"/><path class="cls-3" d="M214.81,54.76h2.84c.43,26.73.85,53.42,1.29,80.41l-4.13.19Z"/><path class="cls-3" d="M56.13,254.08c-1.18-1.79-2.06-3,.66-4.37,8.36-4.26,16.59-8.79,24.82-13.31,8.85-4.86,17.62-9.87,26.46-14.76,7.09-3.92,14.22-7.76,21.36-11.58a5.53,5.53,0,0,1,2.64-.63,2,2,0,0,1,1.36,1.15c.1.27-.53,1-1,1.29-6.3,3.59-12.61,7.17-19,10.67-6.12,3.39-12.32,6.64-18.43,10-7.45,4.16-14.82,8.46-22.28,12.61C67.31,248.21,61.76,251.08,56.13,254.08Z"/><path class="cls-3" d="M153.83,94.33q0,19,0,37.91c0,1.14.73,2.9-1.48,2.92s-2.26-1.38-2.26-3.06q-.1-29.47-.27-59c0-5.71,0-11.41.06-17.12,0-1.26-.54-3.11,1.7-3.14s1.9,1.86,1.91,3.26q0,19.1,0,38.19Z"/><path class="cls-3" d="M292.71,173.78c2.74,1.05,5.07,1.88,7.34,2.83,4.75,2,9.47,4.06,14.21,6.06q12.69,5.39,25.41,10.72c4.26,1.78,8.57,3.46,12.85,5.21,3.4,1.39,6.86,2.7,10.13,4.36.64.33.53,2.12.77,3.24-.86.12-1.86.58-2.57.29-4.87-2-9.7-4.05-14.51-6.17-5.79-2.56-11.54-5.23-17.34-7.76-4.06-1.76-8.22-3.31-12.29-5.06-6.5-2.79-12.95-5.7-19.45-8.5-1.53-.66-3.26-.91-4.74-1.65a2.71,2.71,0,0,1-1-2.15C291.51,174.65,292.39,174.13,292.71,173.78Z"/><path class="cls-3" d="M130.19,205.33c-1,1.12-1.29,1.73-1.79,2-5.47,3-11,5.86-16.46,8.83-9.45,5.12-18.84,10.34-28.31,15.42-6.18,3.3-12.47,6.4-18.69,9.63-3.27,1.71-6.47,3.54-9.77,5.2a6.9,6.9,0,0,1-2.44.25c.25-1,.17-2.67.83-3.07,3.83-2.33,7.83-4.41,11.8-6.52q8.28-4.41,16.6-8.75c4.74-2.49,9.54-4.88,14.27-7.39,7.86-4.17,15.67-8.43,23.53-12.6a78.15,78.15,0,0,1,7.28-3.46C127.71,204.6,128.68,205.08,130.19,205.33Z"/><path class="cls-3" d="M366.94,193.91l-3-1.26-13.25-5.51c-6.55-2.71-13.09-5.46-19.67-8.11-4.27-1.72-8.6-3.27-12.88-5-5.3-2.11-10.56-4.33-15.87-6.43-1.38-.55-2.95-.66-4.28-1.29-.67-.32-1-1.35-1.5-2.05a16.63,16.63,0,0,1,2.33-1.44c.33-.15.9.16,1.33.32,7.46,2.89,14.94,5.74,22.37,8.71,6.4,2.56,12.72,5.31,19.12,7.87,4.55,1.82,9.17,3.44,13.76,5.17,4.23,1.59,8.47,3.16,12.66,4.87.55.23,1.26,1.47,1.09,1.78A12.34,12.34,0,0,1,366.94,193.91Z"/><path class="cls-3" d="M95.44,131.18c-1-.84-1.57-1.1-1.65-1.48-.75-3.23-1.94-6.47-2-9.72-.12-9.81.2-19.63.39-29.45.09-4.45.41-8.89.37-13.33S92,68,92,63.47c0-4.73.26-9.47.63-14.18,0-.61,1.48-1.11,2.77-2Z"/><path class="cls-3" d="M367,197.23c-1.06,4-2.67,3.18-5.31,2-6.1-2.87-12.52-5-18.75-7.64s-12.41-5.49-18.67-8.12c-4.43-1.86-9-3.46-13.43-5.27-5.37-2.18-10.72-4.44-16.05-6.72a1.53,1.53,0,0,1-.68-1.27c.05-.43.56-1.13.91-1.15a6.89,6.89,0,0,1,3,.29c8.61,3.45,17.18,7,25.79,10.48,4.1,1.65,8.3,3.09,12.4,4.76,7.07,2.88,14.08,5.89,21.14,8.79,2.39,1,4.85,1.81,7.26,2.75C365.4,196.4,366.19,196.85,367,197.23Z"/><path class="cls-3" d="M127.49,133.23c-2.76.6-3.16-.65-3.15-2.55q.07-24.74.06-49.46,0-15.16,0-30.34V48.66c2.9-.6,3.17,1.16,3.17,3.07,0,6.65,0,13.3,0,20q0,29.37-.05,58.73Z"/><path class="cls-3" d="M371.7,183.71,370,187.25c-2.93-1-5.91-2-8.83-3.15-4.61-1.79-9.18-3.71-13.78-5.54-7.08-2.84-14.16-5.68-21.27-8.45-3-1.17-6.1-2.11-9.12-3.25q-8.65-3.27-17.26-6.69c-.42-.16-1-.72-1-1.08a1.55,1.55,0,0,1,.87-1.22,5.84,5.84,0,0,1,2.93-.06c5.45,2,10.83,4.12,16.26,6.15,4.59,1.72,9.23,3.32,13.81,5,5.43,2.05,10.8,4.25,16.24,6.29,4.84,1.83,9.73,3.52,14.58,5.3C366.1,181.57,368.76,182.6,371.7,183.71Z"/><path class="cls-3" d="M285.2,46.35c3.66-1,3.66-1,3.68,2.56.06,14.51,0,29,.2,43.51.14,12.15.44,24.3.76,36.45.07,2.55-1.45,2.08-3.09,1.93C286.23,102.71,285.72,74.63,285.2,46.35Z"/><path class="cls-3" d="M302.55,151.51c2.91.89,5.85,1.69,8.71,2.7s5.59,2.29,8.41,3.35c7.94,3,15.89,5.94,23.87,8.8,5.3,1.89,10.68,3.55,16,5.39,4.09,1.41,8.18,2.84,12.17,4.5.58.24.89,1.87.76,2.77-.06.43-1.62,1.11-2.25.9-4.48-1.47-8.91-3.11-13.33-4.77-2.84-1.06-5.62-2.27-8.45-3.36q-11.08-4.28-22.2-8.49c-2.5-1-5.05-1.76-7.58-2.64-5.23-1.83-10.5-3.58-15.66-5.61-.76-.29-1-1.92-1.46-2.93Z"/><path class="cls-3" d="M237.78,93.8c0,12.27,0,24.54,0,36.82,0,1.63.51,4.3-1.79,4.23s-1.17-2.68-1.19-4.14c-.22-17.33-.28-34.66-.52-52-.11-7.56-.56-15.11-.82-22.66-.05-1.35-.4-3.05,1.78-3.12,2.42-.08,2,1.84,2,3.21q.06,18.83,0,37.65Z"/><path class="cls-3" d="M51.11,241.16c-.66-.79-1.51-1.42-1.78-2.24a2.2,2.2,0,0,1,1-1.89c6.47-3.28,13-6.38,19.48-9.68S82.54,220.56,89,217.23c3.5-1.81,7.13-3.39,10.64-5.19,6.86-3.53,13.68-7.14,20.52-10.71a2.77,2.77,0,0,1,1-.46c1.2-.05,3.16-.45,3.47.08,1.1,1.88-1,1.87-2,2.4-7.33,3.83-14.7,7.6-22,11.46-7.71,4.08-15.36,8.28-23.08,12.34s-15.58,8-23.36,12.07C53.2,239.71,52.33,240.37,51.11,241.16Z"/><path class="cls-3" d="M279.8,131.34c0-8.12,0-16.06,0-24q-.17-26.93-.42-53.87c0-1.27-.61-2.56-.54-3.81s.36-2.67,1.11-3.16c1.43-.91,2.32-.16,2.34,1.7.1,9,.33,18,.43,26.93s.08,18.15.14,27.22c0,5.81.06,11.61.22,17.41.09,2.87.42,5.74.75,8.6C284.12,131,282.74,131.62,279.8,131.34Z"/><path class="cls-3" d="M305.41,145.85c4.41,1.44,8.47,2.71,12.48,4.1,2.77,1,5.47,2.09,8.23,3.09,6,2.18,11.91,4.39,17.91,6.48,4.89,1.7,9.83,3.25,14.74,4.9s9.8,3.24,14.61,5.09c.64.25,1,1.86,1,2.85,0,.33-1.59,1.15-2.19.95-4.64-1.53-9.23-3.22-13.81-4.91-2.94-1.09-5.84-2.29-8.78-3.37-8-2.9-15.92-5.81-23.91-8.64-5.3-1.88-10.65-3.63-16-5.45-1.56-.54-3.16-1-4.65-1.7-.7-.32-1.19-1.11-1.77-1.69Z"/><path class="cls-3" d="M244.4,93.46v36.47a8.62,8.62,0,0,1-.09,2.79,8.13,8.13,0,0,1-1.68,2.09c-.48-.75-1.34-1.48-1.36-2.24-.12-6.55-.07-13.1-.1-19.65,0-5.8,0-11.6-.13-17.4-.29-12.79-.65-25.57-1-38.36,0-.84,0-1.69,0-2.53-.11-1.63.92-2.31,2.22-2,.59.13,1.33,1.38,1.35,2.13.18,9.16.25,18.33.33,27.5,0,3.74,0,7.48,0,11.23Z"/><path class="cls-3" d="M305.41,142.6c1.2-3.9,3.55-2.25,5.25-1.76,2.89.83,5.61,2.26,8.48,3.2,10.35,3.43,20.74,6.74,31.11,10.14,8.43,2.78,16.85,5.58,25.21,8.54.63.22,1,1.83,1,2.82,0,.33-1.36,1.19-1.88,1-3.15-1-6.24-2.12-9.35-3.22-2.52-.88-5-1.81-7.56-2.64-5.54-1.81-11.12-3.49-16.62-5.38-8.75-3-17.45-6.1-26.16-9.2C311.75,145,308.62,143.8,305.41,142.6Z"/><path class="cls-3" d="M122.12,196.57a9.29,9.29,0,0,1-1.65,1.39c-8.08,4-16.18,8-24.26,12-9.14,4.54-18.3,9.07-27.41,13.69-6.4,3.24-12.72,6.66-19.16,9.85a2.92,2.92,0,0,1-2.71-.72c-1-1.23-.16-2,1.21-2.67,5.64-2.7,11.19-5.6,16.81-8.34,5.3-2.59,10.7-5,16-7.63,6.7-3.32,13.33-6.79,20-10.15,3.63-1.82,7.31-3.57,11-5.34a65.24,65.24,0,0,1,6-2.74,14.89,14.89,0,0,1,3.75-.33Z"/><path class="cls-3" d="M45.14,227.76c-.32-.45-1-1-1-1.48.09-.86.39-2.15,1-2.45,8.48-4.1,17.06-8,25.55-12.09s17.16-8.42,25.78-12.55c6.32-3,12.7-5.94,19.1-8.81.47-.21,1.31.41,2,.63-.26.75-.32,1.94-.83,2.19-7.33,3.53-14.78,6.84-22.1,10.4C85,208.31,75.37,213.23,65.72,218c-6.17,3.06-12.39,6.05-18.59,9.05C46.63,227.3,46.08,227.43,45.14,227.76Z"/><path class="cls-3" d="M304.55,47.57l4.07.7c0,3.41.1,6.59,0,9.76a13.65,13.65,0,0,1-1,3.58c-.64,1.85-1.54,3.59.14,5.47a4.65,4.65,0,0,1,.84,2.78c.23,13.74.58,27.49.48,41.23,0,3.71-1.44,7.41-2.22,11.11l-1.35-.16C305.17,97.32,304.87,72.6,304.55,47.57Z"/><path class="cls-3" d="M309.14,134c3,1,5.93,2.11,8.92,3.08,9.85,3.2,19.72,6.36,29.57,9.55,6.3,2,12.58,4.15,18.89,6.16,3.34,1.07,6.7,2.09,10.11,2.92,1.56.39,2.26.81,1.86,2.61s-1.29,2-2.8,1.49q-11.55-3.94-23.11-7.87c-2.46-.84-5-1.58-7.42-2.43-6.37-2.19-12.72-4.44-19.1-6.6-2.63-.9-5.32-1.62-8-2.46-3-1-6-1.88-9-2.94C307.06,136.83,307.11,136,309.14,134Z"/><path class="cls-3" d="M179.34,95.58q0,18.69,0,37.38c0,1.07.63,2.66-1.42,2.71-2.2.05-1.63-1.61-1.64-2.81q-.13-37.52-.24-75c0-.28-.11-.62,0-.83.43-.75.93-1.46,1.4-2.19.59.76,1.62,1.48,1.69,2.28.23,2.61.13,5.24.13,7.86q0,15.33,0,30.64Z"/><path class="cls-3" d="M380.31,149.6c-1.41,4.22-1.75,4.23-5.44,2.54a64.12,64.12,0,0,0-7.87-2.59c-6-1.83-12.05-3.53-18-5.46-5.35-1.73-10.61-3.77-15.94-5.55-3.08-1-6.26-1.74-9.35-2.73-4.14-1.32-8.25-2.71-12.33-4.2-.64-.23-1-1.1-1.55-1.68.82-.37,1.74-1.19,2.43-1,3.33.76,6.62,1.72,9.89,2.73s6.45,2.26,9.72,3.27c6,1.86,12,3.57,18,5.44,8.45,2.63,16.87,5.36,25.31,8C376.86,148.87,378.59,149.18,380.31,149.6Z"/><path class="cls-3" d="M114.3,187.09a14.94,14.94,0,0,1-2.39,1.72c-7.4,3.36-14.87,6.55-22.22,10-8.66,4.07-17.19,8.41-25.82,12.54-5.39,2.57-10.86,5-16.29,7.48a14.38,14.38,0,0,1-2.89,1.48,10.41,10.41,0,0,1-3.14-.35c.54-1,.85-2.31,1.67-3a20.55,20.55,0,0,1,4.2-2.08l27.15-12.35c6.61-3,13.26-5.94,19.82-9,5.2-2.47,10.28-5.21,15.48-7.69a8,8,0,0,1,3.48-.4C113.62,185.44,113.87,186.31,114.3,187.09Z"/><path class="cls-3" d="M163,54.59c2.52-.79,2.82.48,2.82,2.24,0,8.52,0,17,.09,25.56,0,3,.72,5.91.75,8.87s-.59,6.12-.55,9.17c.15,10.55.49,21.1.67,31.65,0,1.34,1,3.48-1.83,3.4s-1.84-2.17-1.84-3.53Q163,101.34,163,70.71Z"/><path class="cls-3" d="M313.17,122.59c5.78,1.7,10.93,3.16,16.05,4.73,3.52,1.08,7,2.43,10.49,3.44,9.08,2.59,18.21,5,27.29,7.58,4.27,1.21,8.45,2.7,12.72,3.86,1.93.52,1.65,1.67,1.44,3-.29,1.8-1.42,1.3-2.54,1-7.63-2.29-15.26-4.53-22.88-6.83-7.43-2.24-14.85-4.49-22.26-6.8-6.79-2.11-13.57-4.26-20.31-6.53a2.64,2.64,0,0,1-1.25-2.09C311.92,123.37,312.93,122.83,313.17,122.59Z"/><path class="cls-3" d="M231,54.2c0,6.72,0,13.26,0,19.8l.15,55.34a23.65,23.65,0,0,0,.16,2.8c.35,2.76,0,3.17-3.1,2.85,0-2.45,0-4.94,0-7.42q-.22-33.84-.47-67.69a8,8,0,0,0-.11-2.78C226.35,54.12,228,53.92,231,54.2Z"/><path class="cls-3" d="M106.36,174.59c1.11,1.58,1.39,2.63-1,3.66-8,3.42-15.77,7.16-23.69,10.65-6.08,2.68-12.27,5.09-18.35,7.76-5.73,2.52-11.37,5.24-17.08,7.81A57.53,57.53,0,0,1,39,207.33c-1,.31-2.31-.24-3.48-.4-.06-.44-.12-.87-.19-1.31,3.17-1.56,6.28-3.21,9.5-4.65q12.22-5.46,24.54-10.74c4.24-1.82,8.6-3.37,12.84-5.2,6.08-2.62,12.09-5.4,18.14-8.07C102.22,176.15,104.12,175.47,106.36,174.59Z"/><path class="cls-3" d="M221,94.74c0-12.54,0-25.08,0-37.63,0-.93.44-2.41,1.08-2.68,1.83-.77,2.12.57,2.12,2.1,0,7.58,0,15.17,0,22.75q0,21.9,0,43.81c0,3.4.18,6.8.07,10.19,0,.72-.94,1.42-1.45,2.12-.46-.73-1.32-1.45-1.33-2.19-.08-12.82-.05-25.64-.05-38.46Z"/><path class="cls-3" d="M381.08,139.42c-3.58-.89-6.86-1.59-10.07-2.52s-6.23-2.21-9.4-3.11c-6.77-1.9-13.62-3.53-20.36-5.52-8.78-2.59-17.5-5.38-26.2-8.24-.72-.23-1.08-1.59-1.61-2.42l.66-.81c2.32.48,4.67.86,6.95,1.48q7,1.86,13.84,4c6,1.83,11.92,3.81,17.91,5.64,3,.93,6,1.73,9.09,2.5,4.67,1.18,9.36,2.29,14.05,3.44C378.68,134.49,380.64,135.92,381.08,139.42Z"/><path class="cls-3" d="M30.2,188.81c-.62-.74-1.43-1.34-1.66-2.12a2.09,2.09,0,0,1,1.06-1.75c6.17-2.45,12.41-4.72,18.58-7.16,6.43-2.54,12.77-5.28,19.2-7.81,4.64-1.82,9.39-3.35,14-5.16,4.88-1.9,9.66-4.07,14.56-5.92,1-.36,2.91-.18,3.29.44,1.06,1.7-.87,2.15-1.91,2.55-6.89,2.68-13.87,5.13-20.74,7.86-6.07,2.42-12,5.17-18,7.67-4.1,1.69-8.28,3.19-12.41,4.79q-7.62,2.94-15.22,5.94C30.72,188.23,30.56,188.49,30.2,188.81Z"/><path class="cls-3" d="M169.76,135.11v-3q-.19-36.25-.39-72.49a11.19,11.19,0,0,1,.09-3.07A7.58,7.58,0,0,1,171,54.49c.53.72,1.5,1.43,1.52,2.17.19,4.87.19,9.74.21,14.61.05,17.51.05,35,.15,52.55,0,3,.5,5.92.58,8.89C173.54,135.86,173.26,136,169.76,135.11Z"/><path class="cls-3" d="M35.17,201.53c-.68-.57-1.51-1-1.73-1.58-.14-.41.46-1.43,1-1.66q7.28-3.36,14.66-6.5,12.48-5.31,25-10.48c4.6-1.9,9.27-3.63,13.85-5.57,4.23-1.78,8.38-3.75,12.57-5.61a4.56,4.56,0,0,1,2.12-.59,2.5,2.5,0,0,1,1.59,1.13c.15.23-.34,1.17-.75,1.39-2.25,1.22-4.53,2.42-6.89,3.42-9.69,4.12-19.41,8.15-29.11,12.23Q54.06,193.34,40.69,199C38.92,199.77,37.19,200.61,35.17,201.53Z"/><path class="cls-3" d="M40.35,214.37c-.37-.26-1.25-.59-1.25-.93,0-.8.16-2,.7-2.34a35.88,35.88,0,0,1,5.33-2.85c3.69-1.68,7.43-3.24,11.14-4.89,8.16-3.62,16.31-7.3,24.49-10.9,4.22-1.87,8.53-3.55,12.74-5.44,3.92-1.77,7.76-3.73,11.65-5.59a4.51,4.51,0,0,1,1.8-.67,34.61,34.61,0,0,1,3.79.43,10.58,10.58,0,0,1-2.35,2.11c-6.22,2.95-12.5,5.75-18.74,8.66-5.75,2.69-11.44,5.52-17.2,8.18-3.84,1.78-7.8,3.34-11.65,5.09-5.86,2.67-11.67,5.44-17.52,8.13C42.44,213.75,41.53,214,40.35,214.37Z"/><path class="cls-3" d="M100.33,164l1.71,1.39c-.45.54-.78,1.35-1.35,1.59-8.5,3.62-17,7.21-25.55,10.7-6.76,2.75-13.62,5.28-20.38,8-7,2.86-14,5.84-21,8.82-1.23.52-2.32.75-2.89-.73s.41-2,1.71-2.51c6.14-2.49,12.2-5.2,18.33-7.71,4.61-1.9,9.33-3.55,14-5.43,8.36-3.39,16.67-6.92,25-10.31C93.24,166.47,96.66,165.33,100.33,164Z"/><path class="cls-3" d="M95.87,152.81c.36.26,1.38.72,1.34,1A2.48,2.48,0,0,1,96,155.64C90.1,158,84.1,160.1,78.16,162.42c-5,1.94-9.87,4.09-14.83,6.07-4.3,1.71-8.64,3.33-13,4.94-7.11,2.63-14.29,5.07-21.31,7.92-1.64.66-2.18-.08-2.4-.93a2.52,2.52,0,0,1,1.19-2.18C36.18,175,44.59,172,53,168.82c8.8-3.33,17.56-6.75,26.35-10.1,4.75-1.81,9.52-3.58,14.29-5.35A22.76,22.76,0,0,1,95.87,152.81Z"/><path class="cls-3" d="M24.33,172.06c2-.8,4.07-1.62,6.12-2.38,7.86-2.92,15.71-5.88,23.6-8.7,5.23-1.87,10.56-3.43,15.77-5.32s10.14-4,15.23-5.9c2.4-.91,4.85-1.77,7.33-2.44.72-.2,1.64.33,2.46.53-.41.71-.66,1.75-1.27,2.05a75.9,75.9,0,0,1-7.37,3.15c-4.76,1.77-9.58,3.37-14.34,5.14-9.17,3.41-18.33,6.88-27.48,10.34C38.59,170.72,32.85,173,27,175c-.72.24-2-1.31-3.07-2C24.06,172.68,24.2,172.37,24.33,172.06Z"/><path class="cls-3" d="M134.09,133.41c-3,.82-3.1-.65-3.1-2.32q0-19.38-.05-38.76,0-19.67-.07-39.33c0-.28-.13-.63,0-.83.46-.71,1-1.37,1.52-2.05.47.64,1.32,1.27,1.34,1.93q.33,7.44.36,14.88c0,11.32,0,22.64,0,34Z"/><path class="cls-3" d="M118.16,48.14c2.12-.62,2.92.25,2.92,2,0,3.21-.07,6.42-.07,9.63,0,6.78,0,13.57,0,20.35,0,16.94,0,33.88-.16,50.82,0,.7-.9,1.39-1.37,2.09-.49-.74-1.38-1.47-1.4-2.21-.11-6.93-.08-13.85-.08-20.78q0-30.19,0-60.38C118,49.22,118.11,48.76,118.16,48.14Z"/><path class="cls-3" d="M91.12,141.51c.48.45,1.08,1,1.69,1.58a6.74,6.74,0,0,1-1.7,1.36c-7.43,2.81-14.86,5.61-22.34,8.3-5,1.78-10,3.3-15,5.09-7.37,2.66-14.68,5.47-22,8.18-2.34.86-4.69,1.69-7.07,2.4-.37.11-1.41-.62-1.37-.82.16-1,.32-2.33,1-2.74a23.68,23.68,0,0,1,4.86-1.93q11.31-3.85,22.64-7.67c6.72-2.28,13.47-4.48,20.16-6.85,5.64-2,11.22-4.18,16.84-6.27C89.42,141.91,90.07,141.79,91.12,141.51Z"/><path class="cls-3" d="M89,131.2c-.83,1-1.09,1.55-1.51,1.72-1.78.74-3.6,1.42-5.44,2-8.85,3-17.7,5.94-26.57,8.84C50,145.58,44.5,147.2,39,149s-11,3.82-16.56,5.69c-.74.25-2,.54-2.31.18a3.24,3.24,0,0,1-.64-2.53c.09-.47,1.21-.82,1.93-1.06,5.94-2,11.91-4,17.86-6,2.64-.88,5.25-1.83,7.9-2.65,8.29-2.58,16.61-5,24.87-7.69,4.81-1.53,9.53-3.38,14.34-4.92C87,129.87,87.92,130.69,89,131.2Z"/><path class="cls-3" d="M21.41,159.38c.22-.25.59-1.09,1.18-1.3,4.61-1.62,9.28-3.09,13.9-4.67,8-2.74,16-5.58,24-8.28,5.43-1.83,10.93-3.43,16.37-5.24,3.39-1.13,6.69-2.57,10.09-3.66,1-.32,2.85-.34,3.21.21,1.07,1.65-.78,2.32-1.81,2.7C83.26,141,78,142.67,72.86,144.49c-5.5,1.92-11,4-16.46,5.9-2.71,1-5.48,1.72-8.21,2.63Q36.61,156.88,25,160.78a6.07,6.07,0,0,0-1.21.63C22,162.51,21.51,161.57,21.41,159.38Z"/><path class="cls-3" d="M182.51,55h3.07v3.68q.16,37.5.26,75c0,.7-.91,1.4-1.4,2.11-.55-.77-1.58-1.54-1.59-2.32-.14-8-.09-16.11-.12-24.16q-.1-22.89-.22-45.79C182.49,60.9,182.51,58.24,182.51,55Z"/><path class="cls-3" d="M86.58,126.18a8,8,0,0,1-1.45.82q-9,3-18.11,6T48.8,139.09c-2.71.9-5.45,1.75-8.17,2.64-6.58,2.15-13.15,4.36-19.76,6.41-.57.18-2.07-.62-2.06-.92,0-.88.42-2.33,1-2.53,5.34-1.79,10.77-3.29,16.14-5,5.73-1.84,11.39-3.87,17.11-5.75,2.71-.89,5.49-1.59,8.23-2.39,6.06-1.77,12.12-3.51,18.16-5.33,1.67-.5,3.23-1.41,4.91-1.81.65-.16,1.52.56,2.28.88C86.64,125.57,86.61,125.88,86.58,126.18Z"/><path class="cls-3" d="M376.29,130.91a27.87,27.87,0,0,1-2.88-.47c-8.4-2.24-16.82-4.46-25.2-6.81-7.56-2.11-15.08-4.38-22.61-6.58-2.85-.83-5.78-1.46-8.51-2.56-.95-.37-1.44-1.88-2.14-2.87l.74-.79a28.78,28.78,0,0,1,3.74.53c7.92,2.21,15.82,4.52,23.75,6.73,5.53,1.55,11.1,2.94,16.64,4.47,4.45,1.22,8.94,2.35,13.27,3.92,1.52.55,2.59,2.3,3.87,3.5Z"/><path class="cls-3" d="M19.31,140.77c0-3.38,2.24-4,4.18-4.63,6.47-2,13-3.69,19.5-5.56,7.82-2.25,15.64-4.5,23.42-6.89,5.46-1.67,10.84-3.61,16.28-5.33.43-.13,1.6.59,1.57.8-.12.86-.35,2.18-.92,2.42a70.12,70.12,0,0,1-6.86,2.18c-8.7,2.59-17.41,5.14-26.1,7.79-9,2.75-18,5.6-27.07,8.37C22.1,140.29,20.82,140.46,19.31,140.77Z"/><path class="cls-3" d="M23.23,133c.46-4.79,4.21-4.89,6.82-5.74,6.58-2.16,13.35-3.74,20-5.61q12.17-3.39,24.31-6.88c2.12-.61,4.17-1.5,6.32-2,.74-.16,1.67.64,2.51,1-.55.62-1,1.59-1.68,1.79-7.79,2.36-15.62,4.59-23.44,6.88q-15.18,4.44-30.36,9C26.33,131.85,25,132.39,23.23,133Z"/><path class="cls-3" d="M371.4,122.43a12.52,12.52,0,0,1-1.91-.18q-14.69-3.78-29.34-7.62c-4.92-1.3-9.8-2.71-14.69-4.09a79.41,79.41,0,0,1-7.65-2.31c-.63-.24-.81-1.64-1.2-2.5.74-.27,1.56-.91,2.19-.76q7.26,1.74,14.48,3.76c6.67,1.87,13.29,3.92,20,5.73,4.38,1.19,8.81,2.22,13.26,3.12C369.55,118.19,370.62,119,371.4,122.43Z"/><path class="cls-3" d="M81.27,106.42c.94,2.26.32,3.2-1.87,3.78-7.67,2-15.29,4.31-22.94,6.45-3.3.93-6.63,1.73-9.94,2.65-5.15,1.43-10.29,2.94-15.45,4.38a30.49,30.49,0,0,1-3,.52,4.75,4.75,0,0,1,3.76-4.26c6.61-1.8,13.29-3.36,19.88-5.23,8.71-2.48,17.36-5.17,26.05-7.73A27.21,27.21,0,0,1,81.27,106.42Z"/><path class="cls-3" d="M365.83,114.48c-3.18-.79-6.17-1.52-9.15-2.28-1.42-.36-2.81-.8-4.22-1.18q-11.88-3.21-23.77-6.41c-3.12-.83-6.3-1.49-9.4-2.42-.62-.19-1-1.2-1.5-1.83.68-.4,1.46-1.25,2-1.12,5.49,1.28,10.94,2.73,16.4,4.12l10.22,2.6c5.47,1.38,10.94,2.73,16.39,4.16C364.86,110.66,365.65,112.23,365.83,114.48Z"/><path class="cls-3" d="M80,100.88c.54,2,.06,2.72-1.79,3.18-9,2.25-17.9,4.68-26.84,7.07-5.09,1.37-10.15,2.81-15.24,4.17a32.29,32.29,0,0,1-3.55.51,8.82,8.82,0,0,1,5.81-4.6c7.37-1.83,14.75-3.59,22.11-5.45,6-1.52,12-3.14,18-4.71A12.63,12.63,0,0,1,80,100.88Z"/><path class="cls-3" d="M360.3,106.28c-4.66-1.11-9.34-2.16-14-3.33-3.67-.92-7.28-2.07-10.95-3-5-1.2-10-2.14-14.91-3.44-.78-.21-1.22-1.71-1.82-2.62.84-.32,1.78-1.06,2.5-.89,5.13,1.19,10.19,2.64,15.3,3.86,6.94,1.66,13.95,3,20.84,4.9,1.51.41,2.63,2.28,3.93,3.47C360.9,105.61,360.6,105.94,360.3,106.28Z"/><path class="cls-3" d="M37.31,107.68c4.3-4.84,9.68-5.18,14.72-6.42,6.93-1.7,13.8-3.64,20.71-5.42a28.06,28.06,0,0,1,5-.84c.51,0,1.07.71,1.6,1.09-.46.54-.84,1.42-1.4,1.57-9,2.35-18,4.56-26.92,6.9-3.75,1-7.43,2.19-11.16,3.23A10.25,10.25,0,0,1,37.31,107.68Z"/><path class="cls-3" d="M126.27,305.27q-17.16,16.13-34.35,32.31c-2.07-2.89-1.75-4.46.46-6.2,6.21-4.87,12.35-9.83,18.51-14.77l14.91-12Z"/><path class="cls-3" d="M355.92,98.75l-20.21-5.21c-.45-.11-.92-.17-1.37-.26-4.63-1-9.27-1.86-13.87-2.94-.6-.14-1-1.21-1.46-1.86.81-.57,1.75-1.75,2.4-1.61,9.59,2,19.13,4.3,28.69,6.45C352.8,93.93,354.59,95.46,355.92,98.75Z"/><path class="cls-3" d="M89.07,69.83v40.7l-.46.23c-.49-1.07-1.3-2.12-1.4-3.23-.48-5.85-.92-11.71-1.12-17.58-.17-5-.08-10.1.08-15.15C86.23,73,86.2,70.8,89.07,69.83Z"/><path class="cls-3" d="M89.19,50.27c0,4.09.14,7.73-.1,11.34,0,.85-1.35,1.62-2.49,2.87l-1-5.75c-1.33.69-2.59,1.74-4,2-3.56.66-7.18,1-10.92,1.41,0-2.07,1.27-3.06,3.17-3.39,3.64-.63,7.32-1.12,10.94-1.87.85-.17,1.54-1.15,2.31-1.75-.89-.36-1.79-1.08-2.64-1-2.49.18-5,.66-7.51.72C80.35,51.79,84.41,50.74,89.19,50.27Z"/><path class="cls-3" d="M44.09,99.56c.77-2.35,2-3.51,3.9-4,4.34-1,8.68-2,13-3.07S69.68,90.18,74,89A4.51,4.51,0,0,1,76,88.81a11.43,11.43,0,0,1,2.21,1c-.59.78-1.05,2-1.8,2.25-4.22,1.15-8.51,2-12.77,3-5.76,1.38-11.51,2.81-17.26,4.2C45.82,99.39,45.26,99.41,44.09,99.56Z"/><path class="cls-3" d="M349.65,90.38a15.69,15.69,0,0,1-2.67-.2c-8.62-2.08-17.24-4.19-25.84-6.39-.55-.14-.9-1.09-1.35-1.66.62-.37,1.31-1.13,1.85-1,4.21.71,8.39,1.55,12.56,2.42s8.22,1.55,12.2,2.75c1.47.44,2.56,2.11,3.83,3.22C350,89.78,349.84,90.08,349.65,90.38Z"/><path class="cls-3" d="M309.05,337.45l-26.46-25.8c.49-.16.83-.37.93-.29,5.79,4.58,11.56,9.2,17.35,13.8,2.5,2,5,4,7.55,5.89C311.8,333.55,311.86,333.77,309.05,337.45Z"/><path class="cls-3" d="M48.9,90.57a29.5,29.5,0,0,1,5-2.39c7.4-2,14.84-3.77,22.29-5.54.53-.12,1.24.49,1.87.76-.4.8-.64,2.12-1.24,2.31-2.53.84-5.16,1.34-7.76,2C63,89.09,57,90.52,50.9,91.9a4.85,4.85,0,0,1-1.7-.32Z"/><path class="cls-3" d="M319.2,74.16c3.3.71,6.59,1.43,9.89,2.12,1.45.3,2.93.46,4.38.78a55.89,55.89,0,0,1,8.3,2c1.12.44,1.73,2.21,2.86,3.78l-9-1.93c-2.69-.58-5.39-1.15-8.08-1.75-2.51-.55-5.05-1-7.5-1.79-.7-.23-1.09-1.42-1.63-2.16Z"/><path class="cls-3" d="M79.79,76.9c-.86,1-1.29,2.12-2,2.27-7.48,1.73-15,3.31-22.8,5-.31-3,2.37-3.62,3.8-4,6.31-1.5,12.75-2.5,19.14-3.67A9,9,0,0,1,79.79,76.9Z"/><path class="cls-3" d="M338.75,75.28c-3.33-.75-5.83-1.42-8.37-1.88-3.22-.59-6.46-1-9.69-1.5-2.1-.32-3.34-1.55-4.43-4.06,3.25.35,5.92.52,8.55.93s5.42,1.2,8.15,1.59S337.59,71.79,338.75,75.28Z"/><path class="cls-3" d="M333.77,67.85c-3.56-.66-6.41-1.18-9.26-1.74-3.43-.68-6.89-1.29-10.27-2.17-1.08-.29-2-1.36-2.94-2.07l.53-1.18c3.5.67,7,1.36,10.51,2a25.64,25.64,0,0,0,5.53.76C330.77,63.33,332.12,65,333.77,67.85Z"/><path class="cls-3" d="M81.37,69.45c-1.12,4.53-4.7,3.61-7.1,4.43-3.74,1.3-7.78,1.74-11.71,2.49a13.15,13.15,0,0,1-2.35,0l-.57-.89c1-.76,1.86-2,3-2.22C68.72,71.9,74.9,70.75,81.37,69.45Z"/><path class="cls-3" d="M163.5,274.17c2.44-2,4.86-4,7.32-6,3.42-2.73,6.85-5.46,10.34-8.1a6.09,6.09,0,0,1,2.17-.58c0,.82.35,2-.06,2.4a43,43,0,0,1-6.33,5.2c-4.23,2.69-8.64,5.08-13,7.59Z"/><path class="cls-3" d="M312.81,72.57a65.79,65.79,0,0,1,.1,24.11l-.88,0V72.64Z"/><path class="cls-3" d="M64.91,69.63c1.24-2.88,3.09-3.64,5.47-4,3.28-.46,6.48-1.42,9.75-2,.71-.12,1.58.63,2.37,1-.63.57-1.19,1.48-1.92,1.65-3.61.82-7.27,1.43-10.9,2.16C68.2,68.78,66.73,69.18,64.91,69.63Z"/><path class="cls-3" d="M327.37,60.64c-1.44-.37-2.85-.86-4.31-1.09-2.68-.41-5.39-.58-8.06-1a8.24,8.24,0,0,1-3-1.27,1.82,1.82,0,0,1-.48-1.69,1.76,1.76,0,0,1,1.53-.71c4,.63,8.08,1.22,12,2.2,1.13.28,1.95,1.78,2.91,2.73Z"/><path class="cls-3" d="M228.73,270.34c-4.21-2.4-8.46-4.72-12.57-7.28-.54-.34-.35-1.85-.5-2.82a6.6,6.6,0,0,1,2.21.6c3.36,2.38,6.66,4.85,9.94,7.33a10.41,10.41,0,0,1,1.42,1.6Z"/><path class="cls-3" d="M321.75,53.62c-3.65-2.28-9.27.69-12.38-5.17C314.21,49.64,318.76,49.4,321.75,53.62Z"/><path class="cls-4" d="M196.41,288.51c1.74,0,3.13.92,3.15,3.28a3.56,3.56,0,0,1-4,3.71,3.36,3.36,0,0,1-3.57-3.73C192,289.62,193.44,288.45,196.41,288.51Z"/><path class="cls-4" d="M200.35,297.82c3.69-5,3.76-5,1.06-11.13a5.13,5.13,0,0,1,3.68,4.25C205.42,294.05,203.82,296.51,200.35,297.82Z"/><path class="cls-4" d="M190,296.94c-2.67-1-2.72-3.11-2.74-5.16s.33-4.13,2.83-5.1C188.37,290.06,187.52,293.4,190,296.94Z"/></svg>